<svg id="_1" data-name="1" xmlns="http://www.w3.org/2000/svg" xmlns:xlink="http://www.w3.org/1999/xlink" width="295" height="187.816" viewBox="0 0 295 187.816">
  <defs>
    <clipPath id="clip-path">
      <rect id="Rectangle_44655" data-name="Rectangle 44655" width="295" height="187.816" fill="none"/>
    </clipPath>
    <clipPath id="clip-path-6">
      <rect id="Rectangle_44614" data-name="Rectangle 44614" width="68.077" height="46.418" fill="none"/>
    </clipPath>
    <clipPath id="clip-path-7">
      <rect id="Rectangle_44643" data-name="Rectangle 44643" width="23.882" height="17.171" fill="none"/>
    </clipPath>
    <clipPath id="clip-path-8">
      <rect id="Rectangle_44644" data-name="Rectangle 44644" width="3.207" height="17.171" fill="none"/>
    </clipPath>
    <clipPath id="clip-path-9">
      <rect id="Rectangle_44645" data-name="Rectangle 44645" width="41.82" height="41.843" fill="none"/>
    </clipPath>
    <clipPath id="clip-path-10">
      <rect id="Rectangle_44646" data-name="Rectangle 44646" width="32.742" height="29.396" fill="none"/>
    </clipPath>
    <clipPath id="clip-path-11">
      <rect id="Rectangle_44647" data-name="Rectangle 44647" width="28.49" height="25.13" fill="none"/>
    </clipPath>
    <clipPath id="clip-path-13">
      <rect id="Rectangle_44649" data-name="Rectangle 44649" width="90.33" height="66.529" fill="none"/>
    </clipPath>
    <clipPath id="clip-path-15">
      <rect id="Rectangle_44651" data-name="Rectangle 44651" width="39.372" height="39.372" fill="none"/>
    </clipPath>
    <clipPath id="clip-path-16">
      <rect id="Rectangle_44652" data-name="Rectangle 44652" width="36.401" height="29.13" fill="none"/>
    </clipPath>
    <clipPath id="clip-path-17">
      <rect id="Rectangle_44653" data-name="Rectangle 44653" width="39.338" height="35.223" fill="none"/>
    </clipPath>
  </defs>
  <g id="Group_146428" data-name="Group 146428" clip-path="url(#clip-path)">
    <g id="Group_146387" data-name="Group 146387">
      <g id="Group_146386" data-name="Group 146386" clip-path="url(#clip-path)">
        <path id="Path_202305" data-name="Path 202305" d="M6.754,161.669a9.714,9.714,0,0,1,2.367-1.029l.487-2.343,3.959-.07.57,2.325a9.69,9.69,0,0,1,2.4.945l2-1.311,2.849,2.75-1.24,2.045a9.7,9.7,0,0,1,1.029,2.368l2.343.487.07,3.959-2.325.57a9.71,9.71,0,0,1-.945,2.4l1.311,2-2.75,2.849-2.045-1.24a9.72,9.72,0,0,1-2.368,1.029l-.487,2.343-3.959.069-.57-2.324a9.711,9.711,0,0,1-2.4-.945l-2,1.312L2.2,177.11l1.24-2.045A9.678,9.678,0,0,1,2.412,172.7l-2.343-.487L0,168.25l2.324-.57a9.718,9.718,0,0,1,.945-2.4l-1.311-2,2.75-2.849Zm2.11,5.274a4.247,4.247,0,1,0,6.006-.105,4.248,4.248,0,0,0-6.006.105" transform="translate(0 -90.152)" fill="#ebebeb"/>
        <path id="Path_202306" data-name="Path 202306" d="M20.306,28.5a9.714,9.714,0,0,1,2.367-1.029l.487-2.344,3.959-.069.57,2.325a9.689,9.689,0,0,1,2.4.945l2-1.311,2.849,2.75L33.7,31.809a9.705,9.705,0,0,1,1.029,2.368l2.343.487.07,3.959-2.325.57a9.709,9.709,0,0,1-.945,2.4l1.311,2-2.75,2.849L30.389,45.2a9.72,9.72,0,0,1-2.368,1.029l-.487,2.343-3.959.069L23,46.322a9.728,9.728,0,0,1-2.4-.945l-2,1.311-2.849-2.75,1.24-2.045a9.693,9.693,0,0,1-1.029-2.368l-2.343-.488-.069-3.959,2.324-.57a9.718,9.718,0,0,1,.945-2.4l-1.311-2,2.75-2.849Zm2.11,5.274a4.247,4.247,0,1,0,6.006-.105,4.248,4.248,0,0,0-6.006.105" transform="translate(-7.721 -14.276)" fill="#ebebeb"/>
        <path id="Path_202307" data-name="Path 202307" d="M219.237,79.2a11.7,11.7,0,0,1,2.858-1.242l.589-2.829,4.78-.084.688,2.806a11.688,11.688,0,0,1,2.9,1.141l2.416-1.584,3.439,3.321-1.5,2.47a11.689,11.689,0,0,1,1.242,2.859l2.829.589.084,4.78-2.806.688a11.71,11.71,0,0,1-1.141,2.9l1.583,2.416-3.32,3.439-2.47-1.5a11.724,11.724,0,0,1-2.859,1.242l-.589,2.829-4.78.084-.688-2.806a11.735,11.735,0,0,1-2.9-1.141l-2.415,1.583-3.439-3.321,1.5-2.47A11.7,11.7,0,0,1,214,92.511l-2.829-.589-.084-4.78,2.806-.688a11.7,11.7,0,0,1,1.141-2.9l-1.583-2.416,3.32-3.439Zm2.548,6.367a5.128,5.128,0,1,0,7.251-.127,5.128,5.128,0,0,0-7.251.127" transform="translate(-120.267 -42.756)" fill="#ebebeb"/>
        <path id="Path_202308" data-name="Path 202308" d="M74.217,10.166a4.911,4.911,0,0,1,1.2-.521l.247-1.184,2-.035L77.949,9.6a4.891,4.891,0,0,1,1.215.478l1.011-.663,1.44,1.39-.627,1.034a4.893,4.893,0,0,1,.52,1.2l1.184.247.035,2-1.175.288a4.913,4.913,0,0,1-.478,1.215l.663,1.011-1.39,1.44-1.034-.627a4.893,4.893,0,0,1-1.2.52l-.247,1.184-2,.035-.288-1.175a4.9,4.9,0,0,1-1.214-.478l-1.011.663-1.44-1.39.627-1.034a4.893,4.893,0,0,1-.52-1.2l-1.184-.247-.035-2,1.175-.288a4.91,4.91,0,0,1,.478-1.214l-.663-1.011,1.39-1.44Zm1.067,2.665a2.147,2.147,0,1,0,3.036-.053,2.148,2.148,0,0,0-3.036.053" transform="translate(-40.341 -4.801)" fill="#ebebeb"/>
        <path id="Path_202309" data-name="Path 202309" d="M568.629,44.679a.748.748,0,1,1-.749-.749.749.749,0,0,1,.749.749" transform="translate(-323.13 -25.03)" fill="#e0e0e0" fill-rule="evenodd"/>
        <path id="Path_202310" data-name="Path 202310" d="M613.647,15.878a.748.748,0,1,1-.749-.749.749.749,0,0,1,.749.749" transform="translate(-348.779 -8.62)" fill="#e0e0e0" fill-rule="evenodd"/>
        <path id="Path_202311" data-name="Path 202311" d="M435.894,184.388s-.007-.2-.011-.6-.006-1-.011-1.777c0-1.566-.011-3.871-.02-6.843-.008-5.953-.02-14.574-.035-25.263-.009-21.387-.021-51.047-.035-84.162v-.027l.012-.024,3.06-6.075-.012.051v-.422c0-4.658,0-9.257,0-13.718l.111.111-98.21-.061.051-.05c-.011,4.545-.019,8.033-.024,10.389-.006,1.174-.01,2.065-.013,2.667s-.014.9-.014.9-.009-.3-.013-.9-.007-1.493-.013-2.667c-.006-2.356-.014-5.845-.024-10.389v-.05h.05l98.21-.061h.111v.111c0,4.461,0,9.06,0,13.718v.449l-.012.024-3.061,6.075.012-.05c-.014,33.115-.026,62.775-.035,84.162-.015,10.69-.027,19.31-.035,25.263-.009,2.972-.016,5.277-.02,6.843,0,.779-.009,1.373-.011,1.777s-.011.6-.011.6" transform="translate(-194.114 -25.873)" fill="#e0e0e0"/>
        <path id="Path_202312" data-name="Path 202312" d="M454.067,75.412s-.012-.218-.022-.643-.022-1.06-.04-1.884c-.029-1.658-.072-4.09-.127-7.207-.1-6.244-.242-15.228-.417-26.208v-.017l.006-.015,3.446-9.171-.006.034c0-6.421-.007-13.534-.011-21.049L457,9.36l-27.543,0-45.587-.013h-.062l-.026-.056q-1.394-2.948-2.708-5.727l.084.054-30.805-.039-8.587-.026-2.257-.014c-.51,0-.774-.015-.774-.015s.263-.009.774-.014l2.257-.014,8.587-.026,30.805-.04h.059l.025.053,2.716,5.723-.089-.056,45.587-.014L457,9.145h.107v.107c0,7.515-.008,14.627-.011,21.049v.018l-.006.016L453.631,39.5l.006-.032c.142,10.981.259,19.964.34,26.209.034,3.117.062,5.549.08,7.207.006.823.011,1.454.015,1.884s0,.644,0,.644" transform="translate(-192.999 -1.957)" fill="#e0e0e0"/>
        <path id="Path_202313" data-name="Path 202313" d="M387.561,94.1s-.014-.242-.028-.713-.032-1.174-.057-2.089c-.045-1.839-.111-4.541-.195-8.01-.158-6.947-.385-16.964-.665-29.261v-.018l.007-.017,4.046-9.476-.007.034c.126-5.178.262-10.779.406-16.648l.1.1-47.646.01-77.362-.03.059-.024-6.29,6.277-.022.022h-.031l-20.922-.182-5.593-.059L231.92,34c-.324-.006-.49-.014-.49-.014s.165-.006.49-.007h1.444l5.593.02,20.923.114-.052.021,6.277-6.29.024-.024h.034l77.362-.03,47.646.01h.1l0,.1c-.15,5.868-.292,11.469-.424,16.647v.018l-.007.016-4.061,9.47.007-.035c.248,12.3.45,22.315.59,29.263.065,3.469.115,6.171.149,8.011.014.915.025,1.615.033,2.09s0,.713,0,.713" transform="translate(-131.86 -15.836)" fill="#e0e0e0"/>
        <path id="Path_202314" data-name="Path 202314" d="M232.427,41.031a.748.748,0,1,1-.749-.749.749.749,0,0,1,.749.749" transform="translate(-131.575 -22.951)" fill="#e0e0e0" fill-rule="evenodd"/>
        <path id="Path_202315" data-name="Path 202315" d="M336.755,2.66a.748.748,0,1,1-.749-.749.749.749,0,0,1,.749.749" transform="translate(-191.017 -1.089)" fill="#e0e0e0" fill-rule="evenodd"/>
        <path id="Path_202316" data-name="Path 202316" d="M606.822,280.316h-15.64c4.58-15.567,5.621-44.765,4.853-64.077h5.753c-.3,19.264,1.089,48.293,5.033,64.077" transform="translate(-336.832 -123.204)" fill="#ebebeb"/>
        <path id="Path_202317" data-name="Path 202317" d="M591.156,364.885a12.46,12.46,0,0,0-10.709-4.042c.373-3.451.717-7.1-.64-10.259s-5.092-5.405-7.933-3.733a13.377,13.377,0,0,0-4.48-13.028,11.364,11.364,0,0,0-12.945-.669,13.213,13.213,0,0,0-5.63,12.505,11.483,11.483,0,0,0-10.288,5.1,13.373,13.373,0,0,0-1.256,12.069c-5.856-.312-11.439,7.348-11.323,13.628l68.566-.084a14.252,14.252,0,0,0-3.363-11.488" transform="translate(-299.666 -188.845)" fill="#ebebeb"/>
        <path id="Path_202318" data-name="Path 202318" d="M590.135,149.578l13.2,4.549c2.914,2.992.958,7.211-1.505,8.835a4.7,4.7,0,0,1-1.25,8.869,4.208,4.208,0,1,1-7.422,3.851c-.557-1.456-.293-3.177-1.079-4.524-.737-1.263-2.2-1.869-3.387-2.72a10.324,10.324,0,0,1-3.866-9.625,15.085,15.085,0,0,1,5.307-9.236" transform="translate(-333.162 -85.224)" fill="#ebebeb"/>
        <path id="Path_202319" data-name="Path 202319" d="M608.229,153.939a10.561,10.561,0,0,1,.716,4.092.948.948,0,0,1-1.725.513l-.014-.02a39.166,39.166,0,0,1-.168,5.123,1.168,1.168,0,0,1-2.126.55,17.876,17.876,0,0,1-2.994-12.209Z" transform="translate(-342.873 -86.597)" fill="#e0e0e0"/>
        <path id="Path_202320" data-name="Path 202320" d="M577.547,119.531l-.072.057a17.585,17.585,0,0,0-6.563,13.72l0,3.344,6.639-4.616Z" transform="translate(-325.283 -68.104)" fill="#e0e0e0"/>
        <path id="Path_202321" data-name="Path 202321" d="M630.417,119.512l.071.056a17.345,17.345,0,0,1,6.486,13.528v3.3l-6.553-4.548Z" transform="translate(-359.187 -68.093)" fill="#e0e0e0"/>
        <path id="Path_202322" data-name="Path 202322" d="M595.8,43.418c1.5,0,4.263,3.88,6.83,10.361a38.639,38.639,0,0,1,2.663,11.958l.012,27.9-7.353,0-4.261,0-7.352,0-.012-25.322a38.789,38.789,0,0,1,.693-7.374,46.343,46.343,0,0,1,1.958-7.168c2.405-6.514,5.32-10.367,6.821-10.368" transform="translate(-334.065 -24.738)" fill="#f5f5f5"/>
        <line id="Line_394" data-name="Line 394" x1="18.775" y1="0.102" transform="translate(252.462 64.38)" fill="#f5f5f5"/>
        <path id="Path_202323" data-name="Path 202323" d="M586.793,149.611c0,.028,4.2.072,9.387.1s9.388.029,9.388,0-4.2-.073-9.388-.1-9.387-.028-9.387,0" transform="translate(-334.332 -85.231)" fill="#e0e0e0"/>
        <line id="Line_395" data-name="Line 395" x1="18.775" y1="0.102" transform="translate(252.546 65.226)" fill="#f5f5f5"/>
        <path id="Path_202324" data-name="Path 202324" d="M586.989,151.577c0,.028,4.2.072,9.387.1s9.388.028,9.388,0-4.2-.073-9.388-.1-9.387-.028-9.387,0" transform="translate(-334.443 -86.351)" fill="#e0e0e0"/>
        <line id="Line_396" data-name="Line 396" x1="18.776" y1="0.102" transform="translate(252.531 66.118)" fill="#f5f5f5"/>
        <path id="Path_202325" data-name="Path 202325" d="M586.955,153.651c0,.028,4.2.072,9.387.1s9.388.029,9.389,0-4.2-.072-9.388-.1-9.387-.028-9.387,0" transform="translate(-334.424 -87.533)" fill="#e0e0e0"/>
        <line id="Line_397" data-name="Line 397" x1="18.775" y1="0.102" transform="translate(252.517 67.011)" fill="#f5f5f5"/>
        <path id="Path_202326" data-name="Path 202326" d="M586.922,155.725c0,.028,4.2.072,9.387.1s9.388.029,9.388,0-4.2-.072-9.388-.1-9.387-.028-9.387,0" transform="translate(-334.405 -88.714)" fill="#e0e0e0"/>
        <line id="Line_398" data-name="Line 398" x1="18.775" y1="0.102" transform="translate(252.502 67.903)" fill="#f5f5f5"/>
        <path id="Path_202327" data-name="Path 202327" d="M586.888,157.8c0,.028,4.2.072,9.387.1s9.388.029,9.388,0-4.2-.072-9.388-.1-9.387-.028-9.387,0" transform="translate(-334.386 -89.897)" fill="#e0e0e0"/>
        <path id="Path_202328" data-name="Path 202328" d="M608.194,119.57a.62.62,0,0,0-.021.13c-.014.088-.014.214-.022.379-.013.328-.021.8-.025,1.391-.009,1.175,0,2.8.016,4.588s.044,3.414.069,4.587c.015.578.026,1.05.035,1.39.006.156.011.281.015.378a.675.675,0,0,0,.012.132.665.665,0,0,0,.008-.132c0-.1,0-.222,0-.378,0-.34,0-.812,0-1.39-.01-1.184-.025-2.8-.04-4.588s-.034-3.4-.046-4.586c0-.578-.005-1.05-.007-1.39,0-.163,0-.293,0-.377a.7.7,0,0,0,0-.133" transform="translate(-346.485 -68.126)" fill="#e0e0e0"/>
        <path id="Path_202329" data-name="Path 202329" d="M586.334,119.469c0,.028,4.21.051,9.4.052s9.4-.019,9.4-.047-4.209-.051-9.4-.052-9.4.019-9.4.047" transform="translate(-334.07 -68.042)" fill="#e0e0e0"/>
        <path id="Path_202330" data-name="Path 202330" d="M603.508,140.788s-.031-.043-.116-.083a.6.6,0,0,0-.389-.028.57.57,0,0,0-.419.395.611.611,0,0,0,.907.708.57.57,0,0,0,.281-.5.6.6,0,0,0-.122-.37c-.059-.073-.105-.1-.108-.092s.031.04.076.114a.612.612,0,0,1,.084.346.5.5,0,0,1-.256.425.524.524,0,0,1-.774-.6.5.5,0,0,1,.35-.352.612.612,0,0,1,.356,0c.083.025.125.053.13.046" transform="translate(-343.315 -80.141)" fill="#e0e0e0"/>
        <path id="Path_202331" data-name="Path 202331" d="M603.271,128.253s-.031-.043-.116-.083a.6.6,0,0,0-.388-.028.569.569,0,0,0-.419.395.611.611,0,0,0,.908.708.571.571,0,0,0,.281-.5.6.6,0,0,0-.122-.37c-.059-.073-.105-.1-.108-.092s.031.04.076.114a.609.609,0,0,1,.084.346.5.5,0,0,1-.256.425.523.523,0,0,1-.773-.6.5.5,0,0,1,.35-.352.618.618,0,0,1,.356,0c.083.025.124.054.129.046" transform="translate(-343.179 -72.999)" fill="#e0e0e0"/>
        <path id="Path_202332" data-name="Path 202332" d="M605.113,186.452a1.015,1.015,0,1,1-.065-.038" transform="translate(-343.887 -106.148)" fill="#e0e0e0"/>
        <path id="Path_202333" data-name="Path 202333" d="M597.23,77.864a5.121,5.121,0,1,0,7.1-1.433,5.121,5.121,0,0,0-7.1,1.433" transform="translate(-339.791 -43.06)" fill="#fff"/>
        <path id="Path_202334" data-name="Path 202334" d="M597.151,77.766a9.82,9.82,0,0,1,.854-.921,5.1,5.1,0,0,1,3.087-1.272,5.026,5.026,0,0,1,4.355,2.045,5.026,5.026,0,0,1,.97,2.745,4.993,4.993,0,0,1-3.277,4.935,5.032,5.032,0,0,1-2.907.172,5.069,5.069,0,0,1-3.6-6.56,9.875,9.875,0,0,1,.517-1.144,1.778,1.778,0,0,0-.186.27,2.317,2.317,0,0,0-.195.347,3.547,3.547,0,0,0-.218.5,5.161,5.161,0,0,0,1.231,5.45,5.215,5.215,0,0,0,2.4,1.338,5.22,5.22,0,0,0,3.03-.166,5.193,5.193,0,0,0,3.42-5.15,5.214,5.214,0,0,0-1.023-2.857,5.211,5.211,0,0,0-2.164-1.7,5.16,5.16,0,0,0-5.5.981,3.555,3.555,0,0,0-.375.394,2.3,2.3,0,0,0-.244.314,1.779,1.779,0,0,0-.176.276" transform="translate(-339.712 -42.961)" fill="#e0e0e0"/>
        <path id="Path_202335" data-name="Path 202335" d="M599.308,43.418c1.5,0,4.263,3.88,6.83,10.361l-13.651.007c2.405-6.514,5.32-10.367,6.821-10.368" transform="translate(-337.576 -24.738)" fill="#e0e0e0"/>
        <path id="Path_202336" data-name="Path 202336" d="M595.667,43.418s-.089.007-.264.03a2.388,2.388,0,0,0-.7.337,9.175,9.175,0,0,0-2.034,2.209A37.654,37.654,0,0,0,588,56.1a46.064,46.064,0,0,0-1.623,7.617,39.478,39.478,0,0,0-.268,4.36q0,2.253,0,4.643c0,6.368,0,13.426,0,20.925v.11h.11l9.482,0,9.485-.006h.11v-.109c-.008-7.5-.016-14.56-.022-20.93q0-2.388-.007-4.644,0-1.126,0-2.217c-.017-.734-.09-1.446-.171-2.145a41.134,41.134,0,0,0-1.673-7.6A49.85,49.85,0,0,0,601,50.193a31.856,31.856,0,0,0-2.363-4.163,9.4,9.4,0,0,0-2-2.237,4.054,4.054,0,0,0-.392-.231,2.592,2.592,0,0,0-.308-.114c-.176-.023-.264-.03-.264-.03s.089.021.259.05a2.584,2.584,0,0,1,.3.12,4.4,4.4,0,0,1,.381.237,9.633,9.633,0,0,1,1.961,2.249,32.454,32.454,0,0,1,2.325,4.168,50.446,50.446,0,0,1,2.374,5.9,41.27,41.27,0,0,1,1.64,7.58c.079.695.149,1.409.164,2.128q0,1.091,0,2.217,0,2.253,0,4.643c0,6.369,0,13.427,0,20.928l.11-.11-9.484,0-9.482.006.11.111c-.008-7.5-.016-14.557-.022-20.926q0-2.387-.006-4.641a39.549,39.549,0,0,1,.256-4.342,46.227,46.227,0,0,1,1.591-7.594,38.2,38.2,0,0,1,4.595-10.108,9.358,9.358,0,0,1,1.993-2.22,2.463,2.463,0,0,1,.685-.351c.171-.029.259-.05.259-.05" transform="translate(-333.934 -24.738)" fill="#e0e0e0"/>
        <path id="Path_202337" data-name="Path 202337" d="M601.772,86.742a4.267,4.267,0,0,0,.774-.685c.453-.448,1.055-1.091,1.7-1.813l1.653-1.853a5.4,5.4,0,0,0,.66-.793,4.278,4.278,0,0,0-.774.685c-.453.448-1.055,1.091-1.7,1.812l-1.653,1.853a5.415,5.415,0,0,0-.66.793" transform="translate(-342.865 -46.491)" fill="#e0e0e0"/>
        <path id="Path_202338" data-name="Path 202338" d="M605.272,89.264a11.5,11.5,0,0,0,1.646-1.547,11.551,11.551,0,0,0,1.486-1.7,22.973,22.973,0,0,0-3.132,3.249" transform="translate(-344.859 -49.007)" fill="#e0e0e0"/>
      </g>
    </g>
    <g id="Group_146389" data-name="Group 146389">
      <g id="Group_146388" data-name="Group 146388" clip-path="url(#clip-path)">
        <path id="Path_202339" data-name="Path 202339" d="M608.105,229.077H592.363a4.246,4.246,0,0,1-4.246-4.246V209.088a4.246,4.246,0,0,1,4.246-4.246h15.742a4.246,4.246,0,0,1,4.246,4.246V224.83a4.247,4.247,0,0,1-4.246,4.246" transform="translate(-335.086 -116.711)" fill="#263238"/>
        <path id="Path_202340" data-name="Path 202340" d="M599.842,229.077H584.1a4.247,4.247,0,0,1-4.246-4.246V209.088a4.246,4.246,0,0,1,4.246-4.246h15.742a4.246,4.246,0,0,1,4.247,4.246V224.83a4.247,4.247,0,0,1-4.247,4.246" transform="translate(-330.378 -116.711)" fill="#455a64"/>
        <path id="Path_202341" data-name="Path 202341" d="M590.787,224.984l2.305-2.305,4.446,3.952,7.425-7.453,2.14,2.305-9.894,9.593Z" transform="translate(-336.607 -124.879)" fill="#fff"/>
      </g>
    </g>
    <rect id="Rectangle_44500" data-name="Rectangle 44500" width="44.979" height="107.861" transform="translate(24.975 79.871)" fill="#e0e0e0"/>
    <rect id="Rectangle_44501" data-name="Rectangle 44501" width="35.558" height="107.861" transform="translate(11.907 79.871)" fill="#f5f5f5"/>
    <g id="Group_146391" data-name="Group 146391">
      <g id="Group_146390" data-name="Group 146390" clip-path="url(#clip-path)">
        <path id="Path_202342" data-name="Path 202342" d="M110.3,293.267c-.062,0-.112-24.156-.112-53.947s.05-53.952.112-53.952.112,24.151.112,53.952-.05,53.947-.112,53.947" transform="translate(-62.78 -105.615)" fill="#263238"/>
        <rect id="Rectangle_44502" data-name="Rectangle 44502" width="10.772" height="1.109" transform="translate(53.952 92.261)" fill="#263238"/>
        <rect id="Rectangle_44503" data-name="Rectangle 44503" width="10.772" height="1.109" transform="translate(53.952 95.439)" fill="#263238"/>
        <rect id="Rectangle_44504" data-name="Rectangle 44504" width="10.772" height="1.11" transform="translate(53.952 98.616)" fill="#263238"/>
        <rect id="Rectangle_44505" data-name="Rectangle 44505" width="28.448" height="99.848" transform="translate(15.582 84.459)" fill="#e0e0e0"/>
        <rect id="Rectangle_44506" data-name="Rectangle 44506" width="23.567" height="3.569" transform="translate(17.625 88.135)" fill="#ebebeb"/>
        <rect id="Rectangle_44507" data-name="Rectangle 44507" width="3.569" height="3.569" transform="translate(17.625 88.135)" fill="#82cede"/>
        <rect id="Rectangle_44508" data-name="Rectangle 44508" width="7.76" height="3.569" transform="translate(34.164 88.135)" fill="#f5f5f5"/>
        <rect id="Rectangle_44509" data-name="Rectangle 44509" width="23.567" height="3.569" transform="translate(17.625 94.492)" fill="#ebebeb"/>
        <rect id="Rectangle_44510" data-name="Rectangle 44510" width="3.569" height="3.569" transform="translate(17.625 94.492)" fill="#fff"/>
        <rect id="Rectangle_44511" data-name="Rectangle 44511" width="7.76" height="3.569" transform="translate(34.164 94.492)" fill="#f5f5f5"/>
        <rect id="Rectangle_44512" data-name="Rectangle 44512" width="23.567" height="3.569" transform="translate(17.625 100.85)" fill="#ebebeb"/>
        <rect id="Rectangle_44513" data-name="Rectangle 44513" width="3.569" height="3.569" transform="translate(17.625 100.85)" fill="#82cede"/>
        <rect id="Rectangle_44514" data-name="Rectangle 44514" width="7.76" height="3.569" transform="translate(34.164 100.85)" fill="#f5f5f5"/>
        <rect id="Rectangle_44515" data-name="Rectangle 44515" width="23.567" height="3.569" transform="translate(17.625 107.207)" fill="#ebebeb"/>
        <rect id="Rectangle_44516" data-name="Rectangle 44516" width="3.569" height="3.569" transform="translate(17.625 107.207)" fill="#fff"/>
        <rect id="Rectangle_44517" data-name="Rectangle 44517" width="7.76" height="3.569" transform="translate(34.164 107.207)" fill="#f5f5f5"/>
        <rect id="Rectangle_44518" data-name="Rectangle 44518" width="23.567" height="3.569" transform="translate(17.625 113.565)" fill="#ebebeb"/>
        <rect id="Rectangle_44519" data-name="Rectangle 44519" width="3.569" height="3.569" transform="translate(17.625 113.565)" fill="#82cede"/>
        <rect id="Rectangle_44520" data-name="Rectangle 44520" width="7.76" height="3.569" transform="translate(34.164 113.565)" fill="#f5f5f5"/>
        <rect id="Rectangle_44521" data-name="Rectangle 44521" width="23.567" height="3.569" transform="translate(17.625 119.922)" fill="#ebebeb"/>
        <rect id="Rectangle_44522" data-name="Rectangle 44522" width="3.569" height="3.569" transform="translate(17.625 119.922)" fill="#82cede"/>
        <rect id="Rectangle_44523" data-name="Rectangle 44523" width="7.76" height="3.569" transform="translate(34.164 119.922)" fill="#f5f5f5"/>
        <rect id="Rectangle_44524" data-name="Rectangle 44524" width="23.567" height="3.569" transform="translate(17.625 126.28)" fill="#ebebeb"/>
        <rect id="Rectangle_44525" data-name="Rectangle 44525" width="3.569" height="3.569" transform="translate(17.625 126.28)" fill="#fff"/>
        <rect id="Rectangle_44526" data-name="Rectangle 44526" width="7.76" height="3.569" transform="translate(34.164 126.28)" fill="#f5f5f5"/>
        <rect id="Rectangle_44527" data-name="Rectangle 44527" width="23.567" height="3.569" transform="translate(17.625 132.638)" fill="#ebebeb"/>
        <rect id="Rectangle_44528" data-name="Rectangle 44528" width="3.569" height="3.569" transform="translate(17.625 132.638)" fill="#fff"/>
        <rect id="Rectangle_44529" data-name="Rectangle 44529" width="7.76" height="3.569" transform="translate(34.164 132.638)" fill="#f5f5f5"/>
        <rect id="Rectangle_44530" data-name="Rectangle 44530" width="23.567" height="3.569" transform="translate(17.625 138.995)" fill="#ebebeb"/>
        <rect id="Rectangle_44531" data-name="Rectangle 44531" width="3.569" height="3.569" transform="translate(17.625 138.995)" fill="#fff"/>
        <rect id="Rectangle_44532" data-name="Rectangle 44532" width="7.76" height="3.569" transform="translate(34.164 138.995)" fill="#f5f5f5"/>
        <rect id="Rectangle_44533" data-name="Rectangle 44533" width="23.567" height="3.569" transform="translate(17.625 145.353)" fill="#ebebeb"/>
        <rect id="Rectangle_44534" data-name="Rectangle 44534" width="3.569" height="3.569" transform="translate(17.625 145.353)" fill="#82cede"/>
        <rect id="Rectangle_44535" data-name="Rectangle 44535" width="7.76" height="3.569" transform="translate(34.164 145.353)" fill="#f5f5f5"/>
        <rect id="Rectangle_44536" data-name="Rectangle 44536" width="23.567" height="3.569" transform="translate(17.625 151.711)" fill="#ebebeb"/>
        <rect id="Rectangle_44537" data-name="Rectangle 44537" width="3.569" height="3.569" transform="translate(17.625 151.711)" fill="#fff"/>
        <rect id="Rectangle_44538" data-name="Rectangle 44538" width="7.76" height="3.569" transform="translate(34.164 151.711)" fill="#f5f5f5"/>
        <rect id="Rectangle_44539" data-name="Rectangle 44539" width="23.567" height="3.569" transform="translate(17.625 158.068)" fill="#ebebeb"/>
        <rect id="Rectangle_44540" data-name="Rectangle 44540" width="3.569" height="3.569" transform="translate(17.625 158.068)" fill="#82cede"/>
        <rect id="Rectangle_44541" data-name="Rectangle 44541" width="7.76" height="3.569" transform="translate(34.164 158.068)" fill="#f5f5f5"/>
        <rect id="Rectangle_44542" data-name="Rectangle 44542" width="23.567" height="3.569" transform="translate(17.625 164.426)" fill="#ebebeb"/>
        <rect id="Rectangle_44543" data-name="Rectangle 44543" width="3.569" height="3.569" transform="translate(17.625 164.426)" fill="#fff"/>
        <rect id="Rectangle_44544" data-name="Rectangle 44544" width="7.76" height="3.569" transform="translate(34.164 164.426)" fill="#f5f5f5"/>
        <rect id="Rectangle_44545" data-name="Rectangle 44545" width="23.567" height="3.569" transform="translate(17.625 170.783)" fill="#ebebeb"/>
        <rect id="Rectangle_44546" data-name="Rectangle 44546" width="3.569" height="3.569" transform="translate(17.625 170.783)" fill="#82cede"/>
        <rect id="Rectangle_44547" data-name="Rectangle 44547" width="7.76" height="3.569" transform="translate(34.164 170.783)" fill="#f5f5f5"/>
        <rect id="Rectangle_44548" data-name="Rectangle 44548" width="23.567" height="3.569" transform="translate(17.625 177.141)" fill="#ebebeb"/>
        <rect id="Rectangle_44549" data-name="Rectangle 44549" width="3.569" height="3.569" transform="translate(17.625 177.141)" fill="#fff"/>
        <rect id="Rectangle_44550" data-name="Rectangle 44550" width="7.76" height="3.569" transform="translate(34.164 177.141)" fill="#f5f5f5"/>
        <path id="Path_202343" data-name="Path 202343" d="M85.575,293.355c0-.96-.043-44.788-.1-107.86l.1.1-58.04.007h-.008l.112-.112c-.01,41.407-.02,79.266-.027,107.86l-.085-.085,58.047.085-58.047.085h-.085v-.085c-.007-28.594-.016-66.453-.027-107.86v-.112h.12l58.04.007h.1v.1c-.021,31.564-.038,58.54-.051,77.628-.034,19.023-.053,29.754-.054,30.232" transform="translate(-15.62 -105.624)" fill="#263238"/>
      </g>
    </g>
    <g id="Group_146411" data-name="Group 146411">
      <g id="Group_146410" data-name="Group 146410" clip-path="url(#clip-path)">
        <path id="Path_202344" data-name="Path 202344" d="M305.392,114.983H150.573a4.833,4.833,0,0,0-4.833,4.832V229.168A4.833,4.833,0,0,0,150.573,234h59.419l-2.881,19.1h43.082L247.788,234h57.6a4.832,4.832,0,0,0,4.832-4.832V119.816a4.832,4.832,0,0,0-4.832-4.833" transform="translate(-83.037 -65.513)" fill="#455a64"/>
        <path id="Path_202345" data-name="Path 202345" d="M334.915,363.662a2.982,2.982,0,0,1-4.2,4.2,1.073,1.073,0,0,1-.259-.259,2.982,2.982,0,0,1,4.2-4.2,1.057,1.057,0,0,1,.259.259" transform="translate(-187.902 -206.674)" fill="#263238"/>
        <path id="Path_202346" data-name="Path 202346" d="M311.648,219.524H155.8V128.858a4.172,4.172,0,0,1,4.172-4.172h147.5a4.172,4.172,0,0,1,4.172,4.172Z" transform="translate(-88.771 -71.041)" fill="#c4daf4"/>
        <path id="Path_202347" data-name="Path 202347" d="M343.284,391.492c0,.053-12.978.1-28.984.1s-28.987-.043-28.987-.1,12.976-.1,28.987-.1,28.984.043,28.984.1" transform="translate(-162.56 -223.002)" fill="#263238"/>
        <rect id="Rectangle_44552" data-name="Rectangle 44552" width="11.36" height="2.397" transform="translate(82.686 61.137)" fill="#455a64"/>
        <rect id="Rectangle_44553" data-name="Rectangle 44553" width="5.68" height="2.397" transform="translate(82.686 71.872)" fill="#82cede"/>
        <rect id="Rectangle_44554" data-name="Rectangle 44554" width="7.998" height="2.397" transform="translate(86.96 77.271)" fill="#455a64"/>
        <rect id="Rectangle_44555" data-name="Rectangle 44555" width="4.659" height="2.397" transform="translate(96.23 77.271)" fill="#455a64"/>
        <rect id="Rectangle_44556" data-name="Rectangle 44556" width="9.584" height="2.397" transform="translate(133.089 77.271)" fill="#455a64"/>
        <rect id="Rectangle_44557" data-name="Rectangle 44557" width="16.191" height="2.397" transform="translate(154.49 82.535)" fill="#455a64"/>
        <rect id="Rectangle_44558" data-name="Rectangle 44558" width="7.775" height="2.397" transform="translate(187.883 77.271)" fill="#455a64"/>
        <rect id="Rectangle_44559" data-name="Rectangle 44559" width="15.633" height="2.397" transform="translate(198.043 77.271)" fill="#455a64"/>
        <rect id="Rectangle_44560" data-name="Rectangle 44560" width="7.998" height="2.397" transform="translate(86.96 82.535)" fill="#455a64"/>
        <rect id="Rectangle_44561" data-name="Rectangle 44561" width="7.998" height="2.397" transform="translate(82.046 87.785)" fill="#82cede"/>
        <rect id="Rectangle_44562" data-name="Rectangle 44562" width="3.737" height="2.397" transform="translate(86.307 93.035)" fill="#455a64"/>
        <rect id="Rectangle_44563" data-name="Rectangle 44563" width="3.737" height="2.397" transform="translate(100.025 104.094)" fill="#455a64"/>
        <rect id="Rectangle_44564" data-name="Rectangle 44564" width="7.3" height="2.397" transform="translate(151.425 124.076)" fill="#455a64"/>
        <rect id="Rectangle_44565" data-name="Rectangle 44565" width="17.885" height="2.397" transform="translate(181.628 124.076)" fill="#455a64"/>
        <rect id="Rectangle_44566" data-name="Rectangle 44566" width="7.3" height="2.397" transform="translate(123.938 118.831)" fill="#e0e0e0"/>
        <rect id="Rectangle_44567" data-name="Rectangle 44567" width="7.3" height="2.397" transform="translate(97.484 114.33)" fill="#455a64"/>
        <rect id="Rectangle_44568" data-name="Rectangle 44568" width="11.511" height="2.397" transform="translate(138.399 124.076)" fill="#455a64"/>
        <rect id="Rectangle_44569" data-name="Rectangle 44569" width="6.064" height="2.397" transform="translate(86.307 98.382)" fill="#455a64"/>
        <rect id="Rectangle_44570" data-name="Rectangle 44570" width="11.248" height="2.397" transform="translate(86.307 104.184)" fill="#455a64"/>
        <rect id="Rectangle_44571" data-name="Rectangle 44571" width="16.457" height="2.397" transform="translate(86.307 108.626)" fill="#455a64"/>
        <rect id="Rectangle_44572" data-name="Rectangle 44572" width="16.457" height="2.397" transform="translate(116.124 108.626)" fill="#455a64"/>
        <rect id="Rectangle_44573" data-name="Rectangle 44573" width="23.107" height="2.397" transform="translate(97.339 118.831)" fill="#455a64"/>
        <rect id="Rectangle_44574" data-name="Rectangle 44574" width="39.083" height="2.397" transform="translate(97.339 124.076)" fill="#455a64"/>
        <rect id="Rectangle_44575" data-name="Rectangle 44575" width="39.083" height="2.397" transform="translate(85.515 129.321)" fill="#455a64"/>
        <rect id="Rectangle_44576" data-name="Rectangle 44576" width="9.873" height="2.397" transform="translate(104.502 108.626)" fill="#455a64"/>
        <rect id="Rectangle_44577" data-name="Rectangle 44577" width="10.187" height="2.397" transform="translate(91.519 93.035)" fill="#455a64"/>
        <rect id="Rectangle_44578" data-name="Rectangle 44578" width="10.187" height="2.397" transform="translate(93.763 98.383)" fill="#455a64"/>
        <rect id="Rectangle_44579" data-name="Rectangle 44579" width="26.974" height="2.397" transform="translate(116.446 98.383)" fill="#455a64"/>
        <rect id="Rectangle_44580" data-name="Rectangle 44580" width="31.155" height="2.397" transform="translate(144.155 98.383)" fill="#455a64"/>
        <rect id="Rectangle_44581" data-name="Rectangle 44581" width="8.431" height="2.397" transform="translate(105.626 98.383)" fill="#455a64"/>
        <rect id="Rectangle_44582" data-name="Rectangle 44582" width="13.355" height="2.397" transform="translate(103.102 93.035)" fill="#455a64"/>
        <rect id="Rectangle_44583" data-name="Rectangle 44583" width="7.434" height="2.397" transform="translate(117.93 93.035)" fill="#e0e0e0"/>
        <rect id="Rectangle_44584" data-name="Rectangle 44584" width="8.338" height="2.397" transform="translate(96.23 82.535)" fill="#455a64"/>
        <rect id="Rectangle_44585" data-name="Rectangle 44585" width="41.169" height="2.397" transform="translate(110.232 82.535)" fill="#455a64"/>
        <rect id="Rectangle_44586" data-name="Rectangle 44586" width="19.466" height="2.397" transform="translate(178.15 98.383)" fill="#455a64"/>
        <rect id="Rectangle_44587" data-name="Rectangle 44587" width="19.466" height="2.397" transform="translate(160.622 124.076)" fill="#455a64"/>
        <rect id="Rectangle_44588" data-name="Rectangle 44588" width="40.554" height="2.397" transform="translate(144.301 77.271)" fill="#455a64"/>
        <rect id="Rectangle_44589" data-name="Rectangle 44589" width="28.221" height="2.397" transform="translate(102.347 77.271)" fill="#455a64"/>
        <rect id="Rectangle_44590" data-name="Rectangle 44590" width="19.001" height="2.397" transform="translate(82.686 66.219)" fill="#455a64"/>
        <rect id="Rectangle_44591" data-name="Rectangle 44591" width="26.017" height="2.397" transform="translate(103.583 66.219)" fill="#455a64"/>
        <rect id="Rectangle_44592" data-name="Rectangle 44592" width="8.364" height="2.397" transform="translate(95.82 61.137)" fill="#e0e0e0"/>
        <rect id="Rectangle_44593" data-name="Rectangle 44593" width="2.321" height="2.397" transform="translate(76.215 61.137)" fill="#455a64"/>
        <rect id="Rectangle_44594" data-name="Rectangle 44594" width="2.321" height="2.397" transform="translate(76.215 66.382)" fill="#455a64"/>
        <rect id="Rectangle_44595" data-name="Rectangle 44595" width="2.321" height="2.397" transform="translate(76.215 71.627)" fill="#455a64"/>
        <rect id="Rectangle_44596" data-name="Rectangle 44596" width="2.321" height="2.397" transform="translate(76.215 76.871)" fill="#455a64"/>
        <rect id="Rectangle_44597" data-name="Rectangle 44597" width="2.321" height="2.397" transform="translate(76.215 82.116)" fill="#455a64"/>
        <rect id="Rectangle_44598" data-name="Rectangle 44598" width="2.321" height="2.397" transform="translate(76.215 87.361)" fill="#455a64"/>
        <rect id="Rectangle_44599" data-name="Rectangle 44599" width="2.321" height="2.397" transform="translate(76.215 92.606)" fill="#455a64"/>
        <rect id="Rectangle_44600" data-name="Rectangle 44600" width="2.321" height="2.397" transform="translate(76.215 97.851)" fill="#455a64"/>
        <rect id="Rectangle_44601" data-name="Rectangle 44601" width="2.321" height="2.397" transform="translate(76.215 103.097)" fill="#455a64"/>
        <rect id="Rectangle_44602" data-name="Rectangle 44602" width="3.737" height="2.397" transform="translate(99.108 140.651)" fill="#e0e0e0"/>
        <rect id="Rectangle_44603" data-name="Rectangle 44603" width="11.248" height="2.397" transform="translate(85.588 140.651)" fill="#82cede"/>
        <rect id="Rectangle_44604" data-name="Rectangle 44604" width="2.321" height="2.397" transform="translate(76.215 140.385)" fill="#455a64"/>
        <rect id="Rectangle_44605" data-name="Rectangle 44605" width="2.321" height="2.397" transform="translate(76.215 108.341)" fill="#455a64"/>
        <rect id="Rectangle_44606" data-name="Rectangle 44606" width="2.321" height="2.397" transform="translate(76.215 113.586)" fill="#455a64"/>
        <rect id="Rectangle_44607" data-name="Rectangle 44607" width="2.321" height="2.397" transform="translate(76.215 118.831)" fill="#455a64"/>
        <rect id="Rectangle_44608" data-name="Rectangle 44608" width="2.321" height="2.397" transform="translate(76.215 124.076)" fill="#455a64"/>
        <rect id="Rectangle_44609" data-name="Rectangle 44609" width="2.321" height="2.397" transform="translate(76.215 129.321)" fill="#455a64"/>
        <rect id="Rectangle_44610" data-name="Rectangle 44610" width="11.394" height="2.397" transform="translate(85.515 134.84)" fill="#455a64"/>
        <rect id="Rectangle_44611" data-name="Rectangle 44611" width="25.774" height="2.397" transform="translate(99.108 134.84)" fill="#455a64"/>
        <rect id="Rectangle_44612" data-name="Rectangle 44612" width="2.321" height="2.397" transform="translate(76.215 134.84)" fill="#455a64"/>
        <rect id="Rectangle_44613" data-name="Rectangle 44613" width="8.364" height="2.397" transform="translate(132.775 66.203)" fill="#e0e0e0"/>
        <g id="Group_146394" data-name="Group 146394" transform="translate(145.375 108.171)" opacity="0.3">
          <g id="Group_146393" data-name="Group 146393">
            <g id="Group_146392" data-name="Group 146392" clip-path="url(#clip-path-6)">
              <path id="Path_202348" data-name="Path 202348" d="M343.609,251.42h-5.715v46.418h68.077L404.2,252.549Z" transform="translate(-337.894 -251.42)"/>
            </g>
          </g>
        </g>
        <rect id="Rectangle_44615" data-name="Rectangle 44615" width="68.118" height="48.891" transform="translate(149.762 101.311)" fill="#e0e0e0"/>
        <path id="Path_202349" data-name="Path 202349" d="M416.138,284.3H347.589V234.976h68.549Zm-68.118-.43h67.688V235.406H348.019Z" transform="translate(-198.043 -133.88)" fill="#263238"/>
        <rect id="Rectangle_44616" data-name="Rectangle 44616" width="11.016" height="2.325" transform="translate(162.693 106.534)" fill="#455a64"/>
        <rect id="Rectangle_44617" data-name="Rectangle 44617" width="5.508" height="2.325" transform="translate(162.693 116.945)" fill="#82cede"/>
        <rect id="Rectangle_44618" data-name="Rectangle 44618" width="7.756" height="2.325" transform="translate(166.838 122.181)" fill="#455a64"/>
        <rect id="Rectangle_44619" data-name="Rectangle 44619" width="4.519" height="2.325" transform="translate(175.827 122.181)" fill="#455a64"/>
        <rect id="Rectangle_44620" data-name="Rectangle 44620" width="7.756" height="2.325" transform="translate(166.838 127.286)" fill="#455a64"/>
        <rect id="Rectangle_44621" data-name="Rectangle 44621" width="7.756" height="2.325" transform="translate(162.072 132.377)" fill="#82cede"/>
        <rect id="Rectangle_44622" data-name="Rectangle 44622" width="3.623" height="2.325" transform="translate(166.205 137.468)" fill="#455a64"/>
        <rect id="Rectangle_44623" data-name="Rectangle 44623" width="5.881" height="2.325" transform="translate(166.204 142.654)" fill="#455a64"/>
        <rect id="Rectangle_44624" data-name="Rectangle 44624" width="9.879" height="2.325" transform="translate(171.258 137.468)" fill="#455a64"/>
        <rect id="Rectangle_44625" data-name="Rectangle 44625" width="9.879" height="2.325" transform="translate(173.435 142.655)" fill="#455a64"/>
        <rect id="Rectangle_44626" data-name="Rectangle 44626" width="11.686" height="2.325" transform="translate(195.432 142.655)" fill="#455a64"/>
        <rect id="Rectangle_44627" data-name="Rectangle 44627" width="8.177" height="2.325" transform="translate(184.939 142.655)" fill="#455a64"/>
        <rect id="Rectangle_44628" data-name="Rectangle 44628" width="12.951" height="2.325" transform="translate(182.492 137.468)" fill="#455a64"/>
        <rect id="Rectangle_44629" data-name="Rectangle 44629" width="7.209" height="2.325" transform="translate(196.871 137.468)" fill="#fff"/>
        <rect id="Rectangle_44630" data-name="Rectangle 44630" width="8.085" height="2.325" transform="translate(175.828 127.286)" fill="#455a64"/>
        <rect id="Rectangle_44631" data-name="Rectangle 44631" width="27.368" height="2.325" transform="translate(181.758 122.181)" fill="#455a64"/>
        <rect id="Rectangle_44632" data-name="Rectangle 44632" width="18.426" height="2.325" transform="translate(162.693 111.462)" fill="#455a64"/>
        <rect id="Rectangle_44633" data-name="Rectangle 44633" width="25.231" height="2.325" transform="translate(182.958 111.462)" fill="#455a64"/>
        <rect id="Rectangle_44634" data-name="Rectangle 44634" width="8.111" height="2.325" transform="translate(175.43 106.534)" fill="#fff"/>
        <rect id="Rectangle_44635" data-name="Rectangle 44635" width="2.251" height="2.325" transform="translate(156.417 106.534)" fill="#455a64"/>
        <rect id="Rectangle_44636" data-name="Rectangle 44636" width="2.251" height="2.325" transform="translate(156.417 111.62)" fill="#455a64"/>
        <rect id="Rectangle_44637" data-name="Rectangle 44637" width="2.251" height="2.325" transform="translate(156.417 116.707)" fill="#455a64"/>
        <rect id="Rectangle_44638" data-name="Rectangle 44638" width="2.251" height="2.325" transform="translate(156.417 121.793)" fill="#455a64"/>
        <rect id="Rectangle_44639" data-name="Rectangle 44639" width="2.251" height="2.325" transform="translate(156.417 126.88)" fill="#455a64"/>
        <rect id="Rectangle_44640" data-name="Rectangle 44640" width="2.251" height="2.325" transform="translate(156.417 131.966)" fill="#455a64"/>
        <rect id="Rectangle_44641" data-name="Rectangle 44641" width="2.251" height="2.325" transform="translate(156.417 137.052)" fill="#455a64"/>
        <rect id="Rectangle_44642" data-name="Rectangle 44642" width="2.251" height="2.325" transform="translate(156.417 142.139)" fill="#455a64"/>
        <g id="Group_146397" data-name="Group 146397" transform="translate(89.331 151.054)" opacity="0.3">
          <g id="Group_146396" data-name="Group 146396">
            <g id="Group_146395" data-name="Group 146395" clip-path="url(#clip-path-7)">
              <path id="Path_202350" data-name="Path 202350" d="M231.348,368.264c.863-4.3-1.937-17.171-1.937-17.171l-20.917,2.657-.863,14.418Z" transform="translate(-207.631 -351.093)"/>
            </g>
          </g>
        </g>
        <path id="Path_202351" data-name="Path 202351" d="M196.994,351.093s.918,17.112-2.917,23l26.048.641a112.557,112.557,0,0,0,1.563-23.636Z" transform="translate(-110.577 -200.039)" fill="#82cede"/>
        <path id="Path_202352" data-name="Path 202352" d="M226.017,358.646c0,.062-5.422.112-12.109.112s-12.11-.05-12.11-.112,5.421-.112,12.11-.112,12.109.05,12.109.112" transform="translate(-114.976 -204.279)" fill="#263238"/>
        <path id="Path_202353" data-name="Path 202353" d="M225.724,372.255c0,.062-4.334.112-9.679.112s-9.68-.05-9.68-.112,4.333-.112,9.68-.112,9.679.05,9.679.112" transform="translate(-117.579 -212.032)" fill="#263238"/>
        <path id="Path_202354" data-name="Path 202354" d="M226.219,379.686c0,.062-4.334.112-9.679.112s-9.68-.05-9.68-.112,4.333-.112,9.68-.112,9.679.05,9.679.112" transform="translate(-117.861 -216.266)" fill="#263238"/>
        <path id="Path_202355" data-name="Path 202355" d="M224.805,387.116c0,.062-4.334.112-9.679.112s-9.68-.05-9.68-.112,4.333-.112,9.68-.112,9.679.05,9.679.112" transform="translate(-117.056 -220.5)" fill="#263238"/>
        <g id="Group_146400" data-name="Group 146400" transform="translate(80.019 151.375)" opacity="0.3">
          <g id="Group_146399" data-name="Group 146399">
            <g id="Group_146398" data-name="Group 146398" clip-path="url(#clip-path-8)">
              <path id="Path_202356" data-name="Path 202356" d="M188.08,351.838s1.114,12.663,1.114,17.171h-3.207Z" transform="translate(-185.988 -351.838)"/>
            </g>
          </g>
        </g>
        <path id="Path_202357" data-name="Path 202357" d="M169.144,351.838s.918,17.112-2.917,22.995l8.576,0a87.161,87.161,0,0,0,2.018-22.992Z" transform="translate(-94.71 -200.463)" fill="#e0e0e0"/>
        <path id="Path_202358" data-name="Path 202358" d="M451.615,134.066l14.422-16.581-14.523-10.55,11.4-6.708s17.876,10.865,17.646,17.384c-.209,5.937-22.743,20.957-22.743,20.957Z" transform="translate(-257.255 -57.105)" fill="#ffc09d"/>
        <path id="Path_202359" data-name="Path 202359" d="M374.12,224.312a20.9,20.9,0,1,1,1.393-19.064,20.792,20.792,0,0,1-1.393,19.064m-34.5-21.029a19.493,19.493,0,1,0,9.016-7.8,19.5,19.5,0,0,0-9.016,7.8" transform="translate(-191.075 -109.685)" fill="#82cede"/>
        <g id="Group_146403" data-name="Group 146403" transform="translate(144.285 82.826)" opacity="0.3">
          <g id="Group_146402" data-name="Group 146402">
            <g id="Group_146401" data-name="Group 146401" clip-path="url(#clip-path-9)">
              <path id="Path_202360" data-name="Path 202360" d="M374.12,224.312a20.9,20.9,0,1,1,1.393-19.064,20.792,20.792,0,0,1-1.393,19.064m-34.5-21.029a19.493,19.493,0,1,0,9.016-7.8,19.5,19.5,0,0,0-9.016,7.8" transform="translate(-335.361 -192.512)"/>
            </g>
          </g>
        </g>
        <path id="Path_202361" data-name="Path 202361" d="M372.149,222.178a20.9,20.9,0,1,1,1.393-19.064,20.793,20.793,0,0,1-1.393,19.064m-34.5-21.029a19.494,19.494,0,1,0,9.017-7.8,19.5,19.5,0,0,0-9.017,7.8" transform="translate(-189.953 -108.47)" fill="#82cede"/>
        <path id="Path_202362" data-name="Path 202362" d="M453.376,173.092l.821,1.276c.733,1.138-.165,2.97-1.773,3.714l-27.292,16.71-2.545-3.725,26.6-18.628a2.627,2.627,0,0,1,4.186.653" transform="translate(-240.773 -97.819)" fill="#82cede"/>
        <path id="Path_202363" data-name="Path 202363" d="M359.531,198.526a1.97,1.97,0,0,1-.344.01c-.225.009-.556-.028-.981.008a14.978,14.978,0,0,0-3.55.579,18.81,18.81,0,0,0-2.339.841,20.2,20.2,0,0,0-2.513,1.35,19.277,19.277,0,0,0-2.525,1.884,18.468,18.468,0,0,0-2.343,2.436,17.2,17.2,0,0,0-1.83,2.837,18.571,18.571,0,0,0-1.155,2.928,17.717,17.717,0,0,0-.707,5.274,16.992,16.992,0,0,0,.437,3.573c.08.419.194.732.244.952a1.97,1.97,0,0,1,.077.336,2.005,2.005,0,0,1-.12-.322c-.064-.216-.191-.526-.285-.944a15.877,15.877,0,0,1-.511-3.59,17.475,17.475,0,0,1,.667-5.335,18.511,18.511,0,0,1,1.158-2.97,17.2,17.2,0,0,1,1.851-2.878,18.465,18.465,0,0,1,2.374-2.461,19.168,19.168,0,0,1,2.559-1.893,20.014,20.014,0,0,1,2.548-1.345,18.422,18.422,0,0,1,2.371-.823,14.1,14.1,0,0,1,3.59-.513,8.976,8.976,0,0,1,.986.034,1.975,1.975,0,0,1,.342.035" transform="translate(-194.33 -113.07)" fill="#fff"/>
        <path id="Path_202364" data-name="Path 202364" d="M416.708,228.594c-.051-.017.335-.959.607-2.562q.046-.3.1-.63c.032-.219.04-.45.062-.688.054-.475.045-.985.052-1.521a16.236,16.236,0,0,0-1.585-6.738c-.245-.477-.465-.937-.725-1.338-.126-.2-.235-.406-.362-.588l-.367-.521c-.958-1.314-1.723-1.985-1.685-2.023a4.308,4.308,0,0,1,.53.473,6.187,6.187,0,0,1,.577.6,10.124,10.124,0,0,1,.7.854l.383.518c.132.182.247.385.377.588a15.026,15.026,0,0,1,.752,1.345,15.73,15.73,0,0,1,1.605,6.826,14.849,14.849,0,0,1-.074,1.539c-.027.24-.039.473-.075.694l-.112.635a10.219,10.219,0,0,1-.25,1.078,6.2,6.2,0,0,1-.249.8,4.256,4.256,0,0,1-.264.66" transform="translate(-235.198 -120.781)" fill="#fff"/>
        <path id="Path_202365" data-name="Path 202365" d="M375,216.163c.042.046-2.773,2.682-6.286,5.887s-6.4,5.769-6.438,5.723,2.772-2.681,6.287-5.888,6.4-5.768,6.437-5.722" transform="translate(-206.41 -123.161)" fill="#fff"/>
        <path id="Path_202366" data-name="Path 202366" d="M377.066,224.048a1.271,1.271,0,0,1-.2.193l-.6.517-2.23,1.878c-1.885,1.584-4.483,3.779-7.325,6.234s-5.391,4.709-7.232,6.343l-2.182,1.934-.6.52a1.3,1.3,0,0,1-.219.17,1.244,1.244,0,0,1,.188-.2l.571-.551c.5-.475,1.227-1.154,2.134-1.988,1.814-1.665,4.348-3.937,7.192-6.4s5.459-4.633,7.37-6.186c.956-.777,1.733-1.4,2.276-1.823l.628-.485a1.34,1.34,0,0,1,.228-.157" transform="translate(-203.107 -127.654)" fill="#fff"/>
        <g id="Group_146406" data-name="Group 146406" transform="translate(147.814 87.848)" opacity="0.3">
          <g id="Group_146405" data-name="Group 146405">
            <g id="Group_146404" data-name="Group 146404" clip-path="url(#clip-path-10)">
              <path id="Path_202367" data-name="Path 202367" d="M343.562,228.947l28.7-24.762A20.252,20.252,0,0,1,376.3,208.3l-29.371,25.283a14.976,14.976,0,0,1-3.371-4.634" transform="translate(-343.562 -204.185)" fill="#fff"/>
            </g>
          </g>
        </g>
        <g id="Group_146409" data-name="Group 146409" transform="translate(154.329 95.182)" opacity="0.3">
          <g id="Group_146408" data-name="Group 146408">
            <g id="Group_146407" data-name="Group 146407" clip-path="url(#clip-path-11)">
              <path id="Path_202368" data-name="Path 202368" d="M358.7,245.6l27.972-24.362s.136-.23.518,1.523l-27.134,23.6a3.47,3.47,0,0,1-1.356-.757" transform="translate(-358.705 -221.23)" fill="#fff"/>
            </g>
          </g>
        </g>
        <path id="Path_202369" data-name="Path 202369" d="M437.721,178.879s-8.418,9.27-8.607,9.618-2.459,5.7-1.9,6.785,4.776,4.892,4.776,4.892,1.5-.652.081-3.2l-1.423-2.544.765-2.568a20.291,20.291,0,0,0,1.794,3.969c.657.714,3.265,1.936,3.919,1.31a2.576,2.576,0,0,0,.753-1.392,1.939,1.939,0,0,0,3.047-.836,3.585,3.585,0,0,0,2.268-1.357,7.269,7.269,0,0,0,.593-3.262,1.009,1.009,0,0,0-1.543-.348,4.628,4.628,0,0,0-1.5,1.988l-.737-.981a14.058,14.058,0,0,1,1.122-3.831c.512-.983,3.818-3.123,4.208-4.823.331-1.441-2.553-2.4-4.03-2.316a2.244,2.244,0,0,0-.651.134Z" transform="translate(-243.361 -101.918)" fill="#ffc09d"/>
        <path id="Path_202370" data-name="Path 202370" d="M450.03,206.4a.866.866,0,0,0,0,.251,3.828,3.828,0,0,0,.115.675,4.4,4.4,0,0,0,3.015,3.124,3.8,3.8,0,0,0,.67.139.863.863,0,0,0,.25.009c0-.024-.354-.05-.894-.231a4.576,4.576,0,0,1-2.957-3.064c-.162-.546-.176-.9-.2-.9" transform="translate(-256.406 -117.597)" fill="#ff9b6c"/>
        <path id="Path_202371" data-name="Path 202371" d="M443.461,205.743a1.089,1.089,0,0,0,0,.268,2.415,2.415,0,0,0,.032.313,4.074,4.074,0,0,0,.072.411,6.093,6.093,0,0,0,.322,1.038,6.442,6.442,0,0,0,1.489,2.192,6.126,6.126,0,0,0,.846.682,4.076,4.076,0,0,0,.356.219,2.513,2.513,0,0,0,.279.145,1.1,1.1,0,0,0,.248.1c.011-.022-.336-.182-.832-.538a6.863,6.863,0,0,1-.816-.691,7.5,7.5,0,0,1-.836-1.007,8.759,8.759,0,0,1-.712-1.2,5.312,5.312,0,0,1-.257-.963c-.147-.593-.169-.974-.193-.972" transform="translate(-252.664 -117.224)" fill="#ff9b6c"/>
        <path id="Path_202372" data-name="Path 202372" d="M435.82,204.185a.725.725,0,0,0-.1.349,1.949,1.949,0,0,0,.1.872,1.636,1.636,0,0,0,.472.741c.164.156.291.219.3.207a2.48,2.48,0,0,1-.772-2.169" transform="translate(-248.248 -116.336)" fill="#ff9b6c"/>
        <path id="Path_202373" data-name="Path 202373" d="M492.37,136.492c-.022.035-.461-.274-1.26-.563a6.527,6.527,0,0,0-3.25-.306,5.562,5.562,0,0,0-2.886,1.481c-.62.582-.928,1.02-.959,1a1.135,1.135,0,0,1,.191-.324,6.312,6.312,0,0,1,.658-.785,5.371,5.371,0,0,1,2.959-1.589,6.2,6.2,0,0,1,3.343.379,5.279,5.279,0,0,1,.909.476c.2.136.3.223.294.235" transform="translate(-275.772 -77.1)" fill="#ff9b6c"/>
        <path id="Path_202374" data-name="Path 202374" d="M393.515,24.425a48.963,48.963,0,0,0-.49-8.435,17.1,17.1,0,0,0-3.206-7.734c-.265-.336-2.3-2.5-2.693-2.331-.28.122,1.236,2.267,1.171,2.566a14.5,14.5,0,0,0,1.051,8.549,38.185,38.185,0,0,0,4.167,7.386" transform="translate(-220.55 -3.37)" fill="#263238"/>
        <path id="Path_202375" data-name="Path 202375" d="M364.461,12.08C362.5,5.284,356.917.758,350.177,2.9l-.611.234a12.644,12.644,0,0,0-7.6,15.369c1.729,5.881,3.716,12.358,4.928,15.4,2.51,6.306,9.225,4.859,9.225,4.859s4.193,9.64,4.193,9.64l13.334-6.836Z" transform="translate(-194.543 -1.348)" fill="#ffc09d"/>
        <path id="Path_202376" data-name="Path 202376" d="M375.572,79.674a16.394,16.394,0,0,0,7.314-5.6,8.143,8.143,0,0,1-6.352,7.779Z" transform="translate(-213.986 -42.202)" fill="#ff9b6c"/>
        <path id="Path_202377" data-name="Path 202377" d="M353.039,51.543a.969.969,0,0,0,1.223.578.927.927,0,0,0,.62-1.174.969.969,0,0,0-1.222-.579.928.928,0,0,0-.62,1.175" transform="translate(-201.12 -28.67)" fill="#263238"/>
        <path id="Path_202378" data-name="Path 202378" d="M348.087,42.39c.157.075.648-.7,1.623-1.067s1.875-.158,1.935-.318c.032-.072-.164-.242-.562-.349a2.659,2.659,0,0,0-1.6.108,2.552,2.552,0,0,0-1.235,1c-.211.345-.231.6-.155.629" transform="translate(-198.303 -23.121)" fill="#263238"/>
        <path id="Path_202379" data-name="Path 202379" d="M372.389,44.757a.969.969,0,0,0,1.222.578.926.926,0,0,0,.62-1.174.969.969,0,0,0-1.222-.579.927.927,0,0,0-.62,1.175" transform="translate(-212.145 -24.803)" fill="#263238"/>
        <path id="Path_202380" data-name="Path 202380" d="M370.606,34.8c.157.075.649-.7,1.623-1.067s1.875-.158,1.936-.318c.031-.073-.164-.242-.563-.348a2.658,2.658,0,0,0-1.6.108,2.552,2.552,0,0,0-1.235,1c-.211.344-.231.6-.155.629" transform="translate(-211.134 -18.796)" fill="#263238"/>
        <path id="Path_202381" data-name="Path 202381" d="M365.413,46.731a6.894,6.894,0,0,0-1.691.321c-.259.07-.513.111-.62-.043a1.357,1.357,0,0,1-.117-.8q0-1.036.009-2.175a34.852,34.852,0,0,0-.249-5.586,34.874,34.874,0,0,0-.2,5.593c.009.759.017,1.483.026,2.175a1.545,1.545,0,0,0,.246,1.025.669.669,0,0,0,.548.207,1.8,1.8,0,0,0,.445-.1,6.785,6.785,0,0,0,1.6-.613" transform="translate(-206.563 -21.906)" fill="#263238"/>
        <path id="Path_202382" data-name="Path 202382" d="M373.675,56.706c-.162.052.241,1.109-.375,2.207s-1.786,1.412-1.738,1.563c.011.072.33.109.81-.06a2.82,2.82,0,0,0,1.474-1.246,2.456,2.456,0,0,0,.247-1.824c-.129-.457-.348-.674-.417-.64" transform="translate(-211.701 -32.307)" fill="#263238"/>
        <path id="Path_202383" data-name="Path 202383" d="M367.223,25.664c.2.228,1.122-.271,2.317-.571,1.189-.325,2.238-.344,2.3-.639.024-.139-.232-.327-.7-.44a4.146,4.146,0,0,0-3.517.922c-.355.33-.486.619-.4.729" transform="translate(-209.214 -13.633)" fill="#263238"/>
        <path id="Path_202384" data-name="Path 202384" d="M346.086,34.475c.256.155.839-.332,1.641-.652.791-.348,1.546-.423,1.615-.715.026-.139-.167-.319-.545-.414a2.556,2.556,0,0,0-2.624,1.1c-.2.336-.2.6-.087.679" transform="translate(-197.142 -18.597)" fill="#263238"/>
        <path id="Path_202385" data-name="Path 202385" d="M397.921,34.982c.09-.088,3.859-2.958,5.384,1.426s-3.193,5.011-3.244,4.888-2.14-6.314-2.14-6.314" transform="translate(-226.72 -19.359)" fill="#ffc09d"/>
        <path id="Path_202386" data-name="Path 202386" d="M403.639,41.012c.014-.021.1.027.245.041a.808.808,0,0,0,.575-.187,2,2,0,0,0,.285-2,2.669,2.669,0,0,0-.594-1.019.934.934,0,0,0-.778-.387.412.412,0,0,0-.378.366c-.016.143.042.221.021.237s-.12-.041-.148-.234a.516.516,0,0,1,.077-.335.611.611,0,0,1,.383-.258,1.136,1.136,0,0,1,1.034.4,2.745,2.745,0,0,1,.69,1.13,2.1,2.1,0,0,1-.456,2.281.865.865,0,0,1-.739.127c-.173-.061-.231-.151-.218-.164" transform="translate(-229.536 -21.203)" fill="#ff9b6c"/>
        <path id="Path_202387" data-name="Path 202387" d="M343.2,8.913c-.844-.152.513-3.179,1.995-4.563,2.239-2.092,6.026-4.194,8.7-4.326,3.216-.159,6.147.478,8.522,2.652a18.254,18.254,0,0,1,4.924,8.176,5.545,5.545,0,0,1,.288,2.9c-.286,1.18-1.258,2.19-.753,3.514a1.943,1.943,0,0,1,0,1.5c-.515,1.128-1.771.656-2.5,0a13.435,13.435,0,0,1-3.1-5.361,13.565,13.565,0,0,1-1.135-4.277c-.032-.805.079-1.615,0-2.418a2.789,2.789,0,0,0-1.053-2.091,2.931,2.931,0,0,0-.479-.241,4.841,4.841,0,0,0-4.843.67c-2.18,1.713-5.968,4.45-7.356,3.982a7.157,7.157,0,0,1-2.644-1.332Z" transform="translate(-195.392 0)" fill="#263238"/>
        <path id="Path_202388" data-name="Path 202388" d="M328.011,94.489s-.626-1.772,1.5-4.157,19.009-7.051,19.009-7.051,6.136,6.949,11.445,2.205c3.865-3.454,4-6.9,4-6.9h15.271l1.909,15.69-6.091.035Z" transform="translate(-186.839 -44.774)" fill="#efc842"/>
        <path id="Path_202389" data-name="Path 202389" d="M440.743,78.324a13.963,13.963,0,0,1,7.623.846c6.117,2.772,16.739,11.592,16.739,11.592l-12.921,10.608-8.95-7.342Z" transform="translate(-251.118 -44.514)" fill="#efc842"/>
        <path id="Path_202390" data-name="Path 202390" d="M446.152,100.838a.586.586,0,0,1-.165-.086c-.1-.063-.258-.156-.446-.29a13.439,13.439,0,0,1-1.519-1.233,13.989,13.989,0,0,1-1.914-2.186,8.012,8.012,0,0,1-1.424-3.26,10.106,10.106,0,0,1,.754-6.343,4.8,4.8,0,0,1,1.256-1.5,4.261,4.261,0,0,1,.452-.285.6.6,0,0,1,.167-.082,7.059,7.059,0,0,1-.564.435,5.057,5.057,0,0,0-1.171,1.511,10.28,10.28,0,0,0-.673,6.227,7.984,7.984,0,0,0,1.373,3.184,14.756,14.756,0,0,0,1.854,2.189,16.872,16.872,0,0,0,1.461,1.278,5.961,5.961,0,0,1,.559.446" transform="translate(-250.978 -48.753)" fill="#263238"/>
        <path id="Path_202391" data-name="Path 202391" d="M384.325,115.012c0,.062-10.516.154-23.487.206s-23.489.044-23.49-.018,10.514-.154,23.489-.206,23.487-.044,23.488.018" transform="translate(-192.208 -65.5)" fill="#263238"/>
        <path id="Path_202392" data-name="Path 202392" d="M314.911,106.728q.044.1.08.2a3.459,3.459,0,0,1,.192.945,3.075,3.075,0,0,0,.021.455,1.675,1.675,0,0,0,.126.268,4.573,4.573,0,0,1,.167,1.882,3.605,3.605,0,0,0,.348,2.016,1.33,1.33,0,0,0,1.771.546.905.905,0,0,0,.678.989,1.308,1.308,0,0,0,1.206-.374,2.435,2.435,0,0,0,.605-1.156,1,1,0,0,0,1,.967,1.54,1.54,0,0,0,1.265-.776,3.54,3.54,0,0,0,.436-1.476,17.532,17.532,0,0,1,.313-1.976s.649.1.946.132c.4.039.086.009.086.009a4.2,4.2,0,0,0,.621-1.079c.414-.852.73-1.392,1.047-2.165.237-.579.391-1.158.032-1.535-.862-.907-2.548.938-2.548.938-.238-.642-2.2-.747-2.579.109-.155-.472-.1-.745-.478-1.061a1.579,1.579,0,0,0-1.389-.349,1.13,1.13,0,0,0-.843,1.088,1.837,1.837,0,0,0-3.09-.065,1.923,1.923,0,0,0-.283.621.769.769,0,0,0-.046.256.315.315,0,0,0,.04.113c.088.164.2.31.279.481" transform="translate(-179.241 -59.362)" fill="#ffc09d"/>
        <path id="Path_202393" data-name="Path 202393" d="M308.471,107.179a1.484,1.484,0,0,0-1.176.391,2.433,2.433,0,0,0-.367,1.63c.592.111.9.134,1.489.245.124.024.228-.008.332.066.272.194.228.846.338,1.162a1.138,1.138,0,0,0,1.437.614,1.526,1.526,0,0,0,.922-1.36,2.36,2.36,0,0,0-.6-1.591,3.3,3.3,0,0,0-2.374-1.158" transform="translate(-174.87 -61.065)" fill="#ffc09d"/>
        <path id="Path_202394" data-name="Path 202394" d="M321.916,106.424a19.571,19.571,0,0,1,0,3.953,19.563,19.563,0,0,1-.4,3.933,19.6,19.6,0,0,1,0-3.953,19.581,19.581,0,0,1,.4-3.932" transform="translate(-183.138 -60.636)" fill="#ff9b6c"/>
        <path id="Path_202395" data-name="Path 202395" d="M328.026,107.3a11.122,11.122,0,0,1,.077,3.588,11.137,11.137,0,0,1-.689,3.522,29.153,29.153,0,0,1,.289-3.557,29.189,29.189,0,0,1,.323-3.553" transform="translate(-186.531 -61.133)" fill="#ff9b6c"/>
        <path id="Path_202396" data-name="Path 202396" d="M334.17,108.141a8.33,8.33,0,0,1-.048,2.963,11.642,11.642,0,0,1-.561,2.9,10.471,10.471,0,0,1,.163-2.953,16.364,16.364,0,0,1,.447-2.915" transform="translate(-190.018 -61.614)" fill="#ff9b6c"/>
        <path id="Path_202397" data-name="Path 202397" d="M312.509,107.757c0-.048.284-.111.693.076a2.221,2.221,0,0,1,1.088,1.272,4.472,4.472,0,0,1,.27,1.628c-.049.49-.4.632-.413.569-.031-.045.161-.214.129-.577a8.021,8.021,0,0,0-.362-1.477,2.416,2.416,0,0,0-.852-1.168c-.308-.217-.558-.261-.552-.322" transform="translate(-178.055 -61.367)" fill="#ff9b6c"/>
      </g>
    </g>
    <g id="Group_146416" data-name="Group 146416">
      <g id="Group_146415" data-name="Group 146415" clip-path="url(#clip-path)">
        <path id="Path_202398" data-name="Path 202398" d="M435.618,339.251a12.437,12.437,0,0,0,5.5-12.3l4.888-3.2.692-.444,38.664-25.342a12.438,12.438,0,0,0,19.112-10.272l-2.245-.372-2.461,3.442-5.659-1.191-3.159-4.843,1.191-5.658,4.707-3.07-3.186-.834c-3.371-.993-5.244-.183-8.419,1.887a12.435,12.435,0,0,0-5.5,12.276L440.427,315.1l-1.221.79-3.726,2.442a12.437,12.437,0,0,0-13.453.087c-3.162,2.062-7.426,6.353-7.886,9.823l2.245.373,4.707-3.07,5.658,1.191,3.159,4.843-1.191,5.659-5.062,1.432.355,1.638a12.424,12.424,0,0,0,11.6-1.053" transform="translate(-235.962 -156.537)" fill="#e0e0e0"/>
        <g id="Group_146414" data-name="Group 146414" transform="translate(178.18 118.205)" opacity="0.3">
          <g id="Group_146413" data-name="Group 146413">
            <g id="Group_146412" data-name="Group 146412" clip-path="url(#clip-path-13)">
              <path id="Path_202399" data-name="Path 202399" d="M435.618,339.251a12.437,12.437,0,0,0,5.5-12.3l4.888-3.2.692-.444,38.664-25.342a12.438,12.438,0,0,0,19.112-10.272l-2.245-.372-2.461,3.442-5.659-1.191-3.159-4.843,1.191-5.658,4.707-3.07-3.186-.834c-3.371-.993-5.244-.183-8.419,1.887a12.435,12.435,0,0,0-5.5,12.276L440.427,315.1l-1.221.79-3.726,2.442a12.437,12.437,0,0,0-13.453.087c-3.162,2.062-7.426,6.353-7.886,9.823l2.245.373,4.707-3.07,5.658,1.191,3.159,4.843-1.191,5.659-5.062,1.432.355,1.638a12.424,12.424,0,0,0,11.6-1.053" transform="translate(-414.142 -274.742)"/>
            </g>
          </g>
        </g>
        <path id="Path_202400" data-name="Path 202400" d="M433.373,338.767a12.437,12.437,0,0,0,5.5-12.3l4.888-3.2.692-.444,38.664-25.342a12.438,12.438,0,0,0,19.112-10.272l-4.707,3.07-5.658-1.19-3.159-4.844,1.191-5.658,4.707-3.07a12.438,12.438,0,0,0-17.107,13.33l-39.311,25.767-1.221.79-3.726,2.442a12.437,12.437,0,0,0-19.094,10.283l4.707-3.07,5.658,1.191,3.159,4.843-1.191,5.659-4.707,3.07a12.422,12.422,0,0,0,11.6-1.053" transform="translate(-235.962 -156.426)" fill="#e0e0e0"/>
        <path id="Path_202401" data-name="Path 202401" d="M433.268,338.627s-.224.146-.67.422a13.233,13.233,0,0,1-2.121.964,12.453,12.453,0,0,1-8.83-.292l-.077-.032.07-.046,4.7-3.077-.023.034c.365-1.746.762-3.644,1.184-5.66l.008.045-3.164-4.84.042.029-5.659-1.186.054-.01-4.7,3.074-.121.079,0-.145a12.493,12.493,0,0,1,6-10.46,12.378,12.378,0,0,1,6.467-1.841,12.616,12.616,0,0,1,6.757,1.942h-.1l44.25-29.011-.047.1a12.649,12.649,0,0,1,.907-6.894,12.542,12.542,0,0,1,16.346-6.549l.186.078-.169.11-4.707,3.069.046-.067-1.191,5.658-.015-.079,3.158,4.844-.066-.045,5.658,1.192-.077.015,4.707-3.068.162-.106,0,.194a12.52,12.52,0,0,1-6.971,11,12.4,12.4,0,0,1-6.339,1.281,12.768,12.768,0,0,1-5.954-1.932h.1l-44.268,28.953.021-.047a12.477,12.477,0,0,1-2.81,9.92,13.05,13.05,0,0,1-1.977,1.864c-.5.349-.759.521-.759.521s.248-.186.743-.54a13.476,13.476,0,0,0,1.955-1.876,12.448,12.448,0,0,0,2.754-9.874l0-.03.025-.016,44.218-29.028.05-.033.051.032a12.581,12.581,0,0,0,5.867,1.9,12.36,12.36,0,0,0,11.132-5.637,12.447,12.447,0,0,0,1.961-6.456l.158.087-4.706,3.071-.036.023-.042-.009-5.659-1.19-.042-.009L491.67,289l-3.16-4.843-.024-.037.009-.043,1.19-5.659.01-.043.037-.024,4.706-3.07.017.188a12.332,12.332,0,0,0-16.96,13.215l.01.068-.057.037-44.265,28.988-.05.033-.05-.032a12.443,12.443,0,0,0-6.658-1.92,12.4,12.4,0,0,0-10.757,6.356,12.4,12.4,0,0,0-1.553,5.77l-.118-.066,4.709-3.066.025-.016.029.006,5.657,1.2.027.006.015.023,3.154,4.847.014.021-.005.024-1.2,5.657,0,.022-.018.012-4.712,3.063-.007-.078a12.445,12.445,0,0,0,8.781.329,13.723,13.723,0,0,0,2.125-.941c.449-.268.682-.4.682-.4" transform="translate(-235.857 -156.286)" fill="#263238"/>
        <path id="Path_202402" data-name="Path 202402" d="M565.193,314.263c-.009.012-.108-.054-.281-.182a6.96,6.96,0,0,1-.69-.6,10.013,10.013,0,0,1-2.831-5.226,6.941,6.941,0,0,1-.122-.9,1.023,1.023,0,0,1,0-.335c.036,0,.089.468.267,1.207a11.4,11.4,0,0,0,2.792,5.153c.521.553.888.854.865.883" transform="translate(-319.783 -174.928)" fill="#263238"/>
      </g>
    </g>
    <g id="Group_146427" data-name="Group 146427">
      <g id="Group_146426" data-name="Group 146426" clip-path="url(#clip-path)">
        <path id="Path_202403" data-name="Path 202403" d="M124.63,93.842H93.751A4.246,4.246,0,0,1,89.5,89.6V58.716a4.246,4.246,0,0,1,4.246-4.246H124.63a4.246,4.246,0,0,1,4.246,4.246V89.6a4.246,4.246,0,0,1-4.246,4.246" transform="translate(-50.996 -31.035)" fill="#82cede"/>
        <g id="Group_146419" data-name="Group 146419" transform="translate(38.509 23.435)" opacity="0.3">
          <g id="Group_146418" data-name="Group 146418">
            <g id="Group_146417" data-name="Group 146417" clip-path="url(#clip-path-15)">
              <path id="Path_202404" data-name="Path 202404" d="M124.63,93.842H93.751A4.246,4.246,0,0,1,89.5,89.6V58.716a4.246,4.246,0,0,1,4.246-4.246H124.63a4.246,4.246,0,0,1,4.246,4.246V89.6a4.246,4.246,0,0,1-4.246,4.246" transform="translate(-89.505 -54.47)"/>
            </g>
          </g>
        </g>
        <path id="Path_202405" data-name="Path 202405" d="M111.206,93.842H80.327A4.246,4.246,0,0,1,76.081,89.6V58.716a4.246,4.246,0,0,1,4.246-4.246h30.879a4.246,4.246,0,0,1,4.246,4.246V89.6a4.246,4.246,0,0,1-4.246,4.246" transform="translate(-43.348 -31.035)" fill="#82cede"/>
        <path id="Path_202406" data-name="Path 202406" d="M99.114,74.817a10.671,10.671,0,0,1,2.6-1.132l.536-2.577,4.354-.077.626,2.556a10.655,10.655,0,0,1,2.642,1.039l2.2-1.442,3.133,3.025-1.364,2.249a10.669,10.669,0,0,1,1.132,2.6l2.577.536.077,4.354-2.556.627a10.681,10.681,0,0,1-1.039,2.641l1.442,2.2-3.024,3.133-2.25-1.364a10.665,10.665,0,0,1-2.6,1.132l-.537,2.577-4.354.077-.627-2.556A10.692,10.692,0,0,1,99.44,93.38l-2.2,1.443L94.107,91.8l1.364-2.25a10.649,10.649,0,0,1-1.132-2.6l-2.577-.536-.076-4.354,2.556-.627a10.681,10.681,0,0,1,1.039-2.641l-1.442-2.2,3.025-3.133Zm2.321,5.8a4.671,4.671,0,1,0,6.605-.116,4.672,4.672,0,0,0-6.605.116" transform="translate(-52.239 -40.471)" fill="#fff"/>
        <g id="Group_146422" data-name="Group 146422" transform="translate(32.733 23.435)" opacity="0.3">
          <g id="Group_146421" data-name="Group 146421">
            <g id="Group_146420" data-name="Group 146420" clip-path="url(#clip-path-16)">
              <path id="Path_202407" data-name="Path 202407" d="M106.608,54.47,76.081,78.852V83.6l36.4-29.13Z" transform="translate(-76.081 -54.47)" fill="#fff"/>
            </g>
          </g>
        </g>
        <g id="Group_146425" data-name="Group 146425" transform="translate(32.767 27.584)" opacity="0.3">
          <g id="Group_146424" data-name="Group 146424">
            <g id="Group_146423" data-name="Group 146423" clip-path="url(#clip-path-17)">
              <path id="Path_202408" data-name="Path 202408" d="M76.164,94.627,115.5,64.112v8.567L80.274,99.335a4.115,4.115,0,0,1-4.115-4.149Z" transform="translate(-76.159 -64.112)" fill="#fff"/>
            </g>
          </g>
        </g>
      </g>
    </g>
  </g>
</svg>
