<svg id="_22" data-name="22" xmlns="http://www.w3.org/2000/svg" xmlns:xlink="http://www.w3.org/1999/xlink" width="565" height="358.497" viewBox="0 0 565 358.497">
  <defs>
    <clipPath id="clip-path">
      <rect id="Rectangle_44881" data-name="Rectangle 44881" width="565" height="358.497" fill="none"/>
    </clipPath>
    <clipPath id="clip-path-3">
      <rect id="Rectangle_44869" data-name="Rectangle 44869" width="10.15" height="10.15" fill="none"/>
    </clipPath>
    <clipPath id="clip-path-4">
      <rect id="Rectangle_44870" data-name="Rectangle 44870" width="36.813" height="19.548" fill="none"/>
    </clipPath>
    <clipPath id="clip-path-5">
      <rect id="Rectangle_44873" data-name="Rectangle 44873" width="57.706" height="46.68" fill="none"/>
    </clipPath>
    <clipPath id="clip-path-6">
      <rect id="Rectangle_44874" data-name="Rectangle 44874" width="37.288" height="40.428" fill="none"/>
    </clipPath>
    <clipPath id="clip-path-7">
      <rect id="Rectangle_44875" data-name="Rectangle 44875" width="106.462" height="127.099" fill="none"/>
    </clipPath>
    <clipPath id="clip-path-8">
      <rect id="Rectangle_44876" data-name="Rectangle 44876" width="129.326" height="30.32" fill="none"/>
    </clipPath>
    <clipPath id="clip-path-9">
      <rect id="Rectangle_44877" data-name="Rectangle 44877" width="39.544" height="51.249" fill="none"/>
    </clipPath>
    <clipPath id="clip-path-10">
      <rect id="Rectangle_44878" data-name="Rectangle 44878" width="27.265" height="19.406" fill="none"/>
    </clipPath>
    <clipPath id="clip-path-11">
      <rect id="Rectangle_44879" data-name="Rectangle 44879" width="36.715" height="25.769" fill="none"/>
    </clipPath>
  </defs>
  <g id="Group_146741" data-name="Group 146741" clip-path="url(#clip-path)">
    <rect id="Rectangle_44860" data-name="Rectangle 44860" width="90.561" height="69.849" transform="translate(24.427 172.157)" fill="#f5f5f5"/>
    <g id="Group_146740" data-name="Group 146740">
      <g id="Group_146739" data-name="Group 146739" clip-path="url(#clip-path)">
        <path id="Path_202638" data-name="Path 202638" d="M54.154,267.323c.125,0,.226-15.568.226-34.77s-.1-34.774-.226-34.774-.226,15.566-.226,34.774.1,34.77.226,34.77" transform="translate(-7.038 -25.812)" fill="#ebebeb"/>
        <rect id="Rectangle_44861" data-name="Rectangle 44861" width="6.943" height="7.848" transform="translate(32.105 226.107)" fill="#fafafa"/>
        <rect id="Rectangle_44862" data-name="Rectangle 44862" width="10.286" height="14.904" transform="translate(77.073 172.337)" fill="#ebebeb"/>
        <rect id="Rectangle_44863" data-name="Rectangle 44863" width="10.286" height="14.904" transform="translate(77.073 226.894)" fill="#ebebeb"/>
        <rect id="Rectangle_44864" data-name="Rectangle 44864" width="149.498" height="115.306" transform="translate(0 242.988)" fill="#ebebeb"/>
        <path id="Path_202639" data-name="Path 202639" d="M128.814,393.9c-.163,0-.3-25.7-.3-57.4s.133-57.4.3-57.4.3,25.7.3,57.4-.133,57.4-.3,57.4" transform="translate(-16.773 -36.425)" fill="#e0e0e0"/>
        <rect id="Rectangle_44865" data-name="Rectangle 44865" width="11.462" height="12.956" transform="translate(125.36 332.048)" fill="#fafafa"/>
        <rect id="Rectangle_44866" data-name="Rectangle 44866" width="16.981" height="24.604" transform="translate(45.607 243.285)" fill="#e0e0e0"/>
        <rect id="Rectangle_44867" data-name="Rectangle 44867" width="16.981" height="24.603" transform="translate(45.607 333.347)" fill="#e0e0e0"/>
        <path id="Path_202640" data-name="Path 202640" d="M305.615,45.824a10.564,10.564,0,0,1-4.347,0,10.563,10.563,0,0,1,4.347,0" transform="translate(-39.318 -5.951)" fill="#ebebeb"/>
        <path id="Path_202641" data-name="Path 202641" d="M315.615,45.824a10.564,10.564,0,0,1-4.347,0,10.563,10.563,0,0,1,4.347,0" transform="translate(-40.623 -5.951)" fill="#ebebeb"/>
        <path id="Path_202642" data-name="Path 202642" d="M325.615,45.824a10.564,10.564,0,0,1-4.347,0,10.563,10.563,0,0,1,4.347,0" transform="translate(-41.928 -5.951)" fill="#ebebeb"/>
        <path id="Path_202643" data-name="Path 202643" d="M335.615,45.824a10.564,10.564,0,0,1-4.347,0,10.563,10.563,0,0,1,4.347,0" transform="translate(-43.233 -5.951)" fill="#ebebeb"/>
        <path id="Path_202644" data-name="Path 202644" d="M345.615,45.824a10.564,10.564,0,0,1-4.347,0,10.564,10.564,0,0,1,4.347,0" transform="translate(-44.538 -5.951)" fill="#ebebeb"/>
        <path id="Path_202645" data-name="Path 202645" d="M355.615,45.824a10.564,10.564,0,0,1-4.347,0,10.564,10.564,0,0,1,4.347,0" transform="translate(-45.843 -5.951)" fill="#ebebeb"/>
        <path id="Path_202646" data-name="Path 202646" d="M365.615,45.824a10.564,10.564,0,0,1-4.347,0,10.563,10.563,0,0,1,4.347,0" transform="translate(-47.148 -5.951)" fill="#ebebeb"/>
        <path id="Path_202647" data-name="Path 202647" d="M375.615,45.824a10.564,10.564,0,0,1-4.347,0,10.564,10.564,0,0,1,4.347,0" transform="translate(-48.454 -5.951)" fill="#ebebeb"/>
        <path id="Path_202648" data-name="Path 202648" d="M385.615,45.824a10.564,10.564,0,0,1-4.348,0,10.564,10.564,0,0,1,4.348,0" transform="translate(-49.759 -5.951)" fill="#ebebeb"/>
        <path id="Path_202649" data-name="Path 202649" d="M395.615,45.824a10.564,10.564,0,0,1-4.347,0,10.564,10.564,0,0,1,4.347,0" transform="translate(-51.064 -5.951)" fill="#ebebeb"/>
        <path id="Path_202650" data-name="Path 202650" d="M405.615,45.824a10.564,10.564,0,0,1-4.347,0,10.563,10.563,0,0,1,4.347,0" transform="translate(-52.369 -5.951)" fill="#ebebeb"/>
        <path id="Path_202651" data-name="Path 202651" d="M415.615,45.824a10.564,10.564,0,0,1-4.347,0,10.564,10.564,0,0,1,4.347,0" transform="translate(-53.674 -5.951)" fill="#ebebeb"/>
        <path id="Path_202652" data-name="Path 202652" d="M425.615,45.824a10.564,10.564,0,0,1-4.347,0,10.564,10.564,0,0,1,4.347,0" transform="translate(-54.979 -5.951)" fill="#ebebeb"/>
        <path id="Path_202653" data-name="Path 202653" d="M435.615,45.824a10.564,10.564,0,0,1-4.347,0,10.563,10.563,0,0,1,4.347,0" transform="translate(-56.284 -5.951)" fill="#ebebeb"/>
        <path id="Path_202654" data-name="Path 202654" d="M445.615,45.824a10.564,10.564,0,0,1-4.348,0,10.564,10.564,0,0,1,4.348,0" transform="translate(-57.589 -5.951)" fill="#ebebeb"/>
        <path id="Path_202655" data-name="Path 202655" d="M455.615,45.824a10.564,10.564,0,0,1-4.348,0,10.564,10.564,0,0,1,4.348,0" transform="translate(-58.894 -5.951)" fill="#ebebeb"/>
        <path id="Path_202656" data-name="Path 202656" d="M465.615,45.824a10.564,10.564,0,0,1-4.347,0,10.564,10.564,0,0,1,4.347,0" transform="translate(-60.199 -5.951)" fill="#ebebeb"/>
        <path id="Path_202657" data-name="Path 202657" d="M475.615,45.824a10.564,10.564,0,0,1-4.347,0,10.564,10.564,0,0,1,4.347,0" transform="translate(-61.504 -5.951)" fill="#ebebeb"/>
        <path id="Path_202658" data-name="Path 202658" d="M485.616,45.824a10.564,10.564,0,0,1-4.348,0,10.564,10.564,0,0,1,4.348,0" transform="translate(-62.809 -5.951)" fill="#ebebeb"/>
        <path id="Path_202659" data-name="Path 202659" d="M495.615,45.824a10.564,10.564,0,0,1-4.347,0,10.564,10.564,0,0,1,4.347,0" transform="translate(-64.115 -5.951)" fill="#ebebeb"/>
        <path id="Path_202660" data-name="Path 202660" d="M505.615,45.824a10.564,10.564,0,0,1-4.348,0,10.564,10.564,0,0,1,4.348,0" transform="translate(-65.42 -5.951)" fill="#ebebeb"/>
        <path id="Path_202661" data-name="Path 202661" d="M515.615,45.824a10.564,10.564,0,0,1-4.347,0,10.563,10.563,0,0,1,4.347,0" transform="translate(-66.725 -5.951)" fill="#ebebeb"/>
        <path id="Path_202662" data-name="Path 202662" d="M525.615,45.824a10.564,10.564,0,0,1-4.347,0,10.564,10.564,0,0,1,4.347,0" transform="translate(-68.03 -5.951)" fill="#ebebeb"/>
        <path id="Path_202663" data-name="Path 202663" d="M528.8,52.642a5.413,5.413,0,0,1-.226-2.174,5.413,5.413,0,0,1,.226-2.174,5.414,5.414,0,0,1,.226,2.174,5.414,5.414,0,0,1-.226,2.174" transform="translate(-68.983 -6.303)" fill="#ebebeb"/>
        <path id="Path_202664" data-name="Path 202664" d="M528.8,62.642a5.413,5.413,0,0,1-.226-2.174,5.413,5.413,0,0,1,.226-2.174,5.414,5.414,0,0,1,.226,2.174,5.414,5.414,0,0,1-.226,2.174" transform="translate(-68.983 -7.608)" fill="#ebebeb"/>
        <path id="Path_202665" data-name="Path 202665" d="M528.8,72.642a5.413,5.413,0,0,1-.226-2.174,5.413,5.413,0,0,1,.226-2.174,5.414,5.414,0,0,1,.226,2.174,5.414,5.414,0,0,1-.226,2.174" transform="translate(-68.983 -8.913)" fill="#ebebeb"/>
        <path id="Path_202666" data-name="Path 202666" d="M528.8,82.642a5.413,5.413,0,0,1-.226-2.174,5.413,5.413,0,0,1,.226-2.174,5.414,5.414,0,0,1,.226,2.174,5.414,5.414,0,0,1-.226,2.174" transform="translate(-68.983 -10.218)" fill="#ebebeb"/>
        <path id="Path_202667" data-name="Path 202667" d="M528.8,92.642a5.413,5.413,0,0,1-.226-2.174,5.413,5.413,0,0,1,.226-2.174,5.414,5.414,0,0,1,.226,2.174,5.414,5.414,0,0,1-.226,2.174" transform="translate(-68.983 -11.523)" fill="#ebebeb"/>
        <path id="Path_202668" data-name="Path 202668" d="M530.493,100.947a3.888,3.888,0,0,1-1.7.221l-.218.005,0-.226-.005-.478a5.413,5.413,0,0,1,.226-2.174,5.414,5.414,0,0,1,.226,2.174c0,.159,0,.315-.005.478l-.221-.221a3.888,3.888,0,0,1,1.7.221" transform="translate(-68.983 -12.828)" fill="#ebebeb"/>
        <path id="Path_202669" data-name="Path 202669" d="M540.128,101.311a10.563,10.563,0,0,1-4.347,0,10.564,10.564,0,0,1,4.347,0" transform="translate(-69.924 -13.192)" fill="#ebebeb"/>
        <path id="Path_202670" data-name="Path 202670" d="M550.128,101.311a10.563,10.563,0,0,1-4.347,0,10.564,10.564,0,0,1,4.347,0" transform="translate(-71.229 -13.192)" fill="#ebebeb"/>
        <path id="Path_202671" data-name="Path 202671" d="M560.128,101.311a10.563,10.563,0,0,1-4.347,0,10.564,10.564,0,0,1,4.347,0" transform="translate(-72.534 -13.192)" fill="#ebebeb"/>
        <path id="Path_202672" data-name="Path 202672" d="M570.128,101.311a10.563,10.563,0,0,1-4.347,0,10.564,10.564,0,0,1,4.347,0" transform="translate(-73.839 -13.192)" fill="#ebebeb"/>
        <path id="Path_202673" data-name="Path 202673" d="M580.128,101.311a10.563,10.563,0,0,1-4.347,0,10.563,10.563,0,0,1,4.347,0" transform="translate(-75.144 -13.192)" fill="#ebebeb"/>
        <path id="Path_202674" data-name="Path 202674" d="M590.128,101.311a10.563,10.563,0,0,1-4.347,0,10.564,10.564,0,0,1,4.347,0" transform="translate(-76.449 -13.192)" fill="#ebebeb"/>
        <path id="Path_202675" data-name="Path 202675" d="M600.128,101.311a10.563,10.563,0,0,1-4.347,0,10.564,10.564,0,0,1,4.347,0" transform="translate(-77.754 -13.192)" fill="#ebebeb"/>
        <path id="Path_202676" data-name="Path 202676" d="M610.128,101.311a10.563,10.563,0,0,1-4.347,0,10.563,10.563,0,0,1,4.347,0" transform="translate(-79.059 -13.192)" fill="#ebebeb"/>
        <path id="Path_202677" data-name="Path 202677" d="M614.635,106.8a5.412,5.412,0,0,1-.226-2.174,5.412,5.412,0,0,1,.226-2.174,5.416,5.416,0,0,1,.226,2.174,5.416,5.416,0,0,1-.226,2.174" transform="translate(-80.185 -13.371)" fill="#ebebeb"/>
        <path id="Path_202678" data-name="Path 202678" d="M614.635,116.8a10.56,10.56,0,0,1,0-4.347,10.563,10.563,0,0,1,0,4.347" transform="translate(-80.185 -14.677)" fill="#ebebeb"/>
        <path id="Path_202679" data-name="Path 202679" d="M614.635,126.8a10.561,10.561,0,0,1,0-4.347,10.563,10.563,0,0,1,0,4.347" transform="translate(-80.185 -15.982)" fill="#ebebeb"/>
        <path id="Path_202680" data-name="Path 202680" d="M614.635,136.8a10.561,10.561,0,0,1,0-4.347,10.563,10.563,0,0,1,0,4.347" transform="translate(-80.185 -17.287)" fill="#ebebeb"/>
        <path id="Path_202681" data-name="Path 202681" d="M614.635,146.8a10.56,10.56,0,0,1,0-4.347,10.563,10.563,0,0,1,0,4.347" transform="translate(-80.185 -18.592)" fill="#ebebeb"/>
        <path id="Path_202682" data-name="Path 202682" d="M614.635,156.8a10.561,10.561,0,0,1,0-4.347,10.563,10.563,0,0,1,0,4.347" transform="translate(-80.185 -19.897)" fill="#ebebeb"/>
        <path id="Path_202683" data-name="Path 202683" d="M614.635,166.8a10.561,10.561,0,0,1,0-4.347,10.563,10.563,0,0,1,0,4.347" transform="translate(-80.185 -21.202)" fill="#ebebeb"/>
        <path id="Path_202684" data-name="Path 202684" d="M614.635,176.8a10.56,10.56,0,0,1,0-4.347,10.563,10.563,0,0,1,0,4.347" transform="translate(-80.185 -22.507)" fill="#ebebeb"/>
        <path id="Path_202685" data-name="Path 202685" d="M614.635,186.8a10.56,10.56,0,0,1,0-4.347,10.563,10.563,0,0,1,0,4.347" transform="translate(-80.185 -23.812)" fill="#ebebeb"/>
        <path id="Path_202686" data-name="Path 202686" d="M614.635,196.8a10.561,10.561,0,0,1,0-4.347,10.564,10.564,0,0,1,0,4.347" transform="translate(-80.185 -25.117)" fill="#ebebeb"/>
        <path id="Path_202687" data-name="Path 202687" d="M614.635,206.8a10.56,10.56,0,0,1,0-4.347,10.563,10.563,0,0,1,0,4.347" transform="translate(-80.185 -26.422)" fill="#ebebeb"/>
        <path id="Path_202688" data-name="Path 202688" d="M640.634,227.342a30.551,30.551,0,1,0-56.884,15.434h-.017l.087.115c1.172,1.974,2.64,3.386,4.122,5.46l17.739,23.5a5.517,5.517,0,0,0,8.806,0l17.443-23.109a65.875,65.875,0,0,0,4.437-5.879l.063-.083h-.012a30.364,30.364,0,0,0,4.217-15.434m-30.55,13.3A13.445,13.445,0,1,1,623.528,227.2a13.445,13.445,0,0,1-13.445,13.445" transform="translate(-75.634 -25.683)" fill="#f5f5f5"/>
        <path id="Path_202689" data-name="Path 202689" d="M483.908,75.488v35.931a1.4,1.4,0,0,0,1.4,1.4h75.337a1.4,1.4,0,0,0,1.4-1.418l-.173-13.157a1.393,1.393,0,0,0-.278-.82L550.788,82.978a1.4,1.4,0,0,0-1.11-.562l-12.45-.1a1.4,1.4,0,0,1-1.39-1.4V75.488a1.4,1.4,0,0,0-1.4-1.4h-49.13a1.4,1.4,0,0,0-1.4,1.4" transform="translate(-63.154 -9.669)" fill="#f5f5f5"/>
        <path id="Path_202690" data-name="Path 202690" d="M547.661,87.006V98.535a.8.8,0,0,0,.816.8l16.63-.3a.8.8,0,0,0,.65-1.253l-7.774-11.471a.806.806,0,0,0-.686-.352l-8.856.239a.8.8,0,0,0-.781.8" transform="translate(-71.474 -11.219)" fill="#ebebeb"/>
        <rect id="Rectangle_44868" data-name="Rectangle 44868" width="81.152" height="2.504" transform="translate(419.238 104.244)" fill="#f5f5f5"/>
        <path id="Path_202691" data-name="Path 202691" d="M510.621,119.787a8.027,8.027,0,1,1-8.027-8.027,8.027,8.027,0,0,1,8.027,8.027" transform="translate(-64.545 -14.586)" fill="#ebebeb"/>
        <path id="Path_202692" data-name="Path 202692" d="M507.815,120.283a4.725,4.725,0,1,1-4.725-4.725,4.725,4.725,0,0,1,4.725,4.725" transform="translate(-65.041 -15.081)" fill="#fafafa"/>
        <path id="Path_202693" data-name="Path 202693" d="M543.5,112.819c-.2,0-.366-8.671-.366-19.364s.164-19.367.366-19.367.366,8.67.366,19.367-.163,19.364-.366,19.364" transform="translate(-70.884 -9.669)" fill="#ebebeb"/>
        <path id="Path_202694" data-name="Path 202694" d="M560.927,119.787a8.027,8.027,0,1,1-8.027-8.027,8.027,8.027,0,0,1,8.027,8.027" transform="translate(-71.111 -14.586)" fill="#ebebeb"/>
        <path id="Path_202695" data-name="Path 202695" d="M558.121,120.283a4.724,4.724,0,1,1-4.725-4.725,4.725,4.725,0,0,1,4.725,4.725" transform="translate(-71.606 -15.081)" fill="#fafafa"/>
        <path id="Path_202696" data-name="Path 202696" d="M553.357,103.9c0,.2-1.149.366-2.567.366s-2.567-.163-2.567-.366,1.149-.366,2.567-.366,2.567.163,2.567.366" transform="translate(-71.548 -13.512)" fill="#ebebeb"/>
        <path id="Path_202697" data-name="Path 202697" d="M247.049,358.293H126.04a27.446,27.446,0,0,1-26.916-27.154L100.413,26.37A26.482,26.482,0,0,1,127.015,0L248.582.562A26.481,26.481,0,0,1,274.94,27.155l-1.289,304.769a26.481,26.481,0,0,1-26.6,26.369" transform="translate(-12.936 0)" fill="#263238"/>
        <path id="Path_202698" data-name="Path 202698" d="M249.62,13.881l-23.569-.109a5.855,5.855,0,0,0-5.748,5.957L220.284,24a5.854,5.854,0,0,1-5.748,5.957l-45.942-.213a5.86,5.86,0,0,1-5.7-6.009l.018-4.275a5.862,5.862,0,0,0-5.7-6.01l-8.289-.038-20.63-.095a18.546,18.546,0,0,0-18.631,18.467l-1.258,297.477a18.546,18.546,0,0,0,18.46,18.625l121.324.56a18.546,18.546,0,0,0,18.631-18.467L268.081,32.5a18.546,18.546,0,0,0-18.46-18.624" transform="translate(-14.148 -1.738)" fill="#f5f5f5"/>
        <path id="Path_202699" data-name="Path 202699" d="M211.539,333.958c-.139,3.592-.27,6.961-.38,9.761h17.427l-2.133-10.7Z" transform="translate(-27.558 -43.461)" fill="#f5f5f5"/>
        <path id="Path_202700" data-name="Path 202700" d="M130.138,338.6l.152,5.281h68.556c.116-2.966.244-6.257.375-9.651Z" transform="translate(-16.984 -43.619)" fill="#f5f5f5"/>
        <path id="Path_202701" data-name="Path 202701" d="M229.756,332.629l2.144,10.76h32.129l-.387-12.9Z" transform="translate(-29.985 -43.131)" fill="#f5f5f5"/>
        <path id="Path_202702" data-name="Path 202702" d="M212.121,154.495l6.076-35.223-15.913-1.179v36.4Z" transform="translate(-26.4 -15.412)" fill="#f5f5f5"/>
        <path id="Path_202703" data-name="Path 202703" d="M125.89,316.763l-17.269,6.766-.052,12.233,17.836-1.128Z" transform="translate(-14.169 -41.34)" fill="#f5f5f5"/>
        <path id="Path_202704" data-name="Path 202704" d="M125.82,306.938l-.944-32.806h-.013V262.563l-16.012,1.7-.209,49.39,17.171-6.727Z" transform="translate(-14.179 -34.267)" fill="#f5f5f5"/>
        <path id="Path_202705" data-name="Path 202705" d="M124.9,232.543l-15.887-2.1-.114,27,16-1.7Z" transform="translate(-14.212 -30.075)" fill="#f5f5f5"/>
        <path id="Path_202706" data-name="Path 202706" d="M260.567,263.053l-.669,9.4-18.763,2.023,1.452,7.439,21.3-1.606-.32-10.668,1.7-7.065Z" transform="translate(-31.47 -34.269)" fill="#f5f5f5"/>
        <path id="Path_202707" data-name="Path 202707" d="M224.387,283.517l14.965-1.128-3.26-16.7-13.061,1.318Z" transform="translate(-29.107 -34.675)" fill="#f5f5f5"/>
        <path id="Path_202708" data-name="Path 202708" d="M224.754,287.767l1.143,13.925,2.029,19.1.833,4.181,34.178-2.162L261.8,284.975Z" transform="translate(-29.332 -37.192)" fill="#f5f5f5"/>
        <path id="Path_202709" data-name="Path 202709" d="M150.828,206.107l1.315,2.254-26.359,15.373V260.2l27.819-1.969,53.615-5.411-1.963-23.9-51.22-6.691.338-2.587,50.664,6.619L201.715,185.8l-50.145,4.821-.166-1.731,50.17-4.824-1.734-21.11H151.6l-42.36,7.709-.2,48.341,16.04,2.116Zm-22.344,50.615s.2-30.071,0-31.194l21.508-11.442,2.788,41.1Z" transform="translate(-14.23 -21.267)" fill="#f5f5f5"/>
        <path id="Path_202710" data-name="Path 202710" d="M258.538,263.328l-19.487,1.967,1.477,7.568,17.465-1.883Z" transform="translate(-31.198 -34.367)" fill="#f5f5f5"/>
        <path id="Path_202711" data-name="Path 202711" d="M211.854,326.69c-.06,1.578-.121,3.152-.18,4.7l14.5-.917-.746-3.741Z" transform="translate(-27.625 -42.636)" fill="#f5f5f5"/>
        <path id="Path_202712" data-name="Path 202712" d="M167.25,153.808l2.558-11.584h19.47V117.342l-60.886-4.51V136.2l-19.017,4.3-.089,20.976,42.114-7.664Z" transform="translate(-14.263 -14.725)" fill="#f5f5f5"/>
        <path id="Path_202713" data-name="Path 202713" d="M219.836,74.065l-.519-2.132,23.25-9.2L227.444,32.374a5.527,5.527,0,0,1-.836.067l-25.694-.119.7,42.487Z" transform="translate(-26.221 -4.218)" fill="#f5f5f5"/>
        <path id="Path_202714" data-name="Path 202714" d="M259.417,55.371l-.027-41.453-16.921-.077a5.855,5.855,0,0,0-5.747,5.956l-.019,4.276a6.051,6.051,0,0,1-2.488,4.907l15.133,30.377Z" transform="translate(-30.567 -1.806)" fill="#f5f5f5"/>
        <path id="Path_202715" data-name="Path 202715" d="M157.74,57.084,155.78,13.44l-4.709-.022-18.389-.085-7.834,39.029Zm-4.191-39.221.627,35.543-24.443-3.577,5.353-31.966Z" transform="translate(-16.294 -1.74)" fill="#f5f5f5"/>
        <path id="Path_202716" data-name="Path 202716" d="M163.4,57.228l0,.372c.042,3.406.112,9.536.163,16.092l32.022-1.309-.7-42.526-19.379-.09a5.861,5.861,0,0,1-5.7-6.01l.018-4.275a5.86,5.86,0,0,0-5.7-6.009l-2.71-.013,1.966,43.766Z" transform="translate(-21.067 -1.757)" fill="#f5f5f5"/>
        <path id="Path_202717" data-name="Path 202717" d="M120.292,51.992l7.758-38.648a18.535,18.535,0,0,0-18.208,18.448l-.082,19.267.082-.567Z" transform="translate(-14.325 -1.742)" fill="#f5f5f5"/>
        <path id="Path_202718" data-name="Path 202718" d="M125.8,112.428l-16.286-1.206L109.4,137.61l16.4-3.708Z" transform="translate(-14.278 -14.515)" fill="#f5f5f5"/>
        <path id="Path_202719" data-name="Path 202719" d="M120.094,58.552l-10.362-1.488L109.551,99.8l2.231.165Z" transform="translate(-14.297 -7.447)" fill="#f5f5f5"/>
        <path id="Path_202720" data-name="Path 202720" d="M155.437,307.876l.274-34.308-27.4,1.938.968,33.61Z" transform="translate(-16.746 -35.703)" fill="#f5f5f5"/>
        <path id="Path_202721" data-name="Path 202721" d="M165.1,299.141l38.8,18.589c.462-12.148.876-23.507.836-24.23l.841-.045.411-.819c.551.276.551.276.263,8.556-.162,4.621-.391,10.769-.625,16.919h13.42l-1.981-18.643-2.641-32.16-50.7,5.116Z" transform="translate(-21.368 -34.886)" fill="#f5f5f5"/>
        <path id="Path_202722" data-name="Path 202722" d="M267.648,237.757l-.438-4.523L220.7,238.072l1.958,23.834,40.158-4.053Z" transform="translate(-28.803 -30.439)" fill="#f5f5f5"/>
        <path id="Path_202723" data-name="Path 202723" d="M198.379,149.636H181.005l-1.982,8.976h19.356Z" transform="translate(-23.364 -19.529)" fill="#f5f5f5"/>
        <path id="Path_202724" data-name="Path 202724" d="M259.637,152.668l-43.515-3.01-1.773,10.28,1.831,22.311,45.892-4.413Zm-41.914,7.251,2.335-6.487,37.8,2.39,2.187,18.56L219,179.249Z" transform="translate(-27.974 -19.532)" fill="#f5f5f5"/>
        <path id="Path_202725" data-name="Path 202725" d="M264.448,203.79l-1.911-19.734-45.917,4.415,1.724,21Z" transform="translate(-28.271 -24.021)" fill="#f5f5f5"/>
        <path id="Path_202726" data-name="Path 202726" d="M126.45,339.311l-17.814,1.127-.073-1.16-.023,5.259H126.6Z" transform="translate(-14.165 -44.279)" fill="#f5f5f5"/>
        <path id="Path_202727" data-name="Path 202727" d="M288.088,45.584l.263.663.057-13.661a18.545,18.545,0,0,0-18.46-18.624l-5.779-.027.026,41.1Z" transform="translate(-34.476 -1.819)" fill="#f5f5f5"/>
        <path id="Path_202728" data-name="Path 202728" d="M199.393,319.458l-39.609-18.975-1.4-27.191-1.659.168-.281,35.209-27,1.281.023.784.006.016-.005,0L130,328.9l69.2-4.377c.064-1.683.13-3.381.194-5.07m-68.245-7.27,37.785-2.652,24.583,11.406-62.369,3.375Z" transform="translate(-16.895 -35.667)" fill="#f5f5f5"/>
        <path id="Path_202729" data-name="Path 202729" d="M275.309,97.74l1.62-9.611c-14.2-5.068-15.187-19.881-15.145-24.364l-9.271,3.669,13.96,28.023Z" transform="translate(-32.955 -8.322)" fill="#f5f5f5"/>
        <path id="Path_202730" data-name="Path 202730" d="M220.243,232.947l19.311-2.009-3.806-17.055-16.9,2.082Z" transform="translate(-28.562 -27.913)" fill="#f5f5f5"/>
        <path id="Path_202731" data-name="Path 202731" d="M260.039,119.75l-36.069-.006-2.994-.222L216.9,143.14l42.813,2.962-.994-10.269,4.214-15.169Z" transform="translate(-28.307 -15.599)" fill="#f5f5f5"/>
        <path id="Path_202732" data-name="Path 202732" d="M260.139,108.821l.45-11.273L246.414,69.092l-21.98,8.7,7.557,31.03Zm-14.58-36.267,12.989,24.712-1.876,7.7-22.226-.836-5.557-23.374Z" transform="translate(-29.29 -9.017)" fill="#f5f5f5"/>
        <path id="Path_202733" data-name="Path 202733" d="M271.952,269.8l.664,22.142,15.627-.879.049.868-15.649.881.8,26.5,14.774-.935.11,1.735-14.832.938.4,13.178h14.4l.313-73.9-14.727,1.486Z" transform="translate(-35.492 -33.976)" fill="#f5f5f5"/>
        <path id="Path_202734" data-name="Path 202734" d="M156.5,63.952,123.408,59.2l-8.276,41.232,41.514,3.075c.166-6.348.021-25.82-.146-39.558" transform="translate(-15.026 -7.726)" fill="#f5f5f5"/>
        <path id="Path_202735" data-name="Path 202735" d="M222.231,110.417h5.007l-7.085-29.1-18.417.752.442,26.859Z" transform="translate(-26.328 -10.613)" fill="#f5f5f5"/>
        <path id="Path_202736" data-name="Path 202736" d="M108.434,369.67l-.026,6.1c0,.188.022.37.026.557Z" transform="translate(-14.148 -48.245)" fill="#f5f5f5"/>
        <path id="Path_202737" data-name="Path 202737" d="M163.852,106.577l32.511,2.408-.441-26.759-32.029,1.309c.068,9.05.095,18.7-.041,23.042" transform="translate(-21.384 -10.731)" fill="#f5f5f5"/>
        <path id="Path_202738" data-name="Path 202738" d="M267.657,209.739l-28.375,3.5,3.81,17.072,26.292-2.735Z" transform="translate(-31.228 -27.373)" fill="#f5f5f5"/>
        <path id="Path_202739" data-name="Path 202739" d="M278.6,85.77l1.818-10.786,7.832.61.1-23.226-24.16,9.562c-.492,16.343,9.774,22.09,14.412,23.841" transform="translate(-34.476 -6.834)" fill="#f5f5f5"/>
        <path id="Path_202740" data-name="Path 202740" d="M270.064,136.587l.986,10.188,17.7,1.224.089-20.977-14.817-4.68Z" transform="translate(-35.246 -15.967)" fill="#f5f5f5"/>
        <path id="Path_202741" data-name="Path 202741" d="M279.054,238.048l-4.648,19.327,14.514-1.465.086-20.267c-4.454-1.172-8.342-2.128-10.43-2.531Z" transform="translate(-35.812 -30.423)" fill="#f5f5f5"/>
        <path id="Path_202742" data-name="Path 202742" d="M268.485,113.63,288.651,120l.049-11.469-19.806-5.117Z" transform="translate(-35.039 -13.496)" fill="#f5f5f5"/>
        <path id="Path_202743" data-name="Path 202743" d="M278.32,223.78c1.625.245,4.706.9,10.7,2.475l.188-44.314-14.8,1.423Z" transform="translate(-35.812 -23.745)" fill="#f5f5f5"/>
        <path id="Path_202744" data-name="Path 202744" d="M273.859,177.917l14.973-1.44.092-21.8-17.432-1.206Z" transform="translate(-35.432 -20.029)" fill="#f5f5f5"/>
        <path id="Path_202745" data-name="Path 202745" d="M282.685,89.993c2.838.863,5.479,1.53,7.925,2.021l.046-11-6.374-.5Z" transform="translate(-36.893 -10.508)" fill="#f5f5f5"/>
        <path id="Path_202746" data-name="Path 202746" d="M280.675,101.915,290.3,104.4l.042-9.943c-2.49-.5-5.178-1.176-8.067-2.052Z" transform="translate(-36.63 -12.06)" fill="#f5f5f5"/>
        <path id="Path_202747" data-name="Path 202747" d="M126.453,296.771,126.6,302h.87l-.152-5.28,69.084-4.37c-.131,3.394-.26,6.685-.376,9.65h1.74c.11-2.8.241-6.169.38-9.761l14.914-.943L215.2,302h.887l-2.145-10.76,33.887-2.143.388,12.9h4.349l-.4-13.178L267,287.88l-.11-1.736-14.774.935-.8-26.5,15.65-.881-.05-.868-15.626.879-.665-22.142,1.919-7.979,14.727-1.486,0-.874-14.514,1.464,4.648-19.327-.478-4.935c2.089.4,5.976,1.358,10.43,2.531l.011-2.71c-5.993-1.576-9.073-2.23-10.7-2.475l-3.914-40.416,14.8-1.422.008-1.749-14.974,1.44-2.368-24.448,17.433,1.206.011-2.614-17.7-1.225-.986-10.188,3.956-14.244,14.818,4.679.019-4.553-20.166-6.368.409-10.217,19.806,5.117.011-2.69-9.627-2.488,1.6-9.507q4.334,1.312,8.067,2.051l0-.894c-2.446-.49-5.087-1.158-7.925-2.021l1.6-9.478,6.374.5.007-1.744-7.832-.61L258.29,80.674c-4.638-1.75-14.9-7.5-14.412-23.841l24.16-9.562.005-1.105-.263-.663-23.893,9.455-.027-41.1-.87,0,.028,41.453-10.07,3.985L217.816,28.911a5.543,5.543,0,0,1-2.425.983l15.123,30.357-23.25,9.2.519,2.132-18.221.744-.7-42.487-.87,0,.7,42.526-32.022,1.309c-.05-6.556-.121-12.686-.163-16.092l-.005-.372-.011,0-1.966-43.766-.87,0,1.96,43.644L122.722,52.36l7.834-39.029-2.24-.01c-.143,0-.281.017-.423.02l-7.758,38.648-10.45-1.5-.082.568v.3l10.362,1.488-8.311,41.41-2.231-.165-.018,4.358,16.286,1.206v21.473l-16.4,3.708-.011,2.677,19.017-4.3V99.845l60.885,4.51v24.882h-19.47l-2.558,11.584h-15.85l-42.113,7.664-.011,2.654,42.36-7.709h48.235l1.734,21.109-50.17,4.825.166,1.731,50.146-4.822,3.321,40.457-50.664-6.619-.337,2.586,51.219,6.692,1.963,23.9L153.541,238.7l-27.819,1.968V204.2l26.359-15.374-1.314-2.254L125.016,201.6l-16.039-2.117-.011,2.63,15.887,2.1v23.206l-16,1.7-.011,2.623,16.013-1.7v11.57h.012l.944,32.806-.006-.017-17.172,6.727-.012,2.806,17.269-6.765.515,17.87-17.835,1.129,0,.578.073,1.16Zm71.764-6.282c.059-1.544.119-3.117.18-4.7l13.578.037.745,3.741Zm15.379-.973-.833-4.181-2.029-19.1-1.143-13.925,37.047-2.793,1.136,37.833Zm8.425-56.849,19.487-1.967-.543,7.652L223.5,240.236Zm-.869.088,3.26,16.7-14.965,1.128-1.356-16.508Zm25.433,15.027-21.3,1.606-1.452-7.438,18.763-2.024.669-9.4,4.7-.474-1.7,7.065Zm-25.23-60.073,3.806,17.055-19.311,2.009-1.394-16.981Zm4.676,16.965L222.222,187.6l28.375-3.5,1.727,17.832Zm19.544-72.43-42.813-2.961,4.074-23.618,2.994.222,36.069.006,2.9.914-4.214,15.169ZM243,57.182c-.042,4.484.942,19.3,15.145,24.364l-1.62,9.611-8.837-2.283-13.96-28.023Zm-11.706,4.633,14.175,28.455-.451,11.274H216.868l-7.556-31.03Zm-23.3,10.632,7.085,29.1h-5.007l-20.053-1.486L189.576,73.2Zm-19.286.788.44,26.759-32.51-2.408c.136-4.34.108-13.992.041-23.041Zm-66.156-20.02,33.092,4.75c.167,13.738.312,33.209.146,39.558l-41.514-3.075ZM205.966,105.6l-6.076,35.223h-9.837v-36.4Zm-34.156,26.247h17.374v8.976H169.828Zm28.734,10.3,1.774-10.28,43.514,3.01,2.436,25.168-45.892,4.413Zm47.892,19.63,1.911,19.734-46.1,5.68-1.724-21Zm-42.371,47.6,46.512-4.838.437,4.523-4.833,20.1-40.159,4.053Zm3.8,56.948,1.981,18.644h-13.42c.234-6.151.463-12.3.625-16.919.289-8.281.289-8.281-.263-8.557l-.41.819-.842.045c.039.723-.375,12.082-.836,24.23l-38.8-18.589-1.37-26.717,50.7-5.117ZM153.134,239.6l-.274,34.308L126.7,275.153l-.968-33.61ZM126.75,276.824l.006,0-.007-.016-.023-.784,27-1.281L154,239.531l1.659-.168,1.4,27.191,39.608,18.975c-.064,1.689-.129,3.387-.194,5.07l-69.2,4.377Z" transform="translate(-14.169 -1.738)" fill="#fff"/>
        <path id="Path_202748" data-name="Path 202748" d="M169.188,314.976,131.4,317.628v12.129l62.369-3.375Z" transform="translate(-17.149 -41.107)" fill="#ebebeb"/>
        <path id="Path_202749" data-name="Path 202749" d="M258.36,156.388l-37.8-2.39-2.335,6.487,1.28,19.33,41.038-4.867Z" transform="translate(-28.481 -20.098)" fill="#ebebeb"/>
        <path id="Path_202750" data-name="Path 202750" d="M126.872,391.219l121.324.56a18.546,18.546,0,0,0,18.631-18.467l.118-27.986H108.528l-.09,21.167v6.659a18.533,18.533,0,0,0,18.434,18.067" transform="translate(-14.152 -45.068)" fill="#ebebeb"/>
        <path id="Path_202751" data-name="Path 202751" d="M154.909,54.086l-.627-35.543H135.819l-5.353,31.966Z" transform="translate(-17.027 -2.42)" fill="#ebebeb"/>
        <path id="Path_202752" data-name="Path 202752" d="M257.34,105.487l1.876-7.7L246.227,73.074l-16.67,8.2,5.557,23.375Z" transform="translate(-29.959 -9.537)" fill="#ebebeb"/>
        <path id="Path_202753" data-name="Path 202753" d="M131.4,233.2c.2,1.123,0,31.194,0,31.194l24.3-1.537-2.788-41.1Z" transform="translate(-17.149 -28.941)" fill="#ebebeb"/>
        <path id="Path_202754" data-name="Path 202754" d="M224.4,259.4l-1.285-18.637,41.669-5.355v3.213l-5.039,17.138Z" transform="translate(-29.119 -30.723)" fill="#ebebeb"/>
        <path id="Path_202755" data-name="Path 202755" d="M187.624,84.509a5.075,5.075,0,1,1-5.075-5.075,5.075,5.075,0,0,1,5.075,5.075" transform="translate(-23.162 -10.367)" fill="#4dd0e1"/>
        <g id="Group_146714" data-name="Group 146714" transform="translate(154.312 69.067)" opacity="0.6">
          <g id="Group_146713" data-name="Group 146713">
            <g id="Group_146712" data-name="Group 146712" clip-path="url(#clip-path-3)">
              <path id="Path_202756" data-name="Path 202756" d="M187.619,84.292a5.075,5.075,0,1,1-5.287-4.853,5.075,5.075,0,0,1,5.287,4.853" transform="translate(-177.474 -79.434)" fill="#fff"/>
            </g>
          </g>
        </g>
        <path id="Path_202757" data-name="Path 202757" d="M186.18,84.563a3.376,3.376,0,1,1-3.375-3.375,3.376,3.376,0,0,1,3.375,3.375" transform="translate(-23.417 -10.596)" fill="#4dd0e1"/>
        <path id="Path_202758" data-name="Path 202758" d="M272.886,318.092a2.169,2.169,0,1,1-2.168-2.168,2.168,2.168,0,0,1,2.168,2.168" transform="translate(-35.048 -41.231)" fill="#4dd0e1"/>
        <path id="Path_202759" data-name="Path 202759" d="M254.382,287.195l-.523-12.154-36.631,1.781a5.528,5.528,0,0,1-2.768-.588l-51.955-26.24a3.775,3.775,0,0,1-2.062-3.166l-7.072-137.15a2.3,2.3,0,0,1,2.461-2.407L178.1,108.92V84.579h2.608v24.679a2.3,2.3,0,0,1-2.464,2.289L155.995,109.9l7.054,136.8a1.16,1.16,0,0,0,.633.971l51.954,26.24a2.9,2.9,0,0,0,1.465.311l36.935-1.8a2.3,2.3,0,0,1,2.415,2.2l.536,12.458Z" transform="translate(-20.016 -11.038)" fill="#4dd0e1"/>
        <path id="Path_202760" data-name="Path 202760" d="M163.852,180.946a6.574,6.574,0,1,1-6.574-6.574,6.574,6.574,0,0,1,6.574,6.574" transform="translate(-19.668 -22.757)" fill="#4dd0e1"/>
        <path id="Path_202761" data-name="Path 202761" d="M162.146,181.248a4.567,4.567,0,1,1-4.567-4.567,4.567,4.567,0,0,1,4.567,4.567" transform="translate(-19.969 -23.058)" fill="#fafafa"/>
        <path id="Path_202762" data-name="Path 202762" d="M157.53,186.09a4.893,4.893,0,1,1,4.893-4.892,4.9,4.9,0,0,1-4.893,4.892m0-9.133a4.241,4.241,0,1,0,4.241,4.241,4.246,4.246,0,0,0-4.241-4.241" transform="translate(-19.92 -23.009)" fill="#4dd0e1"/>
        <path id="Path_202763" data-name="Path 202763" d="M197.69,150.218h-31.3a2.755,2.755,0,0,0-2.755,2.755v11.336a2.756,2.756,0,0,0,2.755,2.755h.364v2.7l3.134-2.7h27.8a2.756,2.756,0,0,0,2.755-2.755V152.973a2.755,2.755,0,0,0-2.755-2.755" transform="translate(-21.355 -19.605)" fill="#4dd0e1"/>
        <g id="Group_146717" data-name="Group 146717" transform="translate(142.277 130.613)" opacity="0.4">
          <g id="Group_146716" data-name="Group 146716">
            <g id="Group_146715" data-name="Group 146715" clip-path="url(#clip-path-4)">
              <path id="Path_202764" data-name="Path 202764" d="M197.69,150.218h-31.3a2.755,2.755,0,0,0-2.755,2.755v11.336a2.756,2.756,0,0,0,2.755,2.755h.364v2.7l3.134-2.7h27.8a2.756,2.756,0,0,0,2.755-2.755V152.973a2.755,2.755,0,0,0-2.755-2.755" transform="translate(-163.632 -150.218)" fill="#fff"/>
            </g>
          </g>
        </g>
        <path id="Path_202765" data-name="Path 202765" d="M171.727,159.431a1.882,1.882,0,1,1,1.886,1.809,1.8,1.8,0,0,1-1.886-1.809m3.255,0a1.375,1.375,0,1,0-1.369,1.36,1.328,1.328,0,0,0,1.369-1.36" transform="translate(-22.412 -20.571)" fill="#fff"/>
        <path id="Path_202766" data-name="Path 202766" d="M179.635,159.835a1.3,1.3,0,0,1-1.355,1.369,1.131,1.131,0,0,1-.956-.455v.425h-.465v-3.751h.485V158.9a1.142,1.142,0,0,1,.936-.43,1.3,1.3,0,0,1,1.355,1.365m-.49,0a.9.9,0,1,0-.905.945.884.884,0,0,0,.905-.945" transform="translate(-23.082 -20.545)" fill="#fff"/>
        <path id="Path_202767" data-name="Path 202767" d="M179.761,162.012l.157-.374a.613.613,0,0,0,.394.127c.258,0,.4-.162.4-.47v-2.81h.485v2.8a.8.8,0,0,1-.855.889.952.952,0,0,1-.581-.162m.864-4.357a.319.319,0,0,1,.328-.318.316.316,0,1,1-.328.318" transform="translate(-23.46 -20.534)" fill="#fff"/>
        <path id="Path_202768" data-name="Path 202768" d="M184.85,160.154h-2.174a.907.907,0,0,0,.97.783,1,1,0,0,0,.774-.323l.268.314a1.461,1.461,0,0,1-2.5-.936,1.313,1.313,0,0,1,1.344-1.365,1.293,1.293,0,0,1,1.325,1.381c0,.04-.005.1-.01.146m-2.174-.349H184.4a.865.865,0,0,0-1.719,0" transform="translate(-23.777 -20.702)" fill="#fff"/>
        <path id="Path_202769" data-name="Path 202769" d="M185.749,159.992a1.339,1.339,0,0,1,1.416-1.365,1.2,1.2,0,0,1,1.092.571l-.37.237a.835.835,0,0,0-.728-.384.943.943,0,0,0,0,1.886.833.833,0,0,0,.728-.384l.37.233a1.2,1.2,0,0,1-1.092.576,1.342,1.342,0,0,1-1.416-1.369" transform="translate(-24.242 -20.702)" fill="#fff"/>
        <path id="Path_202770" data-name="Path 202770" d="M190.843,161.09a.919.919,0,0,1-.587.187.764.764,0,0,1-.849-.839v-1.471h-.455v-.4h.455v-.586h.485v.586h.768v.4h-.768v1.451a.394.394,0,0,0,.419.45.61.61,0,0,0,.379-.126Z" transform="translate(-24.66 -20.618)" fill="#fff"/>
        <path id="Path_202771" data-name="Path 202771" d="M191.7,157.655a.319.319,0,0,1,.329-.318.314.314,0,0,1,.329.308.329.329,0,0,1-.657.01m.086.829h.485v2.679h-.485Z" transform="translate(-25.019 -20.534)" fill="#fff"/>
        <path id="Path_202772" data-name="Path 202772" d="M195.723,158.656l-1.173,2.679h-.5l-1.172-2.679h.505l.92,2.149.941-2.149Z" transform="translate(-25.173 -20.706)" fill="#fff"/>
        <path id="Path_202773" data-name="Path 202773" d="M198.96,160.154h-2.174a.907.907,0,0,0,.97.783,1,1,0,0,0,.774-.323l.268.314a1.461,1.461,0,0,1-2.5-.936,1.313,1.313,0,0,1,1.344-1.365,1.293,1.293,0,0,1,1.325,1.381c0,.04-.005.1-.01.146m-2.174-.349h1.719a.865.865,0,0,0-1.719,0" transform="translate(-25.619 -20.702)" fill="#fff"/>
        <path id="Path_202774" data-name="Path 202774" d="M188.955,64.682a6.507,6.507,0,1,0-12.116,3.288h0l.018.024c.25.42.562.721.878,1.162l3.778,5.006a1.176,1.176,0,0,0,1.876,0L187.1,69.24a14.126,14.126,0,0,0,.945-1.252l.013-.017h0a6.467,6.467,0,0,0,.9-3.288m-6.507,2.834a2.864,2.864,0,1,1,2.864-2.864,2.864,2.864,0,0,1-2.864,2.864" transform="translate(-22.962 -7.592)" fill="#4dd0e1"/>
        <path id="Path_202775" data-name="Path 202775" d="M142.269,360.464h-1.213v-.44h2.927v.44H142.77v3.1h-.5Z" transform="translate(-18.409 -46.986)" fill="#263238"/>
        <path id="Path_202776" data-name="Path 202776" d="M144.37,362.347a1.393,1.393,0,1,1,1.395,1.37,1.333,1.333,0,0,1-1.395-1.37m2.295,0a.9.9,0,1,0-1.8,0,.9.9,0,1,0,1.8,0" transform="translate(-18.841 -47.111)" fill="#263238"/>
        <path id="Path_202777" data-name="Path 202777" d="M149.8,363.445a.92.92,0,0,1-.587.188.765.765,0,0,1-.849-.84v-1.47H147.9v-.4h.455v-.587h.485v.587h.769v.4h-.769v1.45a.4.4,0,0,0,.419.45.615.615,0,0,0,.379-.126Z" transform="translate(-19.303 -47.027)" fill="#263238"/>
        <path id="Path_202778" data-name="Path 202778" d="M152.845,362.07v1.617h-.46v-.354a.993.993,0,0,1-.88.385c-.606,0-.99-.323-.99-.789,0-.43.278-.783,1.076-.783h.769v-.1c0-.41-.238-.647-.718-.647a1.345,1.345,0,0,0-.849.289l-.2-.364a1.783,1.783,0,0,1,1.107-.344c.733,0,1.148.354,1.148,1.087m-.485.8v-.375h-.748c-.481,0-.617.187-.617.415,0,.269.223.435.591.435a.777.777,0,0,0,.774-.475" transform="translate(-19.643 -47.111)" fill="#263238"/>
        <rect id="Rectangle_44871" data-name="Rectangle 44871" width="0.485" height="3.75" transform="translate(134.101 312.826)" fill="#263238"/>
        <path id="Path_202779" data-name="Path 202779" d="M159.905,359.78v3.75h-.465v-.424a1.134,1.134,0,0,1-.956.455,1.367,1.367,0,0,1,0-2.735,1.142,1.142,0,0,1,.936.43V359.78Zm-.48,2.41a.9.9,0,1,0-.9.946.882.882,0,0,0,.9-.946" transform="translate(-20.507 -46.954)" fill="#263238"/>
        <path id="Path_202780" data-name="Path 202780" d="M161.281,360.011a.32.32,0,0,1,.329-.319.316.316,0,1,1-.329.319m.086.829h.485v2.679h-.485Z" transform="translate(-21.048 -46.943)" fill="#263238"/>
        <path id="Path_202781" data-name="Path 202781" d="M162.613,363.4l.2-.384a1.726,1.726,0,0,0,.941.278c.45,0,.636-.137.636-.364,0-.6-1.693-.081-1.693-1.147,0-.481.43-.8,1.116-.8a1.941,1.941,0,0,1,.976.243l-.207.384a1.4,1.4,0,0,0-.773-.213c-.425,0-.632.157-.632.37,0,.632,1.7.117,1.7,1.157,0,.486-.444.794-1.157.794a1.936,1.936,0,0,1-1.107-.313" transform="translate(-21.222 -47.111)" fill="#263238"/>
        <path id="Path_202782" data-name="Path 202782" d="M167.363,363.445a.92.92,0,0,1-.587.188.765.765,0,0,1-.849-.84v-1.47h-.455v-.4h.455v-.587h.485v.587h.768v.4h-.768v1.45a.4.4,0,0,0,.419.45.615.615,0,0,0,.379-.126Z" transform="translate(-21.596 -47.027)" fill="#263238"/>
        <path id="Path_202783" data-name="Path 202783" d="M170.413,362.07v1.617h-.46v-.354a.993.993,0,0,1-.879.385c-.607,0-.991-.323-.991-.789,0-.43.278-.783,1.076-.783h.769v-.1c0-.41-.237-.647-.718-.647a1.345,1.345,0,0,0-.849.289l-.2-.364a1.783,1.783,0,0,1,1.107-.344c.734,0,1.148.354,1.148,1.087m-.485.8v-.375h-.748c-.481,0-.617.187-.617.415,0,.269.223.435.591.435a.777.777,0,0,0,.774-.475" transform="translate(-21.936 -47.111)" fill="#263238"/>
        <path id="Path_202784" data-name="Path 202784" d="M174.34,362.145v1.542h-.485V362.2c0-.525-.263-.783-.723-.783a.8.8,0,0,0-.849.89v1.379H171.8v-2.679h.465v.4a1.15,1.15,0,0,1,.965-.43,1.038,1.038,0,0,1,1.112,1.162" transform="translate(-22.421 -47.111)" fill="#263238"/>
        <path id="Path_202785" data-name="Path 202785" d="M175.49,362.347a1.338,1.338,0,0,1,1.416-1.364,1.2,1.2,0,0,1,1.092.571l-.37.237a.835.835,0,0,0-.728-.384.943.943,0,0,0,0,1.886.834.834,0,0,0,.728-.385l.37.233a1.2,1.2,0,0,1-1.092.576,1.343,1.343,0,0,1-1.416-1.37" transform="translate(-22.903 -47.111)" fill="#263238"/>
        <path id="Path_202786" data-name="Path 202786" d="M181.422,362.509h-2.174a.908.908,0,0,0,.97.784,1,1,0,0,0,.774-.323l.268.313a1.46,1.46,0,0,1-2.5-.936,1.313,1.313,0,0,1,1.344-1.365,1.292,1.292,0,0,1,1.325,1.38c0,.041-.005.1-.01.147m-2.174-.349h1.719a.865.865,0,0,0-1.719,0" transform="translate(-23.33 -47.111)" fill="#263238"/>
        <path id="Path_202787" data-name="Path 202787" d="M145.558,368.656V377.1H143.6v-6.874h-1.689v-1.568Z" transform="translate(-18.521 -48.113)" fill="#263238"/>
        <path id="Path_202788" data-name="Path 202788" d="M150.069,376.943a2.817,2.817,0,0,1-.325,1.206l-.688,1.736h-1.195l.531-1.917a1.047,1.047,0,0,1-.651-1.025,1.164,1.164,0,0,1,2.328,0" transform="translate(-19.281 -49.043)" fill="#263238"/>
        <path id="Path_202789" data-name="Path 202789" d="M154.407,368.656V377.1h-1.954v-6.874h-1.689v-1.568Z" transform="translate(-19.676 -48.113)" fill="#263238"/>
        <path id="Path_202790" data-name="Path 202790" d="M156.645,372.856c0-2.786,1.543-4.366,3.618-4.366s3.618,1.58,3.618,4.366-1.532,4.365-3.618,4.365-3.618-1.579-3.618-4.365m5.27,0c0-1.917-.675-2.714-1.652-2.714s-1.641.8-1.641,2.714.676,2.714,1.641,2.714,1.652-.8,1.652-2.714" transform="translate(-20.443 -48.091)" fill="#263238"/>
        <path id="Path_202791" data-name="Path 202791" d="M166.063,372.856c0-2.786,1.543-4.366,3.618-4.366s3.618,1.58,3.618,4.366-1.532,4.365-3.618,4.365-3.618-1.579-3.618-4.365m5.27,0c0-1.917-.675-2.714-1.652-2.714s-1.641.8-1.641,2.714.676,2.714,1.641,2.714,1.652-.8,1.652-2.714" transform="translate(-21.673 -48.091)" fill="#263238"/>
        <path id="Path_202792" data-name="Path 202792" d="M190.827,373.662v3.714h-1.882v-3.425c0-1.049-.47-1.531-1.23-1.531-.844,0-1.435.543-1.435,1.7v3.256H184.4v-3.425c0-1.049-.446-1.531-1.23-1.531-.832,0-1.423.543-1.423,1.7v3.256h-1.882v-6.487h1.8v.747a2.625,2.625,0,0,1,2.037-.844,2.421,2.421,0,0,1,2.135,1.062,2.919,2.919,0,0,1,2.34-1.062c1.544,0,2.654.893,2.654,2.87" transform="translate(-23.474 -48.391)" fill="#263238"/>
        <path id="Path_202793" data-name="Path 202793" d="M134,366.807a7.282,7.282,0,1,1-7.282-7.282A7.282,7.282,0,0,1,134,366.807" transform="translate(-15.588 -46.921)" fill="#4dd0e1"/>
        <path id="Path_202794" data-name="Path 202794" d="M124.4,368.722a11.173,11.173,0,0,1,1.869-.116c1.189-.033,2.888-.062,4.926-.081l-.15.324L129.19,366.7l-.117-.136.113-.142,1.835-2.291.176.367h-.828l-5.967-.023.2-.2c-.018,2.208-.047,4.066-.082,5.372a12.921,12.921,0,0,1-.121,2.058,12.926,12.926,0,0,1-.121-2.058c-.035-1.306-.063-3.163-.082-5.372l0-.2h.2l5.967-.024h1.3l-.3.368-1.849,2.28,0-.276,1.826,2.172.276.329-.425,0c-2.037-.019-3.736-.048-4.926-.081a11.162,11.162,0,0,1-1.869-.116" transform="translate(-16.209 -47.511)" fill="#fafafa"/>
        <path id="Path_202795" data-name="Path 202795" d="M259.3,353.614H237.291a4.21,4.21,0,0,0-4.21,4.21v17.325a4.21,4.21,0,0,0,4.21,4.21h.558v4.129l4.789-4.129H259.3a4.21,4.21,0,0,0,4.21-4.21V357.824a4.21,4.21,0,0,0-4.21-4.21" transform="translate(-30.419 -46.15)" fill="#4dd0e1"/>
        <path id="Path_202796" data-name="Path 202796" d="M240.337,362.7v8.883a.346.346,0,0,0,.346.346h18.624a.346.346,0,0,0,.346-.351l-.043-3.252a.349.349,0,0,0-.069-.2l-2.671-3.571a.348.348,0,0,0-.275-.138l-3.078-.023a.347.347,0,0,1-.343-.346V362.7a.346.346,0,0,0-.346-.346H240.683a.346.346,0,0,0-.346.346" transform="translate(-31.366 -47.29)" fill="#fafafa"/>
        <path id="Path_202797" data-name="Path 202797" d="M256.1,365.547v2.85a.2.2,0,0,0,.2.2l4.111-.073a.2.2,0,0,0,.161-.31l-1.922-2.836a.2.2,0,0,0-.17-.087l-2.189.059a.2.2,0,0,0-.193.2" transform="translate(-33.423 -47.673)" fill="#4dd0e1"/>
        <rect id="Rectangle_44872" data-name="Rectangle 44872" width="20.061" height="0.619" transform="translate(208.596 324.909)" fill="#fafafa"/>
        <path id="Path_202798" data-name="Path 202798" d="M246.94,373.651a1.984,1.984,0,1,1-1.984-1.984,1.984,1.984,0,0,1,1.984,1.984" transform="translate(-31.71 -48.506)" fill="#4dd0e1"/>
        <path id="Path_202799" data-name="Path 202799" d="M246.247,373.774a1.168,1.168,0,1,1-1.168-1.168,1.167,1.167,0,0,1,1.168,1.168" transform="translate(-31.833 -48.628)" fill="#fafafa"/>
        <path id="Path_202800" data-name="Path 202800" d="M255.069,371.929c-.05,0-.09-2.143-.09-4.787s.04-4.787.09-4.787.09,2.143.09,4.787-.04,4.787-.09,4.787" transform="translate(-33.277 -47.29)" fill="#4dd0e1"/>
        <path id="Path_202801" data-name="Path 202801" d="M259.376,373.651a1.984,1.984,0,1,1-1.984-1.984,1.984,1.984,0,0,1,1.984,1.984" transform="translate(-33.333 -48.506)" fill="#4dd0e1"/>
        <path id="Path_202802" data-name="Path 202802" d="M258.683,373.774a1.169,1.169,0,1,1-1.169-1.168,1.168,1.168,0,0,1,1.169,1.168" transform="translate(-33.455 -48.628)" fill="#fafafa"/>
        <path id="Path_202803" data-name="Path 202803" d="M257.505,369.724c0,.05-.284.09-.635.09s-.635-.04-.635-.09.284-.09.635-.09.635.04.635.09" transform="translate(-33.441 -48.24)" fill="#4dd0e1"/>
        <path id="Path_202804" data-name="Path 202804" d="M496.179,202.01s14.029,2.37,15.159,2.671,5.572,2.409,5.8,3.765a40.657,40.657,0,0,1,0,5.346s-.8.655-1.305-.652a13.4,13.4,0,0,1-.427-3.888l-2.485-.956,1.356,2.409.226,5.647s-1.736-.158-2.073-1.51a13.479,13.479,0,0,1-.331-2.857l-1.813-1.535,1.355,1.836.457,4.066s-1.323.427-1.739-.475a14.052,14.052,0,0,1-.45-3.591L504.8,210.5l-3.387,1.885-6.324-3.576Z" transform="translate(-64.613 -26.364)" fill="#ffbe9d"/>
        <path id="Path_202805" data-name="Path 202805" d="M438.824,162.138c.063.278,16.9,23.456,16.9,23.456l33.823,10.519-1.541,12.7-41.453-8.347-14.712-16.884Z" transform="translate(-56.359 -21.16)" fill="#feca2e"/>
        <g id="Group_146720" data-name="Group 146720" transform="translate(375.484 140.978)" opacity="0.2">
          <g id="Group_146719" data-name="Group 146719">
            <g id="Group_146718" data-name="Group 146718" clip-path="url(#clip-path-5)">
              <path id="Path_202806" data-name="Path 202806" d="M438.824,162.138c.063.278,16.9,23.456,16.9,23.456l33.823,10.519-1.541,12.7-41.453-8.347-14.712-16.884Z" transform="translate(-431.843 -162.138)"/>
            </g>
          </g>
        </g>
        <path id="Path_202807" data-name="Path 202807" d="M361.344,212.3h-69.11a2.65,2.65,0,0,1-2.651-2.65V201.48a2.65,2.65,0,0,1,2.651-2.65h69.11a2.65,2.65,0,0,1,2.649,2.65v8.169a2.65,2.65,0,0,1-2.649,2.65" transform="translate(-37.793 -25.949)" fill="#f5f5f5"/>
        <path id="Path_202808" data-name="Path 202808" d="M361.309,212.265c0-.016.15-.006.435-.063a2.63,2.63,0,0,0,2.129-2.283c.031-.816,0-1.791,0-2.87s-.013-2.288-.02-3.6q-.007-.989-.013-2.059a2.535,2.535,0,0,0-.892-1.858,2.465,2.465,0,0,0-.982-.511,4.265,4.265,0,0,0-1.17-.085l-2.541.009-5.526.016-60.525.067a2.416,2.416,0,0,0-1.794.795,2.5,2.5,0,0,0-.634,1.869q0,2.19,0,4.348,0,1.079,0,2.15v1.069a3.451,3.451,0,0,0,.087,1,2.436,2.436,0,0,0,1.164,1.486,2.384,2.384,0,0,0,.91.29c.306.027.683.01,1.023.016l16.07.013,27.211.049,18.345.072,4.988.043,1.3.022c.292.008.443.023.443.023s-.15.016-.443.023l-1.3.023-4.988.042-18.345.072-27.211.049-16.07.013c-.357-.006-.678.015-1.071-.017a2.816,2.816,0,0,1-1.08-.343,2.883,2.883,0,0,1-1.378-1.758,3.811,3.811,0,0,1-.1-1.115l0-1.069v-2.15q0-2.159,0-4.348a2.972,2.972,0,0,1,.751-2.174,2.878,2.878,0,0,1,2.129-.943l60.525.066,5.526.017,2.541.009a4.473,4.473,0,0,1,1.239.1,2.708,2.708,0,0,1,1.077.572,2.776,2.776,0,0,1,.962,2.045q0,1.073-.006,2.064c-.007,1.316-.014,2.52-.02,3.6s.007,2.038-.041,2.886a2.7,2.7,0,0,1-1.053,1.814,2.583,2.583,0,0,1-1.2.5,1.607,1.607,0,0,1-.443.017" transform="translate(-37.758 -25.915)" fill="#263238"/>
        <path id="Path_202809" data-name="Path 202809" d="M545.077,365.569a35.552,35.552,0,1,0,36.061-35.036,35.553,35.553,0,0,0-36.061,35.036" transform="translate(-71.137 -43.137)" fill="#263238"/>
        <path id="Path_202810" data-name="Path 202810" d="M545.083,370.722c0,.031-.006.062-.006.092a35.552,35.552,0,0,0,71.1,1.026c0-.031,0-.061,0-.092Z" transform="translate(-71.137 -48.382)" fill="#263238"/>
        <path id="Path_202811" data-name="Path 202811" d="M557.259,367.311a24.96,24.96,0,1,0,25.317-24.6,24.96,24.96,0,0,0-25.317,24.6" transform="translate(-72.726 -44.727)" fill="#fafafa"/>
        <path id="Path_202812" data-name="Path 202812" d="M582.576,342.714a24.96,24.96,0,0,0-25.317,24.6l49.915.72a24.961,24.961,0,0,0-24.6-25.318" transform="translate(-72.727 -44.727)" fill="#e0e0e0"/>
        <path id="Path_202813" data-name="Path 202813" d="M568.478,368.917A15.2,15.2,0,1,0,583.9,353.933a15.2,15.2,0,0,0-15.422,14.984" transform="translate(-74.191 -46.191)" fill="#263238"/>
        <path id="Path_202814" data-name="Path 202814" d="M562.844,311.253s36.4-11.009,51.455,28.536l-76.171,23.593Z" transform="translate(-70.23 -40.437)" fill="#4dd0e1"/>
        <path id="Path_202815" data-name="Path 202815" d="M292.79,365.569a35.552,35.552,0,1,0,36.061-35.036,35.553,35.553,0,0,0-36.061,35.036" transform="translate(-38.211 -43.137)" fill="#263238"/>
        <path id="Path_202816" data-name="Path 202816" d="M292.8,370.722c0,.031-.006.062-.006.092a35.552,35.552,0,0,0,71.1,1.026c0-.031,0-.061,0-.092Z" transform="translate(-38.211 -48.382)" fill="#263238"/>
        <path id="Path_202817" data-name="Path 202817" d="M304.972,367.311a24.96,24.96,0,1,0,25.317-24.6,24.96,24.96,0,0,0-25.317,24.6" transform="translate(-39.801 -44.727)" fill="#fafafa"/>
        <path id="Path_202818" data-name="Path 202818" d="M330.289,342.714a24.96,24.96,0,0,0-25.317,24.6l49.915.72a24.961,24.961,0,0,0-24.6-25.318" transform="translate(-39.801 -44.727)" fill="#e0e0e0"/>
        <path id="Path_202819" data-name="Path 202819" d="M316.191,368.917a15.2,15.2,0,1,0,15.422-14.984,15.2,15.2,0,0,0-15.422,14.984" transform="translate(-41.265 -46.191)" fill="#263238"/>
        <path id="Path_202820" data-name="Path 202820" d="M382.724,354.573c-.2.1-18.71-2.862-18.71-2.862a11.33,11.33,0,0,1-8.445,4.42c-8,.383-15.815.735-22.586,1.038a11.465,11.465,0,0,0-10.943,11.941v.009A11.478,11.478,0,0,0,333.058,380.1l39.371,1.55c6.473.255,15.08-3.681,19.123-8.744Z" transform="translate(-42.028 -45.901)" fill="#455a64"/>
        <path id="Path_202821" data-name="Path 202821" d="M280.591,322.777s-1.694-34.647,30.868-41.866v-4.442H425.526v10.593s-16.743,20.159-11.276,36.9,7.175,18.452,7.175,18.452h64.92a44.426,44.426,0,0,0,8.2-24.6c.341-14.693-5.764-39.817-10.321-55.875-4.143-14.6-6.764-26.812-6.764-26.812l19.476-6.492s36.038,47.119,37.51,49.769,6.477,8.832,5.3,22.376-33.562,55.348-42.1,60.059-16.192,5-23.847,6.182c-6.645,1.023-55.792.346-68.647.15a25.178,25.178,0,0,1-12.693-3.525c-3.844-2.331-6.736-6.188-9.926-12.523l-6.772-13.248Z" transform="translate(-36.617 -29.839)" fill="#4dd0e1"/>
        <path id="Path_202822" data-name="Path 202822" d="M288.39,334.136l-14.368,22.5a3.508,3.508,0,0,0,4.273,5.147,16.565,16.565,0,0,0,4.819-3.269C289.685,352.267,301.4,335.8,301.4,335.8Z" transform="translate(-35.688 -43.608)" fill="#455a64"/>
        <path id="Path_202823" data-name="Path 202823" d="M394.348,332.909a1.968,1.968,0,0,1,.084-.328l.289-.945a24.652,24.652,0,0,0,.753-3.714,26.209,26.209,0,0,0-2.223-13.58,28.425,28.425,0,0,0-5.293-7.96,34.8,34.8,0,0,0-8.731-6.66,44.149,44.149,0,0,0-11.394-4.241,59.647,59.647,0,0,0-13.014-1.345,98.51,98.51,0,0,0-13.087.96c-4.208.567-8.247,1.264-12.049,2.132a71.138,71.138,0,0,0-19.348,7.159,48.1,48.1,0,0,0-11.057,8.438c-1.147,1.184-1.969,2.168-2.52,2.84l-.617.772a1.9,1.9,0,0,1-.223.255,29.142,29.142,0,0,1,3.233-3.988,46.914,46.914,0,0,1,11.026-8.593,70.526,70.526,0,0,1,19.413-7.288c3.815-.883,7.864-1.59,12.082-2.165a98.172,98.172,0,0,1,13.147-.973,59.784,59.784,0,0,1,13.11,1.365,44.348,44.348,0,0,1,11.5,4.307,35.027,35.027,0,0,1,8.805,6.77,28.6,28.6,0,0,1,5.312,8.087,26.042,26.042,0,0,1,2.105,13.731,22.47,22.47,0,0,1-.84,3.719c-.141.393-.25.7-.333.934a1.889,1.889,0,0,1-.128.312" transform="translate(-38.62 -38.328)" fill="#263238"/>
        <path id="Path_202824" data-name="Path 202824" d="M397.745,326.2c-.049-.019.19-.547.43-1.542a11.253,11.253,0,0,0,.13-4.307,17.814,17.814,0,0,0-2.119-6.039,21.39,21.39,0,0,0-2.1-3.163,19.311,19.311,0,0,0-2.827-2.928,24.934,24.934,0,0,0-6.784-3.968,31.67,31.67,0,0,0-6.225-1.7,41.248,41.248,0,0,0-4.34-.493,12.94,12.94,0,0,1-1.6-.123,1.46,1.46,0,0,1,.417-.039c.273-.006.676-.029,1.195-.014a32.956,32.956,0,0,1,4.383.354,30.172,30.172,0,0,1,6.326,1.628,24.672,24.672,0,0,1,6.924,4.01,19.373,19.373,0,0,1,2.883,3,21.189,21.189,0,0,1,2.122,3.239,17.6,17.6,0,0,1,2.069,6.2,10.742,10.742,0,0,1-.276,4.394,6.223,6.223,0,0,1-.413,1.127,1.447,1.447,0,0,1-.188.372" transform="translate(-48.589 -39.397)" fill="#f5f5f5"/>
        <g id="Group_146723" data-name="Group 146723" transform="translate(326.818 256.448)" opacity="0.4">
          <g id="Group_146722" data-name="Group 146722">
            <g id="Group_146721" data-name="Group 146721" clip-path="url(#clip-path-6)">
              <path id="Path_202825" data-name="Path 202825" d="M375.873,294.94a45.645,45.645,0,0,1,17.177,6.992,30.341,30.341,0,0,1,11.506,14.292c2.276,5.861,1.936,13.622-.46,18.477l8.059.667c2.715-9.048-.241-20.154-6.761-27.239a40.012,40.012,0,0,0-29.521-13.189" transform="translate(-375.873 -294.94)"/>
            </g>
          </g>
        </g>
        <path id="Path_202826" data-name="Path 202826" d="M361.217,274.5H290.706a7.459,7.459,0,0,1-7.459-7.459V221a7.459,7.459,0,0,1,7.459-7.459h70.511A7.459,7.459,0,0,1,368.676,221V267.04a7.459,7.459,0,0,1-7.459,7.459" transform="translate(-36.966 -27.868)" fill="#455a64"/>
        <path id="Path_202827" data-name="Path 202827" d="M368.622,229.15c0,.125-19.207.226-42.895.226s-42.9-.1-42.9-.226,19.2-.226,42.9-.226,42.895.1,42.895.226" transform="translate(-36.911 -29.876)" fill="#263238"/>
        <path id="Path_202828" data-name="Path 202828" d="M430.03,288.257c0,.125-25.637.226-57.254.226s-57.26-.1-57.26-.226,25.632-.226,57.26-.226,57.254.1,57.254.226" transform="translate(-41.177 -37.59)" fill="#263238"/>
        <path id="Path_202829" data-name="Path 202829" d="M439.314,281.915a9.869,9.869,0,0,0,2.062-5.11c.18-2.865-1.127-6.446-4.209-6.446H397.778a11.556,11.556,0,0,0-11.556,11.556Z" transform="translate(-50.405 -35.284)" fill="#455a64"/>
        <path id="Path_202830" data-name="Path 202830" d="M505.865,230.3l-6.85-14.286a8.746,8.746,0,0,1,3.462-11.174l20.483-12.217a6.912,6.912,0,0,1,3.542-.976h4.427L532.7,220.52l-6.829,2.612,4.321,7.029Z" transform="translate(-65.021 -25.011)" fill="#4dd0e1"/>
        <path id="Path_202831" data-name="Path 202831" d="M535.914,192.85s7.008,1.607,7.89,12.411-6.181,14.167-6.181,14.167Z" transform="translate(-69.941 -25.169)" fill="#ebebeb"/>
        <path id="Path_202832" data-name="Path 202832" d="M507.125,213.067s-14.167,6.714-15.9,7.816a3.3,3.3,0,0,0-1.289,4.457c1.605,4.014,8.23.238,8.23.238l13.184-6.592s5.071-2.394,3.2-5.387c-2.1-3.352-7.428-.531-7.428-.531" transform="translate(-63.893 -27.662)" fill="#263238"/>
        <path id="Path_202833" data-name="Path 202833" d="M486.579,210.417S499.885,212.7,501.015,213s5.572,2.41,5.8,3.765a40.669,40.669,0,0,1,0,5.347s-.8.655-1.3-.651a13.421,13.421,0,0,1-.428-3.889l-2.484-.956,1.355,2.409.226,5.647s-1.736-.158-2.073-1.509a13.5,13.5,0,0,1-.331-2.858l-1.812-1.535,1.355,1.836.457,4.066s-1.322.428-1.738-.475a14.02,14.02,0,0,1-.451-3.591l-5.111-1.786-3.387,1.885-5.322-2.916Z" transform="translate(-63.396 -27.461)" fill="#ffbe9d"/>
        <path id="Path_202834" data-name="Path 202834" d="M508.878,187.638c0,5.386-2.477,9.754-5.532,9.754s-5.533-4.367-5.533-9.754,2.477-9.754,5.533-9.754,5.532,4.367,5.532,9.754" transform="translate(-64.969 -23.215)" fill="#263238"/>
        <path id="Path_202835" data-name="Path 202835" d="M505.222,196.523l3.039,10.531a2.726,2.726,0,0,0,1.414-3.109c-.762-3.608-1.192-6.176-2.03-9.335-.1-.32-2.422,1.913-2.422,1.913" transform="translate(-65.936 -25.394)" fill="#263238"/>
        <g id="Group_146726" data-name="Group 146726" transform="translate(375.07 200.52)" opacity="0.4">
          <g id="Group_146725" data-name="Group 146725">
            <g id="Group_146724" data-name="Group 146724" clip-path="url(#clip-path-7)">
              <path id="Path_202836" data-name="Path 202836" d="M435.431,328.723c-.3-.868-.607-1.756-.9-2.668-.271-.849-.589-1.731-.822-2.575a27.8,27.8,0,0,1-.76-3.969c-5.128,20.883,2.7,35.588,16.149,36.622,19.645,1.51,43.6,2.609,53.287.066,17.659-4.635,24.14-19.358,25.685-21.786s15.594-28.1,6.985-52.825-23.612-50.97-23.612-50.97l-14.3,4.767s2.62,12.21,6.764,26.813c4.556,16.06,10.662,41.183,10.32,55.875a44.429,44.429,0,0,1-8.2,24.6H441.105s-1.39-1.395-5.674-13.951" transform="translate(-431.367 -230.617)"/>
            </g>
          </g>
        </g>
        <path id="Path_202837" data-name="Path 202837" d="M277.6,329.914l.457-4.953,118.5,13.651a11.706,11.706,0,0,1,10.163,13.666l-.532,3L283.547,337.46a6.976,6.976,0,0,1-5.944-7.546" transform="translate(-36.226 -42.41)" fill="#4dd0e1"/>
        <g id="Group_146729" data-name="Group 146729" transform="translate(241.347 282.551)" opacity="0.6">
          <g id="Group_146728" data-name="Group 146728">
            <g id="Group_146727" data-name="Group 146727" clip-path="url(#clip-path-8)">
              <path id="Path_202838" data-name="Path 202838" d="M277.6,329.914l.457-4.953,118.5,13.651a11.706,11.706,0,0,1,10.163,13.666l-.532,3L283.547,337.46a6.976,6.976,0,0,1-5.944-7.546" transform="translate(-277.573 -324.961)"/>
            </g>
          </g>
        </g>
        <g id="Group_146732" data-name="Group 146732" transform="translate(471.775 269.406)" opacity="0.3">
          <g id="Group_146731" data-name="Group 146731">
            <g id="Group_146730" data-name="Group 146730" clip-path="url(#clip-path-9)">
              <path id="Path_202839" data-name="Path 202839" d="M542.587,361.092s26.086-28.691,31.464-51.248a50.776,50.776,0,0,1,8.079.6s-15.426,41.931-39.543,50.65" transform="translate(-542.587 -309.843)"/>
            </g>
          </g>
        </g>
        <path id="Path_202840" data-name="Path 202840" d="M573.475,298.216a4.511,4.511,0,0,1,.142.724c.068.479.21,1.182.3,2.1a32.352,32.352,0,0,1-.2,7.788,39.748,39.748,0,0,1-3.442,11.025,125.1,125.1,0,0,1-6.905,12.345,164.6,164.6,0,0,1-15.269,20.648c-2.125,2.507-3.876,4.507-5.093,5.884l-1.412,1.576a4.543,4.543,0,0,1-.516.529,4.478,4.478,0,0,1,.446-.589l1.348-1.631c1.2-1.445,2.9-3.477,4.982-5.974a177.8,177.8,0,0,0,15.126-20.677,130.72,130.72,0,0,0,6.915-12.288,40.324,40.324,0,0,0,3.5-10.9,34.335,34.335,0,0,0,.343-7.724c-.061-.914-.173-1.618-.212-2.1a4.474,4.474,0,0,1-.051-.738" transform="translate(-70.614 -38.92)" fill="#263238"/>
        <path id="Path_202841" data-name="Path 202841" d="M525.27,367.363a69.936,69.936,0,0,1-8.038-7.871,69.943,69.943,0,0,1,8.038,7.871" transform="translate(-67.503 -46.916)" fill="#263238"/>
        <path id="Path_202842" data-name="Path 202842" d="M437.441,366.5a17.4,17.4,0,0,1,4.655-6.863c.1.089-1.091,1.515-2.368,3.4s-2.17,3.516-2.288,3.458" transform="translate(-57.088 -46.935)" fill="#263238"/>
        <path id="Path_202843" data-name="Path 202843" d="M377.937,382.6a17.555,17.555,0,0,0,3.558-4.521,15.609,15.609,0,0,0,1.743-5.952A13.807,13.807,0,0,0,377,359.052a15.627,15.627,0,0,0-5.723-2.39,17.563,17.563,0,0,0-5.752-.078,1.358,1.358,0,0,1,.388-.117,9.039,9.039,0,0,1,1.143-.222,13.643,13.643,0,0,1,4.28.1,15.516,15.516,0,0,1,5.9,2.358,14.022,14.022,0,0,1,6.424,13.465,15.526,15.526,0,0,1-1.876,6.066,13.635,13.635,0,0,1-2.614,3.391,9.011,9.011,0,0,1-.891.75,1.373,1.373,0,0,1-.336.228" transform="translate(-47.704 -46.477)" fill="#263238"/>
        <path id="Path_202844" data-name="Path 202844" d="M329.961,374.875a38.905,38.905,0,0,1-.4-8.379,38.911,38.911,0,0,1,.4,8.379" transform="translate(-42.997 -47.831)" fill="#263238"/>
        <path id="Path_202845" data-name="Path 202845" d="M333.482,374.88a39.635,39.635,0,0,1-1.072-8.4,39.634,39.634,0,0,1,1.072,8.4" transform="translate(-43.376 -47.829)" fill="#263238"/>
        <path id="Path_202846" data-name="Path 202846" d="M380.194,283.616c0,.125-14.408.226-32.176.226s-32.178-.1-32.178-.226,14.4-.226,32.178-.226,32.176.1,32.176.226" transform="translate(-41.22 -36.985)" fill="#263238"/>
        <path id="Path_202847" data-name="Path 202847" d="M336.163,272.536c-.125,0-.226-16.5-.226-36.851s.1-36.855.226-36.855.226,16.5.226,36.855-.1,36.851-.226,36.851" transform="translate(-43.843 -25.949)" fill="#263238"/>
        <path id="Path_202848" data-name="Path 202848" d="M326.049,272.477c-.125-.005.492-16.5,1.377-36.832s1.705-36.82,1.83-36.815-.491,16.494-1.377,36.835-1.705,36.817-1.83,36.812" transform="translate(-42.55 -25.949)" fill="#263238"/>
        <path id="Path_202849" data-name="Path 202849" d="M301.695,391.887a2.39,2.39,0,0,1-.382-.383c-.232-.266-.6-.639-1.016-1.17a33.732,33.732,0,0,1-3.208-4.715,36.057,36.057,0,0,1,.15-36.06,33.663,33.663,0,0,1,3.248-4.688c.417-.528.79-.9,1.024-1.162a2.417,2.417,0,0,1,.385-.38,2.411,2.411,0,0,1-.316.44c-.212.283-.562.669-.956,1.213a38.225,38.225,0,0,0-3.107,4.735,36.621,36.621,0,0,0-.149,35.748,38.37,38.37,0,0,0,3.068,4.761c.389.545.736.935.946,1.22a2.566,2.566,0,0,1,.312.443" transform="translate(-38.152 -44.807)" fill="#455a64"/>
        <path id="Path_202850" data-name="Path 202850" d="M444.432,322.986l-.271.511-5.233,9.853-7.339,7.066,14.666,19.525,12.221-2.027s-1.372-2.789-7.5-3.328l-2.346-11.67,8.618-13.355" transform="translate(-56.326 -42.152)" fill="#455a64"/>
        <path id="Path_202851" data-name="Path 202851" d="M431.59,342.808l14.666,19.524,12.221-2.027-1.682-1.609-10.028,1.1L433.15,341.3Z" transform="translate(-56.326 -44.543)" fill="#e0e0e0"/>
        <path id="Path_202852" data-name="Path 202852" d="M452.239,353.079c-.07.14-.841-.143-1.782.041-.946.156-1.569.692-1.683.585-.13-.073.437-.92,1.587-1.122s1.975.382,1.878.5" transform="translate(-58.566 -46.009)" fill="#263238"/>
        <path id="Path_202853" data-name="Path 202853" d="M451.438,349.685c-.108.107-.772-.524-1.778-.552s-1.71.548-1.811.434c-.05-.048.056-.276.369-.521a2.317,2.317,0,0,1,2.888.1c.3.264.387.5.333.543" transform="translate(-58.446 -45.494)" fill="#263238"/>
        <path id="Path_202854" data-name="Path 202854" d="M450.865,345.345c-.123.09-.656-.547-1.557-.7s-1.618.251-1.7.125c-.043-.056.083-.252.4-.435a2.148,2.148,0,0,1,2.631.463c.236.281.287.508.228.546" transform="translate(-58.415 -44.905)" fill="#263238"/>
        <path id="Path_202855" data-name="Path 202855" d="M454.1,341.329c-.136.076-.6-.563-1.436-.928-.83-.389-1.612-.311-1.646-.463-.065-.135.847-.5,1.87-.033s1.356,1.383,1.212,1.424" transform="translate(-58.861 -44.33)" fill="#263238"/>
        <path id="Path_202856" data-name="Path 202856" d="M455.407,337.7c-.056.051-.54-.374-1.279-1.1l-1.278-1.3a3.956,3.956,0,0,1-.731-.893,1,1,0,0,1-.049-.755.774.774,0,0,1,.674-.509,2.3,2.3,0,0,1,1.239.4,4.144,4.144,0,0,1,1.818,2.382,2.3,2.3,0,0,1,0,1.715,13.7,13.7,0,0,0-.366-1.592,4.266,4.266,0,0,0-.933-1.434,3.934,3.934,0,0,0-.79-.611,1.981,1.981,0,0,0-.92-.32.221.221,0,0,0-.212.15.477.477,0,0,0,.025.351,4.066,4.066,0,0,0,.614.772l1.191,1.377c.667.795,1.052,1.311,1,1.363" transform="translate(-58.992 -43.478)" fill="#263238"/>
        <path id="Path_202857" data-name="Path 202857" d="M456.472,338.286c-.058.006-.118-.644.421-1.489a3.1,3.1,0,0,1,3.514-1.256.573.573,0,0,1,.263.405.694.694,0,0,1-.083.412,1.9,1.9,0,0,1-.375.457,5.484,5.484,0,0,1-.781.637,5.363,5.363,0,0,1-1.533.716,2.5,2.5,0,0,1-1.534.11c-.007-.087.571-.14,1.409-.474a6.138,6.138,0,0,0,1.368-.763,5.729,5.729,0,0,0,.692-.6,1.552,1.552,0,0,0,.27-.328c.043-.117.031-.083.007-.113a.993.993,0,0,0-.376-.072,2.761,2.761,0,0,0-.465.005,3.065,3.065,0,0,0-.858.207,3.023,3.023,0,0,0-1.208.888,11.528,11.528,0,0,0-.731,1.261" transform="translate(-59.559 -43.772)" fill="#263238"/>
        <path id="Path_202858" data-name="Path 202858" d="M442.292,340.558a1.47,1.47,0,1,1-1.691-1.208,1.469,1.469,0,0,1,1.691,1.208" transform="translate(-57.342 -44.285)" fill="#e0e0e0"/>
        <path id="Path_202859" data-name="Path 202859" d="M497.56,333.442l3.921,25.463,31.7-4.717c-.636-3-17.943-6.641-17.943-6.641L513.4,331.129Z" transform="translate(-64.936 -43.215)" fill="#455a64"/>
        <path id="Path_202860" data-name="Path 202860" d="M506.275,350.092a1.309,1.309,0,0,0-.676,1.61,1.259,1.259,0,0,0,1.591.684,1.381,1.381,0,0,0,.706-1.71,1.3,1.3,0,0,0-1.734-.527" transform="translate(-65.975 -45.676)" fill="#e0e0e0"/>
        <path id="Path_202861" data-name="Path 202861" d="M502.026,362.153l-.295-2.582,30.508-3.557s1.5.4,1.491,1.422Z" transform="translate(-65.48 -46.463)" fill="#e0e0e0"/>
        <path id="Path_202862" data-name="Path 202862" d="M518.065,349.724c.018.156-.745.341-1.433.952-.7.593-1,1.322-1.149,1.282-.147-.009-.054-.969.792-1.694s1.8-.687,1.789-.54" transform="translate(-67.267 -45.63)" fill="#263238"/>
        <path id="Path_202863" data-name="Path 202863" d="M522.249,350.743c.057.145-.574.508-1,1.241-.45.72-.477,1.448-.633,1.464-.142.046-.383-.845.166-1.746s1.443-1.106,1.468-.959" transform="translate(-67.921 -45.769)" fill="#263238"/>
        <path id="Path_202864" data-name="Path 202864" d="M525.329,354.577c-.136.054-.466-.688-.195-1.595s.945-1.352,1.029-1.233c.107.115-.3.639-.507,1.388-.229.743-.177,1.4-.328,1.44" transform="translate(-68.521 -45.904)" fill="#263238"/>
        <path id="Path_202865" data-name="Path 202865" d="M517.009,345.433c-.044.15-.786.043-1.652.232-.87.172-1.508.567-1.608.447-.106-.1.473-.771,1.5-.98s1.822.168,1.763.3" transform="translate(-67.047 -45.034)" fill="#263238"/>
        <path id="Path_202866" data-name="Path 202866" d="M515.223,340.994a3.014,3.014,0,0,1-1.589.228,7.172,7.172,0,0,1-1.736-.263,7.644,7.644,0,0,1-.984-.349,1.973,1.973,0,0,1-.535-.3.682.682,0,0,1-.194-.813.864.864,0,0,1,.626-.456,2.132,2.132,0,0,1,.608-.006,5.736,5.736,0,0,1,1.036.192,5.655,5.655,0,0,1,1.608.743c.837.571,1.175,1.112,1.125,1.15-.063.062-.493-.37-1.325-.821a6.409,6.409,0,0,0-1.535-.588,6.006,6.006,0,0,0-.952-.145c-.35-.038-.635,0-.7.164-.023.062-.024.084.06.172a1.625,1.625,0,0,0,.394.221,8.34,8.34,0,0,0,.909.354,8.79,8.79,0,0,0,1.623.36,11.2,11.2,0,0,1,1.56.157" transform="translate(-66.575 -44.244)" fill="#263238"/>
        <path id="Path_202867" data-name="Path 202867" d="M515.683,340.8c-.051.032-.441-.477-.647-1.471a5.2,5.2,0,0,1,.219-2.795,1.328,1.328,0,0,1,.893-.953.751.751,0,0,1,.73.344,2.177,2.177,0,0,1,.25.558,3.559,3.559,0,0,1,.16,1.069,3.692,3.692,0,0,1-.434,1.742c-.5.914-1.116,1.195-1.136,1.144a13.137,13.137,0,0,0,.788-1.309,3.679,3.679,0,0,0,.281-1.567,3.31,3.31,0,0,0-.166-.913c-.1-.33-.266-.583-.387-.53-.158.021-.389.315-.478.6a5.238,5.238,0,0,0-.265.919,5.772,5.772,0,0,0-.072,1.63c.095.936.347,1.491.266,1.528" transform="translate(-67.204 -43.794)" fill="#263238"/>
        <path id="Path_202868" data-name="Path 202868" d="M464.787,264.818,437.6,324.065l17.957,10.781,37.6-71.289" transform="translate(-57.11 -34.396)" fill="#263238"/>
        <path id="Path_202869" data-name="Path 202869" d="M504.385,333.065l-19.511,3.129L473.2,266.515,415.509,270.7a13.991,13.991,0,0,1-4.548-.439c-16.2-4.44-14.01-25.1-12.449-28.409l79.831-2.293a17,17,0,0,1,17.322,14.634Z" transform="translate(-51.87 -31.263)" fill="#263238"/>
        <path id="Path_202870" data-name="Path 202870" d="M396.9,233.46l.29-29.46s-3.8-19.155-4.927-26.684c-1.748-11.691-4.139-17.24,15.008-25.552l4.184-1.615,6.479.086c7.727.581,15.866,7.564,16.053,12.195l7.455,66.382Z" transform="translate(-51.043 -19.596)" fill="#feca2e"/>
        <path id="Path_202871" data-name="Path 202871" d="M398.473,159.885s-5.4,11.632-4.323,22.229l20.142,19.336c4.518,5.03,10.165,7.165,17.387,7.6l41.687,4.557,1.158-10.906L434.87,191.467c-1.577-.29-2.365-1.939-3.574-2.993Z" transform="translate(-51.421 -20.866)" fill="#feca2e"/>
        <path id="Path_202872" data-name="Path 202872" d="M395.4,163.516a2.916,2.916,0,0,1,.8-.535,9.607,9.607,0,0,1,2.693-.754,13.782,13.782,0,0,1,4.5.012,4.669,4.669,0,0,1,1.324.455,11.6,11.6,0,0,1,1.225.838,30.561,30.561,0,0,1,2.436,2.129c1.674,1.556,3.249,3.53,5.1,5.528s3.881,4.149,6.083,6.4,4.575,4.61,7.121,7.044c1.277,1.211,2.6,2.445,3.986,3.654.706.578,1.4,1.257,2.073,1.891a4.976,4.976,0,0,0,2.341,1.371l.011,0,.01,0,39.66,11.214.184.052-.02.19c-.082.771-.17,1.606-.259,2.442-.308,2.9-.613,5.768-.9,8.464l-.023.225-.225-.025L455.88,212.18l-8.349-.919-7.989-.807c-2.6-.284-5.122-.583-7.566-.94a33.933,33.933,0,0,1-7-1.628,25.865,25.865,0,0,1-5.9-3.169c-1.763-1.225-3.368-2.508-4.873-3.761-5.957-5.086-10.33-9.627-13.365-12.724-1.508-1.56-2.66-2.785-3.433-3.62l-.872-.956c-.194-.217-.284-.337-.284-.337s.112.1.316.307l.9.927,3.489,3.562c3.069,3.059,7.478,7.567,13.442,12.606,1.5,1.24,3.111,2.513,4.867,3.721a25.589,25.589,0,0,0,5.836,3.1,33.685,33.685,0,0,0,6.935,1.587c2.437.348,4.96.641,7.553.918l7.988.789,8.351.906,17.647,1.922-.249.2c.286-2.7.59-5.565.9-8.464.09-.836.177-1.67.26-2.442l.163.242L435,191.942l.021.005a5.346,5.346,0,0,1-2.539-1.476c-.7-.666-1.339-1.295-2.061-1.891-1.4-1.221-2.712-2.462-3.988-3.679-2.542-2.446-4.907-4.818-7.1-7.08s-4.22-4.412-6.058-6.438-3.407-3.994-5.055-5.551a30.611,30.611,0,0,0-2.4-2.132,11.486,11.486,0,0,0-1.194-.835,4.5,4.5,0,0,0-1.263-.445,13.858,13.858,0,0,0-4.448-.068,10.042,10.042,0,0,0-2.684.687,6.888,6.888,0,0,0-.826.477" transform="translate(-51.603 -21.148)" fill="#263238"/>
        <path id="Path_202873" data-name="Path 202873" d="M407.356,118.674l2.024,28.677a8.941,8.941,0,0,0,17.84-1.215c-.179-2.729-.342-4.965-.342-4.965s6.943-1.079,7.028-8.02c.05-4.009-.642-13.107-1.235-20.077a9.1,9.1,0,0,0-9.074-8.328h-4.193a12.845,12.845,0,0,0-12.049,13.927" transform="translate(-53.157 -13.67)" fill="#ffbe9d"/>
        <path id="Path_202874" data-name="Path 202874" d="M428.472,146.138a16.143,16.143,0,0,1-9.049-2.572s2.139,5,9.065,4.37Z" transform="translate(-54.738 -18.737)" fill="#eb996e"/>
        <path id="Path_202875" data-name="Path 202875" d="M434.386,124.449a.991.991,0,0,1-.956,1,.948.948,0,0,1-1.022-.894.991.991,0,0,1,.955-1,.949.949,0,0,1,1.023.895" transform="translate(-56.433 -16.125)" fill="#263238"/>
        <path id="Path_202876" data-name="Path 202876" d="M434.515,122.175c-.123.13-.874-.427-1.941-.423-1.065-.012-1.849.536-1.964.405-.056-.057.069-.29.41-.539a2.722,2.722,0,0,1,1.572-.484,2.614,2.614,0,0,1,1.545.5c.328.252.439.486.378.543" transform="translate(-56.196 -15.809)" fill="#263238"/>
        <path id="Path_202877" data-name="Path 202877" d="M422.868,124.449a.991.991,0,0,1-.956,1,.948.948,0,0,1-1.022-.894.991.991,0,0,1,.955-1,.949.949,0,0,1,1.022.895" transform="translate(-54.93 -16.125)" fill="#263238"/>
        <path id="Path_202878" data-name="Path 202878" d="M422.457,122.4c-.123.13-.875-.426-1.941-.423s-1.849.536-1.964.405c-.056-.057.067-.29.41-.539a2.722,2.722,0,0,1,1.572-.484,2.609,2.609,0,0,1,1.544.5c.328.251.439.486.379.543" transform="translate(-54.623 -15.839)" fill="#263238"/>
        <path id="Path_202879" data-name="Path 202879" d="M427.422,130.324a7.056,7.056,0,0,1,1.732-.312c.273-.029.53-.083.576-.269a1.383,1.383,0,0,0-.182-.807l-.806-2.075a35.7,35.7,0,0,1-1.809-5.425,35.786,35.786,0,0,1,2.242,5.267c.269.729.527,1.423.771,2.087a1.572,1.572,0,0,1,.142,1.069.684.684,0,0,1-.448.4,1.815,1.815,0,0,1-.463.064,6.932,6.932,0,0,1-1.756,0" transform="translate(-55.717 -15.848)" fill="#263238"/>
        <path id="Path_202880" data-name="Path 202880" d="M423.861,132.506c.174-.01.176,1.148,1.167,1.969s2.223.695,2.232.856c.017.072-.275.224-.8.239a2.885,2.885,0,0,1-1.863-.65,2.516,2.516,0,0,1-.9-1.651c-.044-.484.085-.771.164-.764" transform="translate(-55.295 -17.293)" fill="#263238"/>
        <path id="Path_202881" data-name="Path 202881" d="M422.631,117.632c-.105.29-1.17.153-2.422.3-1.256.126-2.264.492-2.429.232-.075-.124.1-.4.509-.678a4.244,4.244,0,0,1,3.7-.408c.458.185.69.413.645.55" transform="translate(-54.522 -15.248)" fill="#263238"/>
        <path id="Path_202882" data-name="Path 202882" d="M434.107,118.614c-.188.243-.923-.009-1.806-.021-.883-.043-1.632.163-1.8-.09-.076-.123.043-.366.37-.6a2.616,2.616,0,0,1,2.908.09c.312.249.415.5.332.616" transform="translate(-56.18 -15.336)" fill="#263238"/>
        <path id="Path_202883" data-name="Path 202883" d="M409.361,126.724c-.118-.051-4.769-1.41-4.618,3.334s4.885,3.614,4.888,3.478-.27-6.812-.27-6.812" transform="translate(-52.822 -16.51)" fill="#ffbe9d"/>
        <path id="Path_202884" data-name="Path 202884" d="M408.306,132.019c-.022-.015-.081.061-.218.129a.829.829,0,0,1-.618.033,2.045,2.045,0,0,1-1-1.805,2.736,2.736,0,0,1,.193-1.191.952.952,0,0,1,.6-.654.419.419,0,0,1,.495.21c.068.13.041.226.066.234s.1-.083.055-.277a.526.526,0,0,0-.2-.291.624.624,0,0,0-.461-.107,1.162,1.162,0,0,0-.84.763,2.8,2.8,0,0,0-.244,1.332,2.146,2.146,0,0,0,1.271,2.011.883.883,0,0,0,.752-.15c.143-.122.164-.229.148-.237" transform="translate(-53.003 -16.743)" fill="#eb996e"/>
        <path id="Path_202885" data-name="Path 202885" d="M406.892,123.582a2.5,2.5,0,0,1,2.284,1.17c.309.678.376,1.446.684,2.124a1.678,1.678,0,0,0,1.728,1.12,1.463,1.463,0,0,0,.99-1.083,4.025,4.025,0,0,0,.014-1.53c-.28-2.216-.746-4.414-.835-6.646a11.4,11.4,0,0,1,1.4-6.452,6.237,6.237,0,0,1,5.551-3.121c1.476.119,2.828.888,4.293,1.093a5.8,5.8,0,0,0,4.817-1.608c.159-.158.9-.647.9-.647a2.735,2.735,0,0,0-.5-1.468c-2.907-2.688-8.145-3.438-11.984-2.472a13.847,13.847,0,0,0-9.091,7.275c-1.652,3.6-1.163,8.6-.252,12.244" transform="translate(-52.994 -13.528)" fill="#263238"/>
        <path id="Path_202886" data-name="Path 202886" d="M432.476,111.666s-18.21-5.859-26.087,9.9a29.538,29.538,0,0,1-1.177-6.056c0-1.411.845-9.817,9.495-12.462,0,0,13.031-4.973,17.77,8.623" transform="translate(-52.883 -13.332)" fill="#feca2e"/>
        <path id="Path_202887" data-name="Path 202887" d="M418.52,113.056a3.961,3.961,0,0,0,6.306.574,2.336,2.336,0,0,0,4.414-.232,5.279,5.279,0,0,0,1.771,1.294,1.808,1.808,0,0,0,2.023-.423,1.767,1.767,0,0,0-.126-2.089,4.3,4.3,0,0,0-1.845-1.243,13.339,13.339,0,0,0-6.872-1.042,9.256,9.256,0,0,0-6.025,3.281" transform="translate(-54.574 -14.329)" fill="#263238"/>
        <g id="Group_146735" data-name="Group 146735" transform="translate(352.328 88.824)" opacity="0.4">
          <g id="Group_146734" data-name="Group 146734">
            <g id="Group_146733" data-name="Group 146733" clip-path="url(#clip-path-10)">
              <path id="Path_202888" data-name="Path 202888" d="M432.476,111.666a8.462,8.462,0,0,0-5.791-2.629,22.875,22.875,0,0,0-20.3,12.525,29.538,29.538,0,0,1-1.177-6.056c0-1.411.845-9.817,9.495-12.462,0,0,13.031-4.973,17.77,8.623" transform="translate(-405.211 -102.156)"/>
            </g>
          </g>
        </g>
        <path id="Path_202889" data-name="Path 202889" d="M407.44,119.775a34.289,34.289,0,0,1,10.609-10.161c4.186-2.615,11.108-5.2,15.878-6.468a10.391,10.391,0,0,1,4.385-.46,3.955,3.955,0,0,1,3.252,2.661c.454,1.8-2.738,4.574-4.238,5.666a49.222,49.222,0,0,1-4.559,2.692s.041-3.336-5.3-4.024c-7.262-.935-20.029,10.095-20.029,10.095" transform="translate(-53.174 -13.39)" fill="#feca2e"/>
        <g id="Group_146738" data-name="Group 146738" transform="translate(347.857 165.553)" opacity="0.3">
          <g id="Group_146737" data-name="Group 146737">
            <g id="Group_146736" data-name="Group 146736" clip-path="url(#clip-path-11)">
              <path id="Path_202890" data-name="Path 202890" d="M400.069,190.4c1.876,4.533,3.771,10.119,6.492,14.2a25.279,25.279,0,0,0,10.884,9.591c5.68,2.376,12.4,2.762,18.053.322.461-.2,1.363-.451,1.281-.946,0,0-1.874-.21-2.449-.308-11.424-1.927-12.662-3.337-18.131-7.658-3.408-2.694-10.963-10.839-16.131-15.2" transform="translate(-400.069 -190.402)"/>
            </g>
          </g>
        </g>
        <path id="Path_202891" data-name="Path 202891" d="M437.956,228.342a4.608,4.608,0,0,1-.475,1.059,13.277,13.277,0,0,1-1.847,2.575,19.921,19.921,0,0,1-8.847,5.413,40.251,40.251,0,0,1-10.3,1.543c-1.331.05-2.408.06-3.152.057a5.579,5.579,0,0,1-1.156-.053,5.808,5.808,0,0,1,1.151-.123l3.14-.2a44.922,44.922,0,0,0,10.178-1.656,20.656,20.656,0,0,0,8.748-5.2,22.324,22.324,0,0,0,2.556-3.416" transform="translate(-53.793 -29.8)" fill="#263238"/>
        <path id="Path_202892" data-name="Path 202892" d="M491.388,342.289a1.315,1.315,0,0,1-.069-.27c-.04-.2-.092-.468-.156-.8-.134-.735-.322-1.768-.56-3.084-.472-2.711-1.145-6.582-1.976-11.353L482.278,289.3c-1.1-6.62-2.161-12.955-3.125-18.734l.225.177-24.959,1.825-7.168.487-1.909.112-.492.02a.084.084,0,1,1,0-.036l.49-.056,1.9-.179,7.159-.608,24.947-1.989.193-.016.032.192c.973,5.777,2.039,12.11,3.153,18.728,2.427,14.634,4.623,27.882,6.219,37.507.77,4.781,1.4,8.66,1.834,11.377.2,1.322.362,2.359.476,3.1.047.335.083.6.113.808a1.25,1.25,0,0,1,.023.277" transform="translate(-58.035 -35.277)" fill="#455a64"/>
        <path id="Path_202893" data-name="Path 202893" d="M490.363,263.419c.082.1-1.438,1.409-3.161,3.166s-3.011,3.292-3.115,3.212a20.877,20.877,0,0,1,6.277-6.378" transform="translate(-63.176 -34.378)" fill="#455a64"/>
        <path id="Path_202894" data-name="Path 202894" d="M427.237,153.028c.015,0,.05.093.105.284a4.905,4.905,0,0,1,.165.853,7.083,7.083,0,0,1-.423,3.161,8.137,8.137,0,0,1-2.864,3.761,8.661,8.661,0,0,1-5.579,1.489,10.026,10.026,0,0,1-5.417-2.029,11.7,11.7,0,0,1-3.078-3.591A12.553,12.553,0,0,1,408.968,154a7.986,7.986,0,0,1-.171-.847c-.029-.2-.037-.3-.022-.3a19.76,19.76,0,0,0,1.649,3.947,11.827,11.827,0,0,0,3.051,3.417,9.8,9.8,0,0,0,5.2,1.912,8.383,8.383,0,0,0,5.309-1.38,8.005,8.005,0,0,0,2.805-3.535,7.487,7.487,0,0,0,.547-3.034c-.03-.737-.142-1.139-.095-1.149" transform="translate(-53.348 -19.948)" fill="#263238"/>
        <path id="Path_202895" data-name="Path 202895" d="M443.706,193.226a3.642,3.642,0,0,1-.186-.907q-.145-1.029-.351-2.488l-1.068-8.218c-.394-3.215-.7-6.131-.893-8.245-.1-1.057-.164-1.913-.2-2.506a3.632,3.632,0,0,1-.01-.925,3.606,3.606,0,0,1,.185.906l.341,2.49c.276,2.216.631,5.068,1.024,8.225.394,3.212.735,6.123.936,8.237.1,1.056.172,1.913.209,2.506a3.617,3.617,0,0,1,.01.925" transform="translate(-57.551 -22.178)" fill="#263238"/>
      </g>
    </g>
  </g>
</svg>
