<svg xmlns="http://www.w3.org/2000/svg" xmlns:xlink="http://www.w3.org/1999/xlink" width="150" height="150" viewBox="0 0 150 150">
  <defs>
    <clipPath id="clip-path">
      <rect id="Rectangle_44968" data-name="Rectangle 44968" width="70.015" height="70" fill="#fff"/>
    </clipPath>
  </defs>
  <g id="_29" data-name="29" transform="translate(-1121 -6303)">
    <g id="Group_146883" data-name="Group 146883" transform="translate(-5020.5 16689.014)">
      <circle id="Ellipse_4809" data-name="Ellipse 4809" cx="75" cy="75" r="75" transform="translate(6141.5 -10386.014)" fill="#0f2771"/>
    </g>
    <g id="Group_146900" data-name="Group 146900" transform="translate(0 463)">
      <rect id="Rectangle_44967" data-name="Rectangle 44967" width="80" height="80" transform="translate(1156 5875)" fill="none"/>
      <g id="Group_146897" data-name="Group 146897" transform="translate(1161 5880)">
        <g id="Group_146897-2" data-name="Group 146897" clip-path="url(#clip-path)">
          <path id="Path_203678" data-name="Path 203678" d="M49.01,28.006a21.368,21.368,0,0,0-2.333.138V8.169a3.5,3.5,0,0,0-3.5-3.5H42.009V3.5a3.5,3.5,0,0,0-3.5-3.5H3.5A3.5,3.5,0,0,0,0,3.5V57.18a3.5,3.5,0,0,0,3.5,3.5H4.668v1.167a3.5,3.5,0,0,0,3.5,3.5h27.67A21,21,0,1,0,49.01,28.006M3.5,58.346A1.167,1.167,0,0,1,2.333,57.18V3.5A1.166,1.166,0,0,1,3.5,2.334H38.508A1.166,1.166,0,0,1,39.675,3.5V4.668H8.168a3.5,3.5,0,0,0-3.5,3.5V58.346Zm3.5,3.5V8.169A1.167,1.167,0,0,1,8.168,7H43.176a1.167,1.167,0,0,1,1.167,1.168V28.548A20.947,20.947,0,0,0,33.4,63.014H8.168A1.167,1.167,0,0,1,7,61.847M49.01,67.682A18.671,18.671,0,1,1,67.682,49.01,18.671,18.671,0,0,1,49.01,67.682" fill="#fff"/>
          <path id="Path_203679" data-name="Path 203679" d="M53.52,50.351a1.167,1.167,0,0,0,0,1.65l.342.342H49.647a11.645,11.645,0,0,0-5.434-20.888L44.667,31a1.167,1.167,0,0,0-1.65-1.65l-2.333,2.333a1.167,1.167,0,0,0,0,1.651l2.333,2.333a1.167,1.167,0,0,0,1.65-1.65l-.159-.159a9.334,9.334,0,1,1-7.018,1.388,1.167,1.167,0,0,0-1.3-1.939,11.646,11.646,0,0,0-.487,19.034H32.174a1.167,1.167,0,0,0,0,2.334H53.862l-.342.342A1.167,1.167,0,0,0,55.142,56.7l.028-.029L57.5,54.335a1.169,1.169,0,0,0,0-1.651L55.17,50.351a1.167,1.167,0,0,0-1.65,0" transform="translate(5.168 4.837)" fill="#fff"/>
          <path id="Path_203680" data-name="Path 203680" d="M10.169,15.336H38.174a1.167,1.167,0,1,0,0-2.333H10.169a1.167,1.167,0,1,0,0,2.333" transform="translate(1.5 2.167)" fill="#fff"/>
          <path id="Path_203681" data-name="Path 203681" d="M10.169,22.338H38.174a1.167,1.167,0,1,0,0-2.333H10.169a1.167,1.167,0,1,0,0,2.333" transform="translate(1.5 3.334)" fill="#fff"/>
          <path id="Path_203682" data-name="Path 203682" d="M10.169,29.34H30.007a1.167,1.167,0,1,0,0-2.333H10.169a1.167,1.167,0,1,0,0,2.333" transform="translate(1.5 4.501)" fill="#fff"/>
          <path id="Path_203683" data-name="Path 203683" d="M24.172,34.008h-14a1.167,1.167,0,1,0,0,2.333h14a1.167,1.167,0,1,0,0-2.333" transform="translate(1.5 5.668)" fill="#fff"/>
          <path id="Path_203684" data-name="Path 203684" d="M10.169,43.343H23a1.167,1.167,0,1,0,0-2.333H10.169a1.167,1.167,0,1,0,0,2.333" transform="translate(1.5 6.835)" fill="#fff"/>
          <path id="Path_203685" data-name="Path 203685" d="M24.172,48.011h-14a1.167,1.167,0,1,0,0,2.333h14a1.167,1.167,0,1,0,0-2.333" transform="translate(1.5 8.002)" fill="#fff"/>
        </g>
      </g>
    </g>
  </g>
</svg>
