<svg xmlns="http://www.w3.org/2000/svg" xmlns:xlink="http://www.w3.org/1999/xlink" width="150" height="150" viewBox="0 0 150 150">
  <defs>
    <clipPath id="clip-path">
      <rect id="Rectangle_44970" data-name="Rectangle 44970" width="70" height="70" fill="#fff"/>
    </clipPath>
  </defs>
  <g id="_30" data-name="30" transform="translate(5717.076 5404)">
    <g id="Group_146888" data-name="Group 146888" transform="translate(-11858.576 4982.014)">
      <circle id="Ellipse_4809" data-name="Ellipse 4809" cx="75" cy="75" r="75" transform="translate(6141.5 -10386.014)" fill="#0f2771"/>
    </g>
    <g id="Group_146904" data-name="Group 146904" transform="translate(44 456)">
      <rect id="Rectangle_44969" data-name="Rectangle 44969" width="80" height="80" transform="translate(-5726 -5825)" fill="none"/>
      <g id="Group_146901" data-name="Group 146901" transform="translate(25 -76)">
        <g id="Group_146902" data-name="Group 146902" transform="translate(-5746 -5744)">
          <g id="Group_146901-2" data-name="Group 146901" clip-path="url(#clip-path)">
            <path id="Path_203686" data-name="Path 203686" d="M35,54.194a5.645,5.645,0,1,0,5.645,5.645A5.651,5.651,0,0,0,35,54.194m0,9.032a3.387,3.387,0,1,1,3.387-3.387A3.392,3.392,0,0,1,35,63.226" fill="#fff"/>
            <path id="Path_203687" data-name="Path 203687" d="M35,20.322A10.161,10.161,0,1,0,24.839,10.161,10.173,10.173,0,0,0,35,20.322M33.871,2.348V4.516h2.258V2.348a7.908,7.908,0,0,1,6.684,6.684H40.645V11.29h2.168a7.908,7.908,0,0,1-6.684,6.684V15.806H33.871v2.168a7.908,7.908,0,0,1-6.684-6.684h2.168V9.032H27.187a7.908,7.908,0,0,1,6.684-6.684" fill="#fff"/>
            <path id="Path_203688" data-name="Path 203688" d="M40.314,6.443l-1.6-1.6L35,8.564,33.54,7.105l-1.6,1.6L35,11.757Z" fill="#fff"/>
            <path id="Path_203689" data-name="Path 203689" d="M70,35a35.151,35.151,0,0,0-1.258-9.333l-2.177.6a32.96,32.96,0,0,1-2.311,23.486,9.141,9.141,0,0,0-1.028-3.093V32.742A10.152,10.152,0,0,0,44.5,27.3a7.881,7.881,0,0,0-7.21-4.721H32.711A7.885,7.885,0,0,0,25.5,27.3,10.151,10.151,0,0,0,6.774,32.742v3.512a7.956,7.956,0,0,1-.834,3.535L4.925,41.82a3.84,3.84,0,0,0,1.684,5.144,9.118,9.118,0,0,0-.964,4.072v4.286H25.9l.432.925-1.492.542v6.1l1.492.541-.673,1.437,4.313,4.313,1.437-.673L31.95,70h6.1l.541-1.492,1.437.673,4.313-4.313-.673-1.437,1.494-.543v-6.1l-1.491-.541.432-.926H60.7a32.864,32.864,0,0,1-11.409,9.147l-4.416,2.144H58.709V64.355H54.082A34.738,34.738,0,0,0,70,35ZM42.6,53.064,40.03,50.5l-1.438.673-.543-1.493h-6.1l-.541,1.492L29.972,50.5,27.4,53.064H25.968V50.9a6.934,6.934,0,0,1,5.193-6.718L35,49.3l3.838-5.119A6.934,6.934,0,0,1,44.032,50.9v2.164ZM28.947,41.819l-1.015-2.03a7.785,7.785,0,0,1-.564-1.526,3.33,3.33,0,0,0,.858.124h1.129a3.375,3.375,0,0,0,1.773,2.959l-.279.558a9.141,9.141,0,0,0-1.668.563A3.948,3.948,0,0,0,28.947,41.819Zm.408-5.69H28.226a1.129,1.129,0,0,1,0-2.258h1.129Zm11.29-2.258h1.129a1.129,1.129,0,0,1,0,2.258H40.645Zm0,4.516h1.129a3.364,3.364,0,0,0,1.129-.208v5.572A9.2,9.2,0,0,0,39.15,41.9l-.279-.558A3.376,3.376,0,0,0,40.645,38.387Zm-7.206,3.387H36.56l.5,1.01L35,45.537l-2.065-2.753Zm4.948-3.387a1.13,1.13,0,0,1-1.129,1.129H32.742a1.129,1.129,0,0,1-1.129-1.129V30.951a.468.468,0,0,1,.8-.331l.525.525A9.235,9.235,0,0,0,38.387,33.8Zm7,8.531a6.914,6.914,0,0,1,2.42-2.065,5.584,5.584,0,0,0,10.5.02A6.972,6.972,0,0,1,62.1,51.036v2.028H46.29V50.9a9.227,9.227,0,0,0-.9-3.982m6.546-4.994v-.15h2.258v.15a2.269,2.269,0,0,0,1.939,2.236c.013,0,.026.006.039.009a3.336,3.336,0,0,1-6.214,0L50,44.16a2.268,2.268,0,0,0,1.938-2.236m3.387-2.408H50.806a1.13,1.13,0,0,1-1.129-1.129V33.771a6.648,6.648,0,0,0,3.387-1.694,6.632,6.632,0,0,0,3.387,1.694v4.616a1.129,1.129,0,0,1-1.129,1.129M53.064,24.838a7.914,7.914,0,0,1,7.9,7.9V43.921a9.139,9.139,0,0,0-4.517-2v-.358a3.381,3.381,0,0,0,2.258-3.179V31.613H57.58a4.354,4.354,0,0,1-3.056-1.266l-1.46-1.46-1.46,1.46a4.354,4.354,0,0,1-3.056,1.266H47.419v6.774a3.381,3.381,0,0,0,2.258,3.179v.358a9.179,9.179,0,0,0-4.516,1.983V32.742A7.913,7.913,0,0,1,53.064,24.838Zm-20.352,0h4.576A5.622,5.622,0,0,1,42.9,30.454a6.747,6.747,0,0,1-.131,1.327,3.3,3.3,0,0,0-1-.168H39.516a7.007,7.007,0,0,1-4.984-2.064l-.524-.524a2.724,2.724,0,0,0-4.653,1.926v.662H28.226a3.33,3.33,0,0,0-1,.167,6.745,6.745,0,0,1-.131-1.326,5.621,5.621,0,0,1,5.615-5.616M6.774,43.55a1.643,1.643,0,0,1,.169-.722L7.958,40.8a10.18,10.18,0,0,0,1.074-4.544V32.742a7.9,7.9,0,1,1,15.806,0v3.512A10.208,10.208,0,0,0,25.911,40.8l1.015,2.029a1.271,1.271,0,0,1,.132.954,9.24,9.24,0,0,0-1.165,1.15,9.157,9.157,0,0,0-5.572-3.008v-.358a3.381,3.381,0,0,0,2.258-3.179V31.611H21.45a4.353,4.353,0,0,1-3.056-1.265l-1.459-1.459-1.46,1.46a4.354,4.354,0,0,1-3.056,1.266H11.29v6.774a3.381,3.381,0,0,0,2.258,3.179v.358a9.188,9.188,0,0,0-5.682,3.142A1.617,1.617,0,0,1,6.774,43.55Zm12.419-4.034H14.677a1.13,1.13,0,0,1-1.129-1.129V33.771a6.648,6.648,0,0,0,3.387-1.694,6.632,6.632,0,0,0,3.387,1.694v4.616a1.129,1.129,0,0,1-1.129,1.129m-3.387,2.408v-.15h2.258v.15A2.269,2.269,0,0,0,20,44.16c.226.032.447.08.667.133a4.493,4.493,0,0,1-7.457.022c.218-.053.428-.123.654-.155a2.268,2.268,0,0,0,1.938-2.236M7.9,51.036a6.957,6.957,0,0,1,3.214-5.82A6.747,6.747,0,0,0,22.77,45.19a6.905,6.905,0,0,1,1.839,1.73,9.229,9.229,0,0,0-.9,3.98v2.164H7.9Zm35,10.269-.929.339-.5.228-.482,1.164.633,1.352-2.075,2.076L38.2,65.83l-1.219.5-.513,1.408H33.533l-.339-.93-.228-.5L31.8,65.831l-1.352.634L28.375,64.39l.633-1.353-.5-1.219L27.1,61.305V58.372l.929-.339.5-.228.482-1.164-.634-1.353,2.076-2.075,1.352.634,1.22-.5.512-1.408h2.933l.339.929.228.5,1.164.482,1.353-.633,2.075,2.075-.633,1.353.5,1.219,1.408.513Z" fill="#fff"/>
            <path id="Path_203690" data-name="Path 203690" d="M20.712,5.531l4.416-2.144H11.29V5.645h4.628A34.734,34.734,0,0,0,0,35a35.1,35.1,0,0,0,1.258,9.332l2.176-.6A32.9,32.9,0,0,1,2.258,35,32.535,32.535,0,0,1,20.712,5.531Z" fill="#fff"/>
          </g>
        </g>
      </g>
    </g>
  </g>
</svg>
