<svg xmlns="http://www.w3.org/2000/svg" width="505" height="492.341" viewBox="0 0 505 492.341">
  <g id="Grupo_148924" data-name="Grupo 148924" transform="translate(9047 4765.717)">
    <path id="Trazado_203768" data-name="Trazado 203768" d="M48-34.706C48-114.121,112.121-178.5,191.219-178.5S334.438-114.121,334.438-34.706,270.317,109.088,191.219,109.088,48,44.709,48-34.706Z" transform="translate(-8985.717 -4504.396)" fill="#ededed" fill-rule="evenodd"/>
    <g id="Grupo_146940" data-name="Grupo 146940" transform="translate(-8929.089 -4673.118)">
      <path id="Trazado_203769" data-name="Trazado 203769" d="M0,134.591C0,60.259,60.516,0,135.167,0S270.333,60.259,270.333,134.591,209.817,269.183,135.167,269.183,0,208.924,0,134.591Z" fill="none" stroke="#fff" stroke-linejoin="round" stroke-width="1.5"/>
    </g>
    <path id="Trazado_203770" data-name="Trazado 203770" d="M274.721-50.5h0a178.858,178.858,0,0,1-99.479,30.432A176.585,176.585,0,0,1,82.43-46.258L61-44.138l3.122,19.833A205.825,205.825,0,0,0,175.241,8.16,203.722,203.722,0,0,0,293.368-29.3l-21.77-2.12Z" transform="translate(-8968.805 -4337.903)" fill="#d9d9d9" fill-rule="evenodd"/>
    <path id="Trazado_203771" data-name="Trazado 203771" d="M205.98-204.5C122.319-198.486,52.4-141.981,26-65.393L43.968-75.986l9.106,18.724c22.858-64.64,81.22-112.25,151.471-118.94L220.4-191.028Z" transform="translate(-9014.329 -4538.211)" fill="#d9d9d9" fill-rule="evenodd"/>
    <path id="Trazado_203772" data-name="Trazado 203772" d="M45.5-142,27.628-131.452A209.306,209.306,0,0,0,21-79.743,205.859,205.859,0,0,0,103.812,85.77l-3.44-21.091,19.551-1.687A178.819,178.819,0,0,1,49.277-79.743a178.539,178.539,0,0,1,5.283-43.613Z" transform="translate(-9020.833 -4456.92)" fill="#d9d9d9" fill-rule="evenodd"/>
    <path id="Trazado_203773" data-name="Trazado 203773" d="M111-204.5l15.051,14.083-15.051,14A177.988,177.988,0,0,1,273.619-69.236l20.265,11.974,8.07-16.866C271.853-150.024,197.524-204.16,111-204.5Z" transform="translate(-8903.771 -4538.211)" fill="#d9d9d9" fill-rule="evenodd"/>
    <path id="Trazado_203774" data-name="Trazado 203774" d="M246.288-141.5l-8.9,17.865L218.748-134.5h0a175.72,175.72,0,0,1,8.814,54.434c0,55.787-26.18,105.674-66.427,138.365L158,77.255l22.2,2.107C226.121,41.441,255.775-15.86,255.775-80.07A209.407,209.407,0,0,0,246.288-141.5Z" transform="translate(-8842.639 -4456.27)" fill="#d9d9d9" fill-rule="evenodd"/>
    <path id="Trazado_203775" data-name="Trazado 203775" d="M103.126-214.5A70.132,70.132,0,0,0,33-144.369,69.936,69.936,0,0,0,103.126-74.16a69.955,69.955,0,0,0,70.214-70.209A70.152,70.152,0,0,0,103.126-214.5Z" transform="translate(-9005.225 -4551.219)" fill="#091743" fill-rule="evenodd"/>
    <path id="Trazado_203776" data-name="Trazado 203776" d="M197.543-214.5A70.283,70.283,0,0,0,127.5-144.369,70.084,70.084,0,0,0,197.543-74.16a70.139,70.139,0,0,0,70.3-70.209A70.337,70.337,0,0,0,197.543-214.5Z" transform="translate(-8882.308 -4551.219)" fill="#9eccef" fill-rule="evenodd"/>
    <path id="Trazado_203777" data-name="Trazado 203777" d="M229.172-117A69.9,69.9,0,0,0,159-46.789,70.1,70.1,0,0,0,229.172,23.34a70.371,70.371,0,0,0,70.166-70.129A70.171,70.171,0,0,0,229.172-117Z" transform="translate(-8841.338 -4424.4)" fill="#3da5b3" fill-rule="evenodd"/>
    <path id="Trazado_203778" data-name="Trazado 203778" d="M71.373-117C32.252-117,.5-85.765.5-46.789.5-8.23,32.252,23.34,71.373,23.34c38.863,0,70.615-31.57,70.615-70.129C141.988-85.765,110.236-117,71.373-117Z" transform="translate(-9047.5 -4424.4)" fill="#0f2771" fill-rule="evenodd"/>
    <path id="Trazado_203779" data-name="Trazado 203779" d="M150.913-62C111.774-62,80-30.248,80,8.534a70.938,70.938,0,0,0,70.911,70.954c38.806,0,70.577-31.752,70.577-70.954A70.779,70.779,0,0,0,150.913-62Z" transform="translate(-8944.091 -4352.864)" fill="#727997" fill-rule="evenodd"/>
    <g id="Grupo_146961" data-name="Grupo 146961" transform="translate(-9044.122 -4563.873)">
      <path id="Trazado_203780" data-name="Trazado 203780" d="M114.877-29.892a1.8,1.8,0,0,1,1.252.534,1.728,1.728,0,0,1,.541,1.248v2.142a3.144,3.144,0,0,1-1.432,2.257.68.68,0,0,0-.36.654v.894H113.09v-.894a.733.733,0,0,0-.415-.654,2.748,2.748,0,0,1-1.312-2.257V-28.11a1.829,1.829,0,0,1,1.787-1.782Zm15.32,0a1.7,1.7,0,0,1,1.251.534,1.724,1.724,0,0,1,.536,1.248v2.142a2.967,2.967,0,0,1-1.427,2.257.8.8,0,0,0-.36.654v.894H128.41v-.894a.685.685,0,0,0-.355-.654,2.674,2.674,0,0,1-1.372-2.257V-28.11a1.829,1.829,0,0,1,1.787-1.782Zm-23.01,8.5a1.752,1.752,0,0,1,1.257.479,1.883,1.883,0,0,1,.536,1.308v2.137h-.06a2.516,2.516,0,0,1-1.372,2.2.811.811,0,0,0-.36.654v.949H105.4v-.949a1.01,1.01,0,0,0-.355-.654,2.515,2.515,0,0,1-1.372-2.2v-2.137a1.793,1.793,0,0,1,1.787-1.787Zm15.32,0a1.871,1.871,0,0,1,1.312.479,1.828,1.828,0,0,1,.481,1.308v2.137a2.687,2.687,0,0,1-1.372,2.2.89.89,0,0,0-.421.654v.949H120.72v-.949a.82.82,0,0,0-.355-.654,2.458,2.458,0,0,1-1.312-2.2v-2.137a1.756,1.756,0,0,1,1.787-1.787Zm15.38,0a1.733,1.733,0,0,1,1.252.479,1.86,1.86,0,0,1,.536,1.308v2.137a2.623,2.623,0,0,1-1.427,2.2.812.812,0,0,0-.36.654v.949H136.1v-.949a1.033,1.033,0,0,0-.355-.654,2.516,2.516,0,0,1-1.372-2.2v-2.137a1.79,1.79,0,0,1,1.787-1.787ZM113.09-31.5a3.34,3.34,0,0,0-3.394,3.33v2.142a4.106,4.106,0,0,0,1.727,3.325v.774l-1.432.594a2.705,2.705,0,0,0-.475-.654A3.741,3.741,0,0,0,107.132-23H105.4a3.34,3.34,0,0,0-3.334,3.39v2.137a4.169,4.169,0,0,0,1.667,3.33v.774l-2.148.889A3.251,3.251,0,0,0,99.5-9.386v5.053a.811.811,0,0,0,.831.834.849.849,0,0,0,.836-.834V-9.386a1.743,1.743,0,0,1,1.071-1.6L104.8-12h3.1l2.563,1.009a1.806,1.806,0,0,1,1.136,1.6v5.053a.8.8,0,0,0,.771.834.812.812,0,0,0,.836-.834V-9.386a3.255,3.255,0,0,0-2.088-3.091l-2.143-.889v-.774a4.412,4.412,0,0,0,1.727-3.33v-2.317l1.908-.774h3.159l1.908.774v2.317a4.06,4.06,0,0,0,1.727,3.33v.774l-2.143.889a3.173,3.173,0,0,0-2.088,3.091v5.053a.8.8,0,0,0,.776.834.811.811,0,0,0,.831-.834V-9.386a1.806,1.806,0,0,1,1.136-1.6l2.5-1.009h3.159l2.5,1.009a1.711,1.711,0,0,1,1.131,1.6v5.053a.812.812,0,0,0,.836.834.848.848,0,0,0,.831-.834V-9.386a3.25,3.25,0,0,0-2.083-3.091l-2.208-.889v-.774a4.23,4.23,0,0,0,1.727-3.33v-2.317l1.968-.774h3.1l1.968.774v2.317a4.16,4.16,0,0,0,1.672,3.33v.774l-2.148.889a3.255,3.255,0,0,0-2.088,3.091v5.053a.815.815,0,0,0,.836.834.853.853,0,0,0,.836-.834V-9.386a1.743,1.743,0,0,1,1.071-1.6L136.1-12h3.1l2.563,1.009a1.8,1.8,0,0,1,1.131,1.6v5.053a.8.8,0,0,0,.776.834.815.815,0,0,0,.836-.834V-9.386c-.836-1.423-1.612-2.611-2.924-3.091l-2.143-.889v-.774a4.23,4.23,0,0,0,1.727-3.33v-2.137a3.685,3.685,0,0,0-.951-2.442A4.014,4.014,0,0,0,137.827-23H136.1a3.57,3.57,0,0,0-2.919,1.663l-1.432-.594V-22.7a4.044,4.044,0,0,0,1.727-3.325V-28.17a3.522,3.522,0,0,0-.951-2.377,3.559,3.559,0,0,0-2.388-.954H128.41a3.331,3.331,0,0,0-3.339,3.33v2.142A3.957,3.957,0,0,0,126.8-22.7v.774l-1.432.594a3.094,3.094,0,0,0-.536-.654A3.616,3.616,0,0,0,122.447-23H120.72a3.466,3.466,0,0,0-2.859,1.663l-1.432-.594V-22.7a4.207,4.207,0,0,0,1.727-3.325V-28.17a3.584,3.584,0,0,0-1.011-2.377,3.556,3.556,0,0,0-2.383-.954Z" transform="translate(128.773 233.973)" fill="#fff" fill-rule="evenodd"/>
      <path id="Trazado_203781" data-name="Trazado 203781" d="M115.756-43.413a1.824,1.824,0,0,1,1.718,1.835v1.769a2.627,2.627,0,0,1-2.515,2.686,2.715,2.715,0,0,1-2.573-2.686v-1.769a1.824,1.824,0,0,1,1.714-1.835Zm0,7.812v.431a3.632,3.632,0,0,0,.288.851l-1.085,1.164H114.9l-1.085-1.164a1.485,1.485,0,0,0,.225-.851V-35.6a4.043,4.043,0,0,0,.859.062A4,4,0,0,0,115.756-35.6Zm1.661,2.261,1.373.672a1.148,1.148,0,0,1,.456.856v1.645h-8.289v-1.645h-.11a1.035,1.035,0,0,1,.514-.856l1.315-.672L113.927-32a1.435,1.435,0,0,0,1.147.425A1.8,1.8,0,0,0,116.216-32Zm4.4,4.824-.859,1.83H108.844l-.859-1.83ZM114.1-45a3.309,3.309,0,0,0-3.2,3.419v1.769a4.086,4.086,0,0,0,1.661,3.419v1.343l-1.944.974a2.579,2.579,0,0,0-1.373,2.261v1.645h-2.457a.81.81,0,0,0-.686.364.853.853,0,0,0,0,.733l1.661,3.542a.817.817,0,0,0,.739.425h.859v5.311A.784.784,0,0,0,110.1-19a.794.794,0,0,0,.8-.795V-25.1h8.289v5.311a.8.8,0,0,0,.8.795.834.834,0,0,0,.8-.795V-25.1h.859a.694.694,0,0,0,.686-.425l1.656-3.542c-.058-.179-.058-.549-.23-.733a.647.647,0,0,0-.629-.364h-2.51v-1.645a2.482,2.482,0,0,0-1.373-2.261l-1.886-.974v-1.343a4.387,4.387,0,0,0,1.6-3.419v-1.769a3.305,3.305,0,0,0-3.2-3.419Z" transform="translate(135.289 220.47)" fill="#fff" fill-rule="evenodd"/>
      <path id="Trazado_203782" data-name="Trazado 203782" d="M109.921-34c-.5,0-.918.224-.918.481,0,.3.42.519.918.519h4.088c.5,0,.989-.224.989-.519,0-.258-.492-.481-.989-.481Z" transform="translate(138.277 231.472)" fill="#fff" fill-rule="evenodd"/>
    </g>
    <g id="Grupo_146950" data-name="Grupo 146950" transform="translate(-9045.346 -4560.626)">
      <path id="Trazado_203783" data-name="Trazado 203783" d="M53.825-184c-.471,0-.823.5-.823,1.15a.969.969,0,0,0,.823,1.067,10.9,10.9,0,0,1,4.723,1.067.6.6,0,0,0,.352.076.826.826,0,0,0,.768-.572,1.618,1.618,0,0,0-.471-1.473C57.368-183.917,53.944-184,53.825-184Z" transform="translate(68.095 38.971)" fill="#fff" fill-rule="evenodd"/>
      <g id="Grupo_146949" data-name="Grupo 146949" transform="translate(113.234 -173.09)">
        <path id="Trazado_203784" data-name="Trazado 203784" d="M52.622-176a1.133,1.133,0,0,0-1.119.983v7.007a1.082,1.082,0,0,0,1.119.983,1.03,1.03,0,0,0,1.112-.983v-7.007A1.072,1.072,0,0,0,52.622-176Z" transform="translate(-47.006 222.024)" fill="#fff" fill-rule="evenodd"/>
        <g id="Grupo_146948" data-name="Grupo 146948">
          <path id="Trazado_203785" data-name="Trazado 203785" d="M82.918-182.516l.34,1.32a.916.916,0,0,1-.2.993l-.539.527-1.287-1.254ZM66.175-184.3v3.628a5.649,5.649,0,0,1-.4,1.72l-.471.927c-.068.066-.068.194-.068.394v1.914a4.95,4.95,0,0,1-1.486,3.5,4.551,4.551,0,0,1-3.169,1.343q-.2,0-.408-.017a4.95,4.95,0,0,1-4.729-5.021v-1.653a.8.8,0,0,0-.068-.394l-.607-1.06a4.712,4.712,0,0,1-.335-1.32v-.133a3.888,3.888,0,0,1,3.98-3.828ZM62.4-169.434a4.777,4.777,0,0,0,.2.727l-.811.788a1.955,1.955,0,0,1-1.383.549,1.974,1.974,0,0,1-1.383-.549l-.811-.727a1.514,1.514,0,0,0,.2-.788,8.509,8.509,0,0,0,1.758.327h.2A7.026,7.026,0,0,0,62.4-169.434ZM84.437-186a.91.91,0,0,0-.641.25l-17.82,16.51a.793.793,0,0,1-.675.267h-.136a.951.951,0,0,1-1.015-.993v-.261a2.594,2.594,0,0,0,.811-.66,6.286,6.286,0,0,0,2.024-4.694v-1.648l.34-.727a5.551,5.551,0,0,0,.607-2.513v-4.555a.9.9,0,0,0-.947-.86H58.277a5.673,5.673,0,0,0-5.738,5.614v.066a4.388,4.388,0,0,0,.544,2.047l.4.926v1.387a7.086,7.086,0,0,0,2.9,5.614v.854a1.2,1.2,0,0,1-.811.993l-3.237.926a3.685,3.685,0,0,0-2.841,3.5v8.255a.961.961,0,0,0,.947.926.918.918,0,0,0,.947-.926v-8.255a1.994,1.994,0,0,1,1.417-1.853l3.306-.921c.272-.133.476-.2.743-.333l.607.594a3.77,3.77,0,0,0,2.7,1.06,3.766,3.766,0,0,0,2.7-1.06l.811-.854a3.422,3.422,0,0,0,1.281.327h.2a2.683,2.683,0,0,0,1.888-.727l12.689-11.756,1.287,1.254L66.311-163.886a4.591,4.591,0,0,0-1.417,3.3v5.087a.956.956,0,0,0,.947.921.944.944,0,0,0,.879-.921v-5.087a3.115,3.115,0,0,1,.873-2.047l16.471-16.117a2.682,2.682,0,0,0,.743-2.641l-.335-2.513.607-.594a.9.9,0,0,0,0-1.254A.911.911,0,0,0,84.437-186Z" transform="translate(-49.5 209.572)" fill="#fff" fill-rule="evenodd"/>
          <path id="Trazado_203786" data-name="Trazado 203786" d="M63.783-196.5A2.827,2.827,0,0,0,61-193.549v24.836a.916.916,0,0,0,.863.962.927.927,0,0,0,.929-.962v-24.836a1.01,1.01,0,0,1,.991-1.1H94.13a1.052,1.052,0,0,1,1,1.1v25.522a1,1,0,0,1-1,1.031H73.789a.966.966,0,0,0-.929.962,1.017,1.017,0,0,0,.929.957H94.13a2.866,2.866,0,0,0,2.783-2.95v-25.522A2.91,2.91,0,0,0,94.13-196.5Z" transform="translate(-35.183 196.5)" fill="#fff" fill-rule="evenodd"/>
          <path id="Trazado_203787" data-name="Trazado 203787" d="M84.06-194a.945.945,0,0,0-.94.988.99.99,0,0,0,.94.988h2.611l-9.848,10.278-4.153-4.435a.871.871,0,0,0-.636-.266.871.871,0,0,0-.636.266L63.288-177.6a.936.936,0,0,0,0,1.272.772.772,0,0,0,.67.278.938.938,0,0,0,.67-.278l7.507-7.889,4.221,4.364a.871.871,0,0,0,.636.266.871.871,0,0,0,.636-.266l10.45-10.981v2.744a.986.986,0,0,0,.94.988.979.979,0,0,0,.872-.988v-5c-.2-.491-.535-.917-1.075-.917Z" transform="translate(-32.644 199.612)" fill="#fff" fill-rule="evenodd"/>
        </g>
      </g>
    </g>
    <g id="Grupo_146952" data-name="Grupo 146952" transform="translate(-9046.5 -4561.777)">
      <path id="Trazado_203788" data-name="Trazado 203788" d="M156.534-182.41a1.883,1.883,0,0,1,1.9,1.793v1.729a2.692,2.692,0,0,1-2.854,2.692,2.76,2.76,0,0,1-2.78-2.692v-1.729a1.838,1.838,0,0,1,1.9-1.793Zm0,7.875v.348a2,2,0,0,0,.221.83l-1.175,1.1-1.243-1.1a1.832,1.832,0,0,0,.215-.83v-.348ZM154.774-184a3.543,3.543,0,0,0-3.586,3.383v1.729a4.278,4.278,0,0,0,1.827,3.453v1.317l-2.049,1.033a2.406,2.406,0,0,0-1.464,2.211v7.6a3.181,3.181,0,0,0,.584,1.933l.953,1.317a1.629,1.629,0,0,1,.289.894v1.869a.8.8,0,0,0,.806.76.791.791,0,0,0,.806-.76v-1.869a2.641,2.641,0,0,0-.658-1.863l-.88-1.312a1.561,1.561,0,0,1-.289-.969v-7.6a.9.9,0,0,1,.584-.83l1.464-.69,1.316,1.317a1.967,1.967,0,0,0,1.323.481,1.775,1.775,0,0,0,1.243-.481l1.39-1.317,1.47.69a.842.842,0,0,1,.584.83v7.6a2.171,2.171,0,0,1-.3.969l-.954,1.312a3.182,3.182,0,0,0-.584,1.863v1.869a.8.8,0,0,0,.806.76.791.791,0,0,0,.806-.76v-1.869a1.207,1.207,0,0,1,.3-.894l.88-1.317a3.649,3.649,0,0,0,.658-1.933v-7.6a3.014,3.014,0,0,0-1.612-2.211l-2.128-1.033v-1.317a4.171,4.171,0,0,0,1.833-3.453v-1.729A3.545,3.545,0,0,0,156.608-184Z" transform="translate(193.795 39.56)" fill="#12263f" fill-rule="evenodd"/>
      <path id="Trazado_203789" data-name="Trazado 203789" d="M162.535-182.41a1.889,1.889,0,0,1,1.908,1.793v1.729a2.741,2.741,0,0,1-2.862,2.692,2.76,2.76,0,0,1-2.782-2.692v-1.729a1.839,1.839,0,0,1,1.9-1.793Zm0,7.875v.348a2,2,0,0,0,.222.83l-1.176,1.1-1.243-1.1a1.764,1.764,0,0,0,.222-.83v-.348ZM160.774-184a3.544,3.544,0,0,0-3.588,3.383v1.729a4.267,4.267,0,0,0,1.834,3.453v1.317l-2.055,1.033a2.406,2.406,0,0,0-1.465,2.211v7.6a3.182,3.182,0,0,0,.585,1.933l.954,1.317a1.633,1.633,0,0,1,.3.894v1.869a.791.791,0,0,0,.806.76.8.8,0,0,0,.806-.76v-1.869a2.668,2.668,0,0,0-.658-1.863l-.88-1.312a1.527,1.527,0,0,1-.3-.969v-7.6a.907.907,0,0,1,.585-.83l1.465-.69,1.323,1.317a1.953,1.953,0,0,0,1.317.481,1.776,1.776,0,0,0,1.243-.481l1.4-1.317,1.465.69a.842.842,0,0,1,.585.83v7.6a2.171,2.171,0,0,1-.3.969l-.948,1.312a3.142,3.142,0,0,0-.591,1.863v1.869a.8.8,0,0,0,.806.76.791.791,0,0,0,.806-.76v-1.869a1.207,1.207,0,0,1,.3-.894l.88-1.317a3.647,3.647,0,0,0,.659-1.933v-7.6a3.015,3.015,0,0,0-1.612-2.211l-2.123-1.033v-1.317a4.181,4.181,0,0,0,1.828-3.453v-1.729A3.542,3.542,0,0,0,162.608-184Z" transform="translate(201.542 39.56)" fill="#12263f" fill-rule="evenodd"/>
      <path id="Trazado_203790" data-name="Trazado 203790" d="M168.531-182.41a1.888,1.888,0,0,1,1.907,1.793v1.729a2.739,2.739,0,0,1-2.854,2.692,2.765,2.765,0,0,1-2.786-2.692v-1.729a1.84,1.84,0,0,1,1.907-1.793Zm0,7.875v.348a2,2,0,0,0,.221.83l-1.169,1.1-1.249-1.1a1.767,1.767,0,0,0,.221-.83v-.348ZM166.778-184a3.545,3.545,0,0,0-3.592,3.383v1.729a4.268,4.268,0,0,0,1.833,3.453v1.317l-2.055,1.033a2.416,2.416,0,0,0-1.464,2.211v7.6a3.147,3.147,0,0,0,.591,1.933l.947,1.317a1.633,1.633,0,0,1,.3.894v1.869a.8.8,0,0,0,.806.76.8.8,0,0,0,.806-.76v-1.869a2.669,2.669,0,0,0-.658-1.863l-.88-1.312a1.528,1.528,0,0,1-.3-.969v-7.6a.9.9,0,0,1,.591-.83l1.464-.69,1.316,1.317a1.952,1.952,0,0,0,1.317.481,1.789,1.789,0,0,0,1.249-.481l1.39-1.317,1.464.69a.834.834,0,0,1,.584.83v7.6a2.245,2.245,0,0,1-.289.969l-.954,1.312a3.139,3.139,0,0,0-.584,1.863v1.869a.791.791,0,0,0,.806.76.8.8,0,0,0,.806-.76v-1.869a1.2,1.2,0,0,1,.289-.894l.88-1.317a3.6,3.6,0,0,0,.658-1.933v-7.6a3.014,3.014,0,0,0-1.612-2.211l-2.122-1.033v-1.317a4.171,4.171,0,0,0,1.833-3.453v-1.729A3.546,3.546,0,0,0,168.6-184Z" transform="translate(209.292 39.56)" fill="#12263f" fill-rule="evenodd"/>
      <path id="Trazado_203791" data-name="Trazado 203791" d="M163.324-193.078h0a19.1,19.1,0,0,0-3.34,3.876,22.873,22.873,0,0,0-1.767,3.4H153.79A21.543,21.543,0,0,1,163.324-193.078Zm6.806-1.359v8.63H159.984C162.369-190.766,166.046-194.025,170.13-194.436Zm1.567,0c4.152.343,7.829,3.67,10.077,8.63H171.7Zm6.811,1.359h0a22.332,22.332,0,0,1,9.534,7.272h-4.427a27.177,27.177,0,0,0-1.842-3.4A18.876,18.876,0,0,0,178.508-193.078Zm-20.9,8.767a29.8,29.8,0,0,0-1.91,10.263h-6.057a21.1,21.1,0,0,1,3.129-10.263Zm12.525,0v10.263H157.262a32.077,32.077,0,0,1,1.973-10.263Zm12.462,0a30.5,30.5,0,0,1,1.91,10.263H171.7V-184.31Zm6.537,0a21.332,21.332,0,0,1,3.134,10.263h-6.131A33.568,33.568,0,0,0,184.3-184.31ZM170.879-196a22.679,22.679,0,0,0-16.134,6.661A22.649,22.649,0,0,0,148-173.163a22.441,22.441,0,0,0,1.767,8.767.792.792,0,0,0,.721.456.963.963,0,0,0,.3-.051.74.74,0,0,0,.406-1.016,19.766,19.766,0,0,1-1.562-7.409h5.988v.953a.891.891,0,0,0,.886.748.817.817,0,0,0,.749-.816v-.885H170.13v.953a.758.758,0,0,0,.749.748.755.755,0,0,0,.749-.748v-.953H184.5v.885a.817.817,0,0,0,.749.816.77.77,0,0,0,.812-.748v-.953h5.994a19.775,19.775,0,0,1-1.567,7.409.742.742,0,0,0,.412,1.016,1.4,1.4,0,0,0,.338.069.738.738,0,0,0,.749-.474,21.868,21.868,0,0,0,1.773-8.767,22.194,22.194,0,0,0-6.674-16.176A22.96,22.96,0,0,0,170.879-196Z" transform="translate(191.857 24.06)" fill="#12263f" fill-rule="evenodd"/>
    </g>
    <g id="Grupo_146958" data-name="Grupo 146958" transform="translate(-9047.5 -4563.219)">
      <path id="Trazado_203792" data-name="Trazado 203792" d="M42.859-89.69a.667.667,0,0,1,.614.63v3.369a.88.88,0,0,0,.8.876.888.888,0,0,0,.862-.876v-2.744c.062-.252.3-.315.552-.315h.062a.67.67,0,0,1,.614.624v2.561a.845.845,0,0,0,.862.876.883.883,0,0,0,.857-.876v-2.183a.551.551,0,0,1,.5-.315H48.7a.671.671,0,0,1,.619.624V-85a.833.833,0,0,0,.8.876A.845.845,0,0,0,50.974-85v-1.81a.67.67,0,0,1,.614-.624h.062a.67.67,0,0,1,.614.624v4.25c.124,1,0,4.061-1.538,5.373a.9.9,0,0,0-.3.687V-73.7h-8.3v-1.936a.719.719,0,0,0-.367-.687c.248-.247-2.705-2.5-2.829-4.932-.062-1.375-.181-3.122.372-3.563a1.254,1.254,0,0,1,.785-.21,3.341,3.341,0,0,1,.382.021v1.191a.883.883,0,0,0,.862.871.874.874,0,0,0,.8-.871V-89.06a.672.672,0,0,1,.619-.63Zm9.22,17.557v2.75h-11v-2.75Zm0,4.5v11.748h-11V-67.636ZM42.74-91.5a2.467,2.467,0,0,0-2.4,2.44v2.246c-.114-.005-.227-.01-.336-.01a2.913,2.913,0,0,0-1.874.572c-1.234,1-1.048,3.064-.986,5.064.124,2.75,2.519,4.932,3.443,5.746v1.438h-.434a.844.844,0,0,0-.857.876v18.113a.844.844,0,0,0,.857.876H52.879a.848.848,0,0,0,.862-.876V-73.13a.828.828,0,0,0-.862-.75h-.49v-2.44c2.153-2.183,1.9-6.118,1.843-6.559V-86.94a2.458,2.458,0,0,0-2.4-2.435h-.124a1.848,1.848,0,0,0-1.1.315A2.444,2.444,0,0,0,48.759-90H48.64a1.614,1.614,0,0,0-1.048.31,2.251,2.251,0,0,0-1.781-.871H45.75a4.818,4.818,0,0,0-.924.189A2.391,2.391,0,0,0,42.859-91.5Z" transform="translate(43.441 158.073)" fill="#fff" fill-rule="evenodd"/>
      <path id="Trazado_203793" data-name="Trazado 203793" d="M27.784-98.195l2.151.188-.614,1.369Zm3.868.559,5.529,2.3-.614,2.3-5.895-2.487Zm18.421,7.781,1.965.867L51-86.808l-1.6-.747c.062-.063.062-.063.062-.125ZM53.637-88.3l.918.376a.739.739,0,0,1,.309.308q.093.282,0,.376l-.5,1.181a.375.375,0,0,1-.3.308.476.476,0,0,1-.206.047.24.24,0,0,1-.165-.047l-.98-.5ZM40.249-97.635c.186,0,.309.125.428.314a1.055,1.055,0,0,1,.062.434l-.062.376-1.042,3.606a.879.879,0,0,0,.614,1.061H40.5a.894.894,0,0,0,.856-.622l.985-3.36a.779.779,0,0,1,.614-.251h.062c.181,0,.3.125.428.314a1.044,1.044,0,0,1,.062.434l-.923,3.109a.88.88,0,0,0,.614,1.124h.248a.85.85,0,0,0,.8-.627l.861-2.921a.607.607,0,0,1,.418-.235.412.412,0,0,1,.2.047h.062a.648.648,0,0,1,.49.747l-.186.559-.737,2.43a.777.777,0,0,0,.552,1.056c.062,0,.124.063.186.063a.809.809,0,0,0,.861-.622l.8-2.367a.631.631,0,0,1,.619-.507.76.76,0,0,1,.113.01h.062a.684.684,0,0,1,.5.81l-1.289,4.666v.063c.057,0-.5,3.731-2.7,4.849a.813.813,0,0,0-.5.747v2.676H36.381v-4.228a.94.94,0,0,0-.248-.564s-2.393-2.858-1.9-5.288a20.684,20.684,0,0,1,.433-2.237l1.532.685a.824.824,0,0,0,.614.559.825.825,0,0,0,.289.052.926.926,0,0,0,.82-.674L39.45-97.2a.516.516,0,0,1,.248-.376,1.319,1.319,0,0,1,.49-.063Zm5.529,19.91v2.738H34.844v-2.738ZM25.453-100a.929.929,0,0,0-.861.559,1.008,1.008,0,0,0,.186,1L28.826-94.4l.062.063h.062a.558.558,0,0,0,.433.188l3.682,1.557a12.344,12.344,0,0,0-.614,2.613c-.49,2.738,1.413,5.6,2.027,6.469v3.982H33.8a.885.885,0,0,0-.861.873V-45.87A.882.882,0,0,0,33.8-45H46.572a.882.882,0,0,0,.861-.873v-21.9a.881.881,0,0,0-.861-.867.841.841,0,0,0-.856.867V-46.8H34.844v-26.5H45.777v2.487a.932.932,0,0,0,.856.873.889.889,0,0,0,.861-.873v-7.838a.849.849,0,0,0-.861-.873h-.3v-2.242a8.168,8.168,0,0,0,2.7-4.039l3.93,1.677a1.621,1.621,0,0,0,.918.188,2.508,2.508,0,0,0,.8-.188,2.05,2.05,0,0,0,1.227-1.244l.49-1.118a2.293,2.293,0,0,0,0-1.808,2.206,2.206,0,0,0-1.227-1.244L50.5-91.6l.186-.747a1.925,1.925,0,0,0-.3-1.8,2.346,2.346,0,0,0-1.413-1.118h-.124a3.324,3.324,0,0,0-.552-.047,3.233,3.233,0,0,0-.552.047,2.415,2.415,0,0,0-1.661-1.306H46.02a3.3,3.3,0,0,0-.557-.047,4.191,4.191,0,0,0-.609.047.22.22,0,0,0-.062-.125,2.437,2.437,0,0,0-1.475-1.118h-.062a2.241,2.241,0,0,0-.459-.047,2.278,2.278,0,0,0-.459.047l-.248-.439a2.518,2.518,0,0,0-1.413-1.118h-.119A2.963,2.963,0,0,0,40-99.433a1.892,1.892,0,0,0-1.166.371,2.472,2.472,0,0,0-1.1,1.489l-.124.559-6.08-2.613h-.3Z" transform="translate(29.922 148.931)" fill="#fff" fill-rule="evenodd"/>
      <path id="Trazado_203794" data-name="Trazado 203794" d="M24.358-87.143a.667.667,0,0,1,.614.618v3.341a.832.832,0,0,0,.862.805.816.816,0,0,0,.795-.805v-2.785a.544.544,0,0,1,.558-.307h.062a.663.663,0,0,1,.614.618v2.535a.929.929,0,0,0,.857.868.883.883,0,0,0,.862-.868v-2.167c.062-.244.3-.307.552-.307H30.2a.659.659,0,0,1,.614.618v2.411a.835.835,0,0,0,.862.805.821.821,0,0,0,.8-.805v-1.792a.659.659,0,0,1,.614-.618h.119a.659.659,0,0,1,.614.618v4.146c.372.862.31,3.9-1.347,5.2a.72.72,0,0,0-.31.681v2.78h-8.3v-1.917a.714.714,0,0,0-.372-.681c-.857-.618-3.01-2.66-3.072-4.64-.062-1.418-.124-3.091.367-3.585a1.657,1.657,0,0,1,.764-.151,3.993,3.993,0,0,1,.408.026v1.174a.827.827,0,0,0,.857.805.87.87,0,0,0,.862-.805v-5.2a.663.663,0,0,1,.614-.618Zm9.22,17.322V-67.1h-11v-2.722Zm0,4.39v6.868h-11v-6.868ZM24.3-89a2.366,2.366,0,0,0-2.4,2.411v2.229a4.027,4.027,0,0,0-.547-.036,2.509,2.509,0,0,0-1.667.53c-1.291,1.055-1.1,3.034-1.043,5.071.181,2.66,2.581,4.827,3.5,5.632v1.486h-.49a.831.831,0,0,0-.862.8V-57.7a.844.844,0,0,0,.862.868H34.44a.828.828,0,0,0,.795-.868V-70.876a.812.812,0,0,0-.795-.8h-.558v-2.416c2.153-2.1,1.9-5.938,1.9-6.432v-4.021a2.352,2.352,0,0,0-2.4-2.348H33.33a2.1,2.1,0,0,0-1.167.307,2.258,2.258,0,0,0-1.843-.925h-.062a1.777,1.777,0,0,0-1.1.307,2.164,2.164,0,0,0-1.724-.868h-.124a4.65,4.65,0,0,0-.919.125A2.275,2.275,0,0,0,24.42-89Z" transform="translate(23.539 160.766)" fill="#fff" fill-rule="evenodd"/>
    </g>
    <g id="Grupo_146955" data-name="Grupo 146955" transform="translate(-9043.843 -4565.616)">
      <g id="Grupo_146954" data-name="Grupo 146954" transform="translate(411.174 52.778)">
        <path id="Trazado_203795" data-name="Trazado 203795" d="M197.242-97.5A15.332,15.332,0,0,0,186.336-93a14.95,14.95,0,0,0-1.207,20.2.67.67,0,0,0,.6.3,1.926,1.926,0,0,0,.543-.18.753.753,0,0,0,.122-1.068,13.481,13.481,0,0,1,1.086-18.127,13.878,13.878,0,0,1,9.8-4.008,14.026,14.026,0,0,1,8.618,2.94.786.786,0,0,0,.512.19.827.827,0,0,0,.634-.309.948.948,0,0,0-.183-1.128A15.626,15.626,0,0,0,197.242-97.5Z" transform="translate(-176.234 103.5)" fill="#fff" fill-rule="evenodd"/>
        <path id="Trazado_203796" data-name="Trazado 203796" d="M199.41-98.871a18.974,18.974,0,0,1,18.911,19.033,32.253,32.253,0,0,1-2.991,13.554,41.208,41.208,0,0,1-6.641,10.422,62.514,62.514,0,0,1-9.28,8.672,52.263,52.263,0,0,1-9.275-8.611,42.122,42.122,0,0,1-6.646-10.362A32.588,32.588,0,0,1,180.5-79.838,19.01,19.01,0,0,1,199.41-98.871Zm.06-1.629A20.568,20.568,0,0,0,179-79.9a34.491,34.491,0,0,0,3.112,14.277,43.808,43.808,0,0,0,6.882,10.781,46.769,46.769,0,0,0,10.059,9.218,1.065,1.065,0,0,0,.417.121,1.359,1.359,0,0,0,.478-.121,57,57,0,0,0,10-9.218,43.175,43.175,0,0,0,6.882-10.781A34.569,34.569,0,0,0,220-79.9,20.58,20.58,0,0,0,199.47-100.5Z" transform="translate(-179 100.5)" fill="#fff" fill-rule="evenodd"/>
        <path id="Trazado_203797" data-name="Trazado 203797" d="M190.273-92.5a18.89,18.89,0,0,0-2.588.186c-.375.045-.682.267-.682.62v.62c0,.308.37.571.807.571.495,0,.864-.263.864-.571v-.134c.6-.059,1.151-.085,1.656-.085a12.928,12.928,0,0,1,2.437.219,9.372,9.372,0,0,1,1.734.486,1.523,1.523,0,0,0,.438.085,1.148,1.148,0,0,0,.745-.263c.307-.263.12-.62-.25-.839A13.815,13.815,0,0,0,190.273-92.5Z" transform="translate(-170.998 108.5)" fill="#fff" fill-rule="evenodd"/>
        <path id="Trazado_203798" data-name="Trazado 203798" d="M200.617-93.428v3.838a4.129,4.129,0,0,1-.481,1.919l-.3.581c-.061.054-.061.229-.061.347v1.685a4.991,4.991,0,0,1-1.569,3.662,5.844,5.844,0,0,1-3.856,1.455,5.382,5.382,0,0,1-5.122-5.347v-1.455a.811.811,0,0,0-.061-.347l-.3-.581a3.512,3.512,0,0,1-.486-1.919,3.946,3.946,0,0,1,3.978-3.838Zm-3.553,14.473v1.108a2.3,2.3,0,0,0,.061.64l-2.713,1.973L191.7-77.207a2.52,2.52,0,0,0,.061-.64v-1.108a6.855,6.855,0,0,0,2.409.527h.243A6.9,6.9,0,0,0,197.064-78.955ZM190.8-75.874l2.89,2.095v2.095a14.069,14.069,0,0,1-7.171-2.383,1.1,1.1,0,0,1,.547-.352L190.2-75.64A3.253,3.253,0,0,0,190.8-75.874Zm7.288-.112a1.512,1.512,0,0,0,.6.288l3.856,1.4a12.913,12.913,0,0,1-7.288,2.617v-2.153ZM192.423-95a5.5,5.5,0,0,0-5.6,5.41,5.991,5.991,0,0,0,.6,2.671l.182.41v1.221a7.116,7.116,0,0,0,2.591,5.405v2.095a.879.879,0,0,1-.6.811L186.4-75.815a3.015,3.015,0,0,0-1.812,1.689.806.806,0,0,0,.243.928,15.644,15.644,0,0,0,9.58,3.2,15.616,15.616,0,0,0,10.906-4.36A14.645,14.645,0,0,0,206.584-94.3a.757.757,0,0,0-.577-.278.951.951,0,0,0-.506.161.747.747,0,0,0-.182,1.108A12.921,12.921,0,0,1,204.3-75.64l-.3.293a2.9,2.9,0,0,0-.541-.176l-4.1-1.455a.936.936,0,0,1-.6-.811v-1.978a3.863,3.863,0,0,0,.541-.41,6.3,6.3,0,0,0,2.11-4.766V-86.4l.243-.405a6.458,6.458,0,0,0,.6-2.617v-4.766A.814.814,0,0,0,201.4-95Z" transform="translate(-173.468 106)" fill="#fff" fill-rule="evenodd"/>
      </g>
    </g>
    <g id="Grupo_146942" data-name="Grupo 146942" transform="translate(-9036.646 -4532.196)">
      <path id="Trazado_203799" data-name="Trazado 203799" d="M60.5,0a60.391,60.391,0,1,0,60.281,60.426A60.365,60.365,0,0,0,60.5,0Z" transform="translate(0 -0.002)" fill="none" stroke="#fff" stroke-linejoin="round" stroke-width="4"/>
    </g>
    <g id="Grupo_146943" data-name="Grupo 146943" transform="translate(-8853.74 -4404.506)">
      <path id="Trazado_203800" data-name="Trazado 203800" d="M60.5,0a60.391,60.391,0,1,0,60.281,60.426A60.365,60.365,0,0,0,60.5,0Z" transform="translate(0 -0.002)" fill="none" stroke="#fff" stroke-linejoin="round" stroke-width="4"/>
    </g>
    <g id="Grupo_146944" data-name="Grupo 146944" transform="translate(-8673.135 -4532.196)">
      <path id="Trazado_203801" data-name="Trazado 203801" d="M60.5,0a60.391,60.391,0,1,0,60.281,60.426A60.365,60.365,0,0,0,60.5,0Z" transform="translate(0 -0.002)" fill="none" stroke="#fff" stroke-linejoin="round" stroke-width="4"/>
    </g>
    <g id="Grupo_146945" data-name="Grupo 146945" transform="translate(-8744.457 -4755.364)">
      <path id="Trazado_203802" data-name="Trazado 203802" d="M60.5,0C27.106,0,0,26.627,0,59.852c0,32.87,27.106,59.782,60.5,59.782,33.176,0,60.281-26.912,60.281-59.782C120.783,26.627,93.677,0,60.5,0Z" transform="translate(0 -0.002)" fill="none" stroke="#fff" stroke-linejoin="round" stroke-width="4"/>
    </g>
    <g id="Grupo_146946" data-name="Grupo 146946" transform="translate(-8963.024 -4755.364)">
      <path id="Trazado_203803" data-name="Trazado 203803" d="M60.5,0C27.106,0,0,26.627,0,59.852c0,32.87,27.106,59.782,60.5,59.782,33.176,0,60.281-26.912,60.281-59.782C120.783,26.627,93.677,0,60.5,0Z" transform="translate(0 -0.002)" fill="none" stroke="#fff" stroke-linejoin="round" stroke-width="4"/>
    </g>
    <g id="Grupo_146963" data-name="Grupo 146963" transform="translate(-9238.35 -7563.051)">
      <g id="Grupo_81300" data-name="Grupo 81300" transform="translate(433.925 3236.313)">
        <path id="Trazado_114035" data-name="Trazado 114035" d="M12.531,399.855a12.578,12.578,0,0,1-3.257-.431A12.5,12.5,0,1,1,23.34,381.092a12.512,12.512,0,0,1-10.809,18.762Zm-.036-21.512a9.028,9.028,0,1,0,2.344.311h0A9.037,9.037,0,0,0,12.495,378.342Z" transform="translate(0 -374.834)" fill="#feca2e"/>
      </g>
    </g>
    <g id="Grupo_81300-2" data-name="Grupo 81300" transform="translate(-8915 -4673.737)">
      <path id="Trazado_114035-2" data-name="Trazado 114035" d="M12.531,399.855a12.578,12.578,0,0,1-3.257-.431A12.5,12.5,0,1,1,23.34,381.092a12.512,12.512,0,0,1-10.809,18.762Zm-.036-21.512a9.028,9.028,0,1,0,2.344.311h0A9.037,9.037,0,0,0,12.495,378.342Z" transform="translate(0 -374.834)" fill="#feca2e"/>
    </g>
    <g id="Grupo_81300-3" data-name="Grupo 81300" transform="translate(-8695 -4673.737)">
      <path id="Trazado_114035-3" data-name="Trazado 114035" d="M12.531,399.855a12.578,12.578,0,0,1-3.257-.431A12.5,12.5,0,1,1,23.34,381.092a12.512,12.512,0,0,1-10.809,18.762Zm-.036-21.512a9.028,9.028,0,1,0,2.344.311h0A9.037,9.037,0,0,0,12.495,378.342Z" transform="translate(0 -374.834)" fill="#feca2e"/>
    </g>
    <g id="Grupo_81300-4" data-name="Grupo 81300" transform="translate(-8623 -4451.737)">
      <path id="Trazado_114035-4" data-name="Trazado 114035" d="M12.531,399.855a12.578,12.578,0,0,1-3.257-.431A12.5,12.5,0,1,1,23.34,381.092a12.512,12.512,0,0,1-10.809,18.762Zm-.036-21.512a9.028,9.028,0,1,0,2.344.311h0A9.037,9.037,0,0,0,12.495,378.342Z" transform="translate(0 -374.834)" fill="#feca2e"/>
    </g>
    <path id="Trazado_207532" data-name="Trazado 207532" d="M7.832-3.848q.215-1.1-1.191-1.709l-1.6-.664q-3.369-1.514-3.2-4.121a3.638,3.638,0,0,1,.82-2.124,4.872,4.872,0,0,1,2.08-1.45,7.654,7.654,0,0,1,2.9-.5,4.932,4.932,0,0,1,3.394,1.23A4.088,4.088,0,0,1,12.295-9.99H8.975A1.989,1.989,0,0,0,8.628-11.3a1.5,1.5,0,0,0-1.235-.513,2.588,2.588,0,0,0-1.484.391,1.585,1.585,0,0,0-.762,1.1q-.186.977,1.45,1.6A15.947,15.947,0,0,1,8.975-7.646a3.927,3.927,0,0,1,2.188,3.77,3.86,3.86,0,0,1-.791,2.158A4.573,4.573,0,0,1,8.394-.283,7.307,7.307,0,0,1,5.557.205,6.849,6.849,0,0,1,3.418-.156a4.706,4.706,0,0,1-1.689-1A4.327,4.327,0,0,1,.361-4.619l3.35.01a2.293,2.293,0,0,0,.42,1.655,2.017,2.017,0,0,0,1.611.562,2.418,2.418,0,0,0,1.4-.386A1.6,1.6,0,0,0,7.832-3.848Zm8.613-.986L15.605,0h-3.34l2.461-14.219,5.107.01a5.148,5.148,0,0,1,3.735,1.317,4.058,4.058,0,0,1,1.2,3.414,4.642,4.642,0,0,1-.918,2.488,5.084,5.084,0,0,1-2.114,1.61,7.484,7.484,0,0,1-2.944.556ZM16.9-7.471l2.012.02a2.482,2.482,0,0,0,1.943-.827,2.463,2.463,0,0,0,.537-1.963,1.5,1.5,0,0,0-.454-.945,1.556,1.556,0,0,0-.991-.387l-2.334-.01Zm14.16,2.441H29.209L28.33,0H24.99l2.461-14.219,5.02.01a5.515,5.515,0,0,1,3.716,1.127A3.505,3.505,0,0,1,37.354-10a4.588,4.588,0,0,1-.889,2.551,5.231,5.231,0,0,1-2.187,1.6L36.191-.166V0H32.627ZM29.658-7.666l1.953.02A2.461,2.461,0,0,0,33-8.038a2.156,2.156,0,0,0,.845-1.072,2.52,2.52,0,0,0,.146-1.317,1.311,1.311,0,0,0-1.387-1.145l-2.266-.01ZM41.309,0h-3.34l2.471-14.219h3.33ZM55.225,0H51.992l-3.4-8.975L47.031,0h-3.34l2.461-14.219h3.262L52.8-5.244l1.553-8.975H57.7ZM70.264-11.572H66.123L64.121,0h-3.35l2.012-11.572H58.711l.469-2.646H70.723Z" transform="translate(-8825 -4524.717)" fill="#12263f"/>
    <g id="Grupo_81300-5" data-name="Grupo 81300" transform="translate(-8988 -4451.737)">
      <path id="Trazado_114035-5" data-name="Trazado 114035" d="M12.531,399.855a12.578,12.578,0,0,1-3.257-.431A12.5,12.5,0,1,1,23.34,381.092a12.512,12.512,0,0,1-10.809,18.762Zm-.036-21.512a9.028,9.028,0,1,0,2.344.311h0A9.037,9.037,0,0,0,12.495,378.342Z" transform="translate(0 -374.834)" fill="#feca2e"/>
    </g>
  </g>
</svg>
