<svg xmlns="http://www.w3.org/2000/svg" xmlns:xlink="http://www.w3.org/1999/xlink" width="194.434" height="194.435" viewBox="0 0 194.434 194.435">
  <defs>
    <clipPath id="clip-path">
      <rect id="Rectangle_45010" data-name="Rectangle 45010" width="88.75" height="88.75" fill="none"/>
    </clipPath>
  </defs>
  <g id="_36" data-name="36" transform="translate(-319 -8353.342)">
    <g id="Group_146967" data-name="Group 146967" transform="translate(303 8337.342)">
      <g id="Group_86258" data-name="Group 86258" transform="translate(16 16)">
        <path id="Path_116050" data-name="Path 116050" d="M97.217,0A97.217,97.217,0,1,1,0,97.217,97.217,97.217,0,0,1,97.217,0Z" transform="translate(0)" fill="#bddcf6"/>
        <circle id="_40" data-name="40" cx="82.927" cy="82.927" r="82.927" transform="translate(14.055 14.524)" fill="#fff"/>
      </g>
    </g>
    <g id="Group_146968" data-name="Group 146968" transform="translate(372 8406.342)">
      <g id="Group_146970" data-name="Group 146970" clip-path="url(#clip-path)">
        <path id="Path_203804" data-name="Path 203804" d="M255.4,402.786a2.58,2.58,0,0,1,0,4.38l-10.235,6.4V409.27H204.8l1.589-1.589a2.9,2.9,0,0,0,.444-3.521l-.014-.029a2.888,2.888,0,0,1-.186-2.605c.014,0,.014-.014.014-.029a2.762,2.762,0,0,1,.53-.816h37.991v-4.294Z" transform="translate(-169.3 -327.677)" fill="#feedb6"/>
        <path id="Path_203805" data-name="Path 203805" d="M100.776,78.957a2.909,2.909,0,0,0,2.176-2.806V72.058a2.561,2.561,0,0,0-.129-.816h10.149A27.2,27.2,0,1,0,86.748,36.887H91.5L82.912,48.339,74.323,36.887h3.622a35.77,35.77,0,1,1,35.028,42.943H99.316a2.869,2.869,0,0,1,1.417-.873Z" transform="translate(-61.44 -6.827)" fill="#feca2e"/>
        <path id="Path_203806" data-name="Path 203806" d="M21.728,325.483a2.888,2.888,0,0,0-2.605.186l-.029.014a2.9,2.9,0,0,1-3.521-.444l-2.891-2.891a2.9,2.9,0,0,1-.444-3.521l.014-.029a2.888,2.888,0,0,0,.186-2.605c-.014,0-.014-.014-.014-.029a2.946,2.946,0,0,0-1.947-1.689h-.043a2.909,2.909,0,0,1-2.176-2.806v-4.094a2.909,2.909,0,0,1,2.176-2.806h.043a2.945,2.945,0,0,0,1.947-1.689c0-.014,0-.029.014-.029a2.888,2.888,0,0,0-.186-2.605l-.014-.029a2.9,2.9,0,0,1,.444-3.521l2.891-2.891a2.925,2.925,0,0,1,2.705-.773v26.41h20.04v-26.41a2.925,2.925,0,0,1,2.705.773l2.891,2.891a1.3,1.3,0,0,1,.129.143,2.71,2.71,0,0,1,.6,1.131,2.826,2.826,0,0,1-.286,2.247l-.014.029a2.888,2.888,0,0,0-.186,2.605c.014,0,.014.014.014.029a2.945,2.945,0,0,0,1.947,1.689h.043a2.874,2.874,0,0,1,2.047,1.99,2.56,2.56,0,0,1,.129.816v4.094a2.909,2.909,0,0,1-2.176,2.806H46.12a2.868,2.868,0,0,0-1.417.873,2.763,2.763,0,0,0-.53.816c0,.014,0,.029-.014.029a2.888,2.888,0,0,0,.186,2.605l.014.029a2.9,2.9,0,0,1-.444,3.521l-1.589,1.589-1.3,1.3a2.9,2.9,0,0,1-3.521.444l-.029-.014a2.888,2.888,0,0,0-2.605-.186c0,.014-.014.014-.029.014a2.945,2.945,0,0,0-1.689,1.947v.043a2.909,2.909,0,0,1-2.806,2.176H26.251a2.909,2.909,0,0,1-2.806-2.176v-.043a2.945,2.945,0,0,0-1.689-1.947c-.014,0-.029,0-.029-.014" transform="translate(-6.827 -242.345)" fill="#4dd0e1"/>
        <path id="Path_203807" data-name="Path 203807" d="M214.71,170.748V140.387h25.766v31.492H215.311a2.709,2.709,0,0,0-.6-1.131" transform="translate(-177.492 -116.052)" fill="#e6e9ed"/>
        <path id="Path_203808" data-name="Path 203808" d="M66.064,295.75V264.258H86.1V295.75Z" transform="translate(-54.613 -218.452)" fill="#e6e9ed"/>
        <rect id="Rectangle_45005" data-name="Rectangle 45005" width="8.589" height="8.589" transform="translate(17.177 62.984)" fill="#bddcf6"/>
        <path id="Path_203809" data-name="Path 203809" d="M23.514,324.23H19.429a4.325,4.325,0,0,1-4.194-3.261,1.5,1.5,0,0,0-2.2-.94,4.334,4.334,0,0,1-5.3-.643L4.843,316.5a4.323,4.323,0,0,1-.659-5.272A1.5,1.5,0,0,0,3.292,309,4.334,4.334,0,0,1,0,304.8v-4.085a4.326,4.326,0,0,1,3.259-4.194,1.505,1.505,0,0,0,.942-2.2,4.334,4.334,0,0,1,.643-5.3l2.889-2.889a4.289,4.289,0,0,1,4.045-1.155l-.653,2.787a1.473,1.473,0,0,0-1.367.391l-2.89,2.889a1.466,1.466,0,0,0-.223,1.785A4.363,4.363,0,0,1,4,299.282a1.485,1.485,0,0,0-1.134,1.433V304.8a1.465,1.465,0,0,0,1.1,1.42,4.366,4.366,0,0,1,2.7,6.44,1.474,1.474,0,0,0,.206,1.812l2.889,2.889a1.464,1.464,0,0,0,1.783.223A4.368,4.368,0,0,1,18,320.232a1.474,1.474,0,0,0,1.427,1.135h4.085a1.465,1.465,0,0,0,1.42-1.1,4.364,4.364,0,0,1,6.44-2.7,1.472,1.472,0,0,0,1.812-.208l2.889-2.889a1.466,1.466,0,0,0,.223-1.785,4.363,4.363,0,0,1,2.648-6.457,1.474,1.474,0,0,0,1.134-1.427v-4.085a1.465,1.465,0,0,0-1.1-1.42,4.366,4.366,0,0,1-2.7-6.44,1.474,1.474,0,0,0-.206-1.812l-2.889-2.889a1.45,1.45,0,0,0-1.369-.391l-.653-2.787a4.3,4.3,0,0,1,4.045,1.155L38.1,289.02a4.323,4.323,0,0,1,.659,5.272,1.5,1.5,0,0,0,.892,2.223,4.331,4.331,0,0,1,3.294,4.2V304.8a4.326,4.326,0,0,1-3.259,4.194,1.505,1.505,0,0,0-.942,2.2,4.334,4.334,0,0,1-.643,5.3l-2.889,2.889a4.321,4.321,0,0,1-5.272.66,1.463,1.463,0,0,0-1.338-.1,1.481,1.481,0,0,0-.885.995A4.333,4.333,0,0,1,23.514,324.23Z" transform="translate(0 -235.48)"/>
        <path id="Path_203810" data-name="Path 203810" d="M134.649,73.894,122.5,66.3A37.2,37.2,0,1,0,63.134,28.629H57.806L69.258,43.9,80.709,28.629H75.042A25.759,25.759,0,1,1,99.318,62.984H89.172v2.863H99.318a28.629,28.629,0,1,0-27.6-36.163l-.492,1.808h3.76l-5.726,7.634-5.726-7.634h1.922l.233-1.147A34.341,34.341,0,1,1,99.318,71.573H85.659v2.863h39.425V71.293l8.048,5.029a1.153,1.153,0,0,1,0,1.954L125.084,83.3V80.161h-41.8v2.863h38.937v5.447L134.649,80.7a4.014,4.014,0,0,0,0-6.808m-21.027-2.322a37.244,37.244,0,0,0,8.6-5.052v5.052Z" transform="translate(-47.786 0)"/>
        <path id="Path_203811" data-name="Path 203811" d="M57.806,290.355h22.9V256h-22.9Zm2.863-31.492H77.847v28.629H60.669Z" transform="translate(-47.786 -211.625)"/>
        <path id="Path_203812" data-name="Path 203812" d="M235.081,166.484V132.129H206.452V163.92h2.043v2.564Zm-25.766-31.492h22.9v28.629h-22.9Z" transform="translate(-170.666 -109.226)"/>
        <rect id="Rectangle_45006" data-name="Rectangle 45006" width="11.452" height="2.863" transform="translate(15.746 50.101)"/>
        <rect id="Rectangle_45007" data-name="Rectangle 45007" width="11.452" height="2.863" transform="translate(15.746 55.827)"/>
        <path id="Path_203813" data-name="Path 203813" d="M90.839,366.548h11.452V355.1H90.839Zm2.863-8.589h5.726v5.726H93.7Z" transform="translate(-75.093 -293.544)"/>
        <path id="Path_203814" data-name="Path 203814" d="M253.8,239.815h-2.863v-2.863h-2.863v2.863h-2.863v-5.726h-2.863v5.726h-2.863v2.863h17.177V231.226H253.8Z" transform="translate(-197.971 -191.146)"/>
        <rect id="Rectangle_45008" data-name="Rectangle 45008" width="17.177" height="2.863" transform="translate(41.512 28.629)"/>
        <rect id="Rectangle_45009" data-name="Rectangle 45009" width="17.177" height="2.863" transform="translate(41.512 34.355)"/>
      </g>
    </g>
  </g>
</svg>
