<svg xmlns="http://www.w3.org/2000/svg" xmlns:xlink="http://www.w3.org/1999/xlink" width="190" height="115" viewBox="0 0 190 115">
  <defs>
    <clipPath id="clip-path">
      <rect id="Rectangle_44497" data-name="Rectangle 44497" width="107.561" height="100" fill="#0f2771"/>
    </clipPath>
  </defs>
  <g id="intro" transform="translate(-180 -399)">
    <rect id="Rectangle_43992" data-name="Rectangle 43992" width="190" height="115" transform="translate(180 399)" fill="none"/>
    <g id="Group_146383" data-name="Group 146383">
      <rect id="Rectangle_41430" data-name="Rectangle 41430" width="85" height="28" rx="14" transform="translate(285 407)" fill="#feca2e" opacity="0.2"/>
      <rect id="Rectangle_41431" data-name="Rectangle 41431" width="85" height="28" rx="14" transform="translate(180 468)" fill="#4dd0e1" opacity="0.2"/>
    </g>
    <g id="Group_146382" data-name="Group 146382" transform="translate(221 407)">
      <g id="Group_146381" data-name="Group 146381" clip-path="url(#clip-path)">
        <path id="Path_202289" data-name="Path 202289" d="M16.423,20.45a5.669,5.669,0,1,0-5.671-5.671,5.674,5.674,0,0,0,5.671,5.671m0-7.867a2.2,2.2,0,1,1-2.2,2.2,2.2,2.2,0,0,1,2.2-2.2" fill="#0f2771"/>
        <path id="Path_202290" data-name="Path 202290" d="M31.716,20.45a5.669,5.669,0,1,0-5.665-5.671,5.677,5.677,0,0,0,5.665,5.671m0-7.867a2.2,2.2,0,1,1-2.2,2.2,2.2,2.2,0,0,1,2.2-2.2" fill="#0f2771"/>
        <path id="Path_202291" data-name="Path 202291" d="M54.436,20.45h30.6a5.669,5.669,0,1,0,0-11.337h-30.6a5.669,5.669,0,0,0,0,11.337m0-7.867h30.6a2.2,2.2,0,1,1,0,4.4h-30.6a2.2,2.2,0,0,1,0-4.4" fill="#0f2771"/>
        <path id="Path_202292" data-name="Path 202292" d="M74.5,66.766a3.856,3.856,0,0,0-1.136-2.755l-.462-.462a18.249,18.249,0,0,0,1.3-3.126h.653a3.889,3.889,0,0,0,3.884-3.884V53.4a3.889,3.889,0,0,0-3.884-3.884h-.646a18.165,18.165,0,0,0-1.3-3.158l.46-.46a3.889,3.889,0,0,0,0-5.5l-2.215-2.216A3.863,3.863,0,0,0,68.4,37.054h-.009a3.846,3.846,0,0,0-2.734,1.134l-.467.466a18.4,18.4,0,0,0-3.2-1.324v-.62a3.889,3.889,0,0,0-3.884-3.884H54.965a3.888,3.888,0,0,0-3.884,3.884v.663a18.208,18.208,0,0,0-3.128,1.31l-.449-.447a3.843,3.843,0,0,0-2.74-1.14h-.009a3.861,3.861,0,0,0-2.75,1.138L39.8,40.448a3.89,3.89,0,0,0,0,5.5l.476.477a18.248,18.248,0,0,0-1.276,3.1h-.658A3.889,3.889,0,0,0,34.451,53.4V56.54a3.889,3.889,0,0,0,3.884,3.884H39a18.315,18.315,0,0,0,1.3,3.126l-.462.461a3.888,3.888,0,0,0,0,5.493L42.05,71.72a3.847,3.847,0,0,0,2.743,1.141H44.8a3.856,3.856,0,0,0,2.751-1.14l.459-.46a18.451,18.451,0,0,0,3.131,1.3v.673a3.889,3.889,0,0,0,3.884,3.885h3.141a3.888,3.888,0,0,0,3.884-3.885v-.67a18.139,18.139,0,0,0,3.144-1.306l.461.461a3.849,3.849,0,0,0,2.741,1.142H68.4a3.855,3.855,0,0,0,2.75-1.139l2.209-2.214A3.847,3.847,0,0,0,74.5,66.766ZM71.179,58.3a14.9,14.9,0,0,1-1.909,4.612,1.734,1.734,0,0,0,.243,2.148l1.4,1.4a.416.416,0,0,1,.119.3.407.407,0,0,1-.121.292L68.7,69.27a.415.415,0,0,1-.3.121c-.014-.048-.191-.02-.291-.121l-1.407-1.407a1.732,1.732,0,0,0-2.15-.241,14.838,14.838,0,0,1-4.625,1.92,1.736,1.736,0,0,0-1.351,1.692v2a.42.42,0,0,1-.414.415H55.024a.42.42,0,0,1-.414-.415v-2a1.735,1.735,0,0,0-1.345-1.69,14.906,14.906,0,0,1-4.616-1.921,1.735,1.735,0,0,0-2.156.243l-1.4,1.405a.416.416,0,0,1-.3.12c.013-.019-.186-.014-.292-.121l-2.224-2.224a.4.4,0,0,1-.115-.286.416.416,0,0,1,.119-.3l1.4-1.4a1.734,1.734,0,0,0,.243-2.148A14.9,14.9,0,0,1,42.022,58.3a1.734,1.734,0,0,0-1.692-1.349h-2a.42.42,0,0,1-.414-.415V53.4a.42.42,0,0,1,.414-.414h1.989a1.735,1.735,0,0,0,1.693-1.354A14.853,14.853,0,0,1,43.9,47.048a1.734,1.734,0,0,0-.247-2.143l-1.413-1.413a.416.416,0,0,1-.119-.3.411.411,0,0,1,.121-.293l2.212-2.217a.417.417,0,0,1,.3-.121c-.008.029.186.015.293.122l1.4,1.4a1.733,1.733,0,0,0,2.157.233,14.688,14.688,0,0,1,4.6-1.927A1.734,1.734,0,0,0,54.55,38.7V36.71a.42.42,0,0,1,.415-.415h3.141a.42.42,0,0,1,.414.415v1.953a1.735,1.735,0,0,0,1.355,1.693,14.979,14.979,0,0,1,4.684,1.933,1.732,1.732,0,0,0,2.144-.242l1.414-1.408a.4.4,0,0,1,.285-.115h0a.42.42,0,0,1,.3.12l2.214,2.214a.416.416,0,0,1,.119.3.408.408,0,0,1-.122.293l-1.4,1.407A1.736,1.736,0,0,0,69.27,47a14.848,14.848,0,0,1,1.915,4.636,1.735,1.735,0,0,0,1.692,1.352h1.977a.42.42,0,0,1,.414.414v3.135a.42.42,0,0,1-.414.415H72.87A1.735,1.735,0,0,0,71.179,58.3Z" fill="#0f2771"/>
        <path id="Path_202293" data-name="Path 202293" d="M56.6,45.567a9.405,9.405,0,1,0,9.4,9.4A9.419,9.419,0,0,0,56.6,45.567Zm0,15.341a5.936,5.936,0,1,1,5.936-5.936A5.945,5.945,0,0,1,56.6,60.908" fill="#0f2771"/>
        <path id="Path_202294" data-name="Path 202294" d="M101.457,69.149V9.162A9.172,9.172,0,0,0,92.3,0H9.162A9.172,9.172,0,0,0,0,9.162V83.9a9.172,9.172,0,0,0,9.162,9.162H76.036a17.547,17.547,0,1,0,25.421-23.91M9.162,3.47H92.3a5.7,5.7,0,0,1,5.692,5.692V26.093H3.47V9.162A5.7,5.7,0,0,1,9.162,3.47m0,86.12A5.7,5.7,0,0,1,3.47,83.9V29.563H97.988V66.778c-.152-.078-.3-.125-.446-.187a17.543,17.543,0,0,0-23.654,22.84c.022.054.034.1.059.159Zm80.83,6.94a14.1,14.1,0,1,1,14.1-14.1,14.114,14.114,0,0,1-14.1,14.1" fill="#0f2771"/>
        <path id="Path_202295" data-name="Path 202295" d="M10.806,38.273H34.239a1.735,1.735,0,1,0,0-3.47H10.806a1.735,1.735,0,1,0,0,3.47" fill="#0f2771"/>
        <path id="Path_202296" data-name="Path 202296" d="M30.718,43.18H25.251a1.735,1.735,0,0,0,0,3.47h5.467a1.735,1.735,0,0,0,0-3.47" fill="#0f2771"/>
        <path id="Path_202297" data-name="Path 202297" d="M10.806,46.65h6.068a1.735,1.735,0,0,0,0-3.47H10.806a1.735,1.735,0,0,0,0,3.47" fill="#0f2771"/>
        <path id="Path_202298" data-name="Path 202298" d="M10.806,55.027H27.191a1.735,1.735,0,0,0,0-3.47H10.806a1.735,1.735,0,0,0,0,3.47" fill="#0f2771"/>
        <path id="Path_202299" data-name="Path 202299" d="M10.806,63.4H29.287a1.735,1.735,0,1,0,0-3.47H10.806a1.735,1.735,0,1,0,0,3.47" fill="#0f2771"/>
        <path id="Path_202300" data-name="Path 202300" d="M30.718,68.318H26.212a1.735,1.735,0,0,0,0,3.47h4.506a1.735,1.735,0,0,0,0-3.47" fill="#0f2771"/>
        <path id="Path_202301" data-name="Path 202301" d="M17.836,68.318H10.807a1.735,1.735,0,0,0,0,3.47h7.029a1.735,1.735,0,0,0,0-3.47" fill="#0f2771"/>
        <path id="Path_202302" data-name="Path 202302" d="M38.431,76.695H23.28a1.735,1.735,0,1,0,0,3.47H38.431a1.735,1.735,0,0,0,0-3.47" fill="#0f2771"/>
        <path id="Path_202303" data-name="Path 202303" d="M14.9,76.695h-4.1a1.735,1.735,0,0,0,0,3.47h4.1a1.735,1.735,0,0,0,0-3.47" fill="#0f2771"/>
        <path id="Path_202304" data-name="Path 202304" d="M87.44,89a1.732,1.732,0,0,1-1.209-.49l-4.31-4.186a1.735,1.735,0,0,1,2.418-2.489l3.067,2.979,8.207-8.425A1.735,1.735,0,0,1,98.1,78.809l-9.415,9.666A1.731,1.731,0,0,1,87.44,89" fill="#0f2771"/>
      </g>
    </g>
  </g>
</svg>
