<svg xmlns="http://www.w3.org/2000/svg" xmlns:xlink="http://www.w3.org/1999/xlink" width="150" height="150" viewBox="0 0 150 150">
  <defs>
    <clipPath id="clip-path">
      <rect id="Rectangle_45323" data-name="Rectangle 45323" width="70" height="70" fill="#fff"/>
    </clipPath>
  </defs>
  <g id="_14" data-name="14" transform="translate(-315.271 -4655)">
    <g id="Group_148922" data-name="Group 148922">
      <g id="Group_141121" data-name="Group 141121" transform="translate(414.271 4639)">
        <g id="Group_86258" data-name="Group 86258" transform="translate(-99 16)">
          <path id="Path_116050" data-name="Path 116050" d="M75,0A75,75,0,1,1,0,75,75,75,0,0,1,75,0Z" transform="translate(0)" fill="#e8f3fc"/>
        </g>
      </g>
      <circle id="_40" data-name="40" cx="63.976" cy="63.976" r="63.976" transform="translate(326.271 4666)" fill="#0f2771"/>
    </g>
    <g id="Group_147222" data-name="Group 147222" transform="translate(355.271 4695)">
      <g id="Group_147221" data-name="Group 147221" clip-path="url(#clip-path)">
        <path id="Path_206272" data-name="Path 206272" d="M64.167,80H44.333v2.333H64.167a3.5,3.5,0,0,1,3.5,3.5v33.833H65.333V87A2.336,2.336,0,0,0,63,84.667H44.333V87H63v32.667H7V87H7V84.667A2.336,2.336,0,0,0,4.667,87v32.667H2.333V85.833a3.5,3.5,0,0,1,3.5-3.5H7V80H5.833A5.84,5.84,0,0,0,0,85.833v37.333A5.84,5.84,0,0,0,5.833,129H29.167v3.5a3.5,3.5,0,0,1-3.5,3.5,1.167,1.167,0,0,0,0,2.333H44.333a1.167,1.167,0,0,0,0-2.333,3.5,3.5,0,0,1-3.5-3.5V129H64.167A5.84,5.84,0,0,0,70,123.167V85.833A5.84,5.84,0,0,0,64.167,80m-24.5,56H30.331a5.8,5.8,0,0,0,1.169-3.5V129h7v3.5A5.8,5.8,0,0,0,39.669,136Zm24.5-9.333H5.833a3.5,3.5,0,0,1-3.5-3.5V122H67.667v1.167a3.5,3.5,0,0,1-3.5,3.5" transform="translate(0 -68.333)" fill="#fff"/>
        <path id="Path_206273" data-name="Path 206273" d="M233.167,376A1.167,1.167,0,1,1,232,377.167,1.167,1.167,0,0,1,233.167,376" transform="translate(-198.167 -321.167)" fill="#fff"/>
        <path id="Path_206274" data-name="Path 206274" d="M66.333,2.334H85V10.5a1.167,1.167,0,0,0,1.167,1.167h8.167v14h2.333V10.5a1.167,1.167,0,0,0-.342-.825L86.992.343A1.166,1.166,0,0,0,86.167,0h-21A1.167,1.167,0,0,0,64,1.168h0v42h2.333Zm21,1.65,5.35,5.35h-5.35Z" transform="translate(-54.667 -0.001)" fill="#fff"/>
        <rect id="Rectangle_45313" data-name="Rectangle 45313" width="4.667" height="2.333" transform="translate(14 4.667)" fill="#fff"/>
        <rect id="Rectangle_45314" data-name="Rectangle 45314" width="4.667" height="2.333" transform="translate(14 9.333)" fill="#fff"/>
        <rect id="Rectangle_45315" data-name="Rectangle 45315" width="7" height="2.333" transform="translate(16.333 14)" fill="#fff"/>
        <rect id="Rectangle_45316" data-name="Rectangle 45316" width="11.667" height="2.333" transform="translate(25.667 14)" fill="#fff"/>
        <rect id="Rectangle_45317" data-name="Rectangle 45317" width="7" height="2.333" transform="translate(14 18.667)" fill="#fff"/>
        <rect id="Rectangle_45318" data-name="Rectangle 45318" width="7" height="2.333" transform="translate(23.333 18.667)" fill="#fff"/>
        <rect id="Rectangle_45319" data-name="Rectangle 45319" width="4.667" height="2.333" transform="translate(32.667 18.667)" fill="#fff"/>
        <rect id="Rectangle_45320" data-name="Rectangle 45320" width="14" height="2.333" transform="translate(14 23.333)" fill="#fff"/>
        <rect id="Rectangle_45321" data-name="Rectangle 45321" width="7" height="2.333" transform="translate(30.333 23.333)" fill="#fff"/>
        <rect id="Rectangle_45322" data-name="Rectangle 45322" width="9.333" height="2.333" transform="translate(14 28)" fill="#fff"/>
        <path id="Path_206275" data-name="Path 206275" d="M97.167,272A1.167,1.167,0,0,0,96,273.167v7a1.167,1.167,0,0,0,1.167,1.167h4.667A1.167,1.167,0,0,0,103,280.167v-7A1.167,1.167,0,0,0,101.833,272Zm3.5,7H98.333v-4.667h2.333Z" transform="translate(-82 -232.333)" fill="#fff"/>
        <path id="Path_206276" data-name="Path 206276" d="M153.167,260.833h4.667A1.167,1.167,0,0,0,159,259.667v-10.5A1.167,1.167,0,0,0,157.833,248h-4.667A1.167,1.167,0,0,0,152,249.167v10.5A1.167,1.167,0,0,0,153.167,260.833Zm1.167-10.5h2.333V258.5h-2.333Z" transform="translate(-129.833 -211.833)" fill="#fff"/>
        <path id="Path_206277" data-name="Path 206277" d="M209.167,240.333h4.667A1.167,1.167,0,0,0,215,239.167v-14A1.167,1.167,0,0,0,213.833,224h-4.667A1.167,1.167,0,0,0,208,225.167v14A1.167,1.167,0,0,0,209.167,240.333Zm1.167-14h2.333V238h-2.333Z" transform="translate(-177.667 -191.333)" fill="#fff"/>
        <path id="Path_206278" data-name="Path 206278" d="M282.5,189A10.5,10.5,0,1,0,272,178.5,10.5,10.5,0,0,0,282.5,189m-4.888-3.962,4.888-4.888,4.888,4.888a8.151,8.151,0,0,1-9.776,0m11.426-1.65L284.15,178.5l4.888-4.888a8.151,8.151,0,0,1,0,9.776M282.5,170.333a8.124,8.124,0,0,1,4.888,1.629l-11.426,11.426a8.163,8.163,0,0,1,6.538-13.055" transform="translate(-232.333 -143.5)" fill="#fff"/>
      </g>
    </g>
  </g>
</svg>
