<svg xmlns="http://www.w3.org/2000/svg" xmlns:xlink="http://www.w3.org/1999/xlink" width="503.114" height="259" viewBox="0 0 503.114 259">
  <defs>
    <clipPath id="clip-path">
      <rect id="Rectangle_45049" data-name="Rectangle 45049" width="216.24" height="199" fill="none"/>
    </clipPath>
    <clipPath id="clip-path-3">
      <rect id="Rectangle_45038" data-name="Rectangle 45038" width="29.272" height="11.61" fill="none"/>
    </clipPath>
    <clipPath id="clip-path-4">
      <rect id="Rectangle_45039" data-name="Rectangle 45039" width="11.494" height="11.847" fill="none"/>
    </clipPath>
    <clipPath id="clip-path-5">
      <rect id="Rectangle_45040" data-name="Rectangle 45040" width="11.375" height="4.392" fill="none"/>
    </clipPath>
    <clipPath id="clip-path-6">
      <rect id="Rectangle_45041" data-name="Rectangle 45041" width="29.715" height="11.786" fill="none"/>
    </clipPath>
    <clipPath id="clip-path-7">
      <rect id="Rectangle_45042" data-name="Rectangle 45042" width="11.668" height="12.026" fill="none"/>
    </clipPath>
    <clipPath id="clip-path-8">
      <rect id="Rectangle_45043" data-name="Rectangle 45043" width="11.547" height="4.459" fill="none"/>
    </clipPath>
    <clipPath id="clip-path-9">
      <rect id="Rectangle_45046" data-name="Rectangle 45046" width="37.121" height="48.834" fill="none"/>
    </clipPath>
    <clipPath id="clip-path-10">
      <rect id="Rectangle_45047" data-name="Rectangle 45047" width="6.492" height="28.541" fill="none"/>
    </clipPath>
  </defs>
  <g id="_1" data-name="1" transform="translate(-811.885 -399)">
    <rect id="BG" width="503.114" height="259" transform="translate(811.885 399)" fill="#e8e8e8" opacity="0.949"/>
    <g id="Group_147001" data-name="Group 147001" transform="translate(1044.443 430)">
      <g id="Group_147027" data-name="Group 147027" transform="translate(0)" clip-path="url(#clip-path)">
        <g id="Group_147026" data-name="Group 147026">
          <g id="Group_147025" data-name="Group 147025" clip-path="url(#clip-path)">
            <path id="Path_203879" data-name="Path 203879" d="M237.08,311.56a8.417,8.417,0,0,1,2.054-.893l.423-2.033,3.435-.06.494,2.017a8.4,8.4,0,0,1,2.084.819l1.736-1.138,2.471,2.386-1.076,1.775a8.433,8.433,0,0,1,.893,2.054l2.032.423.061,3.435-2.017.494a8.4,8.4,0,0,1-.82,2.084l1.138,1.736L247.6,327.13l-1.775-1.076a8.4,8.4,0,0,1-2.054.893l-.423,2.033-3.435.06-.494-2.016a8.429,8.429,0,0,1-2.084-.82l-1.736,1.138-2.472-2.386,1.076-1.775a8.4,8.4,0,0,1-.893-2.054l-2.033-.423-.06-3.435,2.016-.494a8.42,8.42,0,0,1,.82-2.084l-1.138-1.736,2.386-2.471Zm1.831,4.575a3.685,3.685,0,1,0,5.211-.092,3.685,3.685,0,0,0-5.211.092" transform="translate(-123.495 -164.809)" fill="#f5f5f5"/>
            <path id="Path_203880" data-name="Path 203880" d="M137.772,32.957H123.965a1.727,1.727,0,0,1-1.728-1.728V12.118a1.727,1.727,0,0,1,1.728-1.728h8.757l6.778,6.987V31.23a1.727,1.727,0,0,1-1.728,1.728" transform="translate(-65.287 -5.549)" fill="#f5f5f5"/>
            <path id="Path_203881" data-name="Path 203881" d="M137.39,50.978H124.347a2.11,2.11,0,0,1-2.11-2.11V44.131H139.5v4.737a2.11,2.11,0,0,1-2.11,2.11" transform="translate(-65.287 -23.57)" fill="#e0e0e0"/>
            <path id="Path_203882" data-name="Path 203882" d="M135.368,50.236l.434-.521a.777.777,0,0,0,.628.372c.314,0,.478-.188.478-.56V47.92H135.72v-.628h1.965v2.192a1.092,1.092,0,0,1-1.216,1.245,1.358,1.358,0,0,1-1.1-.492" transform="translate(-72.3 -25.259)" fill="#fafafa"/>
            <path id="Path_203883" data-name="Path 203883" d="M141.344,51.282l.251-.54a1.776,1.776,0,0,0,.9.251c.348,0,.478-.092.478-.237,0-.425-1.569.01-1.569-1.028,0-.492.444-.84,1.2-.84a2.136,2.136,0,0,1,1,.227l-.251.536a1.491,1.491,0,0,0-.748-.193c-.338,0-.483.106-.483.241,0,.444,1.569.014,1.569,1.038,0,.483-.449.826-1.226.826a2.229,2.229,0,0,1-1.125-.28" transform="translate(-75.492 -26.111)" fill="#fafafa"/>
            <path id="Path_203884" data-name="Path 203884" d="M130.087,29.923l.541-.635a1.629,1.629,0,0,0,1.363.774c.737,0,1.12-.448,1.12-1.325V25.07H130.75v-.812h3.285v4.433c0,1.456-.709,2.174-2.043,2.174a2.278,2.278,0,0,1-1.9-.943" transform="translate(-69.479 -12.956)" fill="#fafafa"/>
            <path id="Path_203885" data-name="Path 203885" d="M141.027,32.033l.373-.709a3.18,3.18,0,0,0,1.736.513c.831,0,1.176-.252,1.176-.672,0-1.11-3.126-.149-3.126-2.118,0-.887.793-1.484,2.063-1.484a3.6,3.6,0,0,1,1.8.448l-.383.71a2.582,2.582,0,0,0-1.428-.392c-.784,0-1.167.289-1.167.681,0,1.167,3.136.215,3.136,2.137,0,.9-.821,1.465-2.137,1.465a3.57,3.57,0,0,1-2.044-.579" transform="translate(-75.322 -14.721)" fill="#fafafa"/>
            <path id="Path_203886" data-name="Path 203886" d="M144.741,10.39v5.379a1.607,1.607,0,0,0,1.607,1.607h5.171Z" transform="translate(-77.306 -5.549)" fill="#ebebeb"/>
            <path id="Path_203887" data-name="Path 203887" d="M144.891,22.949a1.787,1.787,0,0,0,1.417,1.734,1.727,1.727,0,0,0,.17.038c.675.121,5.121.911,5.121.809V24.085h-5.172s-1.291-.044-1.536-1.136" transform="translate(-77.386 -12.257)" fill="#e0e0e0"/>
            <path id="Path_203888" data-name="Path 203888" d="M.525,392.836,25.117,376.23l119.153-.569,5.454,17.425Z" transform="translate(-0.28 -200.64)" fill="#455a64"/>
            <path id="Path_203889" data-name="Path 203889" d="M149.133,418.957,0,418.848v-7.02l149.2.466Z" transform="translate(0 -219.957)" fill="#455a64"/>
            <path id="Path_203890" data-name="Path 203890" d="M147.344,412.559c0,.067-32.2.106-71.919.087S3.5,412.558,3.5,412.491s32.2-.106,71.926-.087,71.919.089,71.919.156" transform="translate(-1.868 -220.262)" fill="#263238"/>
            <path id="Path_203891" data-name="Path 203891" d="M202.419,38.265H179.006a2.93,2.93,0,0,1-2.93-2.93V2.929A2.93,2.93,0,0,1,179.006,0h14.849l11.494,11.847v23.49a2.929,2.929,0,0,1-2.93,2.93" transform="translate(-94.042 0.001)" fill="#4dd0e1"/>
            <g id="Group_147003" data-name="Group 147003" transform="translate(82.035 26.656)" opacity="0.2">
              <g id="Group_147002" data-name="Group 147002">
                <g id="Group_147001-2" data-name="Group 147001" clip-path="url(#clip-path-3)">
                  <path id="Path_203892" data-name="Path 203892" d="M202.331,68.823H179.1a3.018,3.018,0,0,1-3.018-3.018V57.789a.577.577,0,0,1,.577-.577h28.118a.577.577,0,0,1,.577.577V65.8a3.018,3.018,0,0,1-3.019,3.018" transform="translate(-176.077 -57.212)"/>
                </g>
              </g>
            </g>
            <g id="Group_147006" data-name="Group 147006" transform="translate(99.813)" opacity="0.2">
              <g id="Group_147005" data-name="Group 147005">
                <g id="Group_147004" data-name="Group 147004" clip-path="url(#clip-path-4)">
                  <path id="Path_203893" data-name="Path 203893" d="M214.236,0V9.12a2.725,2.725,0,0,0,2.725,2.725h8.77Z" transform="translate(-214.236)" fill="#fff"/>
                </g>
              </g>
            </g>
            <g id="Group_147009" data-name="Group 147009" transform="translate(99.932 9.921)" opacity="0.2">
              <g id="Group_147008" data-name="Group 147008">
                <g id="Group_147007" data-name="Group 147007" clip-path="url(#clip-path-5)">
                  <path id="Path_203894" data-name="Path 203894" d="M214.491,21.294a3.029,3.029,0,0,0,2.4,2.939,2.767,2.767,0,0,0,.288.065c1.145.2,8.683,1.546,8.683,1.373V23.22H217.1s-2.19-.075-2.6-1.926" transform="translate(-214.491 -21.294)"/>
                </g>
              </g>
            </g>
            <path id="Path_203895" data-name="Path 203895" d="M194.062,65.372a2.507,2.507,0,0,1,4.344-1.548l-.676.624a1.465,1.465,0,0,0-1.145-.533,1.457,1.457,0,1,0,0,2.914,1.451,1.451,0,0,0,1.145-.54l.676.624a2.5,2.5,0,0,1-4.344-1.541" transform="translate(-103.648 -33.658)" fill="#fafafa"/>
            <path id="Path_203896" data-name="Path 203896" d="M204.052,67.2l.358-.793a2.679,2.679,0,0,0,1.5.475c.624,0,.878-.208.878-.488,0-.852-2.647-.266-2.647-1.958,0-.774.624-1.418,1.919-1.418a3.051,3.051,0,0,1,1.58.4l-.325.8a2.563,2.563,0,0,0-1.262-.358c-.624,0-.865.234-.865.52,0,.839,2.646.26,2.646,1.932,0,.76-.631,1.411-1.931,1.411a3.247,3.247,0,0,1-1.854-.526" transform="translate(-108.984 -33.658)" fill="#fafafa"/>
            <path id="Path_203897" data-name="Path 203897" d="M212.954,67.2l.357-.793a2.681,2.681,0,0,0,1.5.475c.624,0,.878-.208.878-.488,0-.852-2.647-.266-2.647-1.958,0-.774.624-1.418,1.919-1.418a3.053,3.053,0,0,1,1.581.4l-.326.8a2.563,2.563,0,0,0-1.262-.358c-.624,0-.865.234-.865.52,0,.839,2.647.26,2.647,1.932,0,.76-.631,1.411-1.932,1.411a3.246,3.246,0,0,1-1.854-.526" transform="translate(-113.738 -33.658)" fill="#fafafa"/>
            <path id="Path_203898" data-name="Path 203898" d="M195.264,30.836c.481.146.7.45.7,1.171v1.674a.688.688,0,0,0,.764.774h.188V35.73h-.607a1.725,1.725,0,0,1-1.977-1.872V31.966a.428.428,0,0,0-.46-.492h-.345V30.2h.345a.428.428,0,0,0,.46-.492V27.813a1.726,1.726,0,0,1,1.977-1.872h.607v1.276h-.188a.688.688,0,0,0-.764.774v1.674c0,.722-.219,1.025-.7,1.171" transform="translate(-103.363 -13.855)" fill="#fafafa"/>
            <path id="Path_203899" data-name="Path 203899" d="M217.571,30.2v1.276h-.345a.428.428,0,0,0-.46.492v1.892a1.725,1.725,0,0,1-1.977,1.872h-.607V34.453h.188a.688.688,0,0,0,.764-.774V32.006c0-.722.219-1.025.7-1.171-.481-.146-.7-.45-.7-1.171V27.99a.688.688,0,0,0-.764-.774h-.188V25.94h.607a1.726,1.726,0,0,1,1.977,1.872v1.893a.428.428,0,0,0,.46.492Z" transform="translate(-114.394 -13.855)" fill="#fafafa"/>
            <path id="Path_203900" data-name="Path 203900" d="M272.336,88.1H248.569a2.974,2.974,0,0,1-2.974-2.974v-32.9a2.974,2.974,0,0,1,2.974-2.974h15.073L275.31,61.281V85.126a2.974,2.974,0,0,1-2.974,2.974" transform="translate(-131.172 -26.307)" fill="#4dd0e1"/>
            <g id="Group_147012" data-name="Group 147012" transform="translate(114.423 50.006)" opacity="0.2">
              <g id="Group_147011" data-name="Group 147011">
                <g id="Group_147010" data-name="Group 147010" clip-path="url(#clip-path-6)">
                  <path id="Path_203901" data-name="Path 203901" d="M272.1,119.119H248.807a3.213,3.213,0,0,1-3.213-3.213v-8.573h29.715v8.573a3.213,3.213,0,0,1-3.213,3.213" transform="translate(-245.594 -107.333)"/>
                </g>
              </g>
            </g>
            <g id="Group_147015" data-name="Group 147015" transform="translate(132.47 22.948)" opacity="0.2">
              <g id="Group_147014" data-name="Group 147014">
                <g id="Group_147013" data-name="Group 147013" clip-path="url(#clip-path-7)">
                  <path id="Path_203902" data-name="Path 203902" d="M284.33,49.255v9.258a2.766,2.766,0,0,0,2.766,2.766H296Z" transform="translate(-284.33 -49.255)" fill="#fff"/>
                </g>
              </g>
            </g>
            <g id="Group_147018" data-name="Group 147018" transform="translate(132.59 33.019)" opacity="0.2">
              <g id="Group_147017" data-name="Group 147017">
                <g id="Group_147016" data-name="Group 147016" clip-path="url(#clip-path-8)">
                  <path id="Path_203903" data-name="Path 203903" d="M284.59,70.871a3.075,3.075,0,0,0,2.439,2.984,2.824,2.824,0,0,0,.293.066c1.162.208,8.814,1.569,8.814,1.393V72.826h-8.9s-2.223-.076-2.644-1.955" transform="translate(-284.589 -70.871)"/>
                </g>
              </g>
            </g>
            <path id="Path_203904" data-name="Path 203904" d="M265.942,84.919l-3.567,1.307,3.567,1.3v1.339l-5.1-1.939V85.53l5.1-1.939Z" transform="translate(-139.316 -44.646)" fill="#fafafa"/>
            <path id="Path_203905" data-name="Path 203905" d="M275.962,77.935h1.489l-3.535,10.091h-1.489Z" transform="translate(-145.503 -41.625)" fill="#fafafa"/>
            <path id="Path_203906" data-name="Path 203906" d="M288.721,85.53v1.393l-5.1,1.939V87.522l3.567-1.3-3.567-1.307V83.591Z" transform="translate(-151.482 -44.646)" fill="#fafafa"/>
            <path id="Path_203907" data-name="Path 203907" d="M264.985,116.746v3.994h-.924V119.1h-1.815v1.638h-.924v-3.994h.924v1.575h1.815v-1.575Z" transform="translate(-139.572 -62.354)" fill="#fafafa"/>
            <path id="Path_203908" data-name="Path 203908" d="M271.525,117.5h-1.278v-.753h3.48v.753h-1.278v3.241h-.924Z" transform="translate(-144.338 -62.354)" fill="#fafafa"/>
            <path id="Path_203909" data-name="Path 203909" d="M282.415,120.74l-.006-2.4-1.175,1.974h-.417l-1.169-1.923v2.345h-.867v-3.994h.764l1.5,2.482,1.472-2.482h.759l.011,3.994Z" transform="translate(-148.897 -62.354)" fill="#fafafa"/>
            <path id="Path_203910" data-name="Path 203910" d="M290.473,116.746h.924v3.241h2v.753h-2.927Z" transform="translate(-155.141 -62.354)" fill="#fafafa"/>
            <path id="Path_203911" data-name="Path 203911" d="M72.258,149.582H29.106a1.425,1.425,0,0,1-1.425-1.425v-71.3a1.425,1.425,0,0,1,1.425-1.425H72.258a1.425,1.425,0,0,1,1.425,1.425v71.3a1.425,1.425,0,0,1-1.425,1.425" transform="translate(-14.784 -40.289)" fill="#fff"/>
            <path id="Path_203912" data-name="Path 203912" d="M73.683,83.718h-46v-6.6a1.681,1.681,0,0,1,1.681-1.681h42.7a1.618,1.618,0,0,1,1.618,1.618Z" transform="translate(-14.784 -40.289)" fill="#e0e0e0"/>
            <path id="Path_203913" data-name="Path 203913" d="M72,149.443a1.78,1.78,0,0,0,.593-.132,1.571,1.571,0,0,0,.589-.449,1.536,1.536,0,0,0,.336-.953c-.005-1.587-.013-3.921-.022-6.924-.009-6.018-.022-14.717-.039-25.466s-.016-23.554-.026-37.768v-.667a2.157,2.157,0,0,0-.055-.634,1.433,1.433,0,0,0-.788-.915,1.416,1.416,0,0,0-.609-.127H69.941l-5.52,0-11.387,0-23.944,0a1.421,1.421,0,0,0-1.421,1.305c-.012.235,0,.5-.006.755v3.048q0,3.039,0,6.036,0,5.993,0,11.8c0,7.736,0,15.2-.007,22.307s-.008,13.863-.011,20.185q0,2.371,0,4.659,0,1.144,0,2.266a1.468,1.468,0,0,0,1.146,1.54,7.876,7.876,0,0,0,1.073.033h1.084l2.133,0,4.126,0,25.464.039,6.923.023,1.8.012c.406,0,.614.013.614.013s-.208.008-.614.013l-1.8.012-6.923.023-25.464.039-4.126,0-2.133,0H29.855a7.908,7.908,0,0,1-1.112-.035,1.643,1.643,0,0,1-.968-.618,1.683,1.683,0,0,1-.33-1.106q0-1.122,0-2.266,0-2.287,0-4.659c0-6.322-.007-13.077-.011-20.185s0-14.571-.007-22.307q0-5.8,0-11.8,0-3,0-6.036,0-1.519,0-3.048c0-.259-.007-.5.007-.775a1.664,1.664,0,0,1,1.663-1.528l23.944,0,11.387,0,5.52,0h2.038a1.659,1.659,0,0,1,1.613,1.208,2.388,2.388,0,0,1,.063.694v.667c-.01,14.214-.019,27.016-.026,37.768s-.029,19.448-.039,25.466c-.01,3-.018,5.336-.023,6.924a1.559,1.559,0,0,1-.965,1.426,1.608,1.608,0,0,1-.447.107c-.1,0-.155,0-.155,0" transform="translate(-14.645 -40.15)" fill="#263238"/>
            <path id="Path_203914" data-name="Path 203914" d="M39.123,84.155A1.357,1.357,0,1,1,37.766,82.8a1.357,1.357,0,0,1,1.357,1.357" transform="translate(-19.446 -44.222)" fill="#fff"/>
            <path id="Path_203915" data-name="Path 203915" d="M48.085,84.155A1.357,1.357,0,1,1,46.728,82.8a1.357,1.357,0,0,1,1.357,1.357" transform="translate(-24.233 -44.222)" fill="#fff"/>
            <path id="Path_203916" data-name="Path 203916" d="M57.048,84.155A1.357,1.357,0,1,1,55.691,82.8a1.357,1.357,0,0,1,1.357,1.357" transform="translate(-29.02 -44.222)" fill="#fff"/>
            <path id="Path_203917" data-name="Path 203917" d="M59.88,115.221H51.408a.919.919,0,0,1,0-1.838H59.88a.919.919,0,1,1,0,1.838" transform="translate(-26.966 -60.558)" fill="#263238"/>
            <path id="Path_203918" data-name="Path 203918" d="M59.88,125.548H51.408a.919.919,0,0,1,0-1.838H59.88a.919.919,0,1,1,0,1.838" transform="translate(-26.966 -66.073)" fill="#e0e0e0"/>
            <path id="Path_203919" data-name="Path 203919" d="M60.4,153.835H51.929a.919.919,0,1,1,0-1.838H60.4a.919.919,0,1,1,0,1.838" transform="translate(-27.244 -81.181)" fill="#e0e0e0"/>
            <path id="Path_203920" data-name="Path 203920" d="M59.88,136.22H51.408a.919.919,0,1,1,0-1.838H59.88a.919.919,0,1,1,0,1.838" transform="translate(-26.966 -71.773)" fill="#4dd0e1"/>
            <path id="Path_203921" data-name="Path 203921" d="M59.88,195.732H51.408a.919.919,0,0,1,0-1.838H59.88a.919.919,0,1,1,0,1.838" transform="translate(-26.966 -103.559)" fill="#4dd0e1"/>
            <path id="Path_203922" data-name="Path 203922" d="M89.011,115.221H80.539a.919.919,0,1,1,0-1.838h8.471a.919.919,0,1,1,0,1.838" transform="translate(-42.525 -60.558)" fill="#455a64"/>
            <path id="Path_203923" data-name="Path 203923" d="M98.184,125.548H80.461a.923.923,0,0,1,0-1.838H98.184a.923.923,0,0,1,0,1.838" transform="translate(-42.525 -66.073)" fill="#263238"/>
            <path id="Path_203924" data-name="Path 203924" d="M96.993,136.22H79.147a.921.921,0,0,1,0-1.838H96.993a.921.921,0,0,1,0,1.838" transform="translate(-41.811 -71.773)" fill="#e0e0e0"/>
            <path id="Path_203925" data-name="Path 203925" d="M69.322,144.85H51.476a.921.921,0,0,1,0-1.838H69.322a.921.921,0,0,1,0,1.838" transform="translate(-27.032 -76.383)" fill="#e0e0e0"/>
            <path id="Path_203926" data-name="Path 203926" d="M41.408,114.286a.934.934,0,1,1-.934-.934.934.934,0,0,1,.934.934" transform="translate(-21.119 -60.541)" fill="#455a64"/>
            <path id="Path_203927" data-name="Path 203927" d="M41.408,104.4a.934.934,0,1,1-.934-.934.934.934,0,0,1,.934.934" transform="translate(-21.119 -55.263)" fill="#455a64"/>
            <path id="Path_203928" data-name="Path 203928" d="M41.408,124.582a.934.934,0,1,1-.934-.934.934.934,0,0,1,.934.934" transform="translate(-21.119 -66.04)" fill="#455a64"/>
            <path id="Path_203929" data-name="Path 203929" d="M41.408,135.285a.934.934,0,1,1-.934-.934.934.934,0,0,1,.934.934" transform="translate(-21.119 -71.757)" fill="#455a64"/>
            <path id="Path_203930" data-name="Path 203930" d="M60.4,182.716H51.929a.919.919,0,1,1,0-1.838H60.4a.919.919,0,1,1,0,1.838" transform="translate(-27.244 -96.607)" fill="#e0e0e0"/>
            <path id="Path_203931" data-name="Path 203931" d="M59.88,165.1H51.408a.919.919,0,0,1,0-1.838H59.88a.919.919,0,1,1,0,1.838" transform="translate(-26.966 -87.199)" fill="#4dd0e1"/>
            <path id="Path_203932" data-name="Path 203932" d="M96.993,165.1H79.147a.921.921,0,0,1,0-1.838H96.993a.921.921,0,0,1,0,1.838" transform="translate(-41.811 -87.199)" fill="#e0e0e0"/>
            <path id="Path_203933" data-name="Path 203933" d="M69.322,173.731H51.476a.921.921,0,0,1,0-1.838H69.322a.921.921,0,0,1,0,1.838" transform="translate(-27.032 -91.808)" fill="#e0e0e0"/>
            <path id="Path_203934" data-name="Path 203934" d="M41.408,164.167a.934.934,0,1,1-.934-.934.934.934,0,0,1,.934.934" transform="translate(-21.119 -87.183)" fill="#455a64"/>
            <path id="Path_203935" data-name="Path 203935" d="M56.347,105.824h-5.3a.446.446,0,0,1-.447-.446V104.5a.446.446,0,0,1,.447-.446h5.3a.446.446,0,0,1,.446.446v.881a.446.446,0,0,1-.446.446" transform="translate(-27.024 -55.574)" fill="#455a64"/>
            <path id="Path_203936" data-name="Path 203936" d="M59.88,206.248H51.408a.919.919,0,0,1,0-1.838H59.88a.919.919,0,1,1,0,1.838" transform="translate(-26.966 -109.175)" fill="#263238"/>
            <path id="Path_203937" data-name="Path 203937" d="M89.011,206.248H80.539a.919.919,0,1,1,0-1.838h8.471a.919.919,0,1,1,0,1.838" transform="translate(-42.525 -109.175)" fill="#455a64"/>
            <path id="Path_203938" data-name="Path 203938" d="M41.408,205.313a.934.934,0,1,1-.934-.934.934.934,0,0,1,.934.934" transform="translate(-21.119 -109.159)" fill="#455a64"/>
            <path id="Path_203939" data-name="Path 203939" d="M41.408,214.816a.934.934,0,1,1-.934-.934.934.934,0,0,1,.934.934" transform="translate(-21.119 -114.234)" fill="#455a64"/>
            <path id="Path_203940" data-name="Path 203940" d="M56.347,216.236h-5.3a.447.447,0,0,1-.447-.446v-.881a.446.446,0,0,1,.447-.446h5.3a.446.446,0,0,1,.446.446v.881a.446.446,0,0,1-.446.446" transform="translate(-27.024 -114.544)" fill="#455a64"/>
            <rect id="Rectangle_45044" data-name="Rectangle 45044" width="84.025" height="53.449" transform="translate(61.97 97.848)" fill="#fff"/>
            <rect id="Rectangle_45045" data-name="Rectangle 45045" width="15.133" height="53.449" transform="translate(61.97 97.848)" fill="#ebebeb"/>
            <path id="Path_203941" data-name="Path 203941" d="M146.463,221.979a1.049,1.049,0,0,1,.252-.109l.052-.249.422-.007.061.247a1.04,1.04,0,0,1,.255.1l.213-.14.3.293-.132.218a1.031,1.031,0,0,1,.109.252l.249.052.007.422-.247.061a1.033,1.033,0,0,1-.1.256l.14.213-.293.3-.218-.132a1.032,1.032,0,0,1-.252.109l-.052.249-.421.007-.061-.247a1,1,0,0,1-.255-.1l-.213.14-.3-.293.132-.218a1.03,1.03,0,0,1-.109-.252l-.249-.052-.007-.421.247-.061a1.037,1.037,0,0,1,.1-.256l-.14-.213.293-.3Zm.225.561a.452.452,0,1,0,.639-.011.452.452,0,0,0-.639.011" transform="translate(-77.842 -118.363)" fill="#e0e0e0"/>
            <path id="Path_203942" data-name="Path 203942" d="M146.451,246.19h-6.6a.678.678,0,1,1,0-1.356h6.6a.678.678,0,1,1,0,1.356" transform="translate(-74.334 -130.766)" fill="#e0e0e0"/>
            <path id="Path_203943" data-name="Path 203943" d="M146.451,238.776h-6.6a.678.678,0,1,1,0-1.356h6.6a.678.678,0,1,1,0,1.356" transform="translate(-74.334 -126.806)" fill="#e0e0e0"/>
            <path id="Path_203944" data-name="Path 203944" d="M146.451,231.995h-6.6a.678.678,0,1,1,0-1.356h6.6a.678.678,0,1,1,0,1.356" transform="translate(-74.334 -123.184)" fill="#e0e0e0"/>
            <path id="Path_203945" data-name="Path 203945" d="M184.895,225.413h-6.249a.678.678,0,0,1,0-1.356h6.249a.678.678,0,0,1,0,1.356" transform="translate(-95.052 -119.669)" fill="#263238"/>
            <path id="Path_203946" data-name="Path 203946" d="M184.895,233.03h-6.249a.678.678,0,0,1,0-1.356h6.249a.678.678,0,0,1,0,1.356" transform="translate(-95.052 -123.737)" fill="#e0e0e0"/>
            <path id="Path_203947" data-name="Path 203947" d="M184.895,240.9h-6.249a.678.678,0,0,1,0-1.356h6.249a.678.678,0,0,1,0,1.356" transform="translate(-95.052 -127.941)" fill="#4dd0e1"/>
            <path id="Path_203948" data-name="Path 203948" d="M182.229,256.121h-3.583a.678.678,0,1,1,0-1.356h3.583a.678.678,0,1,1,0,1.356" transform="translate(-95.052 -136.07)" fill="#263238"/>
            <path id="Path_203949" data-name="Path 203949" d="M182.229,264.009h-3.583a.678.678,0,1,1,0-1.356h3.583a.678.678,0,1,1,0,1.356" transform="translate(-95.052 -140.283)" fill="#263238"/>
            <path id="Path_203950" data-name="Path 203950" d="M201.662,264.009h-6.57a.678.678,0,1,1,0-1.356h6.57a.678.678,0,1,1,0,1.356" transform="translate(-103.836 -140.283)" fill="#e0e0e0"/>
            <path id="Path_203951" data-name="Path 203951" d="M193.686,271.025h-6.57a.678.678,0,0,1,0-1.356h6.57a.678.678,0,0,1,0,1.356" transform="translate(-99.576 -144.03)" fill="#4dd0e1"/>
            <path id="Path_203952" data-name="Path 203952" d="M199.414,279.026H194.9a.463.463,0,0,1-.463-.463v-.431a.463.463,0,0,1,.463-.463h4.513a.463.463,0,0,1,.463.463v.431a.463.463,0,0,1-.463.463" transform="translate(-103.85 -148.303)" fill="#4dd0e1"/>
            <path id="Path_203953" data-name="Path 203953" d="M199.2,294.708h-4.083a.678.678,0,1,1,0-1.356H199.2a.678.678,0,0,1,0,1.356" transform="translate(-103.85 -156.679)" fill="#4dd0e1"/>
            <path id="Path_203954" data-name="Path 203954" d="M199.2,311.272h-4.083a.678.678,0,1,1,0-1.356H199.2a.678.678,0,1,1,0,1.356" transform="translate(-103.85 -165.526)" fill="#4dd0e1"/>
            <path id="Path_203955" data-name="Path 203955" d="M217.216,311.272h-7.157a.678.678,0,1,1,0-1.356h7.157a.678.678,0,1,1,0,1.356" transform="translate(-111.83 -165.526)" fill="#455a64"/>
            <path id="Path_203956" data-name="Path 203956" d="M234.991,311.272H233.96a.678.678,0,1,1,0-1.356h1.031a.678.678,0,1,1,0,1.356" transform="translate(-124.596 -165.526)" fill="#e0e0e0"/>
            <path id="Path_203957" data-name="Path 203957" d="M217.566,294.708h-6.048a.678.678,0,1,1,0-1.356h6.048a.678.678,0,0,1,0,1.356" transform="translate(-112.609 -156.679)" fill="#e0e0e0"/>
            <path id="Path_203958" data-name="Path 203958" d="M230.83,301.98H211.518a.678.678,0,1,1,0-1.356H230.83a.678.678,0,1,1,0,1.356" transform="translate(-112.609 -160.563)" fill="#e0e0e0"/>
            <path id="Path_203959" data-name="Path 203959" d="M243.621,294.708h-12.33a.678.678,0,0,1,0-1.356h12.33a.678.678,0,1,1,0,1.356" transform="translate(-123.171 -156.679)" fill="#455a64"/>
            <path id="Path_203960" data-name="Path 203960" d="M215.925,279.026h-5.538a.463.463,0,0,1-.463-.463v-.431a.463.463,0,0,1,.463-.463h5.538a.463.463,0,0,1,.463.463v.431a.463.463,0,0,1-.463.463" transform="translate(-112.12 -148.303)" fill="#455a64"/>
            <path id="Path_203961" data-name="Path 203961" d="M229.815,279.026h-1.7a.463.463,0,0,1-.463-.463v-.431a.463.463,0,0,1,.463-.463h1.7a.463.463,0,0,1,.463.463v.431a.463.463,0,0,1-.463.463" transform="translate(-121.589 -148.303)" fill="#e0e0e0"/>
            <path id="Path_203962" data-name="Path 203962" d="M244.853,279.026h-6.817a.463.463,0,0,1-.463-.463v-.431a.463.463,0,0,1,.463-.463h6.817a.463.463,0,0,1,.463.463v.431a.463.463,0,0,1-.463.463" transform="translate(-126.887 -148.303)" fill="#e0e0e0"/>
            <path id="Path_203963" data-name="Path 203963" d="M209.092,271.025h-1.464a.678.678,0,0,1,0-1.356h1.464a.678.678,0,1,1,0,1.356" transform="translate(-110.532 -144.03)" fill="#263238"/>
            <path id="Path_203964" data-name="Path 203964" d="M226.706,271.025h-9.322a.678.678,0,1,1,0-1.356h9.322a.678.678,0,1,1,0,1.356" transform="translate(-115.742 -144.03)" fill="#e0e0e0"/>
            <path id="Path_203965" data-name="Path 203965" d="M206.382,225.413h-6.249a.678.678,0,0,1,0-1.356h6.249a.678.678,0,0,1,0,1.356" transform="translate(-106.529 -119.669)" fill="#455a64"/>
            <path id="Path_203966" data-name="Path 203966" d="M214.433,233.03h-14.3a.678.678,0,0,1,0-1.356h14.3a.678.678,0,0,1,0,1.356" transform="translate(-106.529 -123.737)" fill="#263238"/>
            <path id="Path_203967" data-name="Path 203967" d="M229.829,240.9h-29.7a.678.678,0,0,1,0-1.356h29.7a.678.678,0,0,1,0,1.356" transform="translate(-106.529 -127.941)" fill="#e0e0e0"/>
            <path id="Path_203968" data-name="Path 203968" d="M214.135,246.446h-14a.678.678,0,0,1,0-1.356h14a.678.678,0,0,1,0,1.356" transform="translate(-106.529 -130.902)" fill="#e0e0e0"/>
            <path id="Path_203969" data-name="Path 203969" d="M207.988,256.121h-14a.678.678,0,1,1,0-1.356h14a.678.678,0,1,1,0,1.356" transform="translate(-103.246 -136.07)" fill="#455a64"/>
            <path id="Path_203970" data-name="Path 203970" d="M235.482,256.121h-4.693a.678.678,0,1,1,0-1.356h4.693a.678.678,0,1,1,0,1.356" transform="translate(-122.902 -136.07)" fill="#4dd0e1"/>
            <path id="Path_203971" data-name="Path 203971" d="M256.455,256.073h-8.866a.678.678,0,1,1,0-1.356h8.866a.678.678,0,1,1,0,1.356" transform="translate(-131.875 -136.044)" fill="#263238"/>
            <path id="Path_203972" data-name="Path 203972" d="M282.351,256.073h-8.866a.678.678,0,1,1,0-1.356h8.866a.678.678,0,1,1,0,1.356" transform="translate(-145.706 -136.044)" fill="#e0e0e0"/>
            <path id="Path_203973" data-name="Path 203973" d="M143.595,254.037h-3.74a.678.678,0,1,1,0-1.356h3.74a.678.678,0,1,1,0,1.356" transform="translate(-74.334 -134.957)" fill="#e0e0e0"/>
            <path id="Path_203974" data-name="Path 203974" d="M142.475,277.579h-2.621a.678.678,0,1,1,0-1.356h2.621a.678.678,0,1,1,0,1.356" transform="translate(-74.334 -147.53)" fill="#e0e0e0"/>
            <path id="Path_203975" data-name="Path 203975" d="M147.129,261.884h-7.275a.678.678,0,1,1,0-1.356h7.275a.678.678,0,0,1,0,1.356" transform="translate(-74.334 -139.148)" fill="#e0e0e0"/>
            <path id="Path_203976" data-name="Path 203976" d="M145.853,269.732h-6a.678.678,0,1,1,0-1.356h6a.678.678,0,0,1,0,1.356" transform="translate(-74.334 -143.339)" fill="#e0e0e0"/>
            <path id="Path_203977" data-name="Path 203977" d="M171.27,224.723a.689.689,0,1,1-.689-.689.689.689,0,0,1,.689.689" transform="translate(-90.74 -119.656)" fill="#455a64"/>
            <path id="Path_203978" data-name="Path 203978" d="M171.27,216.96a.689.689,0,1,1-.689-.689.689.689,0,0,1,.689.689" transform="translate(-90.74 -115.51)" fill="#455a64"/>
            <path id="Path_203979" data-name="Path 203979" d="M171.27,232.317a.689.689,0,1,1-.689-.689.689.689,0,0,1,.689.689" transform="translate(-90.74 -123.712)" fill="#455a64"/>
            <path id="Path_203980" data-name="Path 203980" d="M171.27,240.212a.689.689,0,1,1-.689-.689.689.689,0,0,1,.689.689" transform="translate(-90.74 -127.929)" fill="#455a64"/>
            <path id="Path_203981" data-name="Path 203981" d="M171.27,248.106a.689.689,0,1,1-.689-.689.689.689,0,0,1,.689.689" transform="translate(-90.74 -132.145)" fill="#455a64"/>
            <path id="Path_203982" data-name="Path 203982" d="M171.27,256a.689.689,0,1,1-.689-.689.689.689,0,0,1,.689.689" transform="translate(-90.74 -136.362)" fill="#455a64"/>
            <path id="Path_203983" data-name="Path 203983" d="M171.27,263.895a.689.689,0,1,1-.689-.689.689.689,0,0,1,.689.689" transform="translate(-90.74 -140.578)" fill="#455a64"/>
            <path id="Path_203984" data-name="Path 203984" d="M171.27,271.79a.689.689,0,1,1-.689-.689.689.689,0,0,1,.689.689" transform="translate(-90.74 -144.795)" fill="#455a64"/>
            <path id="Path_203985" data-name="Path 203985" d="M171.27,279.684a.689.689,0,1,1-.689-.689.689.689,0,0,1,.689.689" transform="translate(-90.74 -149.011)" fill="#455a64"/>
            <path id="Path_203986" data-name="Path 203986" d="M171.27,287.579a.689.689,0,1,1-.689-.689.689.689,0,0,1,.689.689" transform="translate(-90.74 -153.228)" fill="#455a64"/>
            <path id="Path_203987" data-name="Path 203987" d="M171.27,295.473a.689.689,0,1,1-.689-.689.689.689,0,0,1,.689.689" transform="translate(-90.74 -157.444)" fill="#455a64"/>
            <path id="Path_203988" data-name="Path 203988" d="M171.27,303.368a.689.689,0,1,1-.689-.689.689.689,0,0,1,.689.689" transform="translate(-90.74 -161.66)" fill="#455a64"/>
            <path id="Path_203989" data-name="Path 203989" d="M171.27,311.262a.689.689,0,1,1-.689-.689.689.689,0,0,1,.689.689" transform="translate(-90.74 -165.877)" fill="#455a64"/>
            <path id="Path_203990" data-name="Path 203990" d="M215.251,194.376H135.529a2.517,2.517,0,0,0-2.517,2.517v4.77h84.025v-5.5a1.787,1.787,0,0,0-1.787-1.787" transform="translate(-71.042 -103.816)" fill="#e0e0e0"/>
            <path id="Path_203991" data-name="Path 203991" d="M142.185,201.524a1,1,0,1,1-1-1,1,1,0,0,1,1,1" transform="translate(-74.872 -107.099)" fill="#fff"/>
            <path id="Path_203992" data-name="Path 203992" d="M148.8,201.524a1,1,0,1,1-1-1,1,1,0,0,1,1,1" transform="translate(-78.402 -107.099)" fill="#fff"/>
            <path id="Path_203993" data-name="Path 203993" d="M155.406,201.524a1,1,0,1,1-1-1,1,1,0,0,1,1,1" transform="translate(-81.933 -107.099)" fill="#fff"/>
            <path id="Path_203994" data-name="Path 203994" d="M171.371,322.95l7.1,7.678,6.447-7.678Z" transform="translate(-91.529 -172.487)" fill="#fff"/>
            <path id="Path_203995" data-name="Path 203995" d="M214.619,254.973a2.672,2.672,0,0,0,.735-.136,2.274,2.274,0,0,0,1.436-1.542,2.484,2.484,0,0,0,.08-.758q0-.407,0-.857,0-.9-.006-1.966c0-1.421-.007-3.06-.011-4.905-.009-7.385-.022-18.065-.039-31.261q0-4.949-.008-10.358,0-2.7,0-5.51c-.006-.463.013-.949-.014-1.4a2.188,2.188,0,0,0-1.718-1.9,9.867,9.867,0,0,0-1.425-.046l-24.777.011-27.378.007-14.482,0H135.859c-.307,0-.638-.011-.926.011a2.137,2.137,0,0,0-.842.269,2.171,2.171,0,0,0-1.039,1.387,6.588,6.588,0,0,0-.058,1.284v9.13q0,5.174,0,10.244c0,6.756,0,13.359,0,19.773q0,4.811,0,9.475,0,2.331,0,4.622c0,.76-.007,1.531.006,2.274a2.163,2.163,0,0,0,2.105,2.034l1.114,0h2.217l4.368,0,8.459,0h.045l.03.032,6.5,6.848-.146,0,5.752-6.84.027-.033h.043l37.351.041,10.2.025,2.656.013c.6,0,.906.013.906.013s-.307.009-.906.014l-2.656.013-10.2.025-37.351.041.07-.033-5.742,6.848-.07.084-.076-.079-6.512-6.84.075.032-8.459,0-4.368,0h-2.217l-1.12,0a2.384,2.384,0,0,1-2.323-2.241c-.015-.77,0-1.521-.008-2.288q0-2.292,0-4.622,0-4.662,0-9.475c0-6.414,0-13.017,0-19.773q0-5.067,0-10.244v-9.787a2.77,2.77,0,0,1,.064-.681,2.411,2.411,0,0,1,1.156-1.544,2.374,2.374,0,0,1,.937-.3c.337-.024.633-.007.95-.012h11.148l14.482,0,27.378.007,24.777.011a9.726,9.726,0,0,1,1.466.052,2.387,2.387,0,0,1,1.872,2.071c.028.492.007.948.014,1.421q0,2.808,0,5.51,0,5.4-.008,10.358c-.016,13.2-.029,23.876-.039,31.261,0,1.845-.008,3.484-.011,4.905q0,1.066-.006,1.966,0,.45,0,.857a2.535,2.535,0,0,1-.088.771,2.273,2.273,0,0,1-.675,1.084,2.254,2.254,0,0,1-1.353.578c-.126,0-.19,0-.19,0" transform="translate(-70.902 -103.676)" fill="#263238"/>
            <path id="Path_203996" data-name="Path 203996" d="M208.669,130.724H145.481a1.477,1.477,0,0,1-1.476-1.476V97.032a1.476,1.476,0,0,1,1.476-1.476h63.477a1.476,1.476,0,0,1,1.476,1.476v31.926a1.765,1.765,0,0,1-1.765,1.765" transform="translate(-76.913 -51.036)" fill="#fff"/>
            <path id="Path_203997" data-name="Path 203997" d="M210.436,103.107h-66.43V97.173a1.618,1.618,0,0,1,1.618-1.618h63.193a1.619,1.619,0,0,1,1.619,1.618Z" transform="translate(-76.913 -51.036)" fill="#e0e0e0"/>
            <path id="Path_203998" data-name="Path 203998" d="M208.427,130.584a2.728,2.728,0,0,0,.507-.084,1.87,1.87,0,0,0,1.127-.93,2.041,2.041,0,0,0,.2-1.072q0-.618-.006-1.349c0-.976-.007-2.1-.011-3.367-.009-5.072-.022-12.4-.039-21.458q0-1.7,0-3.477,0-.89,0-1.8a1.418,1.418,0,0,0-.807-1.41,1.8,1.8,0,0,0-.872-.13h-.941l-1.909,0-3.925,0-17.007.011-38.968.01a2.509,2.509,0,0,0-.616.042,1.52,1.52,0,0,0-1.15,1.239,4.512,4.512,0,0,0-.021.623v1.925q0,2.561,0,5.086,0,5.049,0,9.943t0,9.6q0,2.352,0,4.653a1.767,1.767,0,0,0,1.1,1.7,2.576,2.576,0,0,0,1.073.13h1.127l31.827.026,21.456.039,5.834.022,1.517.012c.341,0,.517.013.517.013s-.175.008-.517.013l-1.517.012-5.834.023-21.456.039-31.827.026H146.15a2.8,2.8,0,0,1-1.158-.145,2,2,0,0,1-1.239-1.907q0-2.3,0-4.653,0-4.7,0-9.6t0-9.943q0-2.525,0-5.086V97.443a4.668,4.668,0,0,1,.024-.662,1.765,1.765,0,0,1,1.334-1.437,2.763,2.763,0,0,1,.672-.049l38.968.01,17.007.011,3.925,0,1.909,0h.941a1.991,1.991,0,0,1,.951.148,1.607,1.607,0,0,1,.912,1.58q0,.909,0,1.8,0,1.778,0,3.477c-.016,9.056-.03,16.386-.039,21.458,0,1.266-.008,2.391-.011,3.367q0,.731-.006,1.349a2.978,2.978,0,0,1-.041.591,2,2,0,0,1-.182.5,1.878,1.878,0,0,1-1.163.931,1.536,1.536,0,0,1-.513.061" transform="translate(-76.774 -50.897)" fill="#263238"/>
            <path id="Path_203999" data-name="Path 203999" d="M154.436,103.506a1.237,1.237,0,1,1-1.237-1.237,1.237,1.237,0,0,1,1.237,1.237" transform="translate(-81.163 -54.622)" fill="#fff"/>
            <path id="Path_204000" data-name="Path 204000" d="M162.6,103.506a1.237,1.237,0,1,1-1.237-1.237,1.237,1.237,0,0,1,1.237,1.237" transform="translate(-85.526 -54.622)" fill="#fff"/>
            <path id="Path_204001" data-name="Path 204001" d="M170.775,103.506a1.237,1.237,0,1,1-1.237-1.237,1.237,1.237,0,0,1,1.237,1.237" transform="translate(-89.889 -54.622)" fill="#fff"/>
            <path id="Path_204002" data-name="Path 204002" d="M175.277,132.687h-7.722a.838.838,0,0,1,0-1.676h7.722a.838.838,0,0,1,0,1.676" transform="translate(-89.043 -69.973)" fill="#263238"/>
            <path id="Path_204003" data-name="Path 204003" d="M175.277,142.1h-7.722a.838.838,0,0,1,0-1.676h7.722a.838.838,0,0,1,0,1.676" transform="translate(-89.043 -75.001)" fill="#e0e0e0"/>
            <path id="Path_204004" data-name="Path 204004" d="M245.949,132.687h-22.4a.838.838,0,0,1,0-1.676h22.4a.838.838,0,0,1,0,1.676" transform="translate(-118.951 -69.973)" fill="#e0e0e0"/>
            <path id="Path_204005" data-name="Path 204005" d="M175.277,151.829h-7.722a.838.838,0,0,1,0-1.676h7.722a.838.838,0,0,1,0,1.676" transform="translate(-89.043 -80.197)" fill="#4dd0e1"/>
            <path id="Path_204006" data-name="Path 204006" d="M251.3,142.1h-7.722a.838.838,0,0,1,0-1.676H251.3a.838.838,0,0,1,0,1.676" transform="translate(-129.65 -75.001)" fill="#4dd0e1"/>
            <path id="Path_204007" data-name="Path 204007" d="M201.831,132.687h-7.723a.838.838,0,0,1,0-1.676h7.723a.838.838,0,0,1,0,1.676" transform="translate(-103.226 -69.973)" fill="#455a64"/>
            <path id="Path_204008" data-name="Path 204008" d="M211.781,142.1H194.109a.838.838,0,0,1,0-1.676h17.673a.838.838,0,0,1,0,1.676" transform="translate(-103.226 -75.001)" fill="#263238"/>
            <path id="Path_204009" data-name="Path 204009" d="M229.116,151.829H194.071a.839.839,0,0,1,0-1.676h35.044a.839.839,0,0,1,0,1.676" transform="translate(-103.226 -80.197)" fill="#e0e0e0"/>
            <path id="Path_204010" data-name="Path 204010" d="M211.413,158.681h-17.3a.838.838,0,1,1,0-1.676h17.3a.838.838,0,0,1,0,1.676" transform="translate(-103.226 -83.856)" fill="#e0e0e0"/>
            <path id="Path_204011" data-name="Path 204011" d="M158.439,131.834a.851.851,0,1,1-.851-.851.851.851,0,0,1,.851.851" transform="translate(-83.713 -69.958)" fill="#455a64"/>
            <path id="Path_204012" data-name="Path 204012" d="M158.439,122.826a.851.851,0,1,1-.851-.851.851.851,0,0,1,.851.851" transform="translate(-83.713 -65.147)" fill="#455a64"/>
            <path id="Path_204013" data-name="Path 204013" d="M158.439,141.219a.851.851,0,1,1-.851-.851.851.851,0,0,1,.851.851" transform="translate(-83.713 -74.97)" fill="#455a64"/>
            <path id="Path_204014" data-name="Path 204014" d="M158.439,150.976a.851.851,0,1,1-.851-.851.851.851,0,0,1,.851.851" transform="translate(-83.713 -80.182)" fill="#455a64"/>
            <path id="Path_204015" data-name="Path 204015" d="M172.3,123.258H167.54a.446.446,0,0,1-.446-.446v-.724a.446.446,0,0,1,.446-.446H172.3a.446.446,0,0,1,.446.446v.724a.446.446,0,0,1-.446.446" transform="translate(-89.245 -64.969)" fill="#455a64"/>
            <path id="Path_204016" data-name="Path 204016" d="M91.432,287.229s-2.66.573-3.122,2.461,3.7,47.054,3.872,48.154a4.545,4.545,0,0,0,5,3.805c2.862-.1,41.862-.012,51.682.011,1.3,0,2.089-1.108,2.261-2.43l-48.287-2.85Z" transform="translate(-47.147 -153.409)" fill="#e0e0e0"/>
            <path id="Path_204017" data-name="Path 204017" d="M92.445,288.735l4.183,48.708a1.576,1.576,0,0,0,1.543,1.418l55.183.248-10.6-10.52-35.849-.253-3.833-38.16a1.2,1.2,0,0,0-.919-1.04l-8.03-1.872a1.372,1.372,0,0,0-1.677,1.47" transform="translate(-49.371 -153.409)" fill="#e0e0e0"/>
            <path id="Path_204018" data-name="Path 204018" d="M92.441,288.706a1.084,1.084,0,0,1-.009-.235,1.309,1.309,0,0,1,.215-.659,1.388,1.388,0,0,1,.938-.618,1.66,1.66,0,0,1,.734.06l.817.186,4.263.978,2.7.622a1.264,1.264,0,0,1,1.02,1.086q.08.783.166,1.61c.9,8.827,2.179,21.43,3.717,36.56l-.1-.094,35.848.237h.049l.035.034,10.6,10.518.21.209h-.3l-2.445-.011L110.451,339l-9.084-.046-2.193-.011c-.365,0-.719,0-1.089-.01a1.674,1.674,0,0,1-1.553-1.429c-.04-.362-.062-.707-.095-1.059l-.178-2.084c-.468-5.508-.9-10.639-1.3-15.324-.788-9.366-1.426-16.946-1.867-22.19l-.5-6.034-.123-1.57c-.027-.354-.034-.536-.034-.536s.024.18.058.533.082.882.147,1.567c.124,1.384.306,3.415.54,6.03l1.944,22.183c.407,4.684.853,9.814,1.331,15.321l.18,2.083c.032.348.057.707.1,1.049a1.466,1.466,0,0,0,1.362,1.25c.349.01.718.005,1.079.008l2.193.008,9.084.035,40.452.172,2.444.011-.086.207-10.6-10.521.083.035-35.849-.268h-.094l-.009-.093c-1.5-15.134-2.754-27.74-3.63-36.569q-.082-.827-.159-1.609a1.152,1.152,0,0,0-.931-.994l-2.7-.636L95.122,287.5l-.816-.194a1.623,1.623,0,0,0-.713-.067,1.357,1.357,0,0,0-.919.588,1.327,1.327,0,0,0-.225.642c-.013.154,0,.234-.007.234" transform="translate(-49.367 -153.38)" fill="#263238"/>
            <path id="Path_204019" data-name="Path 204019" d="M174.107,386.225h5.13l-6.485-8.412h-3.045Z" transform="translate(-90.64 -201.79)" fill="#263238"/>
            <path id="Path_204020" data-name="Path 204020" d="M96.519,294.405l3.917,42.321,7.3-5.8-3.142-35.656a.619.619,0,0,0-.529-.557l-6.842-.979a.619.619,0,0,0-.7.677" transform="translate(-51.549 -156.877)" fill="#263238"/>
            <path id="Path_204021" data-name="Path 204021" d="M113.347,386.225h5.294l5.38-8.412h-3.045Z" transform="translate(-60.538 -201.79)" fill="#263238"/>
            <path id="Path_204022" data-name="Path 204022" d="M127.294,386.225h5.13l2.811-8.412H132.19Z" transform="translate(-67.988 -201.79)" fill="#263238"/>
            <path id="Path_204023" data-name="Path 204023" d="M140.77,386.225h5.13l.276-8.412h-3.045Z" transform="translate(-75.185 -201.79)" fill="#263238"/>
            <path id="Path_204024" data-name="Path 204024" d="M153.265,386.225h5.13l-1.894-8.412h-3.044Z" transform="translate(-81.859 -201.79)" fill="#263238"/>
            <path id="Path_204025" data-name="Path 204025" d="M163.889,386.225h5.13l-4.179-8.412H161.8Z" transform="translate(-86.415 -201.79)" fill="#263238"/>
            <path id="Path_204026" data-name="Path 204026" d="M149.553,392.266c0,.04-7.822.073-17.469.073s-17.47-.033-17.47-.073,7.821-.073,17.47-.073,17.469.033,17.469.073" transform="translate(-61.215 -209.47)" fill="#e0e0e0"/>
            <path id="Path_204027" data-name="Path 204027" d="M149.573,388.955c0,.04-7.428.073-16.59.073s-16.591-.033-16.591-.073,7.427-.073,16.591-.073,16.59.033,16.59.073" transform="translate(-62.165 -207.701)" fill="#e0e0e0"/>
            <path id="Path_204028" data-name="Path 204028" d="M151.819,385.867c0,.081-6.99.146-15.61.146s-15.612-.065-15.612-.146,6.988-.145,15.612-.145,15.61.065,15.61.145" transform="translate(-64.411 -206.014)" fill="#e0e0e0"/>
            <path id="Path_204029" data-name="Path 204029" d="M153.05,383.125c0,.081-6.839.145-15.275.145s-15.276-.065-15.276-.145,6.838-.146,15.276-.146,15.275.065,15.275.146" transform="translate(-65.427 -204.549)" fill="#e0e0e0"/>
            <path id="Path_204030" data-name="Path 204030" d="M154.355,381.123c0,.081-6.884.146-15.374.146s-15.376-.065-15.376-.146,6.883-.145,15.376-.145,15.374.065,15.374.145" transform="translate(-66.018 -203.48)" fill="#e0e0e0"/>
            <path id="Path_204031" data-name="Path 204031" d="M155.32,379.032c0,.081-7.013.146-15.662.146s-15.664-.065-15.664-.146,7.012-.145,15.664-.145,15.662.065,15.662.145" transform="translate(-66.225 -202.363)" fill="#e0e0e0"/>
            <path id="Path_204032" data-name="Path 204032" d="M103.087,384.754l9.56-8.944" transform="translate(-55.059 -200.72)" fill="#e0e0e0"/>
            <path id="Path_204033" data-name="Path 204033" d="M112.645,375.809c.046.049-2.057,2.091-4.7,4.561s-4.817,4.433-4.864,4.384,2.057-2.09,4.7-4.561,4.817-4.432,4.863-4.383" transform="translate(-55.057 -200.719)" fill="#263238"/>
            <path id="Path_204034" data-name="Path 204034" d="M415.438,293.947s-.469-4.945-12.793-8.109c-5.95-1.528-20.154-2.262-21.764,6.97-.052.3-7.07,58.364-7.07,58.364h26.261Z" transform="translate(-199.652 -152.172)" fill="#455a64"/>
            <path id="Path_204035" data-name="Path 204035" d="M440.341,356.767H428.226l4.046-56.889c.3-2.768,3.161-4.764,6.4-4.458l1.085.1c3.238.306,5.288,3.425,5.2,6.978Z" transform="translate(-228.715 -157.767)" fill="#455a64"/>
            <path id="Path_204036" data-name="Path 204036" d="M430.173,365.373c-.067-.006.789-11.212,1.911-25.026s2.086-25.015,2.153-25.01-.789,11.21-1.911,25.029-2.086,25.012-2.153,25.007" transform="translate(-229.753 -168.421)" fill="#263238"/>
            <path id="Path_204037" data-name="Path 204037" d="M447.866,297.785a12.558,12.558,0,0,0-1.7-.4,6.378,6.378,0,0,0-6.76,3.878,12.572,12.572,0,0,0-.513,1.672,1.534,1.534,0,0,1,.024-.477,5.616,5.616,0,0,1,.331-1.26,6.294,6.294,0,0,1,6.943-3.983,5.607,5.607,0,0,1,1.255.35,1.539,1.539,0,0,1,.424.22" transform="translate(-234.405 -158.697)" fill="#263238"/>
            <path id="Path_204038" data-name="Path 204038" d="M347.192,140.767c.122-3.33-2.136-3.78-3.873-3.4a5.892,5.892,0,0,0-7.246.4,5.241,5.241,0,0,0-7.75,4.564,4.379,4.379,0,0,0-3.56,7.511,4.209,4.209,0,0,0,2.063,8.118l20.436-13.609c1.225-1.29-.133-1.8-.069-3.581" transform="translate(-171.984 -72.803)" fill="#263238"/>
            <path id="Path_204039" data-name="Path 204039" d="M330.44,164.507a17.859,17.859,0,0,1,17.208-17.045l.924-.033c9.986.228,15.372,8.836,14.868,18.813l-.263,33.238-.065,6.311-22.833,5.428-.232-13.157s-9.634-1.149-10.093-10.724c-.221-4.624.1-14.183.486-22.831" transform="translate(-176.189 -78.742)" fill="#ae7461"/>
            <path id="Path_204040" data-name="Path 204040" d="M351.528,251.361a23.249,23.249,0,0,0,12.421-4.12s-2.707,7-12.3,6.476Z" transform="translate(-187.751 -132.051)" fill="#6f4439"/>
            <path id="Path_204041" data-name="Path 204041" d="M337.064,203.348a1.369,1.369,0,0,0,1.368,1.333A1.309,1.309,0,0,0,339.8,203.4a1.37,1.37,0,0,0-1.367-1.334,1.311,1.311,0,0,0-1.367,1.285" transform="translate(-180.025 -107.922)" fill="#263238"/>
            <path id="Path_204042" data-name="Path 204042" d="M335.637,193.28c.176.172,1.184-.632,2.657-.68,1.47-.07,2.577.649,2.73.464.076-.083-.109-.4-.591-.724a3.755,3.755,0,0,0-2.193-.592,3.606,3.606,0,0,0-2.107.764c-.44.363-.582.691-.5.768" transform="translate(-179.25 -102.411)" fill="#263238"/>
            <path id="Path_204043" data-name="Path 204043" d="M362.461,202.7a1.369,1.369,0,0,0,1.368,1.333,1.309,1.309,0,0,0,1.366-1.284,1.37,1.37,0,0,0-1.367-1.334,1.31,1.31,0,0,0-1.367,1.285" transform="translate(-193.59 -107.574)" fill="#263238"/>
            <path id="Path_204044" data-name="Path 204044" d="M365.847,191.765c.176.172,1.187-.631,2.658-.679,1.469-.07,2.577.649,2.73.463.076-.082-.107-.4-.592-.724a3.755,3.755,0,0,0-2.193-.592,3.612,3.612,0,0,0-2.107.764c-.439.363-.581.691-.5.768" transform="translate(-195.386 -101.601)" fill="#263238"/>
            <path id="Path_204045" data-name="Path 204045" d="M351.957,203.223a9.694,9.694,0,0,0-2.406-.347c-.377-.025-.736-.088-.808-.342a1.917,1.917,0,0,1,.211-1.123l1.01-2.9c1.4-4.13,2.4-7.521,2.23-7.576s-1.436,3.248-2.835,7.378q-.5,1.527-.963,2.917a2.178,2.178,0,0,0-.143,1.482.944.944,0,0,0,.638.527,2.524,2.524,0,0,0,.642.066,9.634,9.634,0,0,0,2.423-.082" transform="translate(-185.956 -101.977)" fill="#263238"/>
            <path id="Path_204046" data-name="Path 204046" d="M360.458,219.166c-.24-.006-.186,1.592-1.513,2.775s-3.034,1.068-3.039,1.291c-.019.1.39.3,1.11.291a3.978,3.978,0,0,0,2.54-.987,3.468,3.468,0,0,0,1.167-2.323c.037-.67-.155-1.06-.264-1.046" transform="translate(-190.088 -117.056)" fill="#263238"/>
            <path id="Path_204047" data-name="Path 204047" d="M365.494,182.742c.189.376,1.444-.012,2.985-.041,1.54-.065,2.835.246,2.98-.141.063-.184-.207-.523-.759-.829a4.607,4.607,0,0,0-2.307-.521,4.419,4.419,0,0,0-2.238.661c-.515.339-.746.693-.662.872" transform="translate(-195.201 -96.783)" fill="#263238"/>
            <path id="Path_204048" data-name="Path 204048" d="M336.036,184.735c.243.346,1.273.047,2.493.087,1.221,0,2.241.329,2.494-.009.112-.164-.035-.507-.471-.844a3.611,3.611,0,0,0-4.018-.063c-.446.323-.6.661-.5.829" transform="translate(-179.459 -97.914)" fill="#263238"/>
            <path id="Path_204049" data-name="Path 204049" d="M332.678,158.788s2.313-6.088,5.156-7.591c3.442-1.819,5.086,1.971,8.39.92s6.589-2.8,10.091-.338c3.833,2.691,2.155,4.734,2.536,8.976,1.548,17.2,4.867,21.959,5.474,13.811.067-.893,2.509-1.688,2.741-5.458.3-4.889.278-10.81-.932-14.229-1.02-2.882-2.753-4.836-5.811-6.949-4.828-3.336-11.291-3.182-15.662-2.584s-12.65,5.946-11.983,13.443" transform="translate(-177.663 -77.448)" fill="#263238"/>
            <path id="Path_204050" data-name="Path 204050" d="M399.285,204.945A2.6,2.6,0,0,1,402,202.339c1.792.107,3.817,1.05,3.83,4.746.024,6.556-6.563,5.227-6.575,5.04-.008-.128.013-4.436.027-7.18" transform="translate(-213.242 -108.067)" fill="#ae7461"/>
            <path id="Path_204051" data-name="Path 204051" d="M402.3,212.091c.029-.021.115.08.308.167a1.14,1.14,0,0,0,.854.014,2.827,2.827,0,0,0,1.3-2.54,3.769,3.769,0,0,0-.326-1.634,1.318,1.318,0,0,0-.862-.874.581.581,0,0,0-.673.315c-.088.184-.045.314-.08.326-.018.017-.141-.109-.089-.38a.73.73,0,0,1,.256-.412.861.861,0,0,1,.631-.169,1.6,1.6,0,0,1,1.2,1.012,3.873,3.873,0,0,1,.4,1.825,2.965,2.965,0,0,1-1.656,2.837,1.224,1.224,0,0,1-1.045-.169c-.2-.162-.238-.308-.216-.32" transform="translate(-214.863 -110.505)" fill="#6f4439"/>
            <path id="Path_204052" data-name="Path 204052" d="M367.886,159.143a6.222,6.222,0,0,1-2.728,1.379,2.137,2.137,0,0,1-2.423-1.418c-.094-.453,0-.986-.314-1.328-.373-.408-1.028-.253-1.574-.175a4.183,4.183,0,0,1-4.446-2.843,1.756,1.756,0,0,1-2.346.306,9.389,9.389,0,0,1-1.851-1.844,2.694,2.694,0,0,0-2.288-1.045,6.5,6.5,0,0,1-1.413.364c-.863-.046-1.319-1.038-1.479-1.887s-.3-1.841-1.042-2.28a3.433,3.433,0,0,0-2.344.019c-.787.145-1.816,0-2.046-.772a1.557,1.557,0,0,1,.251-1.2,4.244,4.244,0,0,1,4.95-1.783,5.752,5.752,0,0,1,10.522-1.49,5.838,5.838,0,0,1,9.4,1.8,4.231,4.231,0,0,1,4.986,5.982,4.019,4.019,0,0,1,2.323,3.119,2.3,2.3,0,0,1-2.521,2.442,2.343,2.343,0,0,1-3.968,2.48" transform="translate(-182.422 -74.949)" fill="#263238"/>
            <path id="Path_204053" data-name="Path 204053" d="M395.9,174.946a1.571,1.571,0,0,1-.363,1.273,2.106,2.106,0,0,1-1.285.829,2.269,2.269,0,0,1-1.886-.477l.275-.051a6.552,6.552,0,0,1-1.249,1.68,3.767,3.767,0,0,1-1.167.784,2.91,2.91,0,0,1-3.242-.847,3.78,3.78,0,0,1-.578-1.344,1.285,1.285,0,0,1-.069-.527c.028-.007.09.171.21.484a4.4,4.4,0,0,0,.649,1.224,2.673,2.673,0,0,0,3.939-.048,6.59,6.59,0,0,0,1.192-1.575l.109-.2.167.146a1.991,1.991,0,0,0,1.6.447,1.929,1.929,0,0,0,1.163-.667,3.182,3.182,0,0,0,.54-1.135" transform="translate(-206.336 -93.438)" fill="#455a64"/>
            <path id="Path_204054" data-name="Path 204054" d="M199.7,358.11s-12.359-.37-13.1-.6a7.776,7.776,0,0,0-3.425,0c-.88.278-4.4,1.528-4.4,1.528l-7.467,1.99s-7.5,4.908-7.346,5.89.972,1.655,2.314,1.146,8.117-4.027,8.117-4.027l7.435-.787S192,366.9,194.054,366.72s7.314-1.072,7.314-1.072.74-5.27.37-6.1-2.037-1.435-2.037-1.435" transform="translate(-87.573 -190.842)" fill="#ae7461"/>
            <path id="Path_204055" data-name="Path 204055" d="M165.039,374.635s6.263-6.716,8-7.622,11.395-2.49,11.395-2.49,3.094-1.283,4.226-.83,13.13,2.264,13.659,2.339-2.566,10.564-2.566,10.564a24.453,24.453,0,0,1-8.98-.377c-4.83-1.132-6.49-2.641-6.49-2.641l-4.821-1.266-2.95,1.125s-.53,4.367-2.643,4.141l-.981-.679.754-4.83-3.094,1.283s-2.415,3.622-4.226,3.094-1.283-1.811-1.283-1.811" transform="translate(-88.109 -194.196)" fill="#ae7461"/>
            <path id="Path_204056" data-name="Path 204056" d="M165.023,374.514a1.474,1.474,0,0,0-.048.524,1.161,1.161,0,0,0,.233.589,1.72,1.72,0,0,0,.709.517A1.787,1.787,0,0,0,167,376.3a3.325,3.325,0,0,0,1.2-.608,10.932,10.932,0,0,0,2.274-2.5l.012-.017.018-.007,3.089-1.293.127-.053-.021.136c-.223,1.453-.474,3.083-.742,4.831l-.038-.088.983.677-.042-.016a1.412,1.412,0,0,0,1.088-.4,3.211,3.211,0,0,0,.72-1.048,9.494,9.494,0,0,0,.723-2.613l.008-.062.056-.022,2.948-1.129.032-.012.034.009,4.822,1.26.022.006.026.02a12.547,12.547,0,0,0,3.335,1.7,28.017,28.017,0,0,0,3.8,1.057,24.168,24.168,0,0,0,4.054.457,22.948,22.948,0,0,0,4.184-.232l-.095.085.674-2.337c.662-2.373,1.329-4.709,1.813-7.017a7.99,7.99,0,0,0,.131-.861,1.049,1.049,0,0,0,0-.2c0-.03-.029-.048.019-.009a.056.056,0,0,0,.027.007l-.012,0-.027,0-.055-.008-.435-.065-1.724-.264-3.376-.532c-2.216-.358-4.364-.709-6.424-1.1-.517-.108-1.02-.194-1.531-.35a2.819,2.819,0,0,0-1.449-.044,14.734,14.734,0,0,0-2.793.838l-.012,0-.011,0c-3.376.568-6.465,1.123-9.159,1.769a16.649,16.649,0,0,0-1.919.562,5.842,5.842,0,0,0-1.523,1.03c-.912.773-1.7,1.538-2.418,2.228-1.424,1.384-2.508,2.5-3.251,3.262l-.845.868c-.192.2-.3.292-.3.292s.089-.111.273-.314l.823-.889c.729-.772,1.8-1.906,3.213-3.3.709-.7,1.5-1.468,2.408-2.253.229-.2.465-.393.718-.579a3.4,3.4,0,0,1,.838-.485,16.678,16.678,0,0,1,1.938-.58c2.7-.663,5.786-1.23,9.166-1.81l-.023.007a14.86,14.86,0,0,1,2.836-.86,3.025,3.025,0,0,1,1.558.049c.471.143.992.234,1.5.338,2.055.387,4.2.734,6.419,1.089l3.375.527,1.724.262.434.065.055.008.027,0,.015,0a.2.2,0,0,1,.051.019.231.231,0,0,1,.1.185,1.276,1.276,0,0,1,0,.245,8.162,8.162,0,0,1-.135.89c-.486,2.329-1.151,4.66-1.815,7.038l-.675,2.339-.021.074-.074.011a23.117,23.117,0,0,1-4.235.233,24.344,24.344,0,0,1-4.093-.465,28.148,28.148,0,0,1-3.832-1.071,18.17,18.17,0,0,1-1.782-.754,8.524,8.524,0,0,1-1.626-1l.047.026-4.82-1.272.065,0-2.952,1.121.065-.083a9.655,9.655,0,0,1-.749,2.672,3.4,3.4,0,0,1-.769,1.106,1.6,1.6,0,0,1-1.235.442l-.024,0-.019-.013-.979-.682-.047-.032.009-.055c.278-1.746.536-3.376.767-4.827l.106.083-3.1,1.272.029-.024a10.937,10.937,0,0,1-2.323,2.506,3.4,3.4,0,0,1-1.242.61,1.854,1.854,0,0,1-1.133-.177,1.758,1.758,0,0,1-.723-.548,1.181,1.181,0,0,1-.226-.618,1,1,0,0,1,.083-.527" transform="translate(-88.093 -194.076)" fill="#6f4439"/>
            <path id="Path_204057" data-name="Path 204057" d="M193.937,374.333a1.8,1.8,0,0,1-.476-.012c-.3-.024-.744-.065-1.286-.122l-1.9-.212-.55-.065a1.832,1.832,0,0,0-.547.012,11.093,11.093,0,0,0-1.174.244c-1.571.457-3.143.759-3.749,1.691A3.516,3.516,0,0,0,183.7,377a4.624,4.624,0,0,1-.124.455,1.133,1.133,0,0,1,.032-.478,3.214,3.214,0,0,1,.513-1.2,2.93,2.93,0,0,1,.641-.657,3.711,3.711,0,0,1,.935-.474c.682-.249,1.441-.485,2.252-.694a10.491,10.491,0,0,1,1.2-.244,2.028,2.028,0,0,1,.6-.006l.549.073,1.9.263c.539.079.976.146,1.277.2a1.782,1.782,0,0,1,.464.106" transform="translate(-98.039 -199.578)" fill="#6f4439"/>
            <path id="Path_204058" data-name="Path 204058" d="M169.73,374.692a3.822,3.822,0,0,1,.518-.522c.348-.32.86-.774,1.51-1.315s1.435-1.172,2.341-1.831c.455-.327.94-.661,1.465-.977a7.831,7.831,0,0,1,.834-.437,7.392,7.392,0,0,1,.923-.3,49.413,49.413,0,0,1,6.511-1.12l1.985-.247a4.337,4.337,0,0,1,.732-.058,4.2,4.2,0,0,1-.719.151l-1.974.323a60.485,60.485,0,0,0-6.473,1.184,7.352,7.352,0,0,0-.892.284,7.735,7.735,0,0,0-.808.419c-.517.308-1,.635-1.456.954-.908.644-1.7,1.26-2.363,1.782l-1.556,1.253a4.745,4.745,0,0,1-.58.451" transform="translate(-90.653 -196.487)" fill="#6f4439"/>
            <path id="Path_204059" data-name="Path 204059" d="M285.8,281.941A72.063,72.063,0,0,0,279.9,291.9c-2.238,4.659-9.48,20.522-9.48,20.522l-29.5,1.548.435,11.4s28.5,10.152,34.875,8.194S289.4,324.25,289.4,324.25l3.051-48.081s-2.531-.477-6.647,5.772" transform="translate(-128.671 -147.497)" fill="#feca2e"/>
            <path id="Path_204060" data-name="Path 204060" d="M334.252,266.556s-7.565,17.159-8.67,24.427c-2.194,14.43-2.931,23.461-2.931,23.461l-2.572,22.331h50.387s1.668-41.387.6-55.263c-.8-10.4-8.765-16.872-12.023-20.428a31.915,31.915,0,0,1-1.093-3.125l-23.48,6.013Z" transform="translate(-170.953 -137.776)" fill="#feca2e"/>
            <path id="Path_204061" data-name="Path 204061" d="M332.178,282.009a.916.916,0,0,1-.058.163l-.192.468-.754,1.793c-.648,1.559-1.582,3.819-2.522,6.687a79.65,79.65,0,0,0-2.6,10.264c-.75,3.919-1.357,8.267-1.863,12.845L321.8,337.716c-.312,2.994-.565,5.421-.741,7.115l-.213,1.933-.062.5a.086.086,0,1,1-.025,0c.01-.126.022-.293.038-.505.04-.457.1-1.107.169-1.938.158-1.7.385-4.126.664-7.123.582-6.013,1.352-14.322,2.308-23.5.507-4.582,1.121-8.936,1.885-12.861a77.6,77.6,0,0,1,2.662-10.276c.964-2.868,1.923-5.121,2.6-6.669.333-.777.611-1.371.8-1.776.09-.193.161-.344.215-.458a.88.88,0,0,1,.081-.153" transform="translate(-171.316 -150.621)" fill="#263238"/>
            <g id="Group_147021" data-name="Group 147021" transform="translate(150.038 146.601)" opacity="0.3">
              <g id="Group_147020" data-name="Group 147020">
                <g id="Group_147019" data-name="Group 147019" clip-path="url(#clip-path-9)">
                  <path id="Path_204062" data-name="Path 204062" d="M359.039,326.46c-.464-4.571-2.518-9.158-6.278-11.8l-30.723,43.872c5.424,2.924,11.446,5.945,17.472,4.656a17.336,17.336,0,0,0,8.461-4.956c4.858-4.886,7.494-11.543,9.347-18.18,1.235-4.426,2.186-9.022,1.722-13.595" transform="translate(-322.038 -314.662)"/>
                </g>
              </g>
            </g>
            <path id="Path_204063" data-name="Path 204063" d="M317.781,299.484c-3.828,13.545-12.442,30.073-15.088,33.393a20.538,20.538,0,0,1-16.074,7.887c-3.466,0-32.763-5.7-41.444-7.411a3.719,3.719,0,0,1-2.922-2.886l-.075-.359-3.909-1.052,2.082-10.487.416-.581,41.9,1.318,12.189-33.948c.23-.388,3.751-11.78,13.295-11.263" transform="translate(-127.259 -146.384)" fill="#feca2e"/>
            <path id="Path_204064" data-name="Path 204064" d="M307.988,274.082s-.107,0-.317,0a9.151,9.151,0,0,0-.934.023,10.534,10.534,0,0,0-3.521.836,12.778,12.778,0,0,0-4.6,3.547,23.019,23.019,0,0,0-3.867,6.887l.006-.012L282.6,319.329l-.026.072-.077,0-41.9-1.3.1-.05-.416.581.02-.047-1.889,9.521c-.066.331-.131.662-.191.966l-.088-.141,3.908,1.053.076.02.011.072a3.777,3.777,0,0,0,1.151,2.257,3.513,3.513,0,0,0,1.071.687,6.268,6.268,0,0,0,1.251.32l5.128,1,10.017,1.927c6.565,1.244,12.89,2.427,18.923,3.448,1.509.25,3,.49,4.473.7.738.092,1.47.2,2.193.229a17.063,17.063,0,0,0,2.17-.109,20.575,20.575,0,0,0,7.919-2.54,21.055,21.055,0,0,0,5.909-5.041,27.8,27.8,0,0,0,2.033-3.067q.916-1.556,1.732-3.078a165.762,165.762,0,0,0,8.984-19.8c.887-2.4,1.517-4.29,1.919-5.576l.451-1.464c.1-.329.162-.5.162-.5s-.043.171-.138.5l-.429,1.471c-.387,1.291-1,3.183-1.878,5.594a162.246,162.246,0,0,1-8.922,19.844q-.816,1.523-1.728,3.088a27.951,27.951,0,0,1-2.042,3.093,21.234,21.234,0,0,1-5.954,5.1,20.778,20.778,0,0,1-7.994,2.577,17.345,17.345,0,0,1-2.2.112c-.745-.033-1.478-.137-2.22-.228-1.477-.207-2.97-.445-4.48-.694-6.038-1.015-12.364-2.193-18.93-3.433l-10.019-1.923-5.129-1a6.474,6.474,0,0,1-1.3-.333,3.766,3.766,0,0,1-1.143-.733,4.024,4.024,0,0,1-1.224-2.385l.087.092-3.908-1.052-.109-.029.022-.111c.06-.3.126-.635.191-.966.648-3.261,1.288-6.488,1.89-9.521l.005-.026.015-.021.416-.581.038-.053.064,0,41.9,1.333-.1.07,12.224-33.935.006-.012a22.987,22.987,0,0,1,3.9-6.886,12.792,12.792,0,0,1,4.65-3.545,10.4,10.4,0,0,1,3.547-.807,8.151,8.151,0,0,1,.936,0c.21.007.316.014.316.014" transform="translate(-127.097 -146.373)" fill="#263238"/>
            <path id="Path_204065" data-name="Path 204065" d="M308.2,359.431a11.856,11.856,0,0,0-4.835-5.19,3.282,3.282,0,0,1,.975.442,8.964,8.964,0,0,1,3.489,3.744,3.292,3.292,0,0,1,.371,1" transform="translate(-162.026 -189.198)" fill="#263238"/>
            <path id="Path_204066" data-name="Path 204066" d="M338.748,379.468c-.041.006-.123-.537-.366-1.382a12.764,12.764,0,0,0-3.531-5.784c-.641-.6-1.086-.923-1.062-.957.01-.014.129.054.338.19a7.783,7.783,0,0,1,.839.64,11.288,11.288,0,0,1,3.582,5.868,7.889,7.889,0,0,1,.185,1.039,1.183,1.183,0,0,1,.015.388" transform="translate(-178.276 -198.334)" fill="#263238"/>
            <g id="Group_147024" data-name="Group 147024" transform="translate(149.296 144.206)" opacity="0.3">
              <g id="Group_147023" data-name="Group 147023">
                <g id="Group_147022" data-name="Group 147022" clip-path="url(#clip-path-10)">
                  <path id="Path_204067" data-name="Path 204067" d="M320.445,337.97l2.439.09c.393-9.57,2.365-19.113,4.053-28.542-4.3,8.783-5.428,18.73-6.492,28.451" transform="translate(-320.445 -309.519)"/>
                </g>
              </g>
            </g>
            <path id="Path_204068" data-name="Path 204068" d="M375.3,264.663a.916.916,0,0,1-.23.08l-.67.184-2.47.657c-2.085.554-4.96,1.349-8.155,2.155s-6.119,1.429-8.252,1.78c-1.066.176-1.932.3-2.533.362l-.692.07a.905.905,0,0,1-.244.008.933.933,0,0,1,.237-.056l.686-.115c.6-.09,1.456-.24,2.516-.437,2.12-.393,5.029-1.039,8.222-1.846s6.074-1.573,8.172-2.085c1.048-.259,1.9-.456,2.49-.582l.682-.14a.91.91,0,0,1,.241-.033" transform="translate(-188.029 -141.355)" fill="#263238"/>
          </g>
        </g>
      </g>
    </g>
  </g>
</svg>
