<svg id="_7" data-name="7" xmlns="http://www.w3.org/2000/svg" xmlns:xlink="http://www.w3.org/1999/xlink" width="50" height="50" viewBox="0 0 50 50">
  <defs>
    <clipPath id="clip-path">
      <rect id="Rectangle_45077" data-name="Rectangle 45077" width="50" height="50" fill="#4dd0e1"/>
    </clipPath>
  </defs>
  <g id="Group_147036" data-name="Group 147036" clip-path="url(#clip-path)">
    <path id="Path_204082" data-name="Path 204082" d="M22.64,12.963a.834.834,0,0,0,1.156.231l2.5-1.667a.833.833,0,0,0,0-1.386L23.8,8.474a.834.834,0,1,0-.925,1.387l1.462.973-1.46.973a.834.834,0,0,0-.234,1.155h0" fill="#4dd0e1"/>
    <path id="Path_204083" data-name="Path 204083" d="M17.083,14.057a.823.823,0,0,0,.417.11.833.833,0,0,0,.724-.417l3.333-5.833a.833.833,0,1,0-1.427-.861c-.007.011-.013.023-.019.034l-3.334,5.834a.834.834,0,0,0,.306,1.133" fill="#4dd0e1"/>
    <path id="Path_204084" data-name="Path 204084" d="M16.667,17.5h1.667a.834.834,0,0,0,0-1.667H16.667a.834.834,0,0,0,0,1.667" fill="#4dd0e1"/>
    <path id="Path_204085" data-name="Path 204085" d="M16.667,20.833H28.334a.834.834,0,0,0,0-1.667H16.667a.834.834,0,0,0,0,1.667" fill="#4dd0e1"/>
    <path id="Path_204086" data-name="Path 204086" d="M20.833,16.667a.833.833,0,0,0,.833.833H33.333a.833.833,0,0,0,0-1.666H21.666a.833.833,0,0,0-.833.833" fill="#4dd0e1"/>
    <path id="Path_204087" data-name="Path 204087" d="M33.333,19.167H31.666a.834.834,0,0,0,0,1.667h1.667a.834.834,0,0,0,0-1.667" fill="#4dd0e1"/>
    <path id="Path_204088" data-name="Path 204088" d="M16.667,24.167h1.667a.834.834,0,0,0,0-1.667H16.667a.834.834,0,0,0,0,1.667" fill="#4dd0e1"/>
    <path id="Path_204089" data-name="Path 204089" d="M33.333,22.5H21.666a.834.834,0,0,0,0,1.667H33.333a.834.834,0,0,0,0-1.667" fill="#4dd0e1"/>
    <path id="Path_204090" data-name="Path 204090" d="M46.666,30.7V2.5a2.507,2.507,0,0,0-2.5-2.5H5.833a2.507,2.507,0,0,0-2.5,2.5V30.7L0,40.7v1.8A2.507,2.507,0,0,0,2.5,45H8.333v.142a2.462,2.462,0,0,0,.733,1.766l.692.692a.826.826,0,0,1,.242.592v.975a.833.833,0,1,0,1.666,0v-.975a2.463,2.463,0,0,0-.733-1.767l-.692-.692A.823.823,0,0,1,10,45.142V37.083a.417.417,0,0,1,.833,0V40A.834.834,0,0,0,12.5,40V35.417a.417.417,0,1,1,.833,0V40A.834.834,0,0,0,15,40V34.583a.417.417,0,0,1,.833,0V40A.834.834,0,0,0,17.5,40V35.417a.417.417,0,1,1,.833,0V42.5A.834.834,0,0,0,20,42.5V40h.416a.417.417,0,0,1,.417.417v4.725a.824.824,0,0,1-.242.591l-.691.692a2.464,2.464,0,0,0-.734,1.767v.975a.834.834,0,0,0,1.667,0v-.975a.826.826,0,0,1,.242-.592l.691-.692a2.463,2.463,0,0,0,.734-1.766V45h5v.142a2.462,2.462,0,0,0,.733,1.766l.692.692a.825.825,0,0,1,.241.592v.975a.834.834,0,0,0,1.667,0v-.975a2.463,2.463,0,0,0-.733-1.767l-.692-.692a.824.824,0,0,1-.242-.591V40.417A.417.417,0,0,1,29.583,40H30v2.5a.833.833,0,0,0,1.666,0V35.417a.417.417,0,1,1,.834,0V40a.833.833,0,0,0,1.666,0V34.583a.417.417,0,0,1,.834,0V40a.833.833,0,0,0,1.666,0V35.417a.417.417,0,0,1,.834,0V40a.833.833,0,0,0,1.666,0V37.083a.417.417,0,0,1,.834,0v8.059a.824.824,0,0,1-.242.591l-.692.692a2.463,2.463,0,0,0-.733,1.767v.975a.834.834,0,0,0,1.667,0v-.975a.825.825,0,0,1,.241-.592l.692-.692a2.462,2.462,0,0,0,.733-1.766V45H47.5A2.507,2.507,0,0,0,50,42.5V40.7ZM5,2.5a.833.833,0,0,1,.833-.833H44.166A.833.833,0,0,1,45,2.5V30H5ZM8.333,43.333H2.5a.833.833,0,0,1-.834-.833v-.833H8.333Zm19.167,0h-5V41.666h5ZM39.583,35a1.952,1.952,0,0,0-.45.05,2.085,2.085,0,0,0-2.05-1.717,2.047,2.047,0,0,0-.742.142,2.072,2.072,0,0,0-3.516,0,2.047,2.047,0,0,0-.742-.142A2.083,2.083,0,0,0,30,35.417v2.916h-.417A2.084,2.084,0,0,0,27.541,40H22.458a2.084,2.084,0,0,0-2.042-1.667H20V35.417a2.084,2.084,0,0,0-2.084-2.084,2.042,2.042,0,0,0-.741.142,2.073,2.073,0,0,0-3.517,0,2.047,2.047,0,0,0-.742-.142,2.085,2.085,0,0,0-2.05,1.717,1.94,1.94,0,0,0-.45-.05,2.084,2.084,0,0,0-2.083,2.083V40H1.991l2.775-8.333H45.233L48.008,40H41.666V37.083A2.083,2.083,0,0,0,39.583,35m8.75,7.5a.833.833,0,0,1-.833.833H41.666V41.667h6.667Z" fill="#4dd0e1"/>
    <path id="Path_204091" data-name="Path 204091" d="M42.5,3.333H7.5a.833.833,0,0,0-.833.834V27.5a.833.833,0,0,0,.833.833h35a.833.833,0,0,0,.833-.833V4.167a.833.833,0,0,0-.833-.834m-.833,23.334H8.334V5H41.667Z" fill="#4dd0e1"/>
    <path id="Path_204092" data-name="Path 204092" d="M7.5,33.333H6.667a.834.834,0,1,0,0,1.667H7.5a.834.834,0,0,0,0-1.667" fill="#4dd0e1"/>
    <path id="Path_204093" data-name="Path 204093" d="M6.667,36.667H5.834a.834.834,0,1,0,0,1.667h.833a.834.834,0,0,0,0-1.667" fill="#4dd0e1"/>
    <path id="Path_204094" data-name="Path 204094" d="M42.5,35h.833a.834.834,0,1,0,0-1.667H42.5A.834.834,0,0,0,42.5,35" fill="#4dd0e1"/>
    <path id="Path_204095" data-name="Path 204095" d="M43.333,36.667a.834.834,0,0,0,0,1.667h.833a.834.834,0,1,0,0-1.667Z" fill="#4dd0e1"/>
    <path id="Path_204096" data-name="Path 204096" d="M23.333,33.333H22.5A.834.834,0,1,0,22.5,35h.833a.834.834,0,0,0,0-1.667" fill="#4dd0e1"/>
    <path id="Path_204097" data-name="Path 204097" d="M27.5,33.333h-.833a.834.834,0,1,0,0,1.667H27.5a.834.834,0,0,0,0-1.667" fill="#4dd0e1"/>
    <path id="Path_204098" data-name="Path 204098" d="M23.333,36.667H22.5a.834.834,0,1,0,0,1.667h.833a.834.834,0,0,0,0-1.667" fill="#4dd0e1"/>
    <path id="Path_204099" data-name="Path 204099" d="M27.5,36.667h-.833a.834.834,0,1,0,0,1.667H27.5a.834.834,0,0,0,0-1.667" fill="#4dd0e1"/>
    <path id="Path_204100" data-name="Path 204100" d="M15.693,12.963a.834.834,0,0,1-1.156.231l-2.5-1.667a.833.833,0,0,1,0-1.386l2.5-1.667a.834.834,0,0,1,.925,1.387L14,10.834l1.46.973a.834.834,0,0,1,.234,1.155Z" fill="#4dd0e1"/>
  </g>
</svg>
