<svg xmlns="http://www.w3.org/2000/svg" xmlns:xlink="http://www.w3.org/1999/xlink" width="295" height="260" viewBox="0 0 295 260">
  <defs>
    <clipPath id="clip-path">
      <rect id="Rectangle_45979" data-name="Rectangle 45979" width="295" height="230.509" fill="none"/>
    </clipPath>
    <clipPath id="clip-path-3">
      <rect id="Rectangle_45972" data-name="Rectangle 45972" width="149.561" height="55.12" fill="none"/>
    </clipPath>
    <clipPath id="clip-path-4">
      <rect id="Rectangle_45974" data-name="Rectangle 45974" width="60.912" height="94.237" fill="none"/>
    </clipPath>
    <clipPath id="clip-path-5">
      <rect id="Rectangle_45975" data-name="Rectangle 45975" width="16.968" height="8.166" fill="none"/>
    </clipPath>
    <clipPath id="clip-path-6">
      <rect id="Rectangle_45976" data-name="Rectangle 45976" width="2.605" height="17.01" fill="none"/>
    </clipPath>
    <clipPath id="clip-path-7">
      <rect id="Rectangle_45977" data-name="Rectangle 45977" width="80.491" height="28.532" fill="none"/>
    </clipPath>
  </defs>
  <g id="_1" data-name="1" transform="translate(-287.271 -414)">
    <circle id="Ellipse_5040" data-name="Ellipse 5040" cx="130" cy="130" r="130" transform="translate(302.763 414)" fill="#bddcf6" opacity="0.5"/>
    <g id="Group_148559" data-name="Group 148559" transform="translate(287.271 429)">
      <g id="Group_148598" data-name="Group 148598" clip-path="url(#clip-path)">
        <g id="Group_148597" data-name="Group 148597">
          <g id="Group_148596" data-name="Group 148596" clip-path="url(#clip-path)">
            <path id="Path_206777" data-name="Path 206777" d="M417.341,3.809H402.229a1.9,1.9,0,1,1,0-3.809h15.112a1.9,1.9,0,0,1,0,3.809" transform="translate(-170.027 0)" fill="#4dd0e1"/>
            <path id="Path_206778" data-name="Path 206778" d="M378.521,3.809H363.409a1.9,1.9,0,1,1,0-3.809h15.112a1.9,1.9,0,1,1,0,3.809" transform="translate(-153.539 0)" fill="#4dd0e1"/>
            <path id="Path_206779" data-name="Path 206779" d="M378.521,28.132H363.409a1.9,1.9,0,1,1,0-3.809h15.112a1.9,1.9,0,1,1,0,3.809" transform="translate(-153.539 -10.331)" fill="#4dd0e1"/>
            <path id="Path_206780" data-name="Path 206780" d="M401.044,15.971h-37.52a1.9,1.9,0,0,1,0-3.809h37.52a1.9,1.9,0,0,1,0,3.809" transform="translate(-153.589 -5.165)" fill="#4dd0e1"/>
            <path id="Path_206781" data-name="Path 206781" d="M341.418,2.1A1.641,1.641,0,1,1,339.776.457,1.641,1.641,0,0,1,341.418,2.1" transform="translate(-143.614 -0.194)" fill="#4dd0e1"/>
            <path id="Path_206782" data-name="Path 206782" d="M314.888,3.2a1.817,1.817,0,0,1-.378.03l-1.083.028-3.984.048L296.3,3.349c-6.025,0-11.38-.023-14.722-.059l.091-.091c-.017,1.2-.032,2.155-.042,2.852-.01.307-.017.557-.024.756a1.011,1.011,0,0,1-.025.26,1.036,1.036,0,0,1-.025-.26c-.006-.2-.014-.449-.024-.756-.01-.7-.024-1.656-.042-2.852V3.11h.092c3.342-.036,8.7-.059,14.722-.059l13.144.044,3.984.048,1.083.028a1.785,1.785,0,0,1,.378.03" transform="translate(-119.553 -1.295)" fill="#4dd0e1"/>
            <path id="Path_206783" data-name="Path 206783" d="M203.281,373.556H188.169a1.9,1.9,0,1,1,0-3.809h15.112a1.9,1.9,0,1,1,0,3.809" transform="translate(-79.111 -157.04)" fill="#4dd0e1"/>
            <path id="Path_206784" data-name="Path 206784" d="M164.462,373.556H149.35a1.9,1.9,0,1,1,0-3.809h15.112a1.9,1.9,0,1,1,0,3.809" transform="translate(-62.623 -157.04)" fill="#4dd0e1"/>
            <path id="Path_206785" data-name="Path 206785" d="M164.462,397.88H149.35a1.9,1.9,0,1,1,0-3.809h15.112a1.9,1.9,0,1,1,0,3.809" transform="translate(-62.623 -167.371)" fill="#4dd0e1"/>
            <path id="Path_206786" data-name="Path 206786" d="M186.984,385.718H149.465a1.9,1.9,0,0,1,0-3.809h37.519a1.9,1.9,0,1,1,0,3.809" transform="translate(-62.673 -162.206)" fill="#4dd0e1"/>
            <path id="Path_206787" data-name="Path 206787" d="M130.447,370.485a1.641,1.641,0,1,1-1.641-1.641,1.641,1.641,0,0,1,1.641,1.641" transform="translate(-54.01 -156.657)" fill="#4dd0e1"/>
            <path id="Path_206788" data-name="Path 206788" d="M129.907,353.564c-.083,0-.15-5.278-.15-11.786s.067-11.788.15-11.788.15,5.277.15,11.788-.067,11.786-.15,11.786" transform="translate(-55.111 -140.155)" fill="#4dd0e1"/>
            <path id="Path_206789" data-name="Path 206789" d="M54.408,139.395a2.8,2.8,0,0,1-.475.03l-1.36.028-5,.048-16.506.044-6.327-.005.144-.144c-.022,4.9-.04,9.147-.053,12.2-.017,1.49-.032,2.687-.042,3.544-.01.393-.018.707-.024.948a1.651,1.651,0,0,1-.025.327,1.6,1.6,0,0,1-.025-.327c-.006-.241-.014-.555-.024-.948-.01-.857-.025-2.054-.042-3.544-.014-3.053-.032-7.3-.054-12.2v-.144h.145l6.327-.006,16.506.044,5,.048,1.36.028a2.848,2.848,0,0,1,.475.03" transform="translate(-10.445 -130.344)" fill="#263238"/>
            <path id="Path_206790" data-name="Path 206790" d="M25.018,168.382a1.146,1.146,0,1,1-1.146-1.146,1.146,1.146,0,0,1,1.146,1.146" transform="translate(-9.653 -142.232)" fill="#263238"/>
            <path id="Path_206791" data-name="Path 206791" d="M35.938,190.592H1.9a1.9,1.9,0,1,1,0-3.809H35.938a1.9,1.9,0,1,1,0,3.809" transform="translate(0 -150.534)" fill="#4dd0e1"/>
            <path id="Path_206792" data-name="Path 206792" d="M35.938,205.007H1.9a1.9,1.9,0,1,1,0-3.809H35.938a1.9,1.9,0,1,1,0,3.809" transform="translate(0 -156.657)" fill="#4dd0e1"/>
            <path id="Path_206793" data-name="Path 206793" d="M11.17,220.194H1.9a1.9,1.9,0,0,1,0-3.809H11.17a1.9,1.9,0,1,1,0,3.809" transform="translate(0 -163.107)" fill="#4dd0e1"/>
            <path id="Path_206794" data-name="Path 206794" d="M464.71,94.735H430.677a1.9,1.9,0,1,1,0-3.809H464.71a1.9,1.9,0,0,1,0,3.809" transform="translate(-182.11 -38.618)" fill="#4dd0e1"/>
            <path id="Path_206795" data-name="Path 206795" d="M432.943,70.834l.59,1.195a.484.484,0,0,0,.365.265l1.318.192a.484.484,0,0,1,.269.826l-.954.93a.486.486,0,0,0-.139.429l.226,1.313a.484.484,0,0,1-.7.511l-1.179-.62a.484.484,0,0,0-.45,0l-1.179.62a.484.484,0,0,1-.7-.511l.225-1.313a.484.484,0,0,0-.139-.429l-.954-.93a.484.484,0,0,1,.268-.826l1.319-.192a.485.485,0,0,0,.365-.265l.59-1.195a.484.484,0,0,1,.868,0" transform="translate(-182.371 -29.97)" fill="#0f2771"/>
            <path id="Path_206796" data-name="Path 206796" d="M446.319,70.834l.59,1.195a.483.483,0,0,0,.365.265l1.318.192a.484.484,0,0,1,.269.826l-.954.93a.486.486,0,0,0-.139.429l.226,1.313a.484.484,0,0,1-.7.511l-1.179-.62a.484.484,0,0,0-.45,0l-1.179.62a.484.484,0,0,1-.7-.511L444,74.669a.484.484,0,0,0-.139-.429l-.954-.93a.484.484,0,0,1,.268-.826l1.319-.192a.486.486,0,0,0,.365-.265l.59-1.195a.484.484,0,0,1,.868,0" transform="translate(-188.052 -29.97)" fill="#0f2771"/>
            <path id="Path_206797" data-name="Path 206797" d="M459.7,70.834l.59,1.195a.483.483,0,0,0,.365.265l1.318.192a.484.484,0,0,1,.269.826l-.954.93a.486.486,0,0,0-.139.429l.225,1.313a.484.484,0,0,1-.7.511l-1.179-.62a.484.484,0,0,0-.45,0l-1.179.62a.484.484,0,0,1-.7-.511l.225-1.313a.484.484,0,0,0-.139-.429l-.954-.93a.484.484,0,0,1,.268-.826l1.319-.192a.485.485,0,0,0,.365-.265l.59-1.195a.484.484,0,0,1,.868,0" transform="translate(-193.733 -29.97)" fill="#0f2771"/>
            <path id="Path_206798" data-name="Path 206798" d="M473.073,70.834l.59,1.195a.484.484,0,0,0,.365.265l1.318.192a.484.484,0,0,1,.269.826l-.954.93a.486.486,0,0,0-.139.429l.226,1.313a.484.484,0,0,1-.7.511l-1.179-.62a.484.484,0,0,0-.45,0l-1.179.62a.484.484,0,0,1-.7-.511l.225-1.313a.484.484,0,0,0-.139-.429l-.954-.93a.484.484,0,0,1,.268-.826l1.319-.192a.485.485,0,0,0,.365-.265l.59-1.195a.484.484,0,0,1,.868,0" transform="translate(-199.415 -29.97)" fill="#0f2771"/>
            <path id="Path_206799" data-name="Path 206799" d="M486.642,70.834l.59,1.195a.483.483,0,0,0,.365.265l1.318.192a.484.484,0,0,1,.269.826l-.954.93a.484.484,0,0,0-.139.429l.226,1.313a.484.484,0,0,1-.7.511l-1.179-.62a.484.484,0,0,0-.45,0l-1.179.62a.484.484,0,0,1-.7-.511l.225-1.313a.484.484,0,0,0-.139-.429l-.954-.93a.484.484,0,0,1,.268-.826l1.319-.192a.486.486,0,0,0,.365-.265l.59-1.195a.484.484,0,0,1,.868,0" transform="translate(-205.178 -29.97)" fill="#0f2771"/>
            <path id="Path_206800" data-name="Path 206800" d="M464.71,109.15H430.677a1.9,1.9,0,1,1,0-3.809H464.71a1.9,1.9,0,0,1,0,3.809" transform="translate(-182.11 -44.741)" fill="#4dd0e1"/>
            <path id="Path_206801" data-name="Path 206801" d="M439.943,124.336h-9.265a1.9,1.9,0,0,1,0-3.809h9.265a1.9,1.9,0,0,1,0,3.809" transform="translate(-182.11 -51.191)" fill="#4dd0e1"/>
            <path id="Path_206802" data-name="Path 206802" d="M429.894,143.061a1.443,1.443,0,0,1,.03.339c.007.255.017.576.028.971.012.884.028,2.095.048,3.572.012,3.052.027,7.2.044,11.786,0,.958,0,1.9,0,2.8v.149h-.148L420,162.623l-2.921-.044-.786-.025a1.087,1.087,0,0,1-.273-.027,1.032,1.032,0,0,1,.273-.028l.786-.025,2.921-.044,9.892-.051-.148.147c0-.9,0-1.839,0-2.8.017-4.584.032-8.733.044-11.786.02-1.478.036-2.688.048-3.572.011-.395.021-.716.028-.971a1.47,1.47,0,0,1,.03-.339" transform="translate(-176.694 -60.761)" fill="#263238"/>
            <path id="Path_206803" data-name="Path 206803" d="M440.3,141.849a1.641,1.641,0,1,1-1.641-1.641,1.641,1.641,0,0,1,1.641,1.641" transform="translate(-185.612 -59.55)" fill="#263238"/>
            <path id="Path_206804" data-name="Path 206804" d="M139.392,68.935a59.766,59.766,0,0,1,99.052.548l25.563-12.977a88.3,88.3,0,0,0-149.561-1.579Z" transform="translate(-48.608 -6.1)" fill="#0f2771"/>
            <g id="Group_148583" data-name="Group 148583" transform="translate(65.838 8.263)" opacity="0.3">
              <g id="Group_148582" data-name="Group 148582">
                <g id="Group_148581" data-name="Group 148581" clip-path="url(#clip-path-3)">
                  <path id="Path_206805" data-name="Path 206805" d="M139.392,68.935a59.766,59.766,0,0,1,99.052.548l25.563-12.977a88.3,88.3,0,0,0-149.561-1.579Z" transform="translate(-114.446 -14.363)" fill="#fff"/>
                </g>
              </g>
            </g>
            <rect id="Rectangle_45973" data-name="Rectangle 45973" width="107.08" height="28.533" transform="translate(145.402 156.445)" fill="#0f2771"/>
            <path id="Path_206806" data-name="Path 206806" d="M418.575,232.983v68.06a4.415,4.415,0,0,0,7.064,3.532l45.373-34.03a4.415,4.415,0,0,0,0-7.064l-45.373-34.03a4.415,4.415,0,0,0-7.064,3.532" transform="translate(-177.779 -97.075)" fill="#0f2771"/>
            <path id="Path_206807" data-name="Path 206807" d="M178.338,196.216a59.8,59.8,0,0,1-52.426-88.608L101.036,93.64A88.318,88.318,0,0,0,243.4,196.1Z" transform="translate(-38.217 -39.771)" fill="#0f2771"/>
            <path id="Path_206808" data-name="Path 206808" d="M291.281,190.736h43.107A88.185,88.185,0,0,0,342.028,96.5l-25.444,12.917a59.754,59.754,0,0,1-25.3,81.32" transform="translate(-123.714 -40.985)" fill="#0f2771"/>
            <g id="Group_148586" data-name="Group 148586" transform="translate(167.567 55.514)" opacity="0.6">
              <g id="Group_148585" data-name="Group 148585">
                <g id="Group_148584" data-name="Group 148584" clip-path="url(#clip-path-4)">
                  <path id="Path_206809" data-name="Path 206809" d="M291.281,190.736h43.107A88.185,88.185,0,0,0,342.028,96.5l-25.444,12.917a59.754,59.754,0,0,1-25.3,81.32" transform="translate(-291.281 -96.499)" fill="#fff"/>
                </g>
              </g>
            </g>
            <path id="Path_206810" data-name="Path 206810" d="M225.668,109.547c.106-3.241-.259-6.491.01-9.722s1.273-6.564,3.635-8.784,6.323-2.931,8.881-.939l.419,2.78c-1.6,12.441-2.028,25.138-3.628,37.579-.21,1.634-1.608,3.059-2.42,4.493a4.363,4.363,0,0,1-4,2.4c-2.144-.228-3.457-2.471-4.033-4.549-2.09-7.53.882-15.452,1.138-23.263" transform="translate(-95.048 -37.772)" fill="#263238"/>
            <path id="Path_206811" data-name="Path 206811" d="M289.94,343.263c-.262.529-6.958,15.518-6.958,15.518l-7.083-2.443,4.26-16.376Z" transform="translate(-117.181 -144.39)" fill="#ffc09d"/>
            <path id="Path_206812" data-name="Path 206812" d="M275.551,362.061s4.045,6.042,7.972,3.517l.135,1.926-.92,13.073a1.7,1.7,0,0,1-1.565,1.61,1.638,1.638,0,0,1-1.534-.88c-1.559-3.008-7.24-14.1-6.775-15.181l1.06-2.729a2.225,2.225,0,0,1,1.627-1.336" transform="translate(-115.88 -153.776)" fill="#263238"/>
            <path id="Path_206813" data-name="Path 206813" d="M280.872,384.418l-7.655-17.07-.219.643a1.891,1.891,0,0,0,.085,1.614c.523,1.659,2.215,5.547,6.514,13.933a1.64,1.64,0,0,0,1.275.881" transform="translate(-115.884 -156.021)" fill="#455a64"/>
            <path id="Path_206814" data-name="Path 206814" d="M284.687,382.638a3.542,3.542,0,0,1,3.592-.467c.026-.033-.126-.216-.464-.387a2.616,2.616,0,0,0-2.778.361c-.283.251-.383.467-.35.492" transform="translate(-120.911 -162.049)" fill="#e0e0e0"/>
            <path id="Path_206815" data-name="Path 206815" d="M285.535,387.173a13.756,13.756,0,0,1,1.608-.359c.873-.054,1.476.3,1.542.2.077-.075-.5-.646-1.5-.591a2.151,2.151,0,0,0-1.654.747" transform="translate(-121.272 -164.122)" fill="#e0e0e0"/>
            <path id="Path_206816" data-name="Path 206816" d="M282.735,377.126a8.443,8.443,0,0,1,4.825-.223,4.491,4.491,0,0,0-4.825.223" transform="translate(-120.083 -159.826)" fill="#e0e0e0"/>
            <path id="Path_206817" data-name="Path 206817" d="M284.454,371.125c.01.1.967.04,2.07.372s1.879.888,1.944.805a4.075,4.075,0,0,0-4.014-1.177" transform="translate(-120.814 -157.559)" fill="#e0e0e0"/>
            <path id="Path_206818" data-name="Path 206818" d="M287.73,369.735a1.382,1.382,0,0,0,.11-.6,4.215,4.215,0,0,0-.244-1.641,1.87,1.87,0,0,0-.662-1,.66.66,0,0,0-.757.036,1.075,1.075,0,0,0-.357.679,2.321,2.321,0,0,0,1.7,2.422,2.692,2.692,0,0,0,2.822-1.006.931.931,0,0,0,.158-.762.647.647,0,0,0-.62-.438,2.292,2.292,0,0,0-1.124.388,4.691,4.691,0,0,0-1.264,1.071,1.419,1.419,0,0,0-.324.511,7.457,7.457,0,0,1,1.709-1.365,2.15,2.15,0,0,1,.989-.315.345.345,0,0,1,.339.237.638.638,0,0,1-.133.495,2.4,2.4,0,0,1-2.456.843,2.015,2.015,0,0,1-1.47-2.035.779.779,0,0,1,.229-.484.357.357,0,0,1,.418-.026,1.687,1.687,0,0,1,.576.835,6.219,6.219,0,0,1,.366,2.149" transform="translate(-121.388 -155.617)" fill="#e0e0e0"/>
            <path id="Path_206819" data-name="Path 206819" d="M283.19,342.572c.148.571,4.913,16.281,4.913,16.281l-6.95,2.8-7.514-15.161Z" transform="translate(-116.221 -145.498)" fill="#ffc09d"/>
            <path id="Path_206820" data-name="Path 206820" d="M283.232,368.153s7.118,1.7,8.43-2.777l1.363,1.366L300.9,377.22a1.7,1.7,0,0,1-.128,2.242,1.639,1.639,0,0,1-1.735.34c-3.149-1.251-14.71-5.908-15.066-7.028l-1.128-2.9a1.58,1.58,0,0,1,.391-1.725" transform="translate(-120.084 -155.184)" fill="#263238"/>
            <g id="Group_148589" data-name="Group 148589" transform="translate(163.478 216.589)" opacity="0.6">
              <g id="Group_148588" data-name="Group 148588">
                <g id="Group_148587" data-name="Group 148587" clip-path="url(#clip-path-5)">
                  <path id="Path_206821" data-name="Path 206821" d="M301.141,384.373,284.173,376.5l.255.629c.216.706.622.857,1.122,1.163,1.482.91,5.308,2.739,14.051,6.256a1.639,1.639,0,0,0,1.54-.17" transform="translate(-284.173 -376.496)" fill="#455a64"/>
                </g>
              </g>
            </g>
            <path id="Path_206822" data-name="Path 206822" d="M303.129,379.286a3.543,3.543,0,0,1,2.408-2.707c0-.041-.237-.08-.6.012a2.616,2.616,0,0,0-1.862,2.093c-.049.376.017.6.059.6" transform="translate(-128.714 -159.923)" fill="#e0e0e0"/>
            <path id="Path_206823" data-name="Path 206823" d="M306.411,382.548c.1.035.377-.641,1.055-1.173.667-.548,1.388-.675,1.374-.777a1.823,1.823,0,0,0-1.594.5c-.769.611-.928,1.439-.834,1.447" transform="translate(-130.13 -161.628)" fill="#e0e0e0"/>
            <path id="Path_206824" data-name="Path 206824" d="M297.951,375.81a8.445,8.445,0,0,1,3.5-3.33,4.488,4.488,0,0,0-3.5,3.33" transform="translate(-126.541 -158.194)" fill="#e0e0e0"/>
            <path id="Path_206825" data-name="Path 206825" d="M297.609,369.483a1.389,1.389,0,0,0-.307-.523,4.22,4.22,0,0,0-1.26-1.079,1.863,1.863,0,0,0-1.154-.322.661.661,0,0,0-.549.524,1.077,1.077,0,0,0,.175.746,2.322,2.322,0,0,0,2.869.717,2.694,2.694,0,0,0,1.473-2.609.933.933,0,0,0-.381-.679.647.647,0,0,0-.755.075,2.293,2.293,0,0,0-.595,1.03,4.7,4.7,0,0,0-.253,1.638,1.424,1.424,0,0,0,.09.6,7.462,7.462,0,0,1,.4-2.151,2.143,2.143,0,0,1,.541-.885.346.346,0,0,1,.411-.044.641.641,0,0,1,.224.461,2.4,2.4,0,0,1-1.3,2.247,2.014,2.014,0,0,1-2.444-.574.778.778,0,0,1-.144-.516.357.357,0,0,1,.3-.293,1.686,1.686,0,0,1,.983.254,6.223,6.223,0,0,1,1.684,1.383" transform="translate(-125.007 -155.521)" fill="#e0e0e0"/>
            <path id="Path_206826" data-name="Path 206826" d="M219.517,256.449c.28,0,16.914,13.2,17.827,14.518s1.426,10.568,4.282,19.2,12.092,21.09,12.092,21.09l9.1-2.576s-7.482-36.319-9.165-42.224-6.387-15.776-6.387-15.776l-3.563-5.094-.508-8.414-22.874-.561c-.28,0-5.022,7.4-4.137,14.25a9.086,9.086,0,0,0,3.334,5.589" transform="translate(-91.771 -100.493)" fill="#263238"/>
            <path id="Path_206827" data-name="Path 206827" d="M290.534,254c-3.3-6.1-15.347-15.886-15.347-15.886l-2.275-.528-13.747-.209s.354,6.352.349,6.632,6.3,15.4,6.3,15.4l8.5,5.916,1.468,1.7a83.853,83.853,0,0,0-2.8,12.371c-.641,5.432-.332,21.834-.332,21.834l9.4,1.73s7.843-24.8,8.745-28.893,4.652-11.01-.255-20.07" transform="translate(-110.073 -100.817)" fill="#263238"/>
            <path id="Path_206828" data-name="Path 206828" d="M282.306,313.682a.791.791,0,0,1-.052-.171l-.118-.509c-.1-.471-.247-1.128-.43-1.963-.368-1.729-.891-4.192-1.537-7.227-1.3-6.1-3.079-14.536-5.2-23.814-1.075-4.635-2.091-9.061-3.266-13a30.969,30.969,0,0,0-2.41-5.3c-.853-1.622-1.676-3.119-2.427-4.485l-3.6-6.448-.981-1.753-.249-.46a.793.793,0,0,1-.077-.162.737.737,0,0,1,.1.146l.276.444,1.033,1.724c.888,1.5,2.16,3.682,3.692,6.4.764,1.36,1.6,2.852,2.463,4.471q.65,1.215,1.314,2.525a17.2,17.2,0,0,1,1.142,2.807c1.2,3.961,2.221,8.381,3.3,13.021,2.118,9.283,3.858,17.725,5.106,23.839l1.44,7.248c.158.84.282,1.5.371,1.975.036.212.065.381.087.515a.778.778,0,0,1,.02.178" transform="translate(-111.261 -105.497)" fill="#455a64"/>
            <path id="Path_206829" data-name="Path 206829" d="M199.35,248.027a15.78,15.78,0,0,0-2.329,3.457,10.086,10.086,0,0,0-.039,4.684c.381,1.836.478,2.2,1.275,1.959.525-.158-.117-3.361-.117-3.361s1.093,6.176,2.176,6.72a.946.946,0,0,0,.855-.067s.078,1.551,1.146,1.384.718-1.312.718-1.312a1.011,1.011,0,0,0,1.443-.64,28.222,28.222,0,0,0,.331-4.837l2.085-1.812.233-1.364a3.174,3.174,0,0,0-.189-1.736,20.784,20.784,0,0,0-1.357-2.757c-.507-.846,1.785-10.669,1.785-10.669l1.326-5.5-7.759-2.086Z" transform="translate(-83.552 -97.724)" fill="#ffc09d"/>
            <path id="Path_206830" data-name="Path 206830" d="M202.585,270.6c.086-.006.223,1.806.481,4.023.132,1.108.285,2.106.411,2.827a6.034,6.034,0,0,1,.169,1.177,4.318,4.318,0,0,1-.364-1.137,24.529,24.529,0,0,1-.5-2.834c-.132-1.115-.2-2.13-.223-2.864a4.865,4.865,0,0,1,.021-1.192" transform="translate(-86.027 -114.929)" fill="#ff9b6c"/>
            <path id="Path_206831" data-name="Path 206831" d="M206.519,270.9a4.66,4.66,0,0,1,.25,1.143c.115.712.246,1.7.343,2.8s.139,2.095.142,2.817a4.486,4.486,0,0,1-.066,1.168,5.334,5.334,0,0,1-.132-1.161c-.066-.828-.141-1.766-.223-2.8-.2-2.183-.395-3.953-.314-3.965" transform="translate(-87.706 -115.058)" fill="#ff9b6c"/>
            <path id="Path_206832" data-name="Path 206832" d="M210.81,268.486a10.2,10.2,0,0,1-.058,3.991,23.829,23.829,0,0,1,.058-3.991" transform="translate(-89.484 -114.032)" fill="#ff9b6c"/>
            <path id="Path_206833" data-name="Path 206833" d="M211.908,268.518c.055.054-.127.33-.406.615s-.551.473-.607.419.127-.33.406-.616.552-.473.607-.419" transform="translate(-89.568 -114.042)" fill="#ff9b6c"/>
            <path id="Path_206834" data-name="Path 206834" d="M199.239,274.006a5.563,5.563,0,0,1-.439-1.524,5.748,5.748,0,0,1-.227-1.57,3.838,3.838,0,0,1,.5,1.511,3.924,3.924,0,0,1,.164,1.583" transform="translate(-84.331 -115.063)" fill="#ff9b6c"/>
            <path id="Path_206835" data-name="Path 206835" d="M321.67,167.1c.99-1.011,2.139-2.1,2.139-2.1l.969-1.019a1.572,1.572,0,0,1,.105.262,1.055,1.055,0,0,0,.241.469.84.84,0,0,0,.952-.009,2.056,2.056,0,0,0,1.042-1.743,2.028,2.028,0,0,0-.945-1.7,1.489,1.489,0,0,0-.261-.517c-.809-1.044-2.725-.908-2.725-.908l.289-.4s1.31-.805,3.471.567a1.572,1.572,0,0,0,1.091.239.8.8,0,0,0,.586-.35c.32-.534.025-.9-1.312-1.771a4.918,4.918,0,0,0-3.927-.908,10.744,10.744,0,0,0-1.381.578s2.4-3.8,2.54-4.041c.411-.712.436-1.491-.014-1.808-.288-.2-.8-.247-1.308.568-.437.705-5.828,7.367-5.828,7.367l-2.212,3.086-1.411,2.841-5.5,6.112,6.094,2.829,4.581-6.346a4.394,4.394,0,0,0,2.716-1.3" transform="translate(-130.933 -64.48)" fill="#ffc09d"/>
            <path id="Path_206836" data-name="Path 206836" d="M321.658,169.245a1.177,1.177,0,0,0,1.362.09c.436-.221.784-.583,1.2-.836,1.253-.755,2.956-.442,4.171-1.255.17-.113.343-.305.269-.494s-.3-.209-.486-.217l-4.838-.208" transform="translate(-136.616 -70.642)" fill="#ffc09d"/>
            <path id="Path_206837" data-name="Path 206837" d="M323.34,166.3a1.968,1.968,0,0,1,.526-.031c.338,0,.826,0,1.428.018l2.117.062.612.021a.965.965,0,0,1,.7.194.4.4,0,0,1,.046.453.839.839,0,0,1-.265.294,3.208,3.208,0,0,1-.633.331,18.7,18.7,0,0,1-2.554.543,3.687,3.687,0,0,0-1.023.382c-.295.171-.547.386-.8.56a1.719,1.719,0,0,1-1.392.386c-.352-.093-.454-.293-.442-.293a1.393,1.393,0,0,0,.464.188,1.666,1.666,0,0,0,1.256-.438c.236-.177.482-.4.8-.6a3.784,3.784,0,0,1,1.082-.433,21.693,21.693,0,0,0,2.512-.553,2.946,2.946,0,0,0,.574-.3c.166-.114.255-.278.174-.35-.076-.091-.3-.1-.505-.108l-.612-.031-2.114-.121c-.6-.038-1.088-.074-1.424-.1a1.957,1.957,0,0,1-.521-.076" transform="translate(-136.615 -70.619)" fill="#ff9b6c"/>
            <path id="Path_206838" data-name="Path 206838" d="M334.084,165.116a2.009,2.009,0,0,1,.706-.581,1.555,1.555,0,0,1,.964-.075,3.933,3.933,0,0,1,1.125.482,6.26,6.26,0,0,0,1.138.564,2.039,2.039,0,0,0,1.052.09.8.8,0,0,0,.565-.433.469.469,0,0,0,.058-.253c-.017,0-.038.086-.119.221a.753.753,0,0,1-.53.342,2.025,2.025,0,0,1-.972-.122,6.89,6.89,0,0,1-1.1-.564,3.833,3.833,0,0,0-1.182-.487,1.627,1.627,0,0,0-1.05.122,1.449,1.449,0,0,0-.541.461c-.1.139-.122.228-.113.233" transform="translate(-141.893 -69.767)" fill="#ff9b6c"/>
            <path id="Path_206839" data-name="Path 206839" d="M334.467,154.7a5.086,5.086,0,0,0-.482.751l-1.113,1.837-1.141,1.82a5.1,5.1,0,0,0-.455.768,3.986,3.986,0,0,0,.559-.7c.323-.448.747-1.082,1.189-1.8s.816-1.38,1.071-1.868a4.011,4.011,0,0,0,.372-.812" transform="translate(-140.7 -65.703)" fill="#ff9b6c"/>
            <path id="Path_206840" data-name="Path 206840" d="M334.658,168.139a1.1,1.1,0,0,0,.276.049.827.827,0,0,1,.605.33.439.439,0,0,1,0,.437,2.337,2.337,0,0,1-.342.471,1,1,0,0,0-.28.652.843.843,0,0,0,.4.657.974.974,0,0,0,.759.106,1.223,1.223,0,0,0,.612-.358,3.936,3.936,0,0,0,.591-.985,2.3,2.3,0,0,0,.2-.746.515.515,0,0,0-.04-.28c-.016,0,0,.1-.029.273a2.717,2.717,0,0,1-.241.7,4.217,4.217,0,0,1-.6.926.966.966,0,0,1-1.152.212.679.679,0,0,1-.318-.516.851.851,0,0,1,.234-.544,2.34,2.34,0,0,0,.349-.514.57.57,0,0,0-.031-.563.865.865,0,0,0-.7-.331.723.723,0,0,0-.283.019" transform="translate(-142.137 -71.404)" fill="#ff9b6c"/>
            <path id="Path_206841" data-name="Path 206841" d="M337.042,170.81c-.006-.006-.078.063-.112.228a.768.768,0,0,0,.2.662,1.041,1.041,0,0,0,1,.253,1.712,1.712,0,0,0,1-.776,2.042,2.042,0,0,0,.3-1.217,1.936,1.936,0,0,0-.344-.961,1.837,1.837,0,0,0-.487-.483c-.136-.089-.221-.118-.227-.109a3.217,3.217,0,0,1,.608.66,1.907,1.907,0,0,1,.286.9,1.94,1.94,0,0,1-.293,1.114,1.586,1.586,0,0,1-.885.71.924.924,0,0,1-.868-.184.727.727,0,0,1-.221-.565c.01-.151.057-.23.044-.236" transform="translate(-143.097 -71.526)" fill="#ff9b6c"/>
            <path id="Path_206842" data-name="Path 206842" d="M328.627,172.2c.01-.013-.111-.125-.369-.217a1.694,1.694,0,0,0-1.094-.005l.105.116a4.911,4.911,0,0,0,.231-.56,3.8,3.8,0,0,0,.2-2.072,9.626,9.626,0,0,1-.368,2.016c-.066.194-.141.378-.217.545l-.083.184.189-.068a1.776,1.776,0,0,1,1.007-.053c.25.059.387.136.4.116" transform="translate(-138.898 -71.976)" fill="#ff9b6c"/>
            <path id="Path_206843" data-name="Path 206843" d="M336.91,163.021c-.047,0-.069.36.178.708s.594.454.606.409-.25-.2-.46-.511-.273-.611-.324-.606" transform="translate(-143.081 -69.239)" fill="#ff9b6c"/>
            <path id="Path_206844" data-name="Path 206844" d="M300.312,166.925l-6.627,7.737s-2.651-5.739-5.259-13.251c-2.855-8.224-6.769-8.283-6.769-8.283l-2.436,18.076,2.522,7.05s3.877,7.648,5.919,8.61c7.177,3.381,19.147-12.249,19.147-12.249Z" transform="translate(-118.592 -65.038)" fill="#feca2e"/>
            <path id="Path_206845" data-name="Path 206845" d="M261.58,169.924c.886-4.686,2.113-12.376-.349-16.591a10.712,10.712,0,0,0-3.573-2.984c-2.549-1.005-9.974-2.59-10.209-2.832l-10.754.008-9.742,3.011c-1.221.514-1.182,1.34-1.059,2.658l.8,16.039L228.1,184.3c-.866,1.973-3.093,8.243-4.648,12.367-.728,1.931-.157,2.1-.157,2.1,11.751,5.55,23.532,6.211,35.348,1.056,1.519-.617,1-1.915.668-3.581-.741-3.7-.748-2.286-.961-5.013-.271-3.486,1-12.593,1.084-12.834a47.863,47.863,0,0,0,2.142-8.473" transform="translate(-94.75 -62.654)" fill="#feca2e"/>
            <path id="Path_206846" data-name="Path 206846" d="M217.508,152.617s-7.169,2.628-8.707,13.292-4.445,18.844-5.661,25.3c-.949,5.043-2.774,20.964-2.774,20.964l7.374,1.371,8.153-29.556,2.126-9.526,1.617-7.663Z" transform="translate(-85.1 -64.82)" fill="#feca2e"/>
            <path id="Path_206847" data-name="Path 206847" d="M227.407,172.459c.077-.009.706,5.007,1.4,11.2s1.2,11.226,1.125,11.235-.705-5.007-1.4-11.2-1.2-11.225-1.125-11.233" transform="translate(-96.582 -73.247)" fill="#263238"/>
            <path id="Path_206848" data-name="Path 206848" d="M284.643,165.046a.686.686,0,0,1,.1.2c.053.136.133.337.219.6.181.524.416,1.292.652,2.256a37.8,37.8,0,0,1,1.011,7.671,39.672,39.672,0,0,1-.507,7.723c-.166.977-.337,1.762-.475,2.3a4.626,4.626,0,0,1-.248.824,5.5,5.5,0,0,1,.141-.848c.106-.543.246-1.329.386-2.305a45.064,45.064,0,0,0,.423-7.684,42.621,42.621,0,0,0-.924-7.636c-.21-.964-.414-1.736-.563-2.268a5.8,5.8,0,0,1-.211-.834" transform="translate(-120.893 -70.099)" fill="#263238"/>
            <path id="Path_206849" data-name="Path 206849" d="M259.377,237.755a5.992,5.992,0,0,1-.9.262c-.584.156-1.44.342-2.5.537a45.727,45.727,0,0,1-16.814-.125c-1.061-.211-1.913-.411-2.494-.575a6,6,0,0,1-.9-.276,6.073,6.073,0,0,1,.923.169c.588.132,1.444.3,2.5.486a50.827,50.827,0,0,0,16.745.127c1.064-.169,1.922-.326,2.512-.449a5.969,5.969,0,0,1,.926-.155" transform="translate(-100.135 -100.903)" fill="#263238"/>
            <path id="Path_206850" data-name="Path 206850" d="M261.078,211.822a4.646,4.646,0,0,1-.625.534c-.412.331-1.023.793-1.79,1.348-1.532,1.11-3.706,2.567-6.205,4.017s-4.847,2.61-6.572,3.387c-.862.389-1.566.689-2.059.882a4.63,4.63,0,0,1-.775.277,4.6,4.6,0,0,1,.731-.377l2.019-.962c1.7-.821,4.023-2.007,6.516-3.45s4.674-2.87,6.231-3.937l1.839-1.273a4.593,4.593,0,0,1,.69-.447" transform="translate(-103.23 -89.965)" fill="#263238"/>
            <g id="Group_148592" data-name="Group 148592" transform="translate(164.523 97.621)" opacity="0.3">
              <g id="Group_148591" data-name="Group 148591">
                <g id="Group_148590" data-name="Group 148590" clip-path="url(#clip-path-6)">
                  <path id="Path_206851" data-name="Path 206851" d="M285.989,169.694s2.978,7.285,2.566,10.818a15.628,15.628,0,0,1-2.182,6.192,71.356,71.356,0,0,0,.677-9.1c-.175-2.639-1.061-7.911-1.061-7.911" transform="translate(-285.989 -169.694)"/>
                </g>
              </g>
            </g>
            <path id="Path_206852" data-name="Path 206852" d="M302.24,195.4a5.592,5.592,0,0,1,.981-4.923,18.253,18.253,0,0,0-.8,2.4,18.459,18.459,0,0,0-.182,2.523" transform="translate(-128.278 -80.901)" fill="#263238"/>
            <path id="Path_206853" data-name="Path 206853" d="M238.925,93.072a8.2,8.2,0,0,1,1.448-2.062,2.8,2.8,0,0,1,2.3-.827,1.161,1.161,0,0,1,.933.649c.14.372-.128.878-.525.855l-.083.074q-1.294,1.2-2.635,2.347a2.3,2.3,0,0,1-.739.482.8.8,0,0,1-.827-.156c-.333-.358-.109-.934.129-1.362" transform="translate(-101.351 -38.291)" fill="#455a64"/>
            <path id="Path_206854" data-name="Path 206854" d="M234.392,95.881a14.849,14.849,0,0,1,11.364-5.99,15.935,15.935,0,0,1,5.6.878,8.244,8.244,0,0,1,4.771,3,13.829,13.829,0,0,1,2.85,6.246,38.777,38.777,0,0,1,.505,7.1,12.986,12.986,0,0,1-2.062,6.732l-6.005,1.187a37.921,37.921,0,0,1-9.963-.305,12.779,12.779,0,0,1-8.259-5.16c-2.506-3.894-1.646-10.039,1.2-13.69" transform="translate(-98.412 -38.173)" fill="#263238"/>
            <path id="Path_206855" data-name="Path 206855" d="M244.165,97.53l7.965-3.382,2.105.2c4.726-.093,8.106,5.042,8.226,8.869a68.061,68.061,0,0,1-.475,12.6c-1.212,6.333-6.578,6.983-6.578,6.983s.189,3.356.278,5.471l-3.375,5.545-9.214-7.3L242.09,99.737a2.24,2.24,0,0,1,2.075-2.207" transform="translate(-102.821 -39.987)" fill="#ffc09d"/>
            <path id="Path_206856" data-name="Path 206856" d="M272.952,118.6a.816.816,0,0,1-.813.8.781.781,0,0,1-.818-.762.817.817,0,0,1,.812-.8.782.782,0,0,1,.819.763" transform="translate(-115.236 -50.049)" fill="#263238"/>
            <path id="Path_206857" data-name="Path 206857" d="M272.7,112.985c-.1.1-.709-.374-1.587-.4s-1.536.393-1.628.282c-.045-.049.064-.238.351-.433a2.241,2.241,0,0,1,1.308-.358,2.153,2.153,0,0,1,1.259.451c.263.216.349.411.3.457" transform="translate(-114.453 -47.601)" fill="#263238"/>
            <path id="Path_206858" data-name="Path 206858" d="M265.427,120.433a5.821,5.821,0,0,1,1.435-.212c.225-.016.439-.054.482-.206a1.144,1.144,0,0,0-.128-.67l-.61-1.729a29.488,29.488,0,0,1-1.349-4.515,29.317,29.317,0,0,1,1.709,4.4c.2.607.4,1.185.582,1.738a1.3,1.3,0,0,1,.088.884.564.564,0,0,1-.379.316,1.546,1.546,0,0,1-.383.041,5.731,5.731,0,0,1-1.446-.044" transform="translate(-112.656 -48.036)" fill="#263238"/>
            <path id="Path_206859" data-name="Path 206859" d="M259.018,142.048a16.2,16.2,0,0,1-8.453-2.543s2.132,4.484,8.522,4.09Z" transform="translate(-106.421 -59.251)" fill="#ff9b6c"/>
            <path id="Path_206860" data-name="Path 206860" d="M272.043,107.731c-.154.21-.823.045-1.611.086-.789.015-1.446.227-1.612.028-.074-.1.018-.3.3-.51a2.5,2.5,0,0,1,2.6-.091c.292.187.4.386.328.488" transform="translate(-114.164 -45.413)" fill="#263238"/>
            <path id="Path_206861" data-name="Path 206861" d="M257.872,118.581a.816.816,0,0,0,.792.819.782.782,0,0,0,.838-.741.817.817,0,0,0-.792-.82.781.781,0,0,0-.839.742" transform="translate(-109.524 -50.049)" fill="#263238"/>
            <path id="Path_206862" data-name="Path 206862" d="M254.421,112.906c.1.106.718-.356,1.6-.358s1.526.433,1.62.324c.047-.048-.058-.239-.339-.442a2.246,2.246,0,0,0-1.3-.392,2.152,2.152,0,0,0-1.27.418c-.269.209-.36.4-.309.45" transform="translate(-108.053 -47.585)" fill="#263238"/>
            <path id="Path_206863" data-name="Path 206863" d="M255.215,107.96c.174.2.851-.012,1.667-.027.815-.04,1.507.125,1.664-.085.069-.1-.041-.3-.344-.488a2.519,2.519,0,0,0-1.357-.319,2.477,2.477,0,0,0-1.327.409c-.287.207-.381.413-.3.51" transform="translate(-108.385 -45.462)" fill="#263238"/>
            <path id="Path_206864" data-name="Path 206864" d="M241.032,121.075c.013-.474-.5-1.609-.965-1.7-1.244-.234-3.5-.2-3.621,2.969-.166,4.339,4.224,3.61,4.236,3.487.01-.1.3-3.122.35-4.759" transform="translate(-100.422 -50.666)" fill="#ffc09d"/>
            <path id="Path_206865" data-name="Path 206865" d="M240.452,125.27c-.018-.014-.078.05-.208.1a.753.753,0,0,1-.565-.01,1.87,1.87,0,0,1-.8-1.711,2.489,2.489,0,0,1,.253-1.075.871.871,0,0,1,.591-.558.386.386,0,0,1,.438.224c.053.124.022.209.045.217s.1-.069.068-.25a.481.481,0,0,0-.16-.278.572.572,0,0,0-.414-.127,1.064,1.064,0,0,0-.815.643,2.568,2.568,0,0,0-.308,1.2,1.964,1.964,0,0,0,1.031,1.916.812.812,0,0,0,.7-.089c.139-.1.165-.2.15-.207" transform="translate(-101.328 -51.734)" fill="#ff9b6c"/>
            <path id="Path_206866" data-name="Path 206866" d="M240.592,108.214l1.128,1.116c4.648-4.66,13.674-16.27,13.171-15.579a13.84,13.84,0,0,0-6.808-.579c-3.521.684-10.185,2.609-9.985,6.776a21.747,21.747,0,0,0,2.495,8.266" transform="translate(-101.123 -39.486)" fill="#263238"/>
            <path id="Path_206867" data-name="Path 206867" d="M231.453,107.258a1.11,1.11,0,0,1,.06-.253,4.453,4.453,0,0,1,.28-.689,6.3,6.3,0,0,1,1.763-2.08,11.858,11.858,0,0,1,3.605-1.839c1.438-.506,3.064-.91,4.652-1.637a21.192,21.192,0,0,0,4.225-2.5A22.129,22.129,0,0,0,249,95.553a23.731,23.731,0,0,0,1.7-2.114l.421-.607a1.2,1.2,0,0,1,.158-.206,1.046,1.046,0,0,1-.12.23c-.087.145-.21.363-.387.633a20.034,20.034,0,0,1-1.653,2.17,21.269,21.269,0,0,1-2.953,2.769,20.838,20.838,0,0,1-4.259,2.538,47.857,47.857,0,0,1-4.675,1.626,12.024,12.024,0,0,0-3.575,1.77,6.522,6.522,0,0,0-1.783,2c-.3.562-.393.911-.417.9" transform="translate(-98.303 -39.34)" fill="#455a64"/>
            <path id="Path_206868" data-name="Path 206868" d="M233.669,108.6a2.285,2.285,0,0,1,.146-.951,4.427,4.427,0,0,1,1.581-2.078,9.814,9.814,0,0,1,3.582-1.5,21.372,21.372,0,0,0,4.46-1.53,19.049,19.049,0,0,0,3.948-2.566,19.567,19.567,0,0,0,2.683-2.762,20.8,20.8,0,0,0,1.482-2.141l.353-.615a1.075,1.075,0,0,1,.137-.208,1.028,1.028,0,0,1-.1.229l-.318.637a17.677,17.677,0,0,1-1.433,2.194,18.673,18.673,0,0,1-6.659,5.432,20.891,20.891,0,0,1-4.506,1.529,9.9,9.9,0,0,0-3.54,1.429,4.476,4.476,0,0,0-1.594,1.981,5.14,5.14,0,0,0-.227.922" transform="translate(-99.242 -40.029)" fill="#455a64"/>
            <path id="Path_206869" data-name="Path 206869" d="M237.7,116.682c0-.029-.369-.069-1.014-.221a6.209,6.209,0,0,1-2.456-1.3,8.715,8.715,0,0,1-2.332-3.394,15.18,15.18,0,0,1-1.056-4.977,11.736,11.736,0,0,1,.812-5,12.564,12.564,0,0,1,2.164-3.548,20.326,20.326,0,0,1,2.849-2.6.951.951,0,0,0-.238.13c-.147.1-.376.227-.644.43a13.218,13.218,0,0,0-2.119,1.909,12.341,12.341,0,0,0-2.256,3.583,11.768,11.768,0,0,0-.853,5.109,15.05,15.05,0,0,0,1.1,5.065,8.733,8.733,0,0,0,2.445,3.448,6.014,6.014,0,0,0,2.561,1.252,5.391,5.391,0,0,0,.77.1.962.962,0,0,0,.27.009" transform="translate(-97.916 -40.621)" fill="#455a64"/>
            <path id="Path_206870" data-name="Path 206870" d="M259.745,127.481a.68.68,0,0,0-.379-.129.553.553,0,0,0-.325.173,1.486,1.486,0,0,0,1.019,2.567,1.762,1.762,0,0,0,1.652-1.4c-.618-.361-1.349-.847-1.967-1.208" transform="translate(-109.826 -54.089)" fill="#ff9b6c"/>
            <path id="Path_206871" data-name="Path 206871" d="M259.985,130.085a2.15,2.15,0,0,1-.854-.374,1.392,1.392,0,0,1-.5-.828,1.463,1.463,0,0,1,.272-1.134c.13-.163.3-.322.446-.3a1.8,1.8,0,0,1,.514.258l.909.531a4.406,4.406,0,0,0,.864.442,4.379,4.379,0,0,0-.788-.573l-.885-.571a1.778,1.778,0,0,0-.589-.3.527.527,0,0,0-.381.114,1.407,1.407,0,0,0-.259.261,1.623,1.623,0,0,0-.3,1.3,1.5,1.5,0,0,0,.6.91,1.151,1.151,0,0,0,.946.254" transform="translate(-109.75 -54.042)" fill="#263238"/>
            <path id="Path_206872" data-name="Path 206872" d="M374.884,227.931l-30.12.483a1.891,1.891,0,0,0-2.046,1.452l-3.118,21.98-15.515.123a.9.9,0,0,0,.014,1.809l15.244-.12,2.894-.023,31.415-.249,3.2-23.2a1.976,1.976,0,0,0-1.971-2.257" transform="translate(-137.266 -96.808)" fill="#e0e0e0"/>
            <path id="Path_206873" data-name="Path 206873" d="M374.773,227.925a1.554,1.554,0,0,1,.476.038,1.995,1.995,0,0,1,1.543,1.714,5.561,5.561,0,0,1-.1,1.242c-.118.889-.254,1.912-.407,3.061-.625,4.611-1.525,11.253-2.631,19.414l-.013.1h-.1l-48.074.415-1.294.01a1.281,1.281,0,0,1-.7-.128,1.055,1.055,0,0,1-.01-1.844,1.289,1.289,0,0,1,.691-.136l.637,0,5.035-.039,9.659-.073-.142.124c1.124-7.871,2.172-15.214,3.113-21.8a1.73,1.73,0,0,1,.557-1.165,2.259,2.259,0,0,1,1.159-.522,9.914,9.914,0,0,1,1.218-.052l1.182-.017,4.535-.065,8.059-.111,11.473-.142,3.07-.025h.792c.178,0,.27.009.27.009s-.091.01-.269.017l-.792.025-3.069.073-11.472.226-8.059.147-4.534.081-1.182.021a9.836,9.836,0,0,0-1.181.053,2.016,2.016,0,0,0-1.034.466,1.472,1.472,0,0,0-.474,1.019c-.93,6.589-1.964,13.934-3.074,21.807l-.017.124h-.124l-9.659.081-5.035.041-.637.005a.984.984,0,0,0-.547.1.756.756,0,0,0,.008,1.32.982.982,0,0,0,.553.091l1.293-.01,48.075-.345-.113.1,2.73-19.4c.164-1.148.31-2.169.438-3.057a5.574,5.574,0,0,0,.114-1.219,1.92,1.92,0,0,0-.354-.931,1.973,1.973,0,0,0-1.114-.759,4.6,4.6,0,0,0-.468-.071" transform="translate(-137.154 -96.801)" fill="#263238"/>
            <path id="Path_206874" data-name="Path 206874" d="M383.858,248.388a1.886,1.886,0,1,0,1.871-1.9,1.885,1.885,0,0,0-1.871,1.9" transform="translate(-163.034 -104.689)" fill="#fff"/>
            <path id="Path_206875" data-name="Path 206875" d="M353.86,253.8c.043.007.957-5.591,2.043-12.5s1.931-12.521,1.888-12.527-.957,5.589-2.043,12.5-1.931,12.519-1.888,12.525" transform="translate(-150.292 -97.164)" fill="#263238"/>
            <path id="Path_206876" data-name="Path 206876" d="M84.795,271.948H49.031a3.334,3.334,0,0,0-3.334,3.334v21.865a3.334,3.334,0,0,0,3.334,3.334h77.158a93.726,93.726,0,0,1-41.394-28.533" transform="translate(-19.409 -115.503)" fill="#0f2771"/>
            <g id="Group_148595" data-name="Group 148595" transform="translate(26.289 156.445)" opacity="0.8">
              <g id="Group_148594" data-name="Group 148594">
                <g id="Group_148593" data-name="Group 148593" clip-path="url(#clip-path-7)">
                  <path id="Path_206877" data-name="Path 206877" d="M84.795,271.948H49.031a3.334,3.334,0,0,0-3.334,3.334v21.865a3.334,3.334,0,0,0,3.334,3.334h77.158a93.726,93.726,0,0,1-41.394-28.533" transform="translate(-45.697 -271.948)" fill="#fff"/>
                </g>
              </g>
            </g>
          </g>
        </g>
      </g>
    </g>
  </g>
</svg>
