<svg id="_10" data-name="10" xmlns="http://www.w3.org/2000/svg" xmlns:xlink="http://www.w3.org/1999/xlink" width="50" height="50" viewBox="0 0 50 50">
  <defs>
    <clipPath id="clip-path">
      <rect id="Rectangle_45292" data-name="Rectangle 45292" width="50" height="50" fill="#4dd0e1"/>
    </clipPath>
  </defs>
  <g id="Group_147207" data-name="Group 147207" clip-path="url(#clip-path)">
    <path id="Path_206223" data-name="Path 206223" d="M46.666,0H3.333A3.334,3.334,0,0,0,0,3.334V46.667A3.333,3.333,0,0,0,3.333,50H46.666A3.334,3.334,0,0,0,50,46.667V3.334A3.334,3.334,0,0,0,46.666,0m1.667,46.667a1.667,1.667,0,0,1-1.667,1.667H3.333a1.668,1.668,0,0,1-1.667-1.667V3.334A1.667,1.667,0,0,1,3.333,1.667H46.666a1.667,1.667,0,0,1,1.667,1.667Z" fill="#4dd0e1"/>
    <path id="Path_206224" data-name="Path 206224" d="M45,6.667H5A1.667,1.667,0,0,0,3.333,8.333V45A1.668,1.668,0,0,0,5,46.667H45A1.668,1.668,0,0,0,46.667,45V8.333A1.667,1.667,0,0,0,45,6.667M45,45H5V8.333H45Z" fill="#4dd0e1"/>
    <path id="Path_206225" data-name="Path 206225" d="M5,5h.833a.834.834,0,1,0,0-1.667H5A.834.834,0,0,0,5,5" fill="#4dd0e1"/>
    <path id="Path_206226" data-name="Path 206226" d="M9.167,5H10a.834.834,0,1,0,0-1.667H9.167A.834.834,0,0,0,9.167,5" fill="#4dd0e1"/>
    <path id="Path_206227" data-name="Path 206227" d="M13.333,5h.833a.834.834,0,1,0,0-1.667h-.833a.834.834,0,0,0,0,1.667" fill="#4dd0e1"/>
    <path id="Path_206228" data-name="Path 206228" d="M40,5h5a.834.834,0,0,0,0-1.667H40A.834.834,0,0,0,40,5" fill="#4dd0e1"/>
    <path id="Path_206229" data-name="Path 206229" d="M7.5,12.5h.833a.834.834,0,1,0,0-1.667H7.5a.834.834,0,0,0,0,1.667" fill="#4dd0e1"/>
    <path id="Path_206230" data-name="Path 206230" d="M7.5,15.833h.833a.834.834,0,1,0,0-1.667H7.5a.834.834,0,0,0,0,1.667" fill="#4dd0e1"/>
    <path id="Path_206231" data-name="Path 206231" d="M7.5,19.167h.833a.834.834,0,1,0,0-1.667H7.5a.834.834,0,0,0,0,1.667" fill="#4dd0e1"/>
    <path id="Path_206232" data-name="Path 206232" d="M7.5,22.5h.833a.834.834,0,1,0,0-1.667H7.5a.834.834,0,0,0,0,1.667" fill="#4dd0e1"/>
    <path id="Path_206233" data-name="Path 206233" d="M7.5,25.833h.833a.834.834,0,1,0,0-1.667H7.5a.834.834,0,0,0,0,1.667" fill="#4dd0e1"/>
    <path id="Path_206234" data-name="Path 206234" d="M7.5,29.167h.833a.834.834,0,1,0,0-1.667H7.5a.834.834,0,0,0,0,1.667" fill="#4dd0e1"/>
    <path id="Path_206235" data-name="Path 206235" d="M7.5,32.5h.833a.834.834,0,1,0,0-1.667H7.5a.834.834,0,0,0,0,1.667" fill="#4dd0e1"/>
    <path id="Path_206236" data-name="Path 206236" d="M7.5,35.833h.833a.834.834,0,1,0,0-1.667H7.5a.834.834,0,0,0,0,1.667" fill="#4dd0e1"/>
    <path id="Path_206237" data-name="Path 206237" d="M7.5,39.167h.833a.834.834,0,1,0,0-1.667H7.5a.834.834,0,0,0,0,1.667" fill="#4dd0e1"/>
    <path id="Path_206238" data-name="Path 206238" d="M7.5,42.5h.833a.834.834,0,1,0,0-1.667H7.5a.834.834,0,0,0,0,1.667" fill="#4dd0e1"/>
    <path id="Path_206239" data-name="Path 206239" d="M11.667,12.5H17.5a.834.834,0,1,0,0-1.667H11.667a.834.834,0,0,0,0,1.667" fill="#4dd0e1"/>
    <path id="Path_206240" data-name="Path 206240" d="M11.667,15.833H17.5a.834.834,0,1,0,0-1.667H11.667a.834.834,0,0,0,0,1.667" fill="#4dd0e1"/>
    <path id="Path_206241" data-name="Path 206241" d="M13.333,18.333a.833.833,0,0,0,.833.833H20A.833.833,0,0,0,20,17.5H14.166a.833.833,0,0,0-.833.833" fill="#4dd0e1"/>
    <path id="Path_206242" data-name="Path 206242" d="M14.167,22.5H20a.834.834,0,1,0,0-1.667H14.167a.834.834,0,0,0,0,1.667" fill="#4dd0e1"/>
    <path id="Path_206243" data-name="Path 206243" d="M14.167,25.833H20a.834.834,0,1,0,0-1.667H14.167a.834.834,0,0,0,0,1.667" fill="#4dd0e1"/>
    <path id="Path_206244" data-name="Path 206244" d="M14.167,29.167h9.167a.834.834,0,0,0,0-1.667H14.167a.834.834,0,0,0,0,1.667" fill="#4dd0e1"/>
    <path id="Path_206245" data-name="Path 206245" d="M11.667,32.5H17.5a.834.834,0,1,0,0-1.667H11.667a.834.834,0,0,0,0,1.667" fill="#4dd0e1"/>
    <path id="Path_206246" data-name="Path 206246" d="M13.333,35a.833.833,0,0,0,.833.833h9.167a.833.833,0,0,0,0-1.666H14.166a.833.833,0,0,0-.833.833" fill="#4dd0e1"/>
    <path id="Path_206247" data-name="Path 206247" d="M20,37.5H14.167a.834.834,0,1,0,0,1.667H20A.834.834,0,0,0,20,37.5" fill="#4dd0e1"/>
    <path id="Path_206248" data-name="Path 206248" d="M20,40.833H14.167a.834.834,0,1,0,0,1.667H20a.834.834,0,0,0,0-1.667" fill="#4dd0e1"/>
    <path id="Path_206249" data-name="Path 206249" d="M20.833,12.5h3.333a.834.834,0,1,0,0-1.667H20.833a.834.834,0,0,0,0,1.667" fill="#4dd0e1"/>
    <path id="Path_206250" data-name="Path 206250" d="M25.833,35a.833.833,0,0,0,.833.833h9.167a.833.833,0,0,0,0-1.666H26.666a.833.833,0,0,0-.833.833" fill="#4dd0e1"/>
    <path id="Path_206251" data-name="Path 206251" d="M31.667,37.5H23.334a.834.834,0,1,0,0,1.667h8.333a.834.834,0,0,0,0-1.667" fill="#4dd0e1"/>
    <path id="Path_206252" data-name="Path 206252" d="M25,25.833a.834.834,0,0,0,0-1.667H23.333a.834.834,0,0,0,0,1.667Z" fill="#4dd0e1"/>
    <path id="Path_206253" data-name="Path 206253" d="M22.5,21.667a.833.833,0,0,0,.833.833h5.834a.833.833,0,1,0,0-1.666H23.333a.833.833,0,0,0-.833.833" fill="#4dd0e1"/>
  </g>
</svg>
