<svg xmlns="http://www.w3.org/2000/svg" width="1030" height="221" viewBox="0 0 1030 221">
  <g id="_12" data-name="12" transform="translate(-285.271 -3175)">
    <g id="Rectangle_43775" data-name="Rectangle 43775" transform="translate(285.271 3175)" fill="none" stroke="#dee9f0" stroke-width="3">
      <rect width="1030" height="221" stroke="none"/>
      <rect x="1.5" y="1.5" width="1027" height="218" fill="none"/>
    </g>
    <g id="Group_147217" data-name="Group 147217" transform="translate(-21.725 391)">
      <path id="Path_207513" data-name="Path 207513" d="M-32.473,0h-2.344V-11.375h2.344Zm4.1-8.453.07.977a2.951,2.951,0,0,1,2.43-1.133,2.453,2.453,0,0,1,2,.789A3.682,3.682,0,0,1-23.2-5.461V0h-2.258V-5.406a1.465,1.465,0,0,0-.312-1.043,1.4,1.4,0,0,0-1.039-.324,1.553,1.553,0,0,0-1.43.813V0H-30.5V-8.453Zm6.555,4.164a4.954,4.954,0,0,1,.926-3.133,3,3,0,0,1,2.5-1.187,2.631,2.631,0,0,1,2.164.953l.094-.8h2.047V-.281a3.613,3.613,0,0,1-.5,1.93A3.236,3.236,0,0,1-16.012,2.9a4.985,4.985,0,0,1-2.141.43,4.635,4.635,0,0,1-1.812-.371A3.217,3.217,0,0,1-21.3,2l1-1.375a2.645,2.645,0,0,0,2.047.945,1.936,1.936,0,0,0,1.4-.48,1.8,1.8,0,0,0,.5-1.363V-.727A2.612,2.612,0,0,1-18.41.156a2.992,2.992,0,0,1-2.465-1.191,4.953,4.953,0,0,1-.941-3.16Zm2.258.168a3.085,3.085,0,0,0,.461,1.8,1.466,1.466,0,0,0,1.266.653,1.568,1.568,0,0,0,1.477-.775V-6a1.564,1.564,0,0,0-1.461-.775,1.476,1.476,0,0,0-1.277.665A3.477,3.477,0,0,0-19.559-4.121ZM-7.605-6.336A6.134,6.134,0,0,0-8.418-6.4a1.654,1.654,0,0,0-1.68.867V0h-2.258V-8.453h2.133l.063,1.008A2.092,2.092,0,0,1-8.277-8.609a2.366,2.366,0,0,1,.7.1ZM-2.777.156A4.15,4.15,0,0,1-5.8-.984,4.054,4.054,0,0,1-6.973-4.023v-.219A5.106,5.106,0,0,1-6.48-6.52,3.612,3.612,0,0,1-5.086-8.066a3.914,3.914,0,0,1,2.059-.543A3.508,3.508,0,0,1-.3-7.516a4.444,4.444,0,0,1,1,3.1v.922H-4.684a2.1,2.1,0,0,0,.66,1.328,2,2,0,0,0,1.395.5A2.437,2.437,0,0,0-.59-2.609L.52-1.367A3.389,3.389,0,0,1-.855-.246,4.511,4.511,0,0,1-2.777.156Zm-.258-6.945a1.411,1.411,0,0,0-1.09.455,2.357,2.357,0,0,0-.535,1.3H-1.52v-.181a1.681,1.681,0,0,0-.406-1.165A1.456,1.456,0,0,0-3.035-6.789ZM6.559-2.336a.727.727,0,0,0-.41-.652,4.659,4.659,0,0,0-1.316-.426Q1.816-4.047,1.816-5.977A2.323,2.323,0,0,1,2.75-7.855a3.766,3.766,0,0,1,2.441-.754,4.053,4.053,0,0,1,2.574.758A2.388,2.388,0,0,1,8.73-5.883H6.473a1.092,1.092,0,0,0-.312-.8A1.322,1.322,0,0,0,5.184-7a1.351,1.351,0,0,0-.883.258.814.814,0,0,0-.312.656.7.7,0,0,0,.355.605,3.657,3.657,0,0,0,1.2.4A9.8,9.8,0,0,1,6.965-4.7,2.336,2.336,0,0,1,8.754-2.43,2.2,2.2,0,0,1,7.762-.559,4.28,4.28,0,0,1,5.2.156,4.47,4.47,0,0,1,3.313-.223,3.166,3.166,0,0,1,2.02-1.262a2.414,2.414,0,0,1-.469-1.426H3.691a1.179,1.179,0,0,0,.445.922,1.766,1.766,0,0,0,1.109.32,1.635,1.635,0,0,0,.98-.246A.766.766,0,0,0,6.559-2.336ZM15.105,0a2.507,2.507,0,0,1-.227-.758,2.732,2.732,0,0,1-2.133.914,3,3,0,0,1-2.059-.719,2.312,2.312,0,0,1-.816-1.812,2.389,2.389,0,0,1,1-2.062,4.915,4.915,0,0,1,2.879-.727h1.039v-.484a1.393,1.393,0,0,0-.3-.937,1.183,1.183,0,0,0-.949-.352,1.345,1.345,0,0,0-.895.273.929.929,0,0,0-.324.75H10.059a2.268,2.268,0,0,1,.453-1.359,3,3,0,0,1,1.281-.98,4.669,4.669,0,0,1,1.859-.355,3.689,3.689,0,0,1,2.48.785,2.747,2.747,0,0,1,.918,2.207v3.664a4.041,4.041,0,0,0,.336,1.82V0ZM13.238-1.57a1.945,1.945,0,0,0,.922-.223,1.462,1.462,0,0,0,.625-.6V-3.844h-.844q-1.7,0-1.8,1.172l-.008.133a.9.9,0,0,0,.3.7A1.153,1.153,0,0,0,13.238-1.57Zm5.2-2.719a5.094,5.094,0,0,1,.887-3.148,2.877,2.877,0,0,1,2.426-1.172,2.589,2.589,0,0,1,2.039.922V-12h2.266V0H24.012L23.9-.9A2.657,2.657,0,0,1,21.73.156,2.869,2.869,0,0,1,19.336-1.02,5.258,5.258,0,0,1,18.434-4.289Zm2.258.168A3.337,3.337,0,0,0,21.105-2.3a1.349,1.349,0,0,0,1.2.634,1.511,1.511,0,0,0,1.477-.884V-5.889a1.489,1.489,0,0,0-1.461-.884Q20.691-6.773,20.691-4.121ZM27.449-4.3a5.013,5.013,0,0,1,.484-2.242A3.546,3.546,0,0,1,29.328-8.07a4.069,4.069,0,0,1,2.113-.539,3.849,3.849,0,0,1,2.793,1.047,4.2,4.2,0,0,1,1.207,2.844l.016.578A4.418,4.418,0,0,1,34.371-1.02,3.775,3.775,0,0,1,31.457.156a3.793,3.793,0,0,1-2.918-1.172A4.5,4.5,0,0,1,27.449-4.2Zm2.258.16A3.16,3.16,0,0,0,30.16-2.3a1.5,1.5,0,0,0,1.3.638,1.5,1.5,0,0,0,1.281-.63A3.457,3.457,0,0,0,33.2-4.309a3.128,3.128,0,0,0-.461-1.831,1.5,1.5,0,0,0-1.3-.649,1.474,1.474,0,0,0-1.281.646A3.516,3.516,0,0,0,29.707-4.144Z" transform="translate(561.271 2913)" fill="#12263f"/>
      <path id="Path_207514" data-name="Path 207514" d="M-45.965-4.93h-4.5v3.047h5.281V0h-7.625V-11.375H-45.2v1.9h-5.266v2.711h4.5Zm4.086-3.523.07.977a2.951,2.951,0,0,1,2.43-1.133,2.453,2.453,0,0,1,2,.789,3.682,3.682,0,0,1,.672,2.359V0h-2.258V-5.406a1.465,1.465,0,0,0-.312-1.043,1.4,1.4,0,0,0-1.039-.324,1.553,1.553,0,0,0-1.43.813V0H-44V-8.453Zm18.477,4.3a5.07,5.07,0,0,1-.887,3.129A2.843,2.843,0,0,1-26.684.156a2.633,2.633,0,0,1-2.07-.891V3.25h-2.258v-11.7h2.094l.078.828A2.654,2.654,0,0,1-26.7-8.609a2.862,2.862,0,0,1,2.43,1.156A5.207,5.207,0,0,1-23.4-4.266Zm-2.258-.164a3.327,3.327,0,0,0-.418-1.82,1.361,1.361,0,0,0-1.215-.641,1.478,1.478,0,0,0-1.461.813V-2.5a1.5,1.5,0,0,0,1.477.836Q-25.66-1.664-25.66-4.312Zm8.406-2.023a6.134,6.134,0,0,0-.812-.062,1.654,1.654,0,0,0-1.68.867V0H-22V-8.453h2.133l.063,1.008a2.092,2.092,0,0,1,1.883-1.164,2.366,2.366,0,0,1,.7.1ZM-12.426.156A4.15,4.15,0,0,1-15.453-.984a4.054,4.054,0,0,1-1.168-3.039v-.219a5.106,5.106,0,0,1,.492-2.277,3.612,3.612,0,0,1,1.395-1.547,3.914,3.914,0,0,1,2.059-.543,3.508,3.508,0,0,1,2.73,1.094,4.444,4.444,0,0,1,1,3.1v.922h-5.383a2.1,2.1,0,0,0,.66,1.328,2,2,0,0,0,1.395.5,2.437,2.437,0,0,0,2.039-.945l1.109,1.242A3.389,3.389,0,0,1-10.5-.246,4.511,4.511,0,0,1-12.426.156Zm-.258-6.945a1.411,1.411,0,0,0-1.09.455,2.357,2.357,0,0,0-.535,1.3h3.141v-.181a1.681,1.681,0,0,0-.406-1.165A1.456,1.456,0,0,0-12.684-6.789ZM-.059-4.148A5.07,5.07,0,0,1-.945-1.02,2.843,2.843,0,0,1-3.34.156,2.633,2.633,0,0,1-5.41-.734V3.25H-7.668v-11.7h2.094l.078.828a2.654,2.654,0,0,1,2.141-.984A2.862,2.862,0,0,1-.926-7.453,5.207,5.207,0,0,1-.059-4.266Zm-2.258-.164a3.327,3.327,0,0,0-.418-1.82,1.361,1.361,0,0,0-1.215-.641,1.478,1.478,0,0,0-1.461.813V-2.5a1.5,1.5,0,0,0,1.477.836Q-2.316-1.664-2.316-4.312ZM6.238,0a2.507,2.507,0,0,1-.227-.758A2.732,2.732,0,0,1,3.879.156,3,3,0,0,1,1.82-.562,2.312,2.312,0,0,1,1-2.375,2.389,2.389,0,0,1,2-4.437a4.915,4.915,0,0,1,2.879-.727H5.918v-.484a1.393,1.393,0,0,0-.3-.937,1.183,1.183,0,0,0-.949-.352,1.345,1.345,0,0,0-.895.273.929.929,0,0,0-.324.75H1.191a2.268,2.268,0,0,1,.453-1.359,3,3,0,0,1,1.281-.98,4.669,4.669,0,0,1,1.859-.355,3.689,3.689,0,0,1,2.48.785,2.747,2.747,0,0,1,.918,2.207v3.664A4.041,4.041,0,0,0,8.52-.133V0ZM4.371-1.57a1.945,1.945,0,0,0,.922-.223,1.462,1.462,0,0,0,.625-.6V-3.844H5.074q-1.7,0-1.8,1.172l-.008.133a.9.9,0,0,0,.3.7A1.153,1.153,0,0,0,4.371-1.57Zm10.3-4.766a6.134,6.134,0,0,0-.812-.062,1.654,1.654,0,0,0-1.68.867V0H9.918V-8.453h2.133l.063,1.008A2.092,2.092,0,0,1,14-8.609a2.366,2.366,0,0,1,.7.1ZM20.418,0a2.507,2.507,0,0,1-.227-.758,2.732,2.732,0,0,1-2.133.914A3,3,0,0,1,16-.562a2.312,2.312,0,0,1-.816-1.812,2.389,2.389,0,0,1,1-2.062,4.915,4.915,0,0,1,2.879-.727H20.1v-.484a1.393,1.393,0,0,0-.3-.937,1.183,1.183,0,0,0-.949-.352,1.345,1.345,0,0,0-.895.273.929.929,0,0,0-.324.75H15.371a2.268,2.268,0,0,1,.453-1.359,3,3,0,0,1,1.281-.98,4.669,4.669,0,0,1,1.859-.355,3.689,3.689,0,0,1,2.48.785,2.747,2.747,0,0,1,.918,2.207v3.664A4.041,4.041,0,0,0,22.7-.133V0ZM18.551-1.57a1.945,1.945,0,0,0,.922-.223,1.462,1.462,0,0,0,.625-.6V-3.844h-.844q-1.7,0-1.8,1.172l-.008.133a.9.9,0,0,0,.3.7A1.153,1.153,0,0,0,18.551-1.57Zm9.063-.094a1.481,1.481,0,0,0,1.016-.344,1.2,1.2,0,0,0,.406-.914h2.117a2.9,2.9,0,0,1-.469,1.574A3.093,3.093,0,0,1,29.422-.238a3.949,3.949,0,0,1-1.77.395A3.67,3.67,0,0,1,24.793-1,4.56,4.56,0,0,1,23.746-4.18v-.148a4.508,4.508,0,0,1,1.039-3.117,3.627,3.627,0,0,1,2.852-1.164,3.555,3.555,0,0,1,2.543.9,3.2,3.2,0,0,1,.973,2.4H29.035a1.551,1.551,0,0,0-.406-1.072A1.354,1.354,0,0,0,27.6-6.789a1.36,1.36,0,0,0-1.191.575A3.333,3.333,0,0,0,26-4.348v.235a3.375,3.375,0,0,0,.4,1.878A1.377,1.377,0,0,0,27.613-1.664ZM34.824,0H32.559V-8.453h2.266Zm-2.4-10.641a1.112,1.112,0,0,1,.34-.836,1.277,1.277,0,0,1,.926-.328,1.28,1.28,0,0,1,.922.328,1.105,1.105,0,0,1,.344.836,1.108,1.108,0,0,1-.348.844,1.283,1.283,0,0,1-.918.328,1.283,1.283,0,0,1-.918-.328A1.108,1.108,0,0,1,32.426-10.641ZM36.332-4.3a5.013,5.013,0,0,1,.484-2.242A3.546,3.546,0,0,1,38.211-8.07a4.069,4.069,0,0,1,2.113-.539,3.849,3.849,0,0,1,2.793,1.047,4.2,4.2,0,0,1,1.207,2.844l.016.578A4.418,4.418,0,0,1,43.254-1.02,3.775,3.775,0,0,1,40.34.156a3.793,3.793,0,0,1-2.918-1.172A4.5,4.5,0,0,1,36.332-4.2Zm2.258.16A3.16,3.16,0,0,0,39.043-2.3a1.5,1.5,0,0,0,1.3.638,1.5,1.5,0,0,0,1.281-.63,3.457,3.457,0,0,0,.461-2.015,3.128,3.128,0,0,0-.461-1.831,1.5,1.5,0,0,0-1.3-.649,1.474,1.474,0,0,0-1.281.646A3.516,3.516,0,0,0,38.59-4.144ZM40.77-12H43.23L41.066-9.578H39.23Zm7.039,3.547.07.977a2.951,2.951,0,0,1,2.43-1.133,2.453,2.453,0,0,1,2,.789,3.682,3.682,0,0,1,.672,2.359V0H50.723V-5.406a1.465,1.465,0,0,0-.312-1.043,1.4,1.4,0,0,0-1.039-.324,1.553,1.553,0,0,0-1.43.813V0H45.684V-8.453Z" transform="translate(800.271 2913)" fill="#12263f"/>
      <path id="Path_207515" data-name="Path 207515" d="M-43.383,0V-11.375h3.5A5.315,5.315,0,0,1-37.2-10.7a4.712,4.712,0,0,1,1.848,1.922,5.928,5.928,0,0,1,.664,2.832v.523A5.945,5.945,0,0,1-35.34-2.6,4.672,4.672,0,0,1-37.18-.687,5.355,5.355,0,0,1-39.859,0Zm2.344-9.477v7.594h1.133a2.545,2.545,0,0,0,2.1-.9,4.06,4.06,0,0,0,.742-2.57v-.6a4.124,4.124,0,0,0-.719-2.629,2.537,2.537,0,0,0-2.1-.895Zm11.8,9.633A4.15,4.15,0,0,1-32.27-.984a4.054,4.054,0,0,1-1.168-3.039v-.219a5.106,5.106,0,0,1,.492-2.277,3.612,3.612,0,0,1,1.395-1.547,3.914,3.914,0,0,1,2.059-.543,3.508,3.508,0,0,1,2.73,1.094,4.444,4.444,0,0,1,1,3.1v.922h-5.383a2.1,2.1,0,0,0,.66,1.328,2,2,0,0,0,1.395.5,2.437,2.437,0,0,0,2.039-.945l1.109,1.242A3.389,3.389,0,0,1-27.32-.246,4.511,4.511,0,0,1-29.242.156ZM-29.5-6.789a1.411,1.411,0,0,0-1.09.455,2.357,2.357,0,0,0-.535,1.3h3.141v-.181a1.681,1.681,0,0,0-.406-1.165A1.456,1.456,0,0,0-29.5-6.789Zm9.594,4.453a.727.727,0,0,0-.41-.652,4.659,4.659,0,0,0-1.316-.426q-3.016-.633-3.016-2.562a2.323,2.323,0,0,1,.934-1.879,3.766,3.766,0,0,1,2.441-.754,4.053,4.053,0,0,1,2.574.758,2.388,2.388,0,0,1,.965,1.969h-2.258a1.092,1.092,0,0,0-.312-.8A1.322,1.322,0,0,0-21.281-7a1.351,1.351,0,0,0-.883.258.814.814,0,0,0-.312.656.7.7,0,0,0,.355.605,3.657,3.657,0,0,0,1.2.4A9.8,9.8,0,0,1-19.5-4.7,2.336,2.336,0,0,1-17.711-2.43,2.2,2.2,0,0,1-18.7-.559a4.28,4.28,0,0,1-2.562.715,4.47,4.47,0,0,1-1.887-.379,3.166,3.166,0,0,1-1.293-1.039,2.414,2.414,0,0,1-.469-1.426h2.141a1.179,1.179,0,0,0,.445.922,1.766,1.766,0,0,0,1.109.32,1.635,1.635,0,0,0,.98-.246A.766.766,0,0,0-19.906-2.336ZM-8.648-4.148A5.07,5.07,0,0,1-9.535-1.02,2.843,2.843,0,0,1-11.93.156,2.633,2.633,0,0,1-14-.734V3.25h-2.258v-11.7h2.094l.078.828a2.654,2.654,0,0,1,2.141-.984,2.862,2.862,0,0,1,2.43,1.156,5.207,5.207,0,0,1,.867,3.188Zm-2.258-.164a3.327,3.327,0,0,0-.418-1.82,1.361,1.361,0,0,0-1.215-.641A1.478,1.478,0,0,0-14-5.961V-2.5a1.5,1.5,0,0,0,1.477.836Q-10.906-1.664-10.906-4.312ZM-2.352,0a2.507,2.507,0,0,1-.227-.758A2.732,2.732,0,0,1-4.711.156,3,3,0,0,1-6.77-.562a2.312,2.312,0,0,1-.816-1.812,2.389,2.389,0,0,1,1-2.062,4.915,4.915,0,0,1,2.879-.727h1.039v-.484a1.393,1.393,0,0,0-.3-.937,1.183,1.183,0,0,0-.949-.352,1.345,1.345,0,0,0-.895.273.929.929,0,0,0-.324.75H-7.4a2.268,2.268,0,0,1,.453-1.359,3,3,0,0,1,1.281-.98A4.669,4.669,0,0,1-3.8-8.609a3.689,3.689,0,0,1,2.48.785A2.747,2.747,0,0,1-.406-5.617v3.664A4.041,4.041,0,0,0-.07-.133V0ZM-4.219-1.57A1.945,1.945,0,0,0-3.3-1.793a1.462,1.462,0,0,0,.625-.6V-3.844h-.844q-1.7,0-1.8,1.172l-.008.133a.9.9,0,0,0,.3.7A1.153,1.153,0,0,0-4.219-1.57Zm9.063-.094a1.481,1.481,0,0,0,1.016-.344,1.2,1.2,0,0,0,.406-.914H8.383a2.9,2.9,0,0,1-.469,1.574A3.093,3.093,0,0,1,6.652-.238a3.949,3.949,0,0,1-1.77.395A3.67,3.67,0,0,1,2.023-1,4.56,4.56,0,0,1,.977-4.18v-.148A4.508,4.508,0,0,1,2.016-7.445,3.627,3.627,0,0,1,4.867-8.609a3.555,3.555,0,0,1,2.543.9,3.2,3.2,0,0,1,.973,2.4H6.266a1.551,1.551,0,0,0-.406-1.072,1.354,1.354,0,0,0-1.031-.412,1.36,1.36,0,0,0-1.191.575,3.333,3.333,0,0,0-.4,1.866v.235a3.375,3.375,0,0,0,.4,1.878A1.377,1.377,0,0,0,4.844-1.664Zm7.031-5.867a2.818,2.818,0,0,1,2.258-1.078q2.75,0,2.789,3.2V0H14.664V-5.352a1.57,1.57,0,0,0-.312-1.074,1.34,1.34,0,0,0-1.039-.348,1.537,1.537,0,0,0-1.437.766V0H9.617V-12h2.258ZM23.523,0A2.507,2.507,0,0,1,23.3-.758a2.732,2.732,0,0,1-2.133.914,3,3,0,0,1-2.059-.719,2.312,2.312,0,0,1-.816-1.812,2.389,2.389,0,0,1,1-2.062,4.915,4.915,0,0,1,2.879-.727H23.2v-.484a1.393,1.393,0,0,0-.3-.937,1.183,1.183,0,0,0-.949-.352,1.345,1.345,0,0,0-.895.273.929.929,0,0,0-.324.75H18.477a2.268,2.268,0,0,1,.453-1.359,3,3,0,0,1,1.281-.98,4.669,4.669,0,0,1,1.859-.355,3.689,3.689,0,0,1,2.48.785,2.747,2.747,0,0,1,.918,2.207v3.664A4.041,4.041,0,0,0,25.8-.133V0ZM21.656-1.57a1.945,1.945,0,0,0,.922-.223,1.462,1.462,0,0,0,.625-.6V-3.844h-.844q-1.7,0-1.8,1.172l-.008.133a.9.9,0,0,0,.3.7A1.153,1.153,0,0,0,21.656-1.57Zm5.2-2.719a5.094,5.094,0,0,1,.887-3.148,2.877,2.877,0,0,1,2.426-1.172,2.589,2.589,0,0,1,2.039.922V-12h2.266V0H32.43L32.32-.9A2.657,2.657,0,0,1,30.148.156,2.869,2.869,0,0,1,27.754-1.02,5.258,5.258,0,0,1,26.852-4.289Zm2.258.168A3.337,3.337,0,0,0,29.523-2.3a1.349,1.349,0,0,0,1.2.634A1.511,1.511,0,0,0,32.2-2.548V-5.889a1.489,1.489,0,0,0-1.461-.884Q29.109-6.773,29.109-4.121ZM35.867-4.3a5.013,5.013,0,0,1,.484-2.242A3.546,3.546,0,0,1,37.746-8.07a4.069,4.069,0,0,1,2.113-.539,3.849,3.849,0,0,1,2.793,1.047,4.2,4.2,0,0,1,1.207,2.844l.016.578A4.418,4.418,0,0,1,42.789-1.02,3.775,3.775,0,0,1,39.875.156a3.793,3.793,0,0,1-2.918-1.172A4.5,4.5,0,0,1,35.867-4.2Zm2.258.16A3.16,3.16,0,0,0,38.578-2.3a1.5,1.5,0,0,0,1.3.638,1.5,1.5,0,0,0,1.281-.63,3.457,3.457,0,0,0,.461-2.015,3.128,3.128,0,0,0-.461-1.831,1.5,1.5,0,0,0-1.3-.649,1.474,1.474,0,0,0-1.281.646A3.516,3.516,0,0,0,38.125-4.144Z" transform="translate(1038.271 2913)" fill="#12263f"/>
      <g id="Rectangle_43771" data-name="Rectangle 43771" transform="translate(466.271 2850)" fill="none" stroke="#feca2e" stroke-width="3">
        <rect width="190" height="114" rx="19" stroke="none"/>
        <rect x="1.5" y="1.5" width="187" height="111" rx="17.5" fill="none"/>
      </g>
      <g id="Rectangle_43772" data-name="Rectangle 43772" transform="translate(705.271 2850)" fill="none" stroke="#feca2e" stroke-width="3">
        <rect width="190" height="114" rx="19" stroke="none"/>
        <rect x="1.5" y="1.5" width="187" height="111" rx="17.5" fill="none"/>
      </g>
      <g id="Rectangle_43773" data-name="Rectangle 43773" transform="translate(943.271 2850)" fill="none" stroke="#feca2e" stroke-width="3">
        <rect width="190" height="114" rx="19" stroke="none"/>
        <rect x="1.5" y="1.5" width="187" height="111" rx="17.5" fill="none"/>
      </g>
      <g id="Group_147212" data-name="Group 147212" transform="translate(104)">
        <path id="Path_207516" data-name="Path 207516" d="M-28.879-4.93h-4.5v3.047H-28.1V0h-7.625V-11.375h7.609v1.9h-5.266v2.711h4.5Zm4.086-3.523.07.977a2.951,2.951,0,0,1,2.43-1.133,2.453,2.453,0,0,1,2,.789,3.682,3.682,0,0,1,.672,2.359V0h-2.258V-5.406a1.465,1.465,0,0,0-.312-1.043,1.4,1.4,0,0,0-1.039-.324,1.553,1.553,0,0,0-1.43.813V0h-2.258V-8.453Zm9.586-2.078v2.078h1.445V-6.8h-1.445v4.219a1.007,1.007,0,0,0,.18.672.9.9,0,0,0,.688.2,3.6,3.6,0,0,0,.664-.055V-.047a4.648,4.648,0,0,1-1.367.2,2.156,2.156,0,0,1-2.422-2.4V-6.8H-18.7V-8.453h1.234v-2.078Zm7.453,4.2A6.134,6.134,0,0,0-8.566-6.4a1.654,1.654,0,0,0-1.68.867V0H-12.5V-8.453h2.133l.063,1.008A2.092,2.092,0,0,1-8.426-8.609a2.366,2.366,0,0,1,.7.1ZM-2.926.156A4.15,4.15,0,0,1-5.953-.984,4.054,4.054,0,0,1-7.121-4.023v-.219A5.106,5.106,0,0,1-6.629-6.52,3.612,3.612,0,0,1-5.234-8.066a3.914,3.914,0,0,1,2.059-.543A3.508,3.508,0,0,1-.445-7.516a4.444,4.444,0,0,1,1,3.1v.922H-4.832a2.1,2.1,0,0,0,.66,1.328,2,2,0,0,0,1.395.5A2.437,2.437,0,0,0-.738-2.609L.371-1.367A3.389,3.389,0,0,1-1-.246,4.511,4.511,0,0,1-2.926.156Zm-.258-6.945a1.411,1.411,0,0,0-1.09.455,2.357,2.357,0,0,0-.535,1.3h3.141v-.181a1.681,1.681,0,0,0-.406-1.165A1.456,1.456,0,0,0-3.184-6.789ZM1.5-4.289A4.954,4.954,0,0,1,2.43-7.422a3,3,0,0,1,2.5-1.187,2.631,2.631,0,0,1,2.164.953l.094-.8H9.23V-.281a3.613,3.613,0,0,1-.5,1.93A3.236,3.236,0,0,1,7.309,2.9a4.985,4.985,0,0,1-2.141.43,4.635,4.635,0,0,1-1.812-.371A3.217,3.217,0,0,1,2.02,2l1-1.375a2.645,2.645,0,0,0,2.047.945,1.936,1.936,0,0,0,1.4-.48,1.8,1.8,0,0,0,.5-1.363V-.727A2.612,2.612,0,0,1,4.91.156,2.992,2.992,0,0,1,2.445-1.035,4.953,4.953,0,0,1,1.5-4.2Zm2.258.168a3.085,3.085,0,0,0,.461,1.8,1.466,1.466,0,0,0,1.266.653,1.568,1.568,0,0,0,1.477-.775V-6A1.564,1.564,0,0,0,5.5-6.773a1.476,1.476,0,0,0-1.277.665A3.477,3.477,0,0,0,3.762-4.121ZM15.863,0a2.507,2.507,0,0,1-.227-.758A2.732,2.732,0,0,1,13.5.156a3,3,0,0,1-2.059-.719,2.312,2.312,0,0,1-.816-1.812,2.389,2.389,0,0,1,1-2.062A4.915,4.915,0,0,1,14.5-5.164h1.039v-.484a1.393,1.393,0,0,0-.3-.937,1.183,1.183,0,0,0-.949-.352,1.345,1.345,0,0,0-.895.273.929.929,0,0,0-.324.75H10.816a2.268,2.268,0,0,1,.453-1.359,3,3,0,0,1,1.281-.98,4.669,4.669,0,0,1,1.859-.355,3.689,3.689,0,0,1,2.48.785,2.747,2.747,0,0,1,.918,2.207v3.664a4.041,4.041,0,0,0,.336,1.82V0ZM14-1.57a1.945,1.945,0,0,0,.922-.223,1.462,1.462,0,0,0,.625-.6V-3.844H14.7q-1.7,0-1.8,1.172l-.008.133a.9.9,0,0,0,.3.7A1.153,1.153,0,0,0,14-1.57Zm5.2-2.719a5.094,5.094,0,0,1,.887-3.148A2.877,2.877,0,0,1,22.5-8.609a2.589,2.589,0,0,1,2.039.922V-12h2.266V0H24.77L24.66-.9A2.657,2.657,0,0,1,22.488.156,2.869,2.869,0,0,1,20.094-1.02,5.258,5.258,0,0,1,19.191-4.289Zm2.258.168A3.337,3.337,0,0,0,21.863-2.3a1.349,1.349,0,0,0,1.2.634,1.511,1.511,0,0,0,1.477-.884V-5.889a1.489,1.489,0,0,0-1.461-.884Q21.449-6.773,21.449-4.121ZM28.207-4.3a5.013,5.013,0,0,1,.484-2.242A3.546,3.546,0,0,1,30.086-8.07,4.069,4.069,0,0,1,32.2-8.609a3.849,3.849,0,0,1,2.793,1.047A4.2,4.2,0,0,1,36.2-4.719l.016.578A4.418,4.418,0,0,1,35.129-1.02,3.775,3.775,0,0,1,32.215.156,3.793,3.793,0,0,1,29.3-1.016,4.5,4.5,0,0,1,28.207-4.2Zm2.258.16A3.16,3.16,0,0,0,30.918-2.3a1.5,1.5,0,0,0,1.3.638,1.5,1.5,0,0,0,1.281-.63,3.457,3.457,0,0,0,.461-2.015A3.128,3.128,0,0,0,33.5-6.14a1.5,1.5,0,0,0-1.3-.649,1.474,1.474,0,0,0-1.281.646A3.516,3.516,0,0,0,30.465-4.144Z" transform="translate(1134.271 2841)" fill="#12263f"/>
        <g id="Ellipse_5037" data-name="Ellipse 5037" transform="translate(1077.271 2855)" fill="#fff" stroke="#feca2e" stroke-width="3">
          <circle cx="57" cy="57" r="57" stroke="none"/>
          <circle cx="57" cy="57" r="55.5" fill="none"/>
        </g>
        <circle id="Ellipse_5038" data-name="Ellipse 5038" cx="26.5" cy="26.5" r="26.5" transform="translate(1108.271 2886)" fill="#feca2e"/>
      </g>
      <g id="Group_147213" data-name="Group 147213" transform="translate(464.038 2894) rotate(90)">
        <rect id="Rectangle_42138" data-name="Rectangle 42138" width="6.883" height="102.28" transform="translate(9.364 12.761)" fill="#0f2771"/>
        <path id="Path_193336" data-name="Path 193336" d="M-3342,3157.984l-12.8,22.181h25.61Z" transform="translate(3354.804 -3157.984)" fill="#0f2771"/>
      </g>
      <g id="Group_147214" data-name="Group 147214" transform="translate(703.313 2894) rotate(90)">
        <rect id="Rectangle_42138-2" data-name="Rectangle 42138" width="6.883" height="31.399" transform="translate(9.364 12.761)" fill="#0f2771"/>
        <path id="Path_193336-2" data-name="Path 193336" d="M-3342,3157.984l-12.8,22.181h25.61Z" transform="translate(3354.804 -3157.984)" fill="#0f2771"/>
      </g>
      <g id="Group_147215" data-name="Group 147215" transform="translate(941.432 2894) rotate(90)">
        <rect id="Rectangle_42138-3" data-name="Rectangle 42138" width="6.883" height="31.399" transform="translate(9.364 12.761)" fill="#0f2771"/>
        <path id="Path_193336-3" data-name="Path 193336" d="M-3342,3157.984l-12.8,22.181h25.61Z" transform="translate(3354.804 -3157.984)" fill="#0f2771"/>
      </g>
      <g id="Group_147216" data-name="Group 147216" transform="translate(1179.432 2894) rotate(90)">
        <rect id="Rectangle_42138-4" data-name="Rectangle 42138" width="6.883" height="31.399" transform="translate(9.364 12.761)" fill="#0f2771"/>
        <path id="Path_193336-4" data-name="Path 193336" d="M-3342,3157.984l-12.8,22.181h25.61Z" transform="translate(3354.804 -3157.984)" fill="#0f2771"/>
      </g>
      <path id="Path_207511" data-name="Path 207511" d="M-24.012-4.164h-1.867V0h-2.344V-11.375H-24a4.778,4.778,0,0,1,3.109.9,3.1,3.1,0,0,1,1.094,2.539A3.5,3.5,0,0,1-20.3-6a3.437,3.437,0,0,1-1.527,1.238l2.461,4.648V0h-2.516Zm-1.867-1.9h1.891a1.936,1.936,0,0,0,1.367-.449,1.606,1.606,0,0,0,.484-1.238,1.719,1.719,0,0,0-.457-1.266A1.9,1.9,0,0,0-24-9.477h-1.883ZM-14.27.156A4.15,4.15,0,0,1-17.3-.984a4.054,4.054,0,0,1-1.168-3.039v-.219a5.106,5.106,0,0,1,.492-2.277,3.612,3.612,0,0,1,1.395-1.547,3.914,3.914,0,0,1,2.059-.543,3.508,3.508,0,0,1,2.73,1.094,4.444,4.444,0,0,1,1,3.1v.922h-5.383a2.1,2.1,0,0,0,.66,1.328,2,2,0,0,0,1.395.5,2.437,2.437,0,0,0,2.039-.945l1.109,1.242A3.389,3.389,0,0,1-12.348-.246,4.511,4.511,0,0,1-14.27.156Zm-.258-6.945a1.411,1.411,0,0,0-1.09.455,2.357,2.357,0,0,0-.535,1.3h3.141v-.181a1.681,1.681,0,0,0-.406-1.165A1.456,1.456,0,0,0-14.527-6.789ZM-4.613,0A2.507,2.507,0,0,1-4.84-.758,2.732,2.732,0,0,1-6.973.156,3,3,0,0,1-9.031-.562a2.312,2.312,0,0,1-.816-1.812,2.389,2.389,0,0,1,1-2.062,4.915,4.915,0,0,1,2.879-.727h1.039v-.484a1.393,1.393,0,0,0-.3-.937,1.183,1.183,0,0,0-.949-.352,1.345,1.345,0,0,0-.895.273.929.929,0,0,0-.324.75H-9.66a2.268,2.268,0,0,1,.453-1.359,3,3,0,0,1,1.281-.98,4.669,4.669,0,0,1,1.859-.355,3.689,3.689,0,0,1,2.48.785,2.747,2.747,0,0,1,.918,2.207v3.664a4.041,4.041,0,0,0,.336,1.82V0ZM-6.48-1.57a1.945,1.945,0,0,0,.922-.223,1.462,1.462,0,0,0,.625-.6V-3.844h-.844q-1.7,0-1.8,1.172l-.008.133a.9.9,0,0,0,.3.7A1.153,1.153,0,0,0-6.48-1.57ZM1.449,0H-.816V-12H1.449ZM5.691,0H3.426V-8.453H5.691Zm-2.4-10.641a1.112,1.112,0,0,1,.34-.836,1.277,1.277,0,0,1,.926-.328,1.28,1.28,0,0,1,.922.328,1.105,1.105,0,0,1,.344.836,1.108,1.108,0,0,1-.348.844,1.283,1.283,0,0,1-.918.328A1.283,1.283,0,0,1,3.641-9.8,1.108,1.108,0,0,1,3.293-10.641Zm6.852,8.82h4.133V0H7.262V-1.375l3.977-5.258H7.379v-1.82h6.773v1.33ZM20.59,0a2.507,2.507,0,0,1-.227-.758A2.732,2.732,0,0,1,18.23.156a3,3,0,0,1-2.059-.719,2.312,2.312,0,0,1-.816-1.812,2.389,2.389,0,0,1,1-2.062,4.915,4.915,0,0,1,2.879-.727H20.27v-.484a1.393,1.393,0,0,0-.3-.937,1.183,1.183,0,0,0-.949-.352,1.345,1.345,0,0,0-.895.273.929.929,0,0,0-.324.75H15.543A2.268,2.268,0,0,1,16-7.273a3,3,0,0,1,1.281-.98,4.669,4.669,0,0,1,1.859-.355,3.689,3.689,0,0,1,2.48.785,2.747,2.747,0,0,1,.918,2.207v3.664a4.041,4.041,0,0,0,.336,1.82V0ZM18.723-1.57a1.945,1.945,0,0,0,.922-.223,1.462,1.462,0,0,0,.625-.6V-3.844h-.844q-1.7,0-1.8,1.172l-.008.133a.9.9,0,0,0,.3.7A1.153,1.153,0,0,0,18.723-1.57Zm10.3-4.766a6.134,6.134,0,0,0-.812-.062,1.654,1.654,0,0,0-1.68.867V0H24.27V-8.453H26.4l.063,1.008a2.092,2.092,0,0,1,1.883-1.164,2.366,2.366,0,0,1,.7.1Z" transform="translate(396.271 2889)" fill="#12263f"/>
      <path id="Path_207512" data-name="Path 207512" d="M-21.734-4.008V0h-2.344V-11.375h4.438a5.134,5.134,0,0,1,2.254.469,3.454,3.454,0,0,1,1.5,1.332,3.714,3.714,0,0,1,.523,1.965,3.266,3.266,0,0,1-1.145,2.637,4.767,4.767,0,0,1-3.168.965Zm0-1.9h2.094a2.059,2.059,0,0,0,1.418-.437,1.591,1.591,0,0,0,.488-1.25,1.876,1.876,0,0,0-.492-1.352,1.839,1.839,0,0,0-1.359-.531h-2.148ZM-10.117.156A4.15,4.15,0,0,1-13.145-.984a4.054,4.054,0,0,1-1.168-3.039v-.219A5.106,5.106,0,0,1-13.82-6.52a3.612,3.612,0,0,1,1.395-1.547,3.914,3.914,0,0,1,2.059-.543,3.508,3.508,0,0,1,2.73,1.094,4.444,4.444,0,0,1,1,3.1v.922h-5.383a2.1,2.1,0,0,0,.66,1.328,2,2,0,0,0,1.395.5A2.437,2.437,0,0,0-7.93-2.609L-6.82-1.367A3.389,3.389,0,0,1-8.2-.246,4.511,4.511,0,0,1-10.117.156Zm-.258-6.945a1.411,1.411,0,0,0-1.09.455A2.357,2.357,0,0,0-12-5.031h3.141v-.181a1.681,1.681,0,0,0-.406-1.165A1.456,1.456,0,0,0-10.375-6.789Zm4.664,2.5a5.094,5.094,0,0,1,.887-3.148A2.877,2.877,0,0,1-2.4-8.609a2.589,2.589,0,0,1,2.039.922V-12H1.906V0H-.133L-.242-.9A2.657,2.657,0,0,1-2.414.156,2.869,2.869,0,0,1-4.809-1.02,5.258,5.258,0,0,1-5.711-4.289Zm2.258.168A3.337,3.337,0,0,0-3.039-2.3a1.349,1.349,0,0,0,1.2.634A1.511,1.511,0,0,0-.359-2.548V-5.889A1.489,1.489,0,0,0-1.82-6.773Q-3.453-6.773-3.453-4.121ZM6.039,0H3.773V-8.453H6.039Zm-2.4-10.641a1.112,1.112,0,0,1,.34-.836,1.277,1.277,0,0,1,.926-.328,1.28,1.28,0,0,1,.922.328,1.105,1.105,0,0,1,.344.836,1.108,1.108,0,0,1-.348.844,1.283,1.283,0,0,1-.918.328A1.283,1.283,0,0,1,3.988-9.8,1.108,1.108,0,0,1,3.641-10.641ZM7.547-4.289a5.094,5.094,0,0,1,.887-3.148,2.877,2.877,0,0,1,2.426-1.172,2.589,2.589,0,0,1,2.039.922V-12h2.266V0H13.125l-.109-.9A2.657,2.657,0,0,1,10.844.156,2.869,2.869,0,0,1,8.449-1.02,5.258,5.258,0,0,1,7.547-4.289ZM9.8-4.121A3.337,3.337,0,0,0,10.219-2.3a1.349,1.349,0,0,0,1.2.634A1.511,1.511,0,0,0,12.9-2.548V-5.889a1.489,1.489,0,0,0-1.461-.884Q9.8-6.773,9.8-4.121ZM16.563-4.3a5.013,5.013,0,0,1,.484-2.242A3.546,3.546,0,0,1,18.441-8.07a4.069,4.069,0,0,1,2.113-.539,3.849,3.849,0,0,1,2.793,1.047,4.2,4.2,0,0,1,1.207,2.844l.016.578A4.418,4.418,0,0,1,23.484-1.02,3.775,3.775,0,0,1,20.57.156a3.793,3.793,0,0,1-2.918-1.172A4.5,4.5,0,0,1,16.563-4.2Zm2.258.16A3.16,3.16,0,0,0,19.273-2.3a1.5,1.5,0,0,0,1.3.638,1.5,1.5,0,0,0,1.281-.63,3.457,3.457,0,0,0,.461-2.015,3.128,3.128,0,0,0-.461-1.831,1.5,1.5,0,0,0-1.3-.649,1.474,1.474,0,0,0-1.281.646A3.516,3.516,0,0,0,18.82-4.144Z" transform="translate(396.271 2935)" fill="#12263f"/>
    </g>
  </g>
</svg>
