<svg id="_13" data-name="13" xmlns="http://www.w3.org/2000/svg" xmlns:xlink="http://www.w3.org/1999/xlink" width="505" height="310.412" viewBox="0 0 505 310.412">
  <defs>
    <clipPath id="clip-path">
      <rect id="Rectangle_45165" data-name="Rectangle 45165" width="505" height="310.412" fill="none"/>
    </clipPath>
    <clipPath id="clip-path-3">
      <rect id="Rectangle_45147" data-name="Rectangle 45147" width="1.757" height="1.757" transform="translate(2.764 38.178)" fill="none"/>
    </clipPath>
    <clipPath id="clip-path-4">
      <rect id="Rectangle_45148" data-name="Rectangle 45148" width="1.757" height="1.757" transform="translate(5.774 38.178)" fill="none"/>
    </clipPath>
    <clipPath id="clip-path-5">
      <rect id="Rectangle_45149" data-name="Rectangle 45149" width="1.757" height="1.757" transform="translate(8.741 38.178)" fill="none"/>
    </clipPath>
    <clipPath id="clip-path-6">
      <rect id="Rectangle_45156" data-name="Rectangle 45156" width="1.371" height="1.371" transform="translate(128.652 2.323)" fill="none"/>
    </clipPath>
    <clipPath id="clip-path-7">
      <rect id="Rectangle_45157" data-name="Rectangle 45157" width="1.371" height="1.371" transform="translate(131 2.323)" fill="none"/>
    </clipPath>
    <clipPath id="clip-path-8">
      <rect id="Rectangle_45158" data-name="Rectangle 45158" width="1.371" height="1.371" transform="translate(133.314 2.323)" fill="none"/>
    </clipPath>
    <clipPath id="clip-path-9">
      <rect id="Rectangle_45162" data-name="Rectangle 45162" width="31.095" height="35.643" transform="translate(338.125 211.757)" fill="none"/>
    </clipPath>
    <clipPath id="clip-path-10">
      <rect id="Rectangle_45163" data-name="Rectangle 45163" width="3.051" height="18.825" transform="translate(381.167 206.065)" fill="none"/>
    </clipPath>
  </defs>
  <g id="Group_147135" data-name="Group 147135" clip-path="url(#clip-path)">
    <rect id="Rectangle_45146" data-name="Rectangle 45146" width="109.606" height="73.388" transform="translate(0.196 35.811)" fill="#fff"/>
    <g id="Group_147134" data-name="Group 147134">
      <g id="Group_147133" data-name="Group 147133" clip-path="url(#clip-path)">
        <path id="Path_205048" data-name="Path 205048" d="M109.8,109.2s-.011-.459-.017-1.335-.01-2.178-.018-3.872c-.009-3.4-.022-8.379-.04-14.759-.019-12.751-.047-31.078-.082-53.422l.157.157L.2,36.008H.2l.2-.2C.387,61.956.381,86.818.376,109.2l-.18-.18,78.964.089,22.56.048,6,.022,1.549.01c.349,0,.532.011.532.011s-.169.007-.511.011l-1.529.01-5.965.022-22.519.048L.2,109.379H.016v-.18C.011,86.818.006,61.956,0,35.811v-.2H.2l109.6.039h.157v.157c-.035,22.385-.063,40.746-.083,53.519-.017,6.365-.03,11.336-.04,14.724-.007,1.681-.013,2.968-.017,3.843s-.017,1.3-.017,1.3" fill="#e1e1e1"/>
        <path id="Path_205049" data-name="Path 205049" d="M.2,42.36c0-.109,24.517-.2,54.754-.2s54.76.088,54.76.2-24.513.2-54.76.2S.2,42.468.2,42.36" fill="#e1e1e1"/>
        <g id="Group_147111" data-name="Group 147111" opacity="0.3">
          <g id="Group_147110" data-name="Group 147110">
            <g id="Group_147109" data-name="Group 147109" clip-path="url(#clip-path-3)">
              <path id="Path_205050" data-name="Path 205050" d="M4.521,39.057a.879.879,0,1,1-.878-.878.878.878,0,0,1,.878.878" fill="#e1e1e1"/>
            </g>
          </g>
        </g>
        <g id="Group_147114" data-name="Group 147114" opacity="0.3">
          <g id="Group_147113" data-name="Group 147113">
            <g id="Group_147112" data-name="Group 147112" clip-path="url(#clip-path-4)">
              <path id="Path_205051" data-name="Path 205051" d="M7.531,39.057a.879.879,0,1,1-.878-.878.878.878,0,0,1,.878.878" fill="#e1e1e1"/>
            </g>
          </g>
        </g>
        <g id="Group_147117" data-name="Group 147117" opacity="0.3">
          <g id="Group_147116" data-name="Group 147116">
            <g id="Group_147115" data-name="Group 147115" clip-path="url(#clip-path-5)">
              <path id="Path_205052" data-name="Path 205052" d="M10.5,39.057a.879.879,0,1,1-.878-.878.878.878,0,0,1,.878.878" fill="#e1e1e1"/>
            </g>
          </g>
        </g>
        <rect id="Rectangle_45150" data-name="Rectangle 45150" width="29.237" height="29.237" transform="translate(9.619 50.014)" fill="#e1e1e1"/>
        <path id="Path_205053" data-name="Path 205053" d="M94.772,58.278c0,.109-11.4.2-25.466.2s-25.468-.088-25.468-.2,11.4-.2,25.468-.2,25.466.088,25.466.2" fill="#e1e1e1"/>
        <path id="Path_205054" data-name="Path 205054" d="M94.772,63.711c0,.109-11.4.2-25.466.2s-25.468-.088-25.468-.2,11.4-.2,25.468-.2,25.466.088,25.466.2" fill="#e1e1e1"/>
        <path id="Path_205055" data-name="Path 205055" d="M94.772,69.144c0,.108-11.4.2-25.466.2s-25.468-.088-25.468-.2,11.4-.2,25.468-.2,25.466.087,25.466.2" fill="#e1e1e1"/>
        <path id="Path_205056" data-name="Path 205056" d="M73.94,74.577a6.831,6.831,0,0,1-1.183.076l-3.226.063c-2.723.036-6.486.058-10.642.058s-7.92-.022-10.644-.058l-3.225-.063a6.831,6.831,0,0,1-1.183-.076A6.83,6.83,0,0,1,45.02,74.5l3.225-.063c2.724-.035,6.487-.057,10.644-.057s7.919.022,10.642.057l3.226.063a6.83,6.83,0,0,1,1.183.076" fill="#e1e1e1"/>
        <rect id="Rectangle_45151" data-name="Rectangle 45151" width="13.74" height="13.74" transform="translate(11.449 89.108)" fill="#e1e1e1"/>
        <rect id="Rectangle_45152" data-name="Rectangle 45152" width="13.74" height="13.74" transform="translate(36.367 89.108)" fill="#e1e1e1"/>
        <rect id="Rectangle_45153" data-name="Rectangle 45153" width="13.74" height="13.74" transform="translate(61.285 89.108)" fill="#e1e1e1"/>
        <rect id="Rectangle_45154" data-name="Rectangle 45154" width="13.74" height="13.74" transform="translate(86.203 89.108)" fill="#e1e1e1"/>
        <rect id="Rectangle_45155" data-name="Rectangle 45155" width="94.415" height="38.35" transform="translate(125.976 0.15)" fill="#fff"/>
        <path id="Path_205057" data-name="Path 205057" d="M220.391,38.5s-.008-.236-.011-.685-.007-1.119-.012-1.99c-.006-1.748-.014-4.32-.026-7.631-.014-6.62-.033-16.194-.057-28.043l.106.1L125.983.3h-.007l.15-.149c0,13.429,0,26.393-.008,38.349l-.142-.142c27.357.026,50.941.051,67.693.066l19.637.041,5.257.018,1.36.009c.306,0,.468.008.468.008s-.149.006-.451.009l-1.344.009-5.226.018-19.6.041c-16.776.015-40.394.04-67.79.066h-.143V38.5c0-11.956,0-24.92-.007-38.349V0h.157c36.956.017,70.389.034,94.408.044h.1V.15c-.024,11.876-.043,21.472-.057,28.107-.011,3.3-.019,5.863-.026,7.608,0,.863-.009,1.52-.011,1.971s-.01.663-.01.663" fill="#e1e1e1"/>
        <path id="Path_205058" data-name="Path 205058" d="M126.07,5.321c0-.083,21.1-.15,47.13-.15s47.135.067,47.135.15-21.1.149-47.135.149-47.13-.067-47.13-.149" fill="#e1e1e1"/>
        <g id="Group_147120" data-name="Group 147120" opacity="0.3">
          <g id="Group_147119" data-name="Group 147119">
            <g id="Group_147118" data-name="Group 147118" clip-path="url(#clip-path-6)">
              <path id="Path_205059" data-name="Path 205059" d="M130.023,3.008a.685.685,0,1,1-.685-.685.685.685,0,0,1,.685.685" fill="#ececec"/>
            </g>
          </g>
        </g>
        <g id="Group_147123" data-name="Group 147123" opacity="0.3">
          <g id="Group_147122" data-name="Group 147122">
            <g id="Group_147121" data-name="Group 147121" clip-path="url(#clip-path-7)">
              <path id="Path_205060" data-name="Path 205060" d="M132.37,3.008a.685.685,0,1,1-.685-.685.685.685,0,0,1,.685.685" fill="#ececec"/>
            </g>
          </g>
        </g>
        <g id="Group_147126" data-name="Group 147126" opacity="0.3">
          <g id="Group_147125" data-name="Group 147125">
            <g id="Group_147124" data-name="Group 147124" clip-path="url(#clip-path-8)">
              <path id="Path_205061" data-name="Path 205061" d="M134.685,3.008A.685.685,0,1,1,134,2.323a.685.685,0,0,1,.685.685" fill="#ececec"/>
            </g>
          </g>
        </g>
        <rect id="Rectangle_45159" data-name="Rectangle 45159" width="22.805" height="22.805" transform="translate(134 11.555)" fill="#e1e1e1"/>
        <path id="Path_205062" data-name="Path 205062" d="M213.858,17.666c0,.083-11.735.149-26.208.149s-26.21-.066-26.21-.149,11.732-.149,26.21-.149,26.208.066,26.208.149" fill="#e1e1e1"/>
        <path id="Path_205063" data-name="Path 205063" d="M213.858,22.312c0,.083-11.735.15-26.208.15s-26.21-.067-26.21-.15,11.732-.15,26.21-.15,26.208.067,26.208.15" fill="#e1e1e1"/>
        <path id="Path_205064" data-name="Path 205064" d="M195.184,26.958a1.541,1.541,0,0,1-.343.03l-.983.028-3.616.048-11.929.043-11.931-.043-3.616-.048-.983-.028a1.541,1.541,0,0,1-.343-.03,1.541,1.541,0,0,1,.343-.03l.983-.028,3.616-.048,11.931-.043,11.929.043,3.616.048.983.028a1.541,1.541,0,0,1,.343.03" fill="#e1e1e1"/>
        <path id="Path_205065" data-name="Path 205065" d="M475.133,51.33a3.527,3.527,0,0,1,.535-.608l1.552-1.559c1.321-1.3,3.163-3.09,5.212-5.045l.047-.044,0,.264c-2.066-1.919-3.919-3.668-5.248-4.947l-1.561-1.527a3.486,3.486,0,0,1-.539-.6,3.416,3.416,0,0,1,.634.493L477.4,39.2c1.373,1.231,3.254,2.95,5.32,4.868l.141.131-.139.133-.047.045c-2.049,1.955-3.919,3.71-5.285,4.968-.644.582-1.189,1.076-1.63,1.476a3.533,3.533,0,0,1-.632.505" fill="#e1e1e1"/>
        <path id="Path_205066" data-name="Path 205066" d="M459.192,37.268a3.5,3.5,0,0,1-.535.607l-1.552,1.56c-1.321,1.305-3.163,3.09-5.212,5.044l-.047.045,0-.264c2.066,1.919,3.919,3.668,5.248,4.947l1.561,1.527a3.484,3.484,0,0,1,.539.6,3.415,3.415,0,0,1-.634-.493l-1.638-1.443c-1.373-1.231-3.254-2.95-5.32-4.868l-.141-.131.139-.133.047-.045c2.049-1.955,3.919-3.71,5.285-4.968.644-.582,1.189-1.076,1.63-1.476a3.532,3.532,0,0,1,.632-.5" fill="#e1e1e1"/>
        <path id="Path_205067" data-name="Path 205067" d="M463.284,54.642c-.093-.035,1.58-4.738,3.737-10.5S471,33.725,471.1,33.76s-1.58,4.738-3.737,10.505-3.981,10.412-4.074,10.377" fill="#e1e1e1"/>
        <path id="Path_205068" data-name="Path 205068" d="M493.248,64.706s-.011-.273-.016-.787-.01-1.279-.018-2.262c-.009-1.987-.022-4.881-.038-8.569-.019-7.378-.046-17.92-.078-30.632l.15.151-51.848.03h-.005l.18-.181c-.007,15.273-.013,29.7-.019,42.25l-.161-.161,37.442.08,10.613.043,2.817.019.728.01c.165,0,.253.009.253.009s-.076.006-.234.009l-.711.01-2.785.019-10.576.043-37.547.08h-.16v-.162c-.006-12.553-.013-26.977-.02-42.25v-.181h.185l51.848.03h.151v.151c-.032,12.751-.059,23.327-.078,30.727-.016,3.673-.029,6.556-.038,8.535-.008.97-.013,1.717-.017,2.234s-.017.754-.017.754" fill="#e1e1e1"/>
        <path id="Path_205069" data-name="Path 205069" d="M493.654,28.725c0,.1-11.7.181-26.14.181s-26.142-.081-26.142-.181,11.7-.181,26.142-.181,26.14.081,26.14.181" fill="#e1e1e1"/>
        <path id="Path_205070" data-name="Path 205070" d="M445.627,25.641a.7.7,0,1,1-.7-.7.7.7,0,0,1,.7.7" fill="#e1e1e1"/>
        <path id="Path_205071" data-name="Path 205071" d="M448.172,25.641a.7.7,0,1,1-.7-.7.7.7,0,0,1,.7.7" fill="#e1e1e1"/>
        <path id="Path_205072" data-name="Path 205072" d="M450.716,25.641a.7.7,0,1,1-.7-.7.7.7,0,0,1,.7.7" fill="#e1e1e1"/>
        <path id="Path_205073" data-name="Path 205073" d="M419.363,303.481H70.392a14.567,14.567,0,0,1-14.566-14.567V61.195a7.751,7.751,0,0,1,7.751-7.751H427.19a6.739,6.739,0,0,1,6.74,6.74v228.73a14.567,14.567,0,0,1-14.567,14.567" fill="#375a64"/>
        <path id="Path_205074" data-name="Path 205074" d="M435.94,306.866H53.734a13.721,13.721,0,0,1-13.721-13.721v-8.157H449.662v8.157a13.722,13.722,0,0,1-13.722,13.721" fill="#375a64"/>
        <rect id="Rectangle_45160" data-name="Rectangle 45160" width="356.749" height="211.152" transform="translate(65.975 63.378)" fill="#e1e1e1"/>
        <path id="Path_205075" data-name="Path 205075" d="M207.6,284.988l5.083,8.086h71.53l4.72-8.086Z" fill="#1a2e35"/>
        <rect id="Rectangle_45161" data-name="Rectangle 45161" width="336.44" height="198.919" transform="translate(76.56 75.611)" fill="#1a2e35"/>
        <path id="Path_205076" data-name="Path 205076" d="M102.372,268.693c-.174,0-.316-42.366-.316-94.615,0-52.268.142-94.625.316-94.625s.316,42.357.316,94.625c0,52.249-.142,94.615-.316,94.615" fill="#e1e1e1"/>
        <path id="Path_205077" data-name="Path 205077" d="M95.586,96.606c0,.174-2.447.316-5.465.316s-5.465-.142-5.465-.316,2.446-.316,5.465-.316,5.465.142,5.465.316" fill="#e1e1e1"/>
        <path id="Path_205078" data-name="Path 205078" d="M96.007,85.868c0,.174-2.447.316-5.465.316s-5.466-.142-5.466-.316,2.447-.316,5.466-.316,5.465.142,5.465.316" fill="#e1e1e1"/>
        <path id="Path_205079" data-name="Path 205079" d="M95.586,108.181c0,.174-2.447.316-5.465.316s-5.465-.142-5.465-.316,2.446-.316,5.465-.316,5.465.142,5.465.316" fill="#e1e1e1"/>
        <path id="Path_205080" data-name="Path 205080" d="M95.586,119.755c0,.174-2.447.316-5.465.316s-5.465-.142-5.465-.316,2.446-.316,5.465-.316,5.465.142,5.465.316" fill="#e1e1e1"/>
        <path id="Path_205081" data-name="Path 205081" d="M95.586,131.329c0,.174-2.447.316-5.465.316s-5.465-.142-5.465-.316,2.446-.316,5.465-.316,5.465.142,5.465.316" fill="#e1e1e1"/>
        <path id="Path_205082" data-name="Path 205082" d="M95.586,142.9c0,.174-2.447.316-5.465.316s-5.465-.142-5.465-.316,2.446-.316,5.465-.316,5.465.142,5.465.316" fill="#e1e1e1"/>
        <path id="Path_205083" data-name="Path 205083" d="M95.586,154.478c0,.174-2.447.316-5.465.316s-5.465-.142-5.465-.316,2.446-.316,5.465-.316,5.465.142,5.465.316" fill="#e1e1e1"/>
        <path id="Path_205084" data-name="Path 205084" d="M95.586,166.052c0,.174-2.447.316-5.465.316s-5.465-.142-5.465-.316,2.446-.316,5.465-.316,5.465.142,5.465.316" fill="#e1e1e1"/>
        <path id="Path_205085" data-name="Path 205085" d="M95.586,177.626c0,.174-2.447.316-5.465.316s-5.465-.142-5.465-.316,2.446-.316,5.465-.316,5.465.142,5.465.316" fill="#e1e1e1"/>
        <path id="Path_205086" data-name="Path 205086" d="M95.586,189.2c0,.174-2.447.316-5.465.316s-5.465-.142-5.465-.316,2.446-.316,5.465-.316,5.465.142,5.465.316" fill="#e1e1e1"/>
        <path id="Path_205087" data-name="Path 205087" d="M95.586,200.775c0,.174-2.447.316-5.465.316s-5.465-.142-5.465-.316,2.446-.316,5.465-.316,5.465.142,5.465.316" fill="#e1e1e1"/>
        <path id="Path_205088" data-name="Path 205088" d="M95.586,212.349c0,.174-2.447.316-5.465.316s-5.465-.142-5.465-.316,2.446-.316,5.465-.316,5.465.142,5.465.316" fill="#e1e1e1"/>
        <path id="Path_205089" data-name="Path 205089" d="M95.586,223.923c0,.174-2.447.316-5.465.316s-5.465-.142-5.465-.316,2.446-.316,5.465-.316,5.465.142,5.465.316" fill="#e1e1e1"/>
        <path id="Path_205090" data-name="Path 205090" d="M95.586,235.5c0,.174-2.447.316-5.465.316s-5.465-.142-5.465-.316,2.446-.316,5.465-.316,5.465.142,5.465.316" fill="#e1e1e1"/>
        <path id="Path_205091" data-name="Path 205091" d="M95.586,247.072c0,.174-2.447.316-5.465.316s-5.465-.142-5.465-.316,2.446-.316,5.465-.316,5.465.142,5.465.316" fill="#e1e1e1"/>
        <path id="Path_205092" data-name="Path 205092" d="M95.586,258.646c0,.174-2.447.316-5.465.316s-5.465-.142-5.465-.316,2.446-.316,5.465-.316,5.465.142,5.465.316" fill="#e1e1e1"/>
        <path id="Path_205093" data-name="Path 205093" d="M139.4,95.924c0,.174-6.351.316-14.183.316s-14.183-.142-14.183-.316,6.349-.316,14.183-.316,14.183.142,14.183.316" fill="#4dd0e1"/>
        <path id="Path_205094" data-name="Path 205094" d="M139.4,258.646c0,.174-6.351.316-14.183.316s-14.183-.142-14.183-.316,6.349-.316,14.183-.316,14.183.142,14.183.316" fill="#4dd0e1"/>
        <path id="Path_205095" data-name="Path 205095" d="M178.9,119.755c0,.174-11.882.316-26.535.316s-26.539-.142-26.539-.316,11.88-.316,26.539-.316,26.535.142,26.535.316" fill="#4dd0e1"/>
        <path id="Path_205096" data-name="Path 205096" d="M240.269,119.755c0,.174-11.882.316-26.536.316s-26.538-.142-26.538-.316,11.88-.316,26.538-.316,26.536.142,26.536.316" fill="#e1e1e1"/>
        <path id="Path_205097" data-name="Path 205097" d="M216.814,131.329c0,.174-17.511.316-39.106.316s-39.11-.142-39.11-.316,17.507-.316,39.11-.316,39.106.142,39.106.316" fill="#e1e1e1"/>
        <path id="Path_205098" data-name="Path 205098" d="M216.814,142.9c0,.174-17.511.316-39.106.316s-39.11-.142-39.11-.316,17.507-.316,39.11-.316,39.106.142,39.106.316" fill="#e1e1e1"/>
        <path id="Path_205099" data-name="Path 205099" d="M270.653,177.626c0,.174-17.511.316-39.106.316s-39.11-.142-39.11-.316,17.507-.316,39.11-.316,39.106.142,39.106.316" fill="#e1e1e1"/>
        <path id="Path_205100" data-name="Path 205100" d="M247.421,154.478c0,.174-17.511.316-39.106.316s-39.11-.142-39.11-.316,17.507-.316,39.11-.316,39.106.142,39.106.316" fill="#e1e1e1"/>
        <path id="Path_205101" data-name="Path 205101" d="M343,154.478c0,.174-17.511.316-39.106.316s-39.11-.142-39.11-.316,17.507-.316,39.11-.316S343,154.3,343,154.478" fill="#e1e1e1"/>
        <path id="Path_205102" data-name="Path 205102" d="M309.761,131.329c0,.174-17.511.316-39.106.316s-39.11-.142-39.11-.316,17.507-.316,39.11-.316,39.106.142,39.106.316" fill="#fafafa"/>
        <path id="Path_205103" data-name="Path 205103" d="M363.79,177.626c0,.174-17.511.316-39.106.316s-39.11-.142-39.11-.316,17.507-.316,39.11-.316,39.106.142,39.106.316" fill="#fafafa"/>
        <path id="Path_205104" data-name="Path 205104" d="M353,142.9c0,.174-27.191.316-60.725.316s-60.73-.142-60.73-.316,27.185-.316,60.73-.316S353,142.729,353,142.9" fill="#375a64"/>
        <path id="Path_205105" data-name="Path 205105" d="M139.4,108.181c0,.174-6.351.316-14.183.316s-14.183-.142-14.183-.316,6.349-.316,14.183-.316,14.183.142,14.183.316" fill="#fafafa"/>
        <path id="Path_205106" data-name="Path 205106" d="M139.4,247.072c0,.174-6.351.316-14.183.316s-14.183-.142-14.183-.316,6.349-.316,14.183-.316,14.183.142,14.183.316" fill="#fafafa"/>
        <path id="Path_205107" data-name="Path 205107" d="M153.449,154.478c0,.174-6.351.316-14.183.316s-14.183-.142-14.183-.316,6.349-.316,14.183-.316,14.183.142,14.183.316" fill="#fafafa"/>
        <path id="Path_205108" data-name="Path 205108" d="M380.793,154.478c0,.174-6.35.316-14.182.316s-14.184-.142-14.184-.316,6.349-.316,14.184-.316,14.182.142,14.182.316" fill="#4dd0e1"/>
        <path id="Path_205109" data-name="Path 205109" d="M178.9,200.707c0,.174-11.882.316-26.535.316s-26.539-.142-26.539-.316,11.88-.316,26.539-.316,26.535.142,26.535.316" fill="#4dd0e1"/>
        <path id="Path_205110" data-name="Path 205110" d="M240.269,200.707c0,.174-11.882.316-26.536.316s-26.538-.142-26.538-.316,11.88-.316,26.538-.316,26.536.142,26.536.316" fill="#e1e1e1"/>
        <path id="Path_205111" data-name="Path 205111" d="M216.814,212.281c0,.174-17.511.316-39.106.316s-39.11-.142-39.11-.316,17.507-.316,39.11-.316,39.106.142,39.106.316" fill="#e1e1e1"/>
        <path id="Path_205112" data-name="Path 205112" d="M216.814,223.855c0,.174-17.511.316-39.106.316s-39.11-.142-39.11-.316,17.507-.316,39.11-.316,39.106.142,39.106.316" fill="#e1e1e1"/>
        <path id="Path_205113" data-name="Path 205113" d="M247.421,235.429c0,.174-17.511.316-39.106.316s-39.11-.142-39.11-.316,17.507-.316,39.11-.316,39.106.142,39.106.316" fill="#e1e1e1"/>
        <path id="Path_205114" data-name="Path 205114" d="M343,235.429c0,.174-17.511.316-39.106.316s-39.11-.142-39.11-.316,17.507-.316,39.11-.316,39.106.142,39.106.316" fill="#e1e1e1"/>
        <path id="Path_205115" data-name="Path 205115" d="M309.761,212.281c0,.174-17.511.316-39.106.316s-39.11-.142-39.11-.316,17.507-.316,39.11-.316,39.106.142,39.106.316" fill="#fafafa"/>
        <path id="Path_205116" data-name="Path 205116" d="M353,223.855c0,.174-27.191.316-60.725.316s-60.73-.142-60.73-.316,27.185-.316,60.73-.316,60.725.142,60.725.316" fill="#375a64"/>
        <path id="Path_205117" data-name="Path 205117" d="M153.449,235.429c0,.174-6.351.316-14.183.316s-14.183-.142-14.183-.316,6.349-.316,14.183-.316,14.183.142,14.183.316" fill="#fafafa"/>
        <path id="Path_205118" data-name="Path 205118" d="M380.793,235.429c0,.174-6.35.316-14.182.316s-14.184-.142-14.184-.316,6.349-.316,14.184-.316,14.182.142,14.182.316" fill="#4dd0e1"/>
        <path id="Path_205119" data-name="Path 205119" d="M388.352,292.3c0,.1-72.429.187-161.754.187-89.356,0-161.769-.083-161.769-.187s72.413-.187,161.769-.187c89.325,0,161.754.084,161.754.187" fill="#1a2e35"/>
        <path id="Path_205120" data-name="Path 205120" d="M426.207,33.314H233.342V152.757H395.7l10.052,23.126,8.911-23.126h11.542Z" fill="#fafafa"/>
        <path id="Path_205121" data-name="Path 205121" d="M426.207,33.314c0,1.158.055,46.031.143,119.443v.144h-.143l-11.543.006.141-.1c-2.791,7.248-5.8,15.062-8.9,23.129l-.139.363-.156-.357c-3.151-7.245-6.56-15.079-10.059-23.122l.154.1-146.826.02H233.155v-.187c.006-42.568.011-82.967.016-119.443v-.171h.171l192.865.171-192.865.171.171-.171c.005,36.476.01,76.875.016,119.443l-.187-.187h15.534l146.826.02h.109l.044.1c3.494,8.045,6.9,15.881,10.045,23.128l-.3.007c3.112-8.065,6.125-15.876,8.922-23.122l.037-.1h.1l11.543.005-.144.144c.087-73.412.143-118.286.144-119.443" fill="#1a2e35"/>
        <path id="Path_205122" data-name="Path 205122" d="M426.107,44.97c0,.146-43.091.263-96.233.263-53.16,0-96.241-.117-96.241-.263s43.081-.263,96.241-.263c53.142,0,96.233.118,96.233.263" fill="#1a2e35"/>
        <path id="Path_205123" data-name="Path 205123" d="M243.592,39.693a1.58,1.58,0,1,1-1.581-1.581,1.581,1.581,0,0,1,1.581,1.581" fill="#1a2e35"/>
        <path id="Path_205124" data-name="Path 205124" d="M249.313,39.693a1.581,1.581,0,1,1-1.582-1.581,1.582,1.582,0,0,1,1.582,1.581" fill="#1a2e35"/>
        <path id="Path_205125" data-name="Path 205125" d="M255.033,39.693a1.581,1.581,0,1,1-1.581-1.581,1.581,1.581,0,0,1,1.581,1.581" fill="#1a2e35"/>
        <path id="Path_205126" data-name="Path 205126" d="M254.378,66.337,249.8,68.1l4.581,1.768v1.071L248.6,68.659V67.55l5.781-2.284Z" fill="#1a2e35"/>
        <path id="Path_205127" data-name="Path 205127" d="M259.143,61.756h1.122L256.008,73.91h-1.124Z" fill="#1a2e35"/>
        <path id="Path_205128" data-name="Path 205128" d="M266.435,67.55v1.109l-5.781,2.284V69.872l4.594-1.768-4.594-1.767V65.266Z" fill="#1a2e35"/>
        <path id="Path_205129" data-name="Path 205129" d="M267.9,71.808a.862.862,0,0,1,.877-.877.849.849,0,0,1,.852.877.861.861,0,0,1-.852.891.873.873,0,0,1-.877-.891" fill="#1a2e35"/>
        <path id="Path_205130" data-name="Path 205130" d="M270.827,71.808a.862.862,0,0,1,.877-.877.849.849,0,0,1,.852.877.861.861,0,0,1-.852.891.873.873,0,0,1-.877-.891" fill="#1a2e35"/>
        <path id="Path_205131" data-name="Path 205131" d="M273.757,71.808a.862.862,0,0,1,.877-.877.849.849,0,0,1,.852.877.861.861,0,0,1-.852.891.873.873,0,0,1-.877-.891" fill="#1a2e35"/>
        <path id="Path_205132" data-name="Path 205132" d="M376.165,83.391c0,.145-28.511.263-63.672.263s-63.679-.118-63.679-.263,28.505-.263,63.679-.263,63.672.118,63.672.263" fill="#375a64"/>
        <path id="Path_205133" data-name="Path 205133" d="M396.963,83.768a71.022,71.022,0,0,1-12.236,0,71.291,71.291,0,0,1,12.236,0" fill="#1a2e35"/>
        <path id="Path_205134" data-name="Path 205134" d="M414.846,83.768a84.708,84.708,0,0,1-13.365,0,85.029,85.029,0,0,1,13.365,0" fill="#1a2e35"/>
        <path id="Path_205135" data-name="Path 205135" d="M329.907,94.121c0,.145-18.122.263-40.471.263s-40.474-.118-40.474-.263,18.118-.262,40.474-.262,40.471.116,40.471.262" fill="#375a64"/>
        <path id="Path_205136" data-name="Path 205136" d="M329.328,134.159c0,.145-18.122.263-40.471.263s-40.474-.118-40.474-.263,18.118-.263,40.474-.263,40.471.117,40.471.263" fill="#375a64"/>
        <path id="Path_205137" data-name="Path 205137" d="M359.314,94.121c0,.145-4.931.263-11.012.263s-11.013-.118-11.013-.263,4.93-.262,11.013-.262,11.012.116,11.012.262" fill="#1a2e35"/>
        <path id="Path_205138" data-name="Path 205138" d="M359.084,134.159c0,.145-4.931.263-11.012.263s-11.013-.118-11.013-.263,4.93-.263,11.013-.263,11.012.117,11.012.263" fill="#1a2e35"/>
        <path id="Path_205139" data-name="Path 205139" d="M254.274,99.58a14.3,14.3,0,0,1-5.459,0,14.349,14.349,0,0,1,5.459,0" fill="#ff735d"/>
        <path id="Path_205140" data-name="Path 205140" d="M273.1,99.693a33.679,33.679,0,0,1-5.929.263,33.677,33.677,0,0,1-5.93-.263,33.676,33.676,0,0,1,5.93-.263,33.678,33.678,0,0,1,5.929.263" fill="#1a2e35"/>
        <path id="Path_205141" data-name="Path 205141" d="M285.146,99.693a49.241,49.241,0,0,1-10.165,0,49.241,49.241,0,0,1,10.165,0" fill="#1a2e35"/>
        <path id="Path_205142" data-name="Path 205142" d="M300.394,99.693a51.075,51.075,0,0,1-10.353,0,51.075,51.075,0,0,1,10.353,0" fill="#1a2e35"/>
        <path id="Path_205143" data-name="Path 205143" d="M313.759,99.693a42.235,42.235,0,0,1-9.412,0,42.235,42.235,0,0,1,9.412,0" fill="#1a2e35"/>
        <path id="Path_205144" data-name="Path 205144" d="M358,99.693c0,.145-9.271.263-20.706.263s-20.708-.118-20.708-.263,9.27-.263,20.708-.263S358,99.548,358,99.693" fill="#1a2e35"/>
        <path id="Path_205145" data-name="Path 205145" d="M253.521,106.545a10.657,10.657,0,0,1-4.706,0,10.7,10.7,0,0,1,4.706,0" fill="#ff735d"/>
        <path id="Path_205146" data-name="Path 205146" d="M253.709,113.7a11.515,11.515,0,0,1-4.894,0,11.515,11.515,0,0,1,4.894,0" fill="#ff735d"/>
        <path id="Path_205147" data-name="Path 205147" d="M253.709,121.793a11.515,11.515,0,0,1-4.894,0,11.515,11.515,0,0,1,4.894,0" fill="#ff735d"/>
        <path id="Path_205148" data-name="Path 205148" d="M298.323,121.417c0,.145-8.176.263-18.259.263s-18.26-.118-18.26-.263,8.174-.263,18.26-.263,18.259.118,18.259.263" fill="#1a2e35"/>
        <path id="Path_205149" data-name="Path 205149" d="M295.123,113.7c0,.146-7.8.263-17.412.263s-17.413-.117-17.413-.263,7.795-.263,17.413-.263,17.412.118,17.412.263" fill="#1a2e35"/>
        <path id="Path_205150" data-name="Path 205150" d="M379.268,106.169c0,.145-26.55.263-59.294.263s-59.3-.118-59.3-.263,26.545-.263,59.3-.263,59.294.118,59.294.263" fill="#1a2e35"/>
        <path id="Path_205151" data-name="Path 205151" d="M438.057,82.16v101.5l-15.782,13.168h82.538V82.16Z" fill="#fafafa"/>
        <path id="Path_205152" data-name="Path 205152" d="M438.057,82.16s.39-.01,1.167-.015l3.451-.015,13.291-.036,48.847-.075h.141v.141c.012,30.638.028,70.654.046,114.673v.187H493.238l-70.963-.014h-.481l.369-.308q8.181-6.819,15.788-13.161l-.059.127c.035-30.348.063-55.74.084-73.552.018-8.885.033-15.878.043-20.657.008-2.377.015-4.2.019-5.441q.006-.914.01-1.391c0-.311.009-.464.009-.464s.006.166.009.483.006.792.01,1.409c0,1.245.011,3.081.019,5.472.01,4.788.025,11.794.044,20.694.02,17.788.048,43.143.083,73.447v.077l-.059.049-15.776,13.176-.112-.308,70.963-.013h11.575l-.187.187c.017-44.019.033-84.035.045-114.673l.142.141-48.761-.075L442.73,82.19l-3.477-.015c-.786-.005-1.2-.015-1.2-.015" fill="#1a2e35"/>
        <path id="Path_205153" data-name="Path 205153" d="M444.12,87.21a1.352,1.352,0,1,1-1.353-1.353,1.353,1.353,0,0,1,1.353,1.353" fill="#1a2e35"/>
        <path id="Path_205154" data-name="Path 205154" d="M449.015,87.21a1.353,1.353,0,1,1-1.352-1.353,1.353,1.353,0,0,1,1.352,1.353" fill="#1a2e35"/>
        <path id="Path_205155" data-name="Path 205155" d="M453.91,87.21a1.353,1.353,0,1,1-1.353-1.353,1.353,1.353,0,0,1,1.353,1.353" fill="#1a2e35"/>
        <path id="Path_205156" data-name="Path 205156" d="M486.464,118.485c0,.12-8.463.216-18.9.216s-18.9-.1-18.9-.216,8.462-.216,18.9-.216,18.9.1,18.9.216" fill="#4dd0e1"/>
        <path id="Path_205157" data-name="Path 205157" d="M494.346,127.667c0,.12-10.3.216-23,.216s-23-.1-23-.216,10.3-.216,23-.216,23,.1,23,.216" fill="#4dd0e1"/>
        <path id="Path_205158" data-name="Path 205158" d="M496.219,161.927c0,.12-10.982.216-24.525.216s-24.528-.1-24.528-.216,10.98-.216,24.528-.216,24.525.1,24.525.216" fill="#4dd0e1"/>
        <path id="Path_205159" data-name="Path 205159" d="M452.207,132.338a12.734,12.734,0,0,1-4.671,0,12.734,12.734,0,0,1,4.671,0" fill="#4dd0e1"/>
        <path id="Path_205160" data-name="Path 205160" d="M468.315,132.435a59.7,59.7,0,0,1-10.148,0,59.7,59.7,0,0,1,10.148,0" fill="#4dd0e1"/>
        <path id="Path_205161" data-name="Path 205161" d="M478.625,132.435a43.9,43.9,0,0,1-8.7,0,43.9,43.9,0,0,1,8.7,0" fill="#4dd0e1"/>
        <path id="Path_205162" data-name="Path 205162" d="M451.563,138.3a9.492,9.492,0,0,1-4.027,0,9.492,9.492,0,0,1,4.027,0" fill="#4dd0e1"/>
        <path id="Path_205163" data-name="Path 205163" d="M451.724,144.419a10.259,10.259,0,0,1-4.188,0,10.258,10.258,0,0,1,4.188,0" fill="#4dd0e1"/>
        <path id="Path_205164" data-name="Path 205164" d="M451.724,151.346a10.258,10.258,0,0,1-4.188,0,10.259,10.259,0,0,1,4.188,0" fill="#4dd0e1"/>
        <path id="Path_205165" data-name="Path 205165" d="M489.9,151.024c0,.12-7,.216-15.624.216s-15.626-.1-15.626-.216,6.995-.216,15.626-.216,15.624.1,15.624.216" fill="#4dd0e1"/>
        <path id="Path_205166" data-name="Path 205166" d="M487.162,144.419c0,.119-6.672.216-14.9.216s-14.9-.1-14.9-.216,6.67-.216,14.9-.216,14.9.1,14.9.216" fill="#4dd0e1"/>
        <path id="Path_205167" data-name="Path 205167" d="M454.774,171.073a10.258,10.258,0,0,1-4.188,0,10.258,10.258,0,0,1,4.188,0" fill="#4dd0e1"/>
        <path id="Path_205168" data-name="Path 205168" d="M454.774,178a10.258,10.258,0,0,1-4.188,0,10.258,10.258,0,0,1,4.188,0" fill="#4dd0e1"/>
        <path id="Path_205169" data-name="Path 205169" d="M492.95,177.678c0,.119-7,.216-15.624.216s-15.626-.1-15.626-.216,6.995-.216,15.626-.216,15.624.1,15.624.216" fill="#4dd0e1"/>
        <path id="Path_205170" data-name="Path 205170" d="M490.212,171.073c0,.12-6.671.216-14.9.216s-14.9-.1-14.9-.216,6.67-.216,14.9-.216,14.9.1,14.9.216" fill="#4dd0e1"/>
        <path id="Path_205171" data-name="Path 205171" d="M498.241,137.976c0,.12-9.08.216-20.278.216s-20.279-.1-20.279-.216,9.078-.216,20.279-.216,20.278.1,20.278.216" fill="#4dd0e1"/>
        <path id="Path_205172" data-name="Path 205172" d="M504.185,92.51c0,.12-14.658.216-32.736.216s-32.739-.1-32.739-.216,14.655-.216,32.739-.216,32.736.1,32.736.216" fill="#1a2e35"/>
        <path id="Path_205173" data-name="Path 205173" d="M462.471,112.948a110.762,110.762,0,0,1-13.828,0,110.766,110.766,0,0,1,13.828,0" fill="#4dd0e1"/>
        <path id="Path_205174" data-name="Path 205174" d="M454.644,100.424a24.732,24.732,0,0,1-6.523,0,24.731,24.731,0,0,1,6.523,0" fill="#4dd0e1"/>
        <path id="Path_205175" data-name="Path 205175" d="M396.869,248.237l14.5-14.331-25.85-44.267a24.957,24.957,0,0,0-9.921-6.9l-9.1-3.46-22.631-4.152-16.068,6.328a9.607,9.607,0,0,0-6.02,10.072l4.2,35.381,2.476,46.07,58.388-10.128-5.875-17.04.2-26.566Z" fill="#feca2e"/>
        <path id="Path_205176" data-name="Path 205176" d="M381.5,244.679c.137,0,.172-9.2.079-20.554s-.279-20.552-.415-20.551-.172,9.2-.079,20.555.279,20.551.415,20.55" fill="#1a2e35"/>
        <path id="Path_205177" data-name="Path 205177" d="M379.359,251.432l-35.28-14.2a8.062,8.062,0,0,1-5.027-6.865L336.47,196.54s.3-14.385-8.68-15.086l-5.112,2.014c-6.607,3.508-8.243,13.127-7.344,20.553,1.278,10.553,1.81,25.486,3.24,34.644,1.17,7.492,5.669,13.418,12.794,16.012l43.453,9.407Z" fill="#feca2e"/>
        <path id="Path_205178" data-name="Path 205178" d="M336.975,201.7a4.913,4.913,0,0,1,.111.775q.084.826.227,2.228c.18,1.983.434,4.774.746,8.2.3,3.479.653,7.6,1.046,12.17q.144,1.719.295,3.518a26.483,26.483,0,0,0,.451,3.62,6.007,6.007,0,0,0,1.754,3.169,11.9,11.9,0,0,0,3.255,2.026c9.728,4.209,18.694,7.685,25.2,10.123l7.727,2.846,2.1.775a4.808,4.808,0,0,1,.722.3,4.772,4.772,0,0,1-.753-.209l-2.131-.691c-1.846-.612-4.508-1.529-7.781-2.707-6.546-2.361-15.526-5.785-25.283-10.007a12.311,12.311,0,0,1-3.383-2.114,6.474,6.474,0,0,1-1.88-3.406,26.419,26.419,0,0,1-.45-3.684q-.143-1.8-.28-3.52c-.355-4.575-.675-8.7-.945-12.181-.249-3.435-.452-6.23-.6-8.216q-.087-1.405-.139-2.235a4.919,4.919,0,0,1-.016-.782" fill="#1a2e35"/>
        <path id="Path_205179" data-name="Path 205179" d="M316.762,220.088a1.7,1.7,0,0,1,.07.454c.032.353.07.784.117,1.306.1,1.2.246,2.827.418,4.8.193,2.024.439,4.433.791,7.1a67.422,67.422,0,0,0,1.593,8.568,12.773,12.773,0,0,0,1.721,4.085,23.374,23.374,0,0,0,2.636,3.238,22.565,22.565,0,0,0,5.645,4.236,21.208,21.208,0,0,0,6.2,2.028,1.608,1.608,0,0,1-.459-.01,9.739,9.739,0,0,1-1.3-.168,17.229,17.229,0,0,1-4.584-1.553,22.113,22.113,0,0,1-5.8-4.227,23.436,23.436,0,0,1-2.709-3.285,13.089,13.089,0,0,1-1.793-4.218,63.8,63.8,0,0,1-1.57-8.638c-.329-2.676-.541-5.093-.692-7.125s-.227-3.678-.269-4.816c-.011-.525-.02-.958-.028-1.312a1.63,1.63,0,0,1,.025-.459" fill="#1a2e35"/>
        <path id="Path_205180" data-name="Path 205180" d="M331.849,243.757a5.184,5.184,0,0,1,.642-1.88,12.127,12.127,0,0,1,7.157-6.113,5.159,5.159,0,0,1,1.959-.34c.013.079-.728.225-1.849.655a13.724,13.724,0,0,0-6.974,5.956c-.6,1.04-.86,1.748-.935,1.722" fill="#1a2e35"/>
        <g id="Group_147129" data-name="Group 147129" opacity="0.3">
          <g id="Group_147128" data-name="Group 147128">
            <g id="Group_147127" data-name="Group 147127" clip-path="url(#clip-path-9)">
              <path id="Path_205181" data-name="Path 205181" d="M369.22,247.4c-3.772-2.131-7.464-3.768-11.408-5.561s-7.808-4.093-10.39-7.573c-4.868-6.562-4.314-16.034-9.3-22.509q.489,6.531.977,13.063c.3,3.991-.314,7.938,2.257,10.65,2.165,2.285,6.388,4.037,9.378,5.023,6.007,1.982,12.476,4.925,18.484,6.907"/>
            </g>
          </g>
        </g>
        <g id="Group_147132" data-name="Group 147132" opacity="0.3">
          <g id="Group_147131" data-name="Group 147131">
            <g id="Group_147130" data-name="Group 147130" clip-path="url(#clip-path-10)">
              <path id="Path_205182" data-name="Path 205182" d="M381.167,206.065l3.052,18.825-2.889-5.333Z"/>
            </g>
          </g>
        </g>
        <path id="Path_205183" data-name="Path 205183" d="M335.911,194.451a3.454,3.454,0,0,1-.817.063l-2.226.056c-1.878.047-4.47.142-7.328.346s-5.438.482-7.3.7l-2.211.261a3.466,3.466,0,0,1-.818.055,3.445,3.445,0,0,1,.8-.2c.516-.1,1.267-.236,2.2-.38,1.86-.289,4.445-.607,7.313-.814s5.47-.258,7.352-.237c.942.01,1.7.032,2.229.063a3.455,3.455,0,0,1,.816.083" fill="#375a64"/>
        <path id="Path_205184" data-name="Path 205184" d="M336.915,212.466c.009.1-4.616.57-10.328,1.042s-10.351.772-10.359.668,4.615-.569,10.329-1.042,10.35-.771,10.358-.668" fill="#375a64"/>
        <path id="Path_205185" data-name="Path 205185" d="M338.615,231.4a3.666,3.666,0,0,1-.732.418c-.48.252-1.192.582-2.085.958a43.291,43.291,0,0,1-14.72,3.3c-.969.04-1.753.045-2.3.022a3.634,3.634,0,0,1-.84-.066,3.648,3.648,0,0,1,.839-.08c.539-.022,1.319-.067,2.28-.141a51.527,51.527,0,0,0,14.638-3.277c.9-.343,1.625-.634,2.123-.844a3.686,3.686,0,0,1,.792-.286" fill="#375a64"/>
        <path id="Path_205186" data-name="Path 205186" d="M351.159,241.117a14.08,14.08,0,0,0-5.934,6.574,3.482,3.482,0,0,1,.389-1.289,10.286,10.286,0,0,1,4.3-4.767,3.5,3.5,0,0,1,1.242-.518" fill="#375a64"/>
        <path id="Path_205187" data-name="Path 205187" d="M363.919,253.587a13.8,13.8,0,0,1,3.769-6.882c.087.072-1.022,1.447-2.055,3.347s-1.606,3.569-1.714,3.535" fill="#375a64"/>
        <path id="Path_205188" data-name="Path 205188" d="M343.811,183.856a69.738,69.738,0,0,1-10.045,1.816,69.371,69.371,0,0,1,10.045-1.816" fill="#375a64"/>
        <path id="Path_205189" data-name="Path 205189" d="M377.585,185.393a128.47,128.47,0,0,1-13.793-1.637,129.238,129.238,0,0,1,13.793,1.637" fill="#375a64"/>
        <path id="Path_205190" data-name="Path 205190" d="M380.469,201.1a1.924,1.924,0,0,1-.442.029l-1.266.01-4.655-.006c-3.93,0-9.358.03-15.351.182s-11.419.4-15.344.607l-4.648.245-1.264.055a2.006,2.006,0,0,1-.443-.006,1.921,1.921,0,0,1,.437-.07l1.26-.125c1.1-.1,2.681-.228,4.642-.364,3.923-.273,9.35-.561,15.35-.716s11.432-.144,15.364-.073c1.965.035,3.556.079,4.655.125l1.265.06a1.942,1.942,0,0,1,.44.047" fill="#375a64"/>
        <path id="Path_205191" data-name="Path 205191" d="M380.882,220.994c.007.1-9.249.8-20.671,1.549s-20.69,1.278-20.7,1.174,9.247-.8,20.673-1.548,20.688-1.278,20.695-1.175" fill="#375a64"/>
        <path id="Path_205192" data-name="Path 205192" d="M379.9,238.518a3.693,3.693,0,0,1-.779.333c-.509.192-1.252.45-2.177.752-1.848.6-4.428,1.361-7.314,2.056s-5.531,1.192-7.452,1.494c-.961.151-1.74.259-2.281.319a3.769,3.769,0,0,1-.845.058,3.706,3.706,0,0,1,.823-.2l2.257-.436c1.9-.368,4.531-.906,7.41-1.6s5.46-1.407,7.325-1.946l2.209-.637a3.666,3.666,0,0,1,.824-.194" fill="#375a64"/>
        <path id="Path_205193" data-name="Path 205193" d="M394.7,206.752a130.65,130.65,0,0,1-13.535,3.5,130.159,130.159,0,0,1,13.535-3.5" fill="#375a64"/>
        <path id="Path_205194" data-name="Path 205194" d="M387.643,193.3a25.124,25.124,0,0,1-6.023,1.084,25.018,25.018,0,0,1,6.023-1.084" fill="#375a64"/>
        <path id="Path_205195" data-name="Path 205195" d="M337.081,197.479c-.073.013-.183-1.2-.842-3.005a15.145,15.145,0,0,0-10.694-9.61c-1.87-.461-3.082-.442-3.077-.516a3.206,3.206,0,0,1,.846-.032,13.063,13.063,0,0,1,2.291.29,14.656,14.656,0,0,1,10.885,9.781,12.94,12.94,0,0,1,.532,2.247,3.225,3.225,0,0,1,.059.845" fill="#1a2e35"/>
        <path id="Path_205196" data-name="Path 205196" d="M379.116,187.883a59.962,59.962,0,0,1,1.243,6.58,59.7,59.7,0,0,1,.872,6.64,59.981,59.981,0,0,1-1.242-6.581,60.093,60.093,0,0,1-.873-6.639" fill="#1a2e35"/>
        <path id="Path_205197" data-name="Path 205197" d="M418.437,293.956s27.117,7.505,28.2,7.888c1.633.575,1.359,6.56-1.183,6.467-1.2-.044-20.829.731-23.309.576s-9.961-3.1-9.961-3.1Z" fill="#feca2e"/>
        <path id="Path_205198" data-name="Path 205198" d="M429.733,304.3a25.517,25.517,0,0,1,1.2-2.911,25.768,25.768,0,0,1,1.917-2.5,6.029,6.029,0,0,0-3.112,5.408" fill="#1a2e35"/>
        <path id="Path_205199" data-name="Path 205199" d="M426.906,303.021c.133.023.408-1.259,1.129-2.675s1.575-2.408,1.477-2.5a6.8,6.8,0,0,0-2.606,5.176" fill="#1a2e35"/>
        <path id="Path_205200" data-name="Path 205200" d="M424.254,302.311a9.516,9.516,0,0,1,2.111-5.4,5.09,5.09,0,0,0-2.111,5.4" fill="#1a2e35"/>
        <path id="Path_205201" data-name="Path 205201" d="M424.735,298.808a4.808,4.808,0,0,0,.291-2.018,9.517,9.517,0,0,0-.275-2.211,9.38,9.38,0,0,0-.4-1.259,1.512,1.512,0,0,0-.435-.664.723.723,0,0,0-.931.046,1.193,1.193,0,0,0-.361.767,5.313,5.313,0,0,0-.036.716,5.979,5.979,0,0,0,.168,1.327,8.032,8.032,0,0,0,.834,2.073,5.452,5.452,0,0,0,1.219,1.633c.062-.043-.393-.675-.934-1.781a8.864,8.864,0,0,1-.711-2.016,5.91,5.91,0,0,1-.131-1.239c.012-.417.006-.938.25-1.138a.264.264,0,0,1,.359-.03,1.15,1.15,0,0,1,.3.474,10.162,10.162,0,0,1,.411,1.2,10.9,10.9,0,0,1,.358,2.118c.08,1.228-.044,1.995.03,2.006" fill="#1a2e35"/>
        <path id="Path_205202" data-name="Path 205202" d="M424.7,298.532a3.789,3.789,0,0,0-1.75-.282,7.853,7.853,0,0,0-1.923.236,4.159,4.159,0,0,0-1.108.408,1.144,1.144,0,0,0-.614,1.239,1.355,1.355,0,0,0,.977.968,2.484,2.484,0,0,0,1.216,0,4.652,4.652,0,0,0,1.762-.867,4.747,4.747,0,0,0,1.261-1.241,11.863,11.863,0,0,0-1.445.978,4.8,4.8,0,0,1-1.663.72,2.138,2.138,0,0,1-1.006-.014.921.921,0,0,1-.66-.644.7.7,0,0,1,.4-.757,4.087,4.087,0,0,1,.985-.383,9.114,9.114,0,0,1,1.827-.32c1.061-.074,1.726.035,1.738-.038" fill="#1a2e35"/>
        <path id="Path_205203" data-name="Path 205203" d="M433.9,304.593a7.323,7.323,0,0,1,1.862-4.568,3.889,3.889,0,0,0-1.862,4.568" fill="#1a2e35"/>
        <path id="Path_205204" data-name="Path 205204" d="M414.979,305.845a5.609,5.609,0,0,0,1.049.493,23.2,23.2,0,0,0,3.017.936,43.079,43.079,0,0,0,10.353.981c4.064-.045,7.726-.23,10.382-.336l3.142-.167a5.554,5.554,0,0,0,1.15-.123,5.741,5.741,0,0,0-1.156-.053l-3.146.022-10.374.2a48.542,48.542,0,0,1-10.28-.84c-2.592-.533-4.106-1.2-4.137-1.116" fill="#1a2e35"/>
        <path id="Path_205205" data-name="Path 205205" d="M414.177,306.463c.037.063.779-.371,2.032-.92a9.44,9.44,0,0,1,5.131-.854,8.128,8.128,0,0,1,4.435,2.639,15.929,15.929,0,0,0,1.563,1.6,8.437,8.437,0,0,0-1.327-1.814,10.764,10.764,0,0,0-1.8-1.681,6.449,6.449,0,0,0-2.8-1.188,8.969,8.969,0,0,0-5.338,1.011,7.182,7.182,0,0,0-1.9,1.211" fill="#1a2e35"/>
        <path id="Path_205206" data-name="Path 205206" d="M386.343,287.661s-25.66,16.8-26.58,17.5c-1.382,1.044.2,6.016,2.6,5.155,1.133-.407,22.665-6.4,24.98-7.3s8.549-5.982,8.549-5.982Z" fill="#feca2e"/>
        <path id="Path_205207" data-name="Path 205207" d="M378.723,300.95a6.027,6.027,0,0,0-4.608-4.207,11.891,11.891,0,0,1,4.608,4.207" fill="#1a2e35"/>
        <path id="Path_205208" data-name="Path 205208" d="M381.027,298.87a6.794,6.794,0,0,0-4.055-4.14c-.065.118,1.059.792,2.166,1.934s1.77,2.268,1.889,2.206" fill="#1a2e35"/>
        <path id="Path_205209" data-name="Path 205209" d="M383.338,297.388a5.091,5.091,0,0,0-3.651-4.5,9.512,9.512,0,0,1,3.651,4.5" fill="#1a2e35"/>
        <path id="Path_205210" data-name="Path 205210" d="M381.816,294.2c.067-.033-.284-.727-.581-1.92a10.865,10.865,0,0,1-.3-2.127,10.027,10.027,0,0,1,.028-1.265,1.147,1.147,0,0,1,.139-.541.263.263,0,0,1,.351-.081c.293.117.446.615.584,1.009a5.98,5.98,0,0,1,.251,1.22,8.86,8.86,0,0,1-.065,2.136c-.18,1.219-.421,1.958-.349,1.981a5.465,5.465,0,0,0,.665-1.925,8.1,8.1,0,0,0,.166-2.229,5.984,5.984,0,0,0-.244-1.316,5.3,5.3,0,0,0-.251-.671,1.2,1.2,0,0,0-.577-.621.723.723,0,0,0-.9.239,1.509,1.509,0,0,0-.212.765,9.491,9.491,0,0,0,.407,3.512,4.818,4.818,0,0,0,.89,1.834" fill="#1a2e35"/>
        <path id="Path_205211" data-name="Path 205211" d="M381.764,293.923c.033.066.634-.239,1.668-.491a9.107,9.107,0,0,1,1.838-.251,4.1,4.1,0,0,1,1.053.067.7.7,0,0,1,.614.6.919.919,0,0,1-.433.815,2.138,2.138,0,0,1-.954.319,4.812,4.812,0,0,1-1.8-.181,11.733,11.733,0,0,0-1.673-.493,4.772,4.772,0,0,0,1.578.8,4.675,4.675,0,0,0,1.942.291,2.494,2.494,0,0,0,1.16-.367,1.352,1.352,0,0,0,.636-1.219,1.144,1.144,0,0,0-.96-.994,4.235,4.235,0,0,0-1.179-.053,7.885,7.885,0,0,0-1.9.36,3.806,3.806,0,0,0-1.581.8" fill="#1a2e35"/>
        <path id="Path_205212" data-name="Path 205212" d="M365.629,309.375c.029.04.432-.26.628-.994a3.787,3.787,0,0,0-.481-2.785,10.142,10.142,0,0,0-.859-1.281,4.748,4.748,0,0,0-.871-.935,1.524,1.524,0,0,0-.82-.343c-.215-.009-.324.043-.321.07a2.409,2.409,0,0,1,.933.518,5.773,5.773,0,0,1,.74.936,14.351,14.351,0,0,1,.8,1.253,3.963,3.963,0,0,1,.564,2.5c-.093.664-.373,1.015-.313,1.059" fill="#1a2e35"/>
        <path id="Path_205213" data-name="Path 205213" d="M374.841,302.492a3.89,3.89,0,0,0-3.162-3.787,7.315,7.315,0,0,1,3.162,3.787" fill="#1a2e35"/>
        <path id="Path_205214" data-name="Path 205214" d="M393.249,297.938a9.146,9.146,0,0,0-1.128.774,32.326,32.326,0,0,1-3.164,1.939,41.639,41.639,0,0,1-5.025,2.236c-1.943.725-4.122,1.408-6.427,2.076-4.616,1.33-8.8,2.545-11.811,3.452l-3.566,1.1a7.751,7.751,0,0,0-1.29.461,7.875,7.875,0,0,0,1.339-.292l3.605-.956c3.039-.828,7.229-1.993,11.85-3.324,2.309-.669,4.5-1.369,6.449-2.121a37.835,37.835,0,0,0,5.032-2.347,25.371,25.371,0,0,0,3.114-2.077,7.043,7.043,0,0,0,1.022-.916" fill="#1a2e35"/>
        <path id="Path_205215" data-name="Path 205215" d="M394.2,298.284a7.162,7.162,0,0,0-2.174-.578,8.975,8.975,0,0,0-5.393.658,6.435,6.435,0,0,0-2.309,1.983,10.737,10.737,0,0,0-1.2,2.148,8.43,8.43,0,0,0-.714,2.131,15.8,15.8,0,0,0,1-2,8.129,8.129,0,0,1,3.425-3.86,9.442,9.442,0,0,1,5.148-.746c1.36.143,2.2.331,2.215.26" fill="#1a2e35"/>
        <path id="Path_205216" data-name="Path 205216" d="M439.686,245.645a12.29,12.29,0,0,1,7.73,11.381c.062,16.533-33.407,34.758-33.407,34.758L369.47,262.273l-2.791-1.129s60.123-22.585,73.007-15.5" fill="#1a2e35"/>
        <path id="Path_205217" data-name="Path 205217" d="M392.032,277.178a8.2,8.2,0,0,0,1.16-.787c.73-.529,1.772-1.314,3.046-2.3,2.551-1.971,6.02-4.765,9.752-7.968s7.019-6.213,9.353-8.436c1.167-1.111,2.1-2.022,2.734-2.663A8.178,8.178,0,0,0,419.03,254a8.3,8.3,0,0,0-1.074.9l-2.831,2.556c-2.388,2.16-5.7,5.125-9.43,8.327s-7.159,6.027-9.656,8.061l-2.955,2.412a8.352,8.352,0,0,0-1.052.926" fill="#375a64"/>
        <path id="Path_205218" data-name="Path 205218" d="M427.113,251.825a11.033,11.033,0,0,0-8.108,2.393c.074.118,1.7-.917,3.945-1.568,2.239-.673,4.165-.686,4.163-.825" fill="#375a64"/>
        <path id="Path_205219" data-name="Path 205219" d="M423.276,249.219a6.764,6.764,0,0,0-4.026,4.986c.129.045.616-1.343,1.739-2.715,1.1-1.386,2.358-2.154,2.287-2.271" fill="#375a64"/>
        <path id="Path_205220" data-name="Path 205220" d="M442.135,301.571c.024-.052-.531-.159-1.148.348A4.162,4.162,0,0,0,439.7,304.5a5.076,5.076,0,0,0,.406,2.851c.315.676.662.994.7.962.062-.042-.182-.418-.4-1.082a5.8,5.8,0,0,1-.254-2.667,4.472,4.472,0,0,1,1.053-2.411c.473-.5.942-.514.933-.586" fill="#1a2e35"/>
        <path id="Path_205221" data-name="Path 205221" d="M436.5,222.16l-12.671,34.133a4.92,4.92,0,0,1-4.676,3.207l-69.748-.918v-5.3l25.881.945,10.989-34.071a2.78,2.78,0,0,1,2.655-1.927l44.991.13a2.78,2.78,0,0,1,2.579,3.8" fill="#e1e1e1"/>
        <path id="Path_205222" data-name="Path 205222" d="M436.5,222.16s.008-.037.03-.107a2.932,2.932,0,0,0,.086-.318,2.721,2.721,0,0,0-.028-1.282,2.776,2.776,0,0,0-1.225-1.649,2.7,2.7,0,0,0-1.266-.4c-.481-.022-1-.006-1.549-.011l-18.77-.022-13.151-.025-7.389-.015-3.882-.009a3.062,3.062,0,0,0-1.857.408,2.713,2.713,0,0,0-1.154,1.518L375.393,254.26l-.026.079-.083,0-25.881-.942.117-.112v5.3l-.111-.113,43.861.588,19.065.261,4.4.061,2.136.03a5.1,5.1,0,0,0,2.028-.3,4.827,4.827,0,0,0,2.795-2.691l1.361-3.638c3.536-9.48,6.39-17.135,8.365-22.432.988-2.635,1.755-4.681,2.279-6.08s.808-2.112.808-2.112-.257.735-.766,2.128-1.27,3.453-2.241,6.094c-1.959,5.3-4.791,12.966-8.3,22.457l-1.357,3.645a4.991,4.991,0,0,1-2.887,2.789,5.265,5.265,0,0,1-2.089.31l-2.137-.026-4.394-.055-19.066-.24-43.861-.568H349.3v-5.528l.116,0,25.881.948-.108.076c3.955-12.245,7.656-23.7,10.982-34a2.9,2.9,0,0,1,1.236-1.619,3.257,3.257,0,0,1,1.957-.434l3.881.014,7.389.028,13.151.051,18.77.087c.55.008,1.064-.005,1.553.02a2.772,2.772,0,0,1,1.293.418,2.816,2.816,0,0,1,1.232,1.689,2.7,2.7,0,0,1,.01,1.295,2.919,2.919,0,0,1-.136.421" fill="#1a2e35"/>
        <path id="Path_205223" data-name="Path 205223" d="M405.573,235.067a3.134,3.134,0,0,1,3.39.362,2.74,2.74,0,0,1,.664,3,2.971,2.971,0,0,1-2.547,1.779,2.677,2.677,0,0,1-2.692-1.778,3.007,3.007,0,0,1,1.185-3.367" fill="#fff"/>
        <path id="Path_205224" data-name="Path 205224" d="M421.519,293.643s-62.858-40.262-65.633-41.842c-2.36-1.344-8.675-5.232-14.9-3.514s-11.81,7.3-14.6,15.46c-1.6,4.661-2.348,12.616-2.7,18.58a27.569,27.569,0,0,0,6.451,19.654,17.587,17.587,0,0,0,7.846,5.57c.656.2,1.336.38,2.034.532a29.6,29.6,0,0,0,30.809-12.937l1.468-2.234s41.166,15.123,41.81,14.909Z" fill="#1a2e35"/>
        <path id="Path_205225" data-name="Path 205225" d="M359.131,254.03a.678.678,0,0,1-.158-.092l-.439-.3c-.385-.266-.952-.659-1.7-1.138a33.183,33.183,0,0,0-6.675-3.392,17.917,17.917,0,0,0-5.028-1.06,14.452,14.452,0,0,0-5.783.943,18.7,18.7,0,0,0-5.557,3.371,25.6,25.6,0,0,0-2.467,2.423,18.038,18.038,0,0,0-2.041,2.9,29.761,29.761,0,0,0-2.712,6.476c-.592,2.193-1.067,4.36-1.518,6.4a58.536,58.536,0,0,0-1.447,11.028,39.979,39.979,0,0,0,.572,7.476c.137.877.294,1.549.388,2.007.041.211.075.383.1.522a.671.671,0,0,1,.022.182.72.72,0,0,1-.06-.172c-.037-.137-.082-.307-.139-.515-.118-.453-.3-1.121-.458-2a37.479,37.479,0,0,1-.693-7.505,57.045,57.045,0,0,1,1.374-11.1c.446-2.061.908-4.21,1.5-6.435a29.833,29.833,0,0,1,2.74-6.562,18.364,18.364,0,0,1,2.085-2.962,25.692,25.692,0,0,1,2.51-2.457,18.9,18.9,0,0,1,5.674-3.415,14.691,14.691,0,0,1,5.92-.931,18.018,18.018,0,0,1,5.1,1.122,31.482,31.482,0,0,1,6.665,3.519c.738.5,1.292.913,1.663,1.2l.418.331c.093.076.139.118.135.123" fill="#375a64"/>
        <path id="Path_205226" data-name="Path 205226" d="M343.667,282.281s.114.058.345.153l1.03.408,3.99,1.536,14.826,5.586c6.3,2.349,13.842,5.143,22.3,8.223s17.846,6.455,27.863,9.847l.182.061.09-.171,4.916-9.388c.859-1.641,1.71-3.269,2.506-4.788l.1-.185-.174-.111-48-30.471-14.419-9.095-3.916-2.444-1.022-.625c-.232-.139-.356-.2-.356-.2s.108.087.332.238l1,.662,3.872,2.513,14.343,9.214L421.4,293.833l-.077-.3-2.507,4.787c-1.683,3.217-3.342,6.387-4.913,9.391l.271-.109c-10.013-3.383-19.4-6.745-27.87-9.8l-22.338-8.129-14.873-5.456-4.017-1.462-1.045-.37c-.236-.081-.36-.112-.36-.112" fill="#375a64"/>
        <path id="Path_205227" data-name="Path 205227" d="M346.921,148.71a32.416,32.416,0,0,1-2.793-6.682,10.9,10.9,0,0,1,.372-7.112c.586-1.288,1.506-2.417,1.965-3.755.632-1.842.373-4.014,1.514-5.593,1.781-2.466,5.6-1.891,8.35-3.183,2.145-1.006,3.644-3.176,5.9-3.9,1.972-.633,4.121-.026,6.024.788a22.738,22.738,0,0,0,5.813,2.122,40.779,40.779,0,0,0,4.423.012,5.829,5.829,0,0,1,4.082,1.407c1.038,1.049,1.257,2.984.132,3.94,2.582-.438,5.014,2.139,4.98,4.757s-2.006,4.924-4.387,6.013a15.6,15.6,0,0,1-7.711.956c-7.391-.575-14.817-3.385-19.849-8.829" fill="#6d5415"/>
        <path id="Path_205228" data-name="Path 205228" d="M348.514,139.462l-5.035,36.6a10.988,10.988,0,1,0,21.774,2.979c.376-2.755.7-5.052.753-5.333,0,0,9.436.406,11.378-8.722.938-4.411,2.131-13.654,3.113-22.028a17.383,17.383,0,0,0-13.866-19.061l-.882-.177c-9.632-1.346-16.156,6.082-17.235,15.747" fill="#ffc09d"/>
        <path id="Path_205229" data-name="Path 205229" d="M366.047,173.574A21.7,21.7,0,0,1,354.8,167.8s1.5,7.148,10.8,8.148Z" fill="#ff9b6c"/>
        <path id="Path_205230" data-name="Path 205230" d="M376.393,150.732a1.332,1.332,0,0,1-1.523,1.067,1.276,1.276,0,0,1-1.112-1.448,1.333,1.333,0,0,1,1.522-1.068,1.276,1.276,0,0,1,1.113,1.449" fill="#1a2e35"/>
        <path id="Path_205231" data-name="Path 205231" d="M377.633,147.051c-.2.138-1.039-.793-2.447-1.07-1.4-.3-2.578.22-2.7.018-.059-.092.167-.366.682-.6a3.648,3.648,0,0,1,2.2-.225,3.508,3.508,0,0,1,1.9,1.064c.366.418.451.756.356.816" fill="#1a2e35"/>
        <path id="Path_205232" data-name="Path 205232" d="M363.278,148.468a1.332,1.332,0,0,1-1.523,1.067,1.275,1.275,0,0,1-1.112-1.448,1.333,1.333,0,0,1,1.523-1.067,1.275,1.275,0,0,1,1.112,1.448" fill="#1a2e35"/>
        <path id="Path_205233" data-name="Path 205233" d="M363.759,144.551c-.2.138-1.041-.793-2.447-1.07-1.4-.3-2.578.22-2.7.018-.06-.092.165-.366.682-.6a3.648,3.648,0,0,1,2.2-.225,3.512,3.512,0,0,1,1.905,1.064c.365.418.45.756.356.816" fill="#1a2e35"/>
        <path id="Path_205234" data-name="Path 205234" d="M366.778,156a9.489,9.489,0,0,1,2.366.044c.367.035.721.031.83-.2a1.855,1.855,0,0,0-.027-1.112q-.246-1.4-.515-2.946c-.7-4.188-1.125-7.6-.956-7.629s.871,3.346,1.567,7.534q.246,1.547.468,2.954a2.119,2.119,0,0,1-.1,1.446.918.918,0,0,1-.7.407,2.436,2.436,0,0,1-.626-.037,9.347,9.347,0,0,1-2.316-.459" fill="#1a2e35"/>
        <path id="Path_205235" data-name="Path 205235" d="M362.446,156.145c.231.032-.071,1.559,1.019,2.9s2.749,1.5,2.718,1.717c0,.1-.422.224-1.112.1a3.872,3.872,0,0,1-2.286-1.347,3.376,3.376,0,0,1-.757-2.415c.07-.65.315-.994.418-.964" fill="#1a2e35"/>
        <path id="Path_205236" data-name="Path 205236" d="M365.223,139.113c-.215.355-1.583-.107-3.272-.238-1.688-.165-3.114.053-3.265-.334-.064-.184.239-.5.851-.76a5.709,5.709,0,0,1,4.98.436c.557.365.8.727.706.9" fill="#6d5415"/>
        <path id="Path_205237" data-name="Path 205237" d="M377.93,142.878c-.311.27-1.214-.255-2.375-.5-1.153-.29-2.194-.216-2.355-.6-.067-.182.152-.471.644-.687a3.514,3.514,0,0,1,3.811.885c.346.41.415.766.275.9" fill="#6d5415"/>
        <path id="Path_205238" data-name="Path 205238" d="M347.907,146.387c-.142-.1-5.916-3.116-6.966,3.18s5.487,6.051,5.528,5.873,1.438-9.053,1.438-9.053" fill="#ffc09d"/>
        <path id="Path_205239" data-name="Path 205239" d="M344.945,152.734c-.024-.025-.123.058-.322.113a1.118,1.118,0,0,1-.823-.12,2.753,2.753,0,0,1-.849-2.645,3.66,3.66,0,0,1,.569-1.519,1.285,1.285,0,0,1,.965-.7.566.566,0,0,1,.6.409c.055.19-.006.309.026.325.015.019.153-.083.145-.351a.707.707,0,0,0-.182-.436.835.835,0,0,0-.58-.261,1.561,1.561,0,0,0-1.308.784,3.773,3.773,0,0,0-.673,1.692,2.888,2.888,0,0,0,1.146,2.986,1.191,1.191,0,0,0,1.031,0c.221-.123.278-.258.258-.273" fill="#ff9b6c"/>
        <path id="Path_205240" data-name="Path 205240" d="M382.309,134.453c-1.081,2.327-6.636,3.225-10.708,2-3.754-1.133-5.115-3.516-7.5-5.593-1.512-1.315-1.512-1.315-3.977-1.569-1.993-.206-3.593,1.779-5.1,3.1.839,5-1.386,9.957-3.555,14.544a2.532,2.532,0,0,1-1.016,1.3c-.854.421-1.873-.245-2.383-1.049a7.878,7.878,0,0,1-.883-4.418,26.248,26.248,0,0,1,2.088-10.136,17.868,17.868,0,0,1,6.582-7.881,16.928,16.928,0,0,1,12.521-2.073,20.782,20.782,0,0,1,10.978,6.589,12.178,12.178,0,0,1,2.957,5.193" fill="#6d5415"/>
        <path id="Path_205241" data-name="Path 205241" d="M369.5,149.672c.054,0,.035-.543.287-1.463a6.074,6.074,0,0,1,2.228-3.236,5.923,5.923,0,0,1,5.572-.8,5.805,5.805,0,0,1,2.71,2.048,5.832,5.832,0,0,1,0,6.906,5.8,5.8,0,0,1-2.71,2.048,5.922,5.922,0,0,1-5.572-.8,6.077,6.077,0,0,1-2.229-3.236c-.251-.92-.232-1.466-.286-1.463a1.13,1.13,0,0,0-.032.391,4.746,4.746,0,0,0,.126,1.12,6.069,6.069,0,0,0,2.2,3.474,6.273,6.273,0,0,0,8.9-1.237,6.286,6.286,0,0,0,0-7.5,6.271,6.271,0,0,0-8.9-1.237,6.067,6.067,0,0,0-2.2,3.473,4.746,4.746,0,0,0-.126,1.12,1.134,1.134,0,0,0,.032.392" fill="#1a2e35"/>
        <path id="Path_205242" data-name="Path 205242" d="M354.568,147.065c.054,0,.035-.543.286-1.463a6.083,6.083,0,0,1,2.229-3.236,5.923,5.923,0,0,1,5.572-.8,5.805,5.805,0,0,1,2.71,2.048,5.832,5.832,0,0,1,0,6.906,5.8,5.8,0,0,1-2.71,2.048,5.923,5.923,0,0,1-5.572-.8,6.077,6.077,0,0,1-2.229-3.236c-.251-.92-.232-1.466-.286-1.463a1.131,1.131,0,0,0-.032.391,4.747,4.747,0,0,0,.126,1.12,6.069,6.069,0,0,0,2.2,3.474,6.273,6.273,0,0,0,8.9-1.237,6.288,6.288,0,0,0,0-7.5,6.272,6.272,0,0,0-8.9-1.236,6.067,6.067,0,0,0-2.2,3.473,4.747,4.747,0,0,0-.126,1.12,1.135,1.135,0,0,0,.032.392" fill="#1a2e35"/>
        <path id="Path_205243" data-name="Path 205243" d="M366.871,147.276c.063.127.863-.247,1.794.038s1.395,1.03,1.519.958c.058-.027.028-.267-.181-.584a2.238,2.238,0,0,0-2.659-.8c-.352.148-.508.331-.473.387" fill="#1a2e35"/>
        <path id="Path_205244" data-name="Path 205244" d="M346.107,145.452a39.648,39.648,0,0,0,8.961-.126,39.495,39.495,0,0,0-8.961.126" fill="#1a2e35"/>
        <path id="Path_205245" data-name="Path 205245" d="M385.249,128.444a1.816,1.816,0,0,1-.1.6,2.948,2.948,0,0,1-.944,1.355,4.177,4.177,0,0,1-2.264.927,11.4,11.4,0,0,1-3-.157,51.224,51.224,0,0,1-5.342-1.079c-.676-.175-1.218-.33-1.591-.445l-.428-.136a.555.555,0,0,1-.145-.058.617.617,0,0,1,.153.029l.436.109,1.6.4c1.353.324,3.237.724,5.338,1.033a11.622,11.622,0,0,0,2.965.168,4.138,4.138,0,0,0,2.214-.872,3.012,3.012,0,0,0,.955-1.292c.129-.364.135-.584.153-.581" fill="#fff"/>
        <path id="Path_205246" data-name="Path 205246" d="M386.645,129.873a5.8,5.8,0,0,1-.54,1.722,7.365,7.365,0,0,1-7.1,4.245,5.771,5.771,0,0,1-1.772-.34,3.57,3.57,0,0,1,.475.09,8.011,8.011,0,0,0,1.3.144,7.643,7.643,0,0,0,7.49-5.4,3.568,3.568,0,0,1,.146-.461" fill="#fff"/>
      </g>
    </g>
  </g>
</svg>
