<svg xmlns="http://www.w3.org/2000/svg" xmlns:xlink="http://www.w3.org/1999/xlink" width="116.599" height="116.599" viewBox="0 0 116.599 116.599">
  <defs>
    <clipPath id="clip-path">
      <rect id="Rectangle_45258" data-name="Rectangle 45258" width="53.22" height="53.22" fill="none"/>
    </clipPath>
  </defs>
  <g id="_19" data-name="19" transform="translate(-424.573 -6730)">
    <g id="Group_146997" data-name="Group 146997" transform="translate(424.573 6730)">
      <g id="Group_86258" data-name="Group 86258" transform="translate(0 0)">
        <path id="Path_116050" data-name="Path 116050" d="M58.3,0A58.3,58.3,0,1,1,0,58.3,58.3,58.3,0,0,1,58.3,0Z" transform="translate(0)" fill="#bddcf6"/>
        <circle id="_40" data-name="40" cx="49.73" cy="49.73" r="49.73" transform="translate(8.429 8.71)" fill="#fff"/>
      </g>
    </g>
    <g id="Group_147185" data-name="Group 147185" transform="translate(456 6761.908)">
      <rect id="Rectangle_45246" data-name="Rectangle 45246" width="45.032" height="30.294" transform="translate(4.094 17.286)" fill="#e8e8e8"/>
      <rect id="Rectangle_45247" data-name="Rectangle 45247" width="40.12" height="25.382" transform="translate(6.55 19.742)" fill="#c7e2fc"/>
      <g id="Group_147187" data-name="Group 147187" transform="translate(0 0.092)">
        <g id="Group_147186" data-name="Group 147186" clip-path="url(#clip-path)">
          <path id="Path_206157" data-name="Path 206157" d="M64,184v16.824a25.017,25.017,0,0,0,13.324,3.806c12.473,0,22.761-9,24.294-20.63Z" transform="translate(-57.123 -164.304)" fill="#ebf7fe"/>
          <path id="Path_206158" data-name="Path 206158" d="M59.576,440H8v3.438a1.719,1.719,0,0,0,1.719,1.719H57.857a1.719,1.719,0,0,0,1.719-1.719Z" transform="translate(-7.14 -392.797)" fill="#afafaf"/>
          <rect id="Rectangle_45248" data-name="Rectangle 45248" width="11.463" height="11.463" transform="translate(10.644 29.476)" fill="#feedb6"/>
          <rect id="Rectangle_45249" data-name="Rectangle 45249" width="11.463" height="11.463" transform="translate(10.644 13.919)" fill="#4dd0e1"/>
          <path id="Path_206159" data-name="Path 206159" d="M116.866,155.945h.036a.859.859,0,0,0,.693-.4l4.3-6.877-1.457-.912-3.634,5.814-1.827-2.435-1.375,1.032,2.579,3.438A.859.859,0,0,0,116.866,155.945Z" transform="translate(-101.394 -131.951)" fill="#fff"/>
          <path id="Path_206160" data-name="Path 206160" d="M121.221,290.344l-2.831,2.831-2.831-2.831-1.215,1.215,2.831,2.831-2.831,2.831,1.215,1.215,2.831-2.831,2.831,2.831,1.215-1.215-2.831-2.831,2.831-2.831Z" transform="translate(-102.058 -259.222)" fill="#fff"/>
          <path id="Path_206161" data-name="Path 206161" d="M314.315,221.158a5.158,5.158,0,1,0-5.158,5.158,5.157,5.157,0,0,0,5.158-5.158m-7.736,0a2.579,2.579,0,1,1,2.579,2.579,2.579,2.579,0,0,1-2.579-2.579" transform="translate(-271.335 -192.866)" fill="#feca2e"/>
          <path id="Path_206162" data-name="Path 206162" d="M303.736,26.911h3.438V24.993A7.687,7.687,0,0,0,309.569,24l1.357,1.357,2.431-2.431L312,21.569a7.686,7.686,0,0,0,.994-2.394h1.918V15.736h-1.918A7.686,7.686,0,0,0,312,13.342l1.357-1.357-2.431-2.431-1.357,1.357a7.688,7.688,0,0,0-2.394-.994V8h-3.438V9.918a7.688,7.688,0,0,0-2.394.994l-1.357-1.357-2.431,2.431,1.357,1.357a7.688,7.688,0,0,0-.994,2.394H296v3.438h1.918a7.688,7.688,0,0,0,.994,2.394l-1.357,1.357,2.431,2.431L301.342,24a7.687,7.687,0,0,0,2.394.994ZM300.3,17.456a5.158,5.158,0,1,1,5.158,5.158,5.157,5.157,0,0,1-5.158-5.158" transform="translate(-264.195 -7.215)" fill="#feca2e"/>
          <rect id="Rectangle_45250" data-name="Rectangle 45250" width="1.638" height="1.638" transform="translate(31.113 27.838)" fill="#8892a0"/>
          <rect id="Rectangle_45251" data-name="Rectangle 45251" width="2.456" height="1.638" transform="translate(42.576 27.838)" fill="#8892a0"/>
          <rect id="Rectangle_45252" data-name="Rectangle 45252" width="1.638" height="1.638" transform="translate(36.845 33.57)" fill="#8892a0"/>
          <rect id="Rectangle_45253" data-name="Rectangle 45253" width="1.638" height="1.638" transform="translate(36.845 21.288)" fill="#8892a0"/>
          <rect id="Rectangle_45254" data-name="Rectangle 45254" width="1.719" height="2.014" transform="translate(40.644 32.34) rotate(-45)" fill="#8892a0"/>
          <rect id="Rectangle_45255" data-name="Rectangle 45255" width="1.719" height="2.014" transform="translate(32.346 24.038) rotate(-45)" fill="#8892a0"/>
          <rect id="Rectangle_45256" data-name="Rectangle 45256" width="2.014" height="1.719" transform="translate(40.647 24.254) rotate(-45)" fill="#8892a0"/>
          <rect id="Rectangle_45257" data-name="Rectangle 45257" width="2.014" height="1.719" transform="translate(32.345 32.555) rotate(-45)" fill="#8892a0"/>
          <path id="Path_206163" data-name="Path 206163" d="M296,214.017a6.017,6.017,0,1,1,6.017,6.017A6.024,6.024,0,0,1,296,214.017m10.315,0a4.3,4.3,0,1,0-4.3,4.3,4.3,4.3,0,0,0,4.3-4.3" transform="translate(-264.195 -185.725)" fill="#4d5d7a"/>
          <path id="Path_206164" data-name="Path 206164" d="M52.436,153.524H49.857V126.017H48.138v27.507H5.158V125.158h4.3v.86H6.877a.859.859,0,0,0-.86.86v24.928a.859.859,0,0,0,.86.86H46.418a.859.859,0,0,0,.86-.86V126.877H45.559v24.069H7.736V127.736H9.456v5.158a.859.859,0,0,0,.86.86H22.35a.859.859,0,0,0,.86-.86v-5.158h7.736v-1.719H23.209v-.86h7.736v-1.719H23.209V120.86a.859.859,0,0,0-.86-.86H10.315a.859.859,0,0,0-.86.86v2.579H4.3a.859.859,0,0,0-.86.86v29.226H.86a.859.859,0,0,0-.86.86v3.438A2.582,2.582,0,0,0,2.579,160.4H50.716a2.582,2.582,0,0,0,2.579-2.579v-3.438a.859.859,0,0,0-.86-.86M11.175,121.719H21.49v10.315H11.175Zm40.4,36.1a.86.86,0,0,1-.86.86H2.579a.86.86,0,0,1-.86-.86v-2.579H51.576Z" transform="translate(0 -107.181)"/>
          <path id="Path_206165" data-name="Path 206165" d="M307.771,12.894a.859.859,0,0,0,.86-.86V8.6a.859.859,0,0,0-.86-.86h-1.26a8.413,8.413,0,0,0-.579-1.392l.892-.892a.859.859,0,0,0,0-1.215l-2.431-2.431a.859.859,0,0,0-1.215,0l-.892.892a8.412,8.412,0,0,0-1.392-.579V.86a.859.859,0,0,0-.86-.86H296.6a.859.859,0,0,0-.86.86V2.12a8.411,8.411,0,0,0-1.392.579l-.892-.892a.859.859,0,0,0-1.215,0l-2.431,2.431a.859.859,0,0,0,0,1.215l.892.892a8.413,8.413,0,0,0-.579,1.392h-1.26a.859.859,0,0,0-.86.86v3.438a.859.859,0,0,0,.86.86h1.26a8.413,8.413,0,0,0,.579,1.392l-.892.892a.859.859,0,0,0,0,1.215l2.431,2.431a.859.859,0,0,0,1.215,0l.892-.892a8.548,8.548,0,0,0,1.392.579v1.26a.859.859,0,0,0,.86.86h3.438a.859.859,0,0,0,.86-.86v-1.26a8.412,8.412,0,0,0,1.392-.579l.892.892a.859.859,0,0,0,1.215,0l2.431-2.431a.859.859,0,0,0,0-1.215l-.892-.892a8.549,8.549,0,0,0,.579-1.392Zm-1.917-1.719a.86.86,0,0,0-.838.669,6.847,6.847,0,0,1-.883,2.127.859.859,0,0,0,.119,1.066l.75.75L303.787,17l-.75-.75a.859.859,0,0,0-1.066-.119,6.846,6.846,0,0,1-2.127.883.861.861,0,0,0-.67.839v1.057h-1.719V17.854a.86.86,0,0,0-.669-.838,6.847,6.847,0,0,1-2.127-.883.859.859,0,0,0-1.066.119l-.75.75-1.215-1.215.75-.75a.86.86,0,0,0,.12-1.066,6.845,6.845,0,0,1-.883-2.127.861.861,0,0,0-.839-.67h-1.057V9.456h1.057a.86.86,0,0,0,.838-.669A6.845,6.845,0,0,1,292.5,6.66a.86.86,0,0,0-.119-1.066l-.75-.75,1.215-1.215.75.75a.858.858,0,0,0,1.066.119,6.846,6.846,0,0,1,2.127-.883.861.861,0,0,0,.67-.839V1.719h1.719V2.777a.86.86,0,0,0,.669.838,6.846,6.846,0,0,1,2.127.883.857.857,0,0,0,1.066-.119l.75-.75L305,4.844l-.75.75a.86.86,0,0,0-.12,1.066,6.845,6.845,0,0,1,.883,2.127.861.861,0,0,0,.839.67h1.057v1.719Z" transform="translate(-257.054 -0.075)"/>
          <path id="Path_206166" data-name="Path 206166" d="M334.017,40a6.017,6.017,0,1,0,6.017,6.017A6.025,6.025,0,0,0,334.017,40m0,10.315a4.3,4.3,0,1,1,4.3-4.3,4.3,4.3,0,0,1-4.3,4.3" transform="translate(-292.756 -35.777)"/>
          <path id="Path_206167" data-name="Path 206167" d="M301.754,207.736v-1.719h-.928a5.972,5.972,0,0,0-1.136-2.737l.658-.658-1.215-1.215-.658.658a5.971,5.971,0,0,0-2.737-1.136V200h-1.719v.928a5.972,5.972,0,0,0-2.737,1.136l-.658-.658-1.215,1.215.658.658a5.971,5.971,0,0,0-1.136,2.737H288v1.719h.928a5.971,5.971,0,0,0,1.136,2.737l-.658.658,1.215,1.215.658-.658a5.981,5.981,0,0,0,2.737,1.136v.928h1.719v-.928a5.971,5.971,0,0,0,2.737-1.136l.658.658,1.215-1.215-.658-.658a5.981,5.981,0,0,0,1.136-2.737Zm-2.579-.86a4.3,4.3,0,1,1-4.3-4.3,4.3,4.3,0,0,1,4.3,4.3" transform="translate(-257.054 -178.585)"/>
          <path id="Path_206168" data-name="Path 206168" d="M323.438,232a3.438,3.438,0,1,0,3.438,3.438A3.442,3.442,0,0,0,323.438,232m0,5.158a1.719,1.719,0,1,1,1.719-1.719,1.721,1.721,0,0,1-1.719,1.719" transform="translate(-285.616 -207.147)"/>
          <path id="Path_206169" data-name="Path 206169" d="M100.894,264H88.86a.859.859,0,0,0-.86.86v12.034a.859.859,0,0,0,.86.86h12.034a.859.859,0,0,0,.86-.86V264.86a.859.859,0,0,0-.86-.86m-.86,12.034H89.719V265.719h10.315Z" transform="translate(-78.544 -235.708)"/>
          <path id="Path_206170" data-name="Path 206170" d="M116.8,153.566l-1.827-2.435-1.375,1.032,2.579,3.438a.859.859,0,0,0,.688.344h.036a.859.859,0,0,0,.693-.4l4.3-6.877-1.457-.912Z" transform="translate(-101.394 -131.951)"/>
          <path id="Path_206171" data-name="Path 206171" d="M115.559,298.436l2.831-2.831,2.831,2.831,1.215-1.215-2.831-2.831,2.831-2.831-1.215-1.215-2.831,2.831-2.831-2.831-1.215,1.215,2.831,2.831-2.831,2.831Z" transform="translate(-102.058 -259.222)"/>
        </g>
      </g>
    </g>
  </g>
</svg>
