<svg xmlns="http://www.w3.org/2000/svg" xmlns:xlink="http://www.w3.org/1999/xlink" width="190" height="115" viewBox="0 0 190 115">
  <defs>
    <clipPath id="clip-path">
      <rect id="Rectangle_45263" data-name="Rectangle 45263" width="100" height="100" fill="#0f2771"/>
    </clipPath>
  </defs>
  <g id="_2" data-name="2" transform="translate(-180.271 -743)">
    <rect id="Rectangle_43992" data-name="Rectangle 43992" width="190" height="115" transform="translate(180.271 743)" fill="none"/>
    <g id="Group_146383" data-name="Group 146383" transform="translate(0.271 349)">
      <rect id="Rectangle_41430" data-name="Rectangle 41430" width="85" height="28" rx="14" transform="translate(285 407)" fill="#feca2e" opacity="0.2"/>
      <rect id="Rectangle_41431" data-name="Rectangle 41431" width="85" height="28" rx="14" transform="translate(180 468)" fill="#4dd0e1" opacity="0.2"/>
    </g>
    <g id="Group_147195" data-name="Group 147195" transform="translate(225.271 751)">
      <g id="Group_147194" data-name="Group 147194" clip-path="url(#clip-path)">
        <path id="Path_206174" data-name="Path 206174" d="M98.047,21.094H78.906V1.953A1.953,1.953,0,0,0,76.953,0h-75A1.953,1.953,0,0,0,0,1.953v75a1.953,1.953,0,0,0,1.953,1.954H21.094v19.14A1.953,1.953,0,0,0,23.047,100h29.59a1.953,1.953,0,1,0,0-3.906H25V78.742A1.952,1.952,0,0,0,24.219,75H3.906V3.907H75V21.258A1.952,1.952,0,0,0,75.781,25H96.094V96.094H68.36a1.953,1.953,0,1,0,0,3.906H98.047A1.953,1.953,0,0,0,100,98.047v-75a1.953,1.953,0,0,0-1.953-1.953" fill="#0f2771"/>
        <path id="Path_206175" data-name="Path 206175" d="M75,67.969a1.953,1.953,0,0,0,3.906,0V66.8A1.953,1.953,0,0,0,75,66.8Z" fill="#0f2771"/>
        <path id="Path_206176" data-name="Path 206176" d="M75,50a1.953,1.953,0,1,0,3.906,0V48.828a1.953,1.953,0,1,0-3.906,0Z" fill="#0f2771"/>
        <path id="Path_206177" data-name="Path 206177" d="M76.953,33.984a1.953,1.953,0,0,0,1.953-1.953V30.859a1.953,1.953,0,1,0-3.906,0v1.172a1.953,1.953,0,0,0,1.953,1.953" fill="#0f2771"/>
        <path id="Path_206178" data-name="Path 206178" d="M75,58.984a1.953,1.953,0,1,0,3.906,0V57.812a1.953,1.953,0,1,0-3.906,0Z" fill="#0f2771"/>
        <path id="Path_206179" data-name="Path 206179" d="M58.984,25a1.953,1.953,0,0,0,0-3.906H57.812a1.953,1.953,0,0,0,0,3.906Z" fill="#0f2771"/>
        <path id="Path_206180" data-name="Path 206180" d="M60.156,78.906a1.953,1.953,0,1,0,0-3.906H58.984a1.953,1.953,0,1,0,0,3.906Z" fill="#0f2771"/>
        <path id="Path_206181" data-name="Path 206181" d="M75,76.953a1.953,1.953,0,0,0,3.906,0V75.781a1.953,1.953,0,0,0-3.906,0Z" fill="#0f2771"/>
        <path id="Path_206182" data-name="Path 206182" d="M67.969,25a1.953,1.953,0,0,0,0-3.906H66.8A1.953,1.953,0,0,0,66.8,25Z" fill="#0f2771"/>
        <path id="Path_206183" data-name="Path 206183" d="M67.969,78.906h1.172a1.953,1.953,0,1,0,0-3.906H67.969a1.953,1.953,0,1,0,0,3.906" fill="#0f2771"/>
        <path id="Path_206184" data-name="Path 206184" d="M75,41.016a1.953,1.953,0,1,0,3.906,0V39.844a1.953,1.953,0,1,0-3.906,0Z" fill="#0f2771"/>
        <path id="Path_206185" data-name="Path 206185" d="M41.016,25a1.953,1.953,0,1,0,0-3.906H39.844a1.953,1.953,0,1,0,0,3.906Z" fill="#0f2771"/>
        <path id="Path_206186" data-name="Path 206186" d="M25,41.016a1.953,1.953,0,0,0-3.906,0v1.172a1.953,1.953,0,0,0,3.906,0Z" fill="#0f2771"/>
        <path id="Path_206187" data-name="Path 206187" d="M25,50a1.953,1.953,0,0,0-3.906,0v1.172a1.953,1.953,0,0,0,3.906,0Z" fill="#0f2771"/>
        <path id="Path_206188" data-name="Path 206188" d="M25,23.047a1.953,1.953,0,1,0-3.906,0v1.172a1.953,1.953,0,1,0,3.906,0Z" fill="#0f2771"/>
        <path id="Path_206189" data-name="Path 206189" d="M25,32.031a1.953,1.953,0,0,0-3.906,0V33.2A1.953,1.953,0,0,0,25,33.2Z" fill="#0f2771"/>
        <path id="Path_206190" data-name="Path 206190" d="M23.047,66.016a1.953,1.953,0,0,0-1.953,1.953v1.172a1.953,1.953,0,1,0,3.906,0V67.969a1.953,1.953,0,0,0-1.953-1.953" fill="#0f2771"/>
        <path id="Path_206191" data-name="Path 206191" d="M25,58.984a1.953,1.953,0,1,0-3.906,0v1.172a1.953,1.953,0,1,0,3.906,0Z" fill="#0f2771"/>
        <path id="Path_206192" data-name="Path 206192" d="M41.016,78.906h1.172a1.953,1.953,0,1,0,0-3.906H41.016a1.953,1.953,0,1,0,0,3.906" fill="#0f2771"/>
        <path id="Path_206193" data-name="Path 206193" d="M50,78.906h1.172a1.953,1.953,0,1,0,0-3.906H50a1.953,1.953,0,1,0,0,3.906" fill="#0f2771"/>
        <path id="Path_206194" data-name="Path 206194" d="M50,25a1.953,1.953,0,0,0,0-3.906H48.828a1.953,1.953,0,0,0,0,3.906Z" fill="#0f2771"/>
        <path id="Path_206195" data-name="Path 206195" d="M32.031,25a1.953,1.953,0,1,0,0-3.906H30.859a1.953,1.953,0,0,0,0,3.906Z" fill="#0f2771"/>
        <path id="Path_206196" data-name="Path 206196" d="M32.031,78.906H33.2A1.953,1.953,0,1,0,33.2,75H32.031a1.953,1.953,0,1,0,0,3.906" fill="#0f2771"/>
        <path id="Path_206197" data-name="Path 206197" d="M60.547,96.094a1.953,1.953,0,1,0,1.381.572,1.97,1.97,0,0,0-1.381-.572" fill="#0f2771"/>
      </g>
    </g>
  </g>
</svg>
