<svg xmlns="http://www.w3.org/2000/svg" xmlns:xlink="http://www.w3.org/1999/xlink" width="190" height="115" viewBox="0 0 190 115">
  <defs>
    <clipPath id="clip-path">
      <rect id="Rectangle_45050" data-name="Rectangle 45050" width="110.823" height="100" fill="#0f2771"/>
    </clipPath>
  </defs>
  <g id="_2" data-name="2" transform="translate(-180 -907)">
    <rect id="Rectangle_43992" data-name="Rectangle 43992" width="190" height="115" transform="translate(180 907)" fill="none"/>
    <g id="Group_146383" data-name="Group 146383" transform="translate(0 513)">
      <rect id="Rectangle_41430" data-name="Rectangle 41430" width="85" height="28" rx="14" transform="translate(285 407)" fill="#feca2e" opacity="0.2"/>
      <rect id="Rectangle_41431" data-name="Rectangle 41431" width="85" height="28" rx="14" transform="translate(180 468)" fill="#4dd0e1" opacity="0.2"/>
    </g>
    <g id="Group_147028" data-name="Group 147028" transform="translate(220 915)">
      <g id="Group_147028-2" data-name="Group 147028" clip-path="url(#clip-path)">
        <path id="Path_204069" data-name="Path 204069" d="M109.2,64.322a1.623,1.623,0,0,0,1.623-1.623V12.446a5.092,5.092,0,0,0-5.086-5.086H76.948V6.482A6.485,6.485,0,0,0,70.475,0H30.447a1.624,1.624,0,0,0,0,3.247H70.475A3.234,3.234,0,0,1,73.7,6.482v30.1a3.229,3.229,0,0,1-3.222,3.23H52.5a5.289,5.289,0,0,0-4.428,2.722l-3.439,6.787a.047.047,0,0,1-.087,0L41.1,42.537a5.287,5.287,0,0,0-4.428-2.721H18.7a3.234,3.234,0,0,1-3.226-3.235V6.478A3.23,3.23,0,0,1,18.7,3.247h3.885a1.624,1.624,0,0,0,0-3.247H18.7a6.481,6.481,0,0,0-6.469,6.478V7.36H5.086A5.092,5.092,0,0,0,0,12.446v65.8a5.093,5.093,0,0,0,5.086,5.087H33.874v6.938a4.876,4.876,0,0,0-4.545,4.858v2A2.873,2.873,0,0,0,32.2,100H78.623a2.873,2.873,0,0,0,2.87-2.87v-2a4.876,4.876,0,0,0-4.545-4.858V83.334h28.788a5.092,5.092,0,0,0,5.086-5.087v-7.9a1.623,1.623,0,0,0-3.246,0v7.9a1.842,1.842,0,0,1-1.84,1.84H24.813V77.165a4.87,4.87,0,0,0-9.74,0v2.922H5.086a1.842,1.842,0,0,1-1.84-1.84v-65.8a1.842,1.842,0,0,1,1.84-1.839h7.143v3.246H8.918a2.428,2.428,0,0,0-2.425,2.425V67.056a2.428,2.428,0,0,0,2.425,2.425H101.9a2.428,2.428,0,0,0,2.425-2.425V16.278a2.428,2.428,0,0,0-2.425-2.425H76.948V10.607h28.788a1.841,1.841,0,0,1,1.839,1.839V62.7A1.624,1.624,0,0,0,109.2,64.322ZM78.246,95.13v1.624H32.575V95.13A1.626,1.626,0,0,1,34.2,93.507H76.623a1.625,1.625,0,0,1,1.623,1.623M73.7,90.26H37.121V83.334H73.7Zm-55.382-13.1a1.624,1.624,0,0,1,3.247,0v2.922H18.319ZM101.082,17.1V66.234H9.74V17.1h2.489V36.581A6.485,6.485,0,0,0,18.7,43.062H36.677A2.107,2.107,0,0,1,38.209,44l3.44,6.787a3.294,3.294,0,0,0,5.879,0l3.439-6.786a2.112,2.112,0,0,1,1.532-.943h17.98a6.48,6.48,0,0,0,6.469-6.477V17.1Z" fill="#0f2771"/>
        <path id="Path_204070" data-name="Path 204070" d="M83.26,73.286a1.624,1.624,0,0,0,0,3.247h2.9a1.624,1.624,0,0,0,0-3.247Z" fill="#0f2771"/>
        <path id="Path_204071" data-name="Path 204071" d="M91.958,73.286a1.624,1.624,0,0,0,0,3.247h2.9a1.624,1.624,0,0,0,0-3.247Z" fill="#0f2771"/>
        <path id="Path_204072" data-name="Path 204072" d="M91.2,46.429H63.492A2.491,2.491,0,0,0,61,48.918V60.173a2.491,2.491,0,0,0,2.489,2.489H91.2a2.492,2.492,0,0,0,2.489-2.489V48.918A2.492,2.492,0,0,0,91.2,46.429M90.44,59.416H64.25v-9.74H90.44Z" fill="#0f2771"/>
        <path id="Path_204073" data-name="Path 204073" d="M83.26,25.721h6.567a1.624,1.624,0,0,0,0-3.247H83.26a1.624,1.624,0,0,0,0,3.247" fill="#0f2771"/>
        <path id="Path_204074" data-name="Path 204074" d="M83.26,31.3H92.9a1.624,1.624,0,0,0,0-3.247H83.26a1.624,1.624,0,0,0,0,3.247" fill="#0f2771"/>
        <path id="Path_204075" data-name="Path 204075" d="M83.26,36.881H92.9a1.624,1.624,0,0,0,0-3.247H83.26a1.624,1.624,0,0,0,0,3.247" fill="#0f2771"/>
        <path id="Path_204076" data-name="Path 204076" d="M25.512,22.066,33.3,28.559a1.623,1.623,0,1,0,2.079-2.494l-6.3-5.246,6.3-5.246A1.624,1.624,0,0,0,33.3,13.078l-7.792,6.494a1.634,1.634,0,0,0,0,2.494" fill="#0f2771"/>
        <path id="Path_204077" data-name="Path 204077" d="M53.587,28.351a1.623,1.623,0,0,0,2.286.208l7.793-6.494a1.634,1.634,0,0,0,0-2.494l-7.793-6.493a1.623,1.623,0,0,0-2.078,2.494l6.3,5.246-6.3,5.246a1.624,1.624,0,0,0-.208,2.287" fill="#0f2771"/>
        <path id="Path_204078" data-name="Path 204078" d="M40.259,32.832a1.624,1.624,0,0,0,1.5-1l8.658-20.78a1.623,1.623,0,1,0-3-1.248L38.761,30.584a1.624,1.624,0,0,0,1.5,2.248Z" fill="#0f2771"/>
      </g>
    </g>
  </g>
</svg>
