<svg id="_20" data-name="20" xmlns="http://www.w3.org/2000/svg" xmlns:xlink="http://www.w3.org/1999/xlink" width="85.701" height="61.207" viewBox="0 0 85.701 61.207">
  <defs>
    <clipPath id="clip-path">
      <rect id="Rectangle_44854" data-name="Rectangle 44854" width="85.701" height="61.207" fill="none"/>
    </clipPath>
  </defs>
  <g id="Group_146702" data-name="Group 146702" clip-path="url(#clip-path)">
    <path id="Path_202601" data-name="Path 202601" d="M84.632,317.746H13.55a6.055,6.055,0,0,1-6.055-6.055,2.072,2.072,0,0,1,2.072-2.072H88.615a2.072,2.072,0,0,1,2.072,2.072,6.055,6.055,0,0,1-6.055,6.055" transform="translate(-6.24 -257.793)" fill="#e8e8e8"/>
    <path id="Path_202602" data-name="Path 202602" d="M103.46,58.067H37.837a4.451,4.451,0,0,1-4.451-4.451V11.947A4.451,4.451,0,0,1,37.837,7.5H103.46a4.451,4.451,0,0,1,4.451,4.451V53.616a4.451,4.451,0,0,1-4.451,4.451" transform="translate(-27.798 -6.241)" fill="#f6f6f6"/>
    <path id="Path_202603" data-name="Path 202603" d="M457.5,311.691a6.054,6.054,0,0,1-6.056,6.056h-3.394a6.054,6.054,0,0,0,6.054-6.056,2.07,2.07,0,0,0-2.071-2.071h3.394A2.072,2.072,0,0,1,457.5,311.691Z" transform="translate(-373.052 -257.794)" fill="#838383"/>
    <path id="Path_202604" data-name="Path 202604" d="M439.584,11.947V53.616a4.451,4.451,0,0,1-4.45,4.452h-3.4a4.451,4.451,0,0,0,4.452-4.452V11.947A4.451,4.451,0,0,0,431.738,7.5h3.4A4.45,4.45,0,0,1,439.584,11.947Z" transform="translate(-359.472 -6.241)" fill="#bfbfbf"/>
    <path id="Path_202605" data-name="Path 202605" d="M127.125,81.711H67.365a2.035,2.035,0,0,1-2.035-2.035v-34.6a2.035,2.035,0,0,1,2.035-2.035h59.76a2.035,2.035,0,0,1,2.035,2.035v34.6a2.035,2.035,0,0,1-2.035,2.035" transform="translate(-54.395 -35.834)" fill="#4dd0e1"/>
    <path id="Path_202606" data-name="Path 202606" d="M419.909,45.071v34.6a2.036,2.036,0,0,1-2.034,2.036h-3.346a2.036,2.036,0,0,0,2.034-2.036v-34.6a2.036,2.036,0,0,0-2.034-2.036h3.346A2.036,2.036,0,0,1,419.909,45.071Z" transform="translate(-345.143 -35.832)" fill="#3da6b4"/>
    <path id="Path_202607" data-name="Path 202607" d="M218.458,313.683H205.8a2.493,2.493,0,0,1-2.493-2.493V309.62H220.95v1.571a2.493,2.493,0,0,1-2.493,2.493" transform="translate(-169.281 -257.794)" fill="#838383"/>
    <path id="Path_202608" data-name="Path 202608" d="M278.118,309.62v1.571a2.492,2.492,0,0,1-2.493,2.492h-3.653a2.492,2.492,0,0,0,2.493-2.492V309.62Z" transform="translate(-226.448 -257.794)" fill="#5a5a5a"/>
    <path id="Path_202609" data-name="Path 202609" d="M80.022,43.035V81.709H67.365a2.036,2.036,0,0,1-2.034-2.036v-34.6a2.036,2.036,0,0,1,2.034-2.036Z" transform="translate(-54.396 -35.832)" fill="#feca2e"/>
    <rect id="Rectangle_44853" data-name="Rectangle 44853" width="3.346" height="38.674" transform="translate(22.281 7.203)" fill="#cba124"/>
    <path id="Path_202610" data-name="Path 202610" d="M82.375,50.571H80.386a5.673,5.673,0,0,0,.982-3.2V5.705A5.712,5.712,0,0,0,75.662,0H10.039A5.712,5.712,0,0,0,4.334,5.705V47.375a5.673,5.673,0,0,0,.982,3.2H3.327A3.33,3.33,0,0,0,0,53.9a7.318,7.318,0,0,0,7.31,7.31H55.888a1.255,1.255,0,0,0,0-2.509H7.31a4.806,4.806,0,0,1-4.8-4.8.818.818,0,0,1,.817-.817h29.45V53.4a3.752,3.752,0,0,0,3.747,3.747H49.177A3.752,3.752,0,0,0,52.924,53.4V53.08h29.45a.818.818,0,0,1,.817.817,4.806,4.806,0,0,1-4.8,4.8h-16.8a1.255,1.255,0,1,0,0,2.509h16.8A7.318,7.318,0,0,0,85.7,53.9,3.33,3.33,0,0,0,82.375,50.571ZM50.415,53.4a1.239,1.239,0,0,1-1.238,1.238H36.524A1.239,1.239,0,0,1,35.286,53.4V53.08H50.415V53.4Zm28.443-6.022a3.2,3.2,0,0,1-3.2,3.2H10.039a3.2,3.2,0,0,1-3.2-3.2V5.705a3.2,3.2,0,0,1,3.2-3.2H75.662a3.2,3.2,0,0,1,3.2,3.2V47.375Z"/>
    <path id="Path_202611" data-name="Path 202611" d="M96.778,75.28h2.074a1.255,1.255,0,1,0,0-2.509H96.778a1.255,1.255,0,0,0,0,2.509" transform="translate(-79.534 -60.59)"/>
    <path id="Path_202612" data-name="Path 202612" d="M96.778,106.6h2.074a1.255,1.255,0,1,0,0-2.509H96.778a1.255,1.255,0,0,0,0,2.509" transform="translate(-79.534 -86.664)"/>
    <path id="Path_202613" data-name="Path 202613" d="M96.778,137.913h2.074a1.255,1.255,0,1,0,0-2.509H96.778a1.255,1.255,0,0,0,0,2.509" transform="translate(-79.534 -112.739)"/>
    <path id="Path_202614" data-name="Path 202614" d="M96.778,169.229h2.074a1.255,1.255,0,1,0,0-2.509H96.778a1.255,1.255,0,0,0,0,2.509" transform="translate(-79.534 -138.814)"/>
    <path id="Path_202615" data-name="Path 202615" d="M96.778,200.545h2.074a1.255,1.255,0,0,0,0-2.509H96.778a1.255,1.255,0,0,0,0,2.509" transform="translate(-79.534 -164.888)"/>
    <path id="Path_202616" data-name="Path 202616" d="M96.778,231.861h2.074a1.255,1.255,0,1,0,0-2.509H96.778a1.255,1.255,0,0,0,0,2.509" transform="translate(-79.534 -190.962)"/>
    <path id="Path_202617" data-name="Path 202617" d="M179.529,75.28h3.96a1.255,1.255,0,0,0,0-2.509h-3.96a1.255,1.255,0,1,0,0,2.509" transform="translate(-148.434 -60.59)"/>
    <path id="Path_202618" data-name="Path 202618" d="M209.321,229.353H179.529a1.255,1.255,0,1,0,0,2.509h29.792a1.255,1.255,0,0,0,0-2.509" transform="translate(-148.434 -190.963)"/>
    <path id="Path_202619" data-name="Path 202619" d="M179.529,137.913h3.96a1.255,1.255,0,0,0,0-2.509h-3.96a1.255,1.255,0,1,0,0,2.509" transform="translate(-148.434 -112.739)"/>
    <path id="Path_202620" data-name="Path 202620" d="M179.529,169.229h3.96a1.255,1.255,0,0,0,0-2.509h-3.96a1.255,1.255,0,1,0,0,2.509" transform="translate(-148.434 -138.814)"/>
    <path id="Path_202621" data-name="Path 202621" d="M288.513,200.545a1.255,1.255,0,0,0,0-2.509h-3.96a1.255,1.255,0,0,0,0,2.509Z" transform="translate(-235.879 -164.888)"/>
    <path id="Path_202622" data-name="Path 202622" d="M179.529,200.545h11.755a1.255,1.255,0,0,0,0-2.509H179.529a1.255,1.255,0,1,0,0,2.509Z" transform="translate(-148.434 -164.888)"/>
    <path id="Path_202623" data-name="Path 202623" d="M242.065,137.913a1.255,1.255,0,0,0,0-2.509h-3.96a1.255,1.255,0,1,0,0,2.509Z" transform="translate(-197.206 -112.739)"/>
    <path id="Path_202624" data-name="Path 202624" d="M301.816,135.4h-11.2a1.255,1.255,0,0,0,0,2.509h11.2a1.255,1.255,0,1,0,0-2.509" transform="translate(-240.929 -112.739)"/>
    <path id="Path_202625" data-name="Path 202625" d="M265.447,72.772H238.106a1.255,1.255,0,1,0,0,2.509h27.341a1.255,1.255,0,0,0,0-2.509" transform="translate(-197.206 -60.591)"/>
    <path id="Path_202626" data-name="Path 202626" d="M209.321,104.088H179.529a1.255,1.255,0,1,0,0,2.509h29.792a1.255,1.255,0,0,0,0-2.509" transform="translate(-148.434 -86.665)"/>
    <path id="Path_202627" data-name="Path 202627" d="M120.884,35.542H61.124a3.294,3.294,0,0,0-3.29,3.29v3.617a1.255,1.255,0,1,0,2.509,0V38.832a.781.781,0,0,1,.781-.781h11.4V74.215h-11.4a.781.781,0,0,1-.781-.781V48.27a1.255,1.255,0,1,0-2.509,0V73.434a3.294,3.294,0,0,0,3.29,3.29h59.76a3.294,3.294,0,0,0,3.29-3.29v-34.6a3.294,3.294,0,0,0-3.29-3.29m.781,37.892a.781.781,0,0,1-.781.781H75.035V38.051h45.849a.781.781,0,0,1,.781.781v34.6Z" transform="translate(-48.153 -29.593)"/>
  </g>
</svg>
