<svg id="_23" data-name="23" xmlns="http://www.w3.org/2000/svg" xmlns:xlink="http://www.w3.org/1999/xlink" width="362.759" height="358.5" viewBox="0 0 362.759 358.5">
  <defs>
    <clipPath id="clip-path">
      <rect id="Rectangle_44910" data-name="Rectangle 44910" width="362.759" height="358.5" fill="none"/>
    </clipPath>
    <clipPath id="clip-path-3">
      <rect id="Rectangle_44891" data-name="Rectangle 44891" width="149.047" height="76.231" fill="none"/>
    </clipPath>
    <clipPath id="clip-path-4">
      <rect id="Rectangle_44892" data-name="Rectangle 44892" width="6.447" height="14.446" fill="none"/>
    </clipPath>
    <clipPath id="clip-path-5">
      <rect id="Rectangle_44897" data-name="Rectangle 44897" width="46.422" height="29.297" fill="none"/>
    </clipPath>
    <clipPath id="clip-path-6">
      <rect id="Rectangle_44898" data-name="Rectangle 44898" width="44.106" height="31.262" fill="none"/>
    </clipPath>
    <clipPath id="clip-path-7">
      <rect id="Rectangle_44899" data-name="Rectangle 44899" width="44.344" height="38.644" fill="none"/>
    </clipPath>
    <clipPath id="clip-path-8">
      <rect id="Rectangle_44900" data-name="Rectangle 44900" width="28.424" height="44.086" fill="none"/>
    </clipPath>
    <clipPath id="clip-path-9">
      <rect id="Rectangle_44901" data-name="Rectangle 44901" width="22.069" height="47.653" fill="none"/>
    </clipPath>
    <clipPath id="clip-path-10">
      <rect id="Rectangle_44902" data-name="Rectangle 44902" width="33.1" height="47.944" fill="none"/>
    </clipPath>
    <clipPath id="clip-path-11">
      <rect id="Rectangle_44903" data-name="Rectangle 44903" width="38.519" height="43.095" fill="none"/>
    </clipPath>
    <clipPath id="clip-path-12">
      <rect id="Rectangle_44904" data-name="Rectangle 44904" width="44.291" height="28.836" fill="none"/>
    </clipPath>
    <clipPath id="clip-path-13">
      <rect id="Rectangle_44905" data-name="Rectangle 44905" width="47.517" height="22.56" fill="none"/>
    </clipPath>
    <clipPath id="clip-path-14">
      <rect id="Rectangle_44906" data-name="Rectangle 44906" width="47.779" height="32.842" fill="none"/>
    </clipPath>
    <clipPath id="clip-path-15">
      <rect id="Rectangle_44907" data-name="Rectangle 44907" width="204.893" height="183.752" fill="none"/>
    </clipPath>
    <clipPath id="clip-path-16">
      <rect id="Rectangle_44908" data-name="Rectangle 44908" width="34.679" height="28.904" fill="none"/>
    </clipPath>
  </defs>
  <g id="Group_146790" data-name="Group 146790" clip-path="url(#clip-path)">
    <rect id="Rectangle_44883" data-name="Rectangle 44883" width="58.995" height="45.502" transform="translate(270.619 176.378)" fill="#ebebeb"/>
    <rect id="Rectangle_44884" data-name="Rectangle 44884" width="7.109" height="8.036" transform="translate(274.837 209.872)" fill="#fff"/>
    <rect id="Rectangle_44885" data-name="Rectangle 44885" width="6.701" height="9.709" transform="translate(304.916 176.495)" fill="#fafafa"/>
    <rect id="Rectangle_44886" data-name="Rectangle 44886" width="6.701" height="9.709" transform="translate(304.916 212.035)" fill="#fafafa"/>
    <g id="Group_146789" data-name="Group 146789">
      <g id="Group_146788" data-name="Group 146788" clip-path="url(#clip-path)">
        <path id="Path_202896" data-name="Path 202896" d="M349.48,262.113c-.1,0-.188-10.007-.188-22.35s.084-22.352.188-22.352.188,10.006.188,22.352-.084,22.35-.188,22.35" transform="translate(-64.135 -39.92)" fill="#e0e0e0"/>
        <rect id="Rectangle_44887" data-name="Rectangle 44887" width="101.79" height="78.509" transform="translate(246.557 221.729)" fill="#ebebeb"/>
        <rect id="Rectangle_44888" data-name="Rectangle 44888" width="12.265" height="13.865" transform="translate(253.833 279.521)" fill="#fff"/>
        <rect id="Rectangle_44889" data-name="Rectangle 44889" width="11.562" height="16.752" transform="translate(305.732 221.932)" fill="#fafafa"/>
        <rect id="Rectangle_44890" data-name="Rectangle 44890" width="11.562" height="16.752" transform="translate(305.732 283.253)" fill="#fafafa"/>
        <path id="Path_202897" data-name="Path 202897" d="M333.059,351.081c-.18,0-.325-17.267-.325-38.563s.145-38.566.325-38.566.324,17.263.324,38.566-.145,38.563-.324,38.563" transform="translate(-61.095 -50.302)" fill="#e0e0e0"/>
        <path id="Path_202898" data-name="Path 202898" d="M418.766,71.579l5.453,11.048L436.411,84.4,427.588,93l2.083,12.143-10.905-5.733-10.905,5.733L409.943,93l-8.823-8.6,12.193-1.772Z" transform="translate(-73.652 -13.143)" fill="#ebebeb"/>
        <path id="Path_202899" data-name="Path 202899" d="M22.523,246.335l3.436,6.963,7.685,1.117-5.56,5.42,1.313,7.653-6.873-3.613-6.873,3.613,1.313-7.653-5.56-5.42,7.685-1.117Z" transform="translate(-2.094 -45.231)" fill="#ebebeb"/>
        <path id="Path_202900" data-name="Path 202900" d="M24.694,172.029l7.631,15.462,17.063,2.479L37.041,202.005,39.955,219l-15.262-8.023L9.432,219l2.914-16.994L0,189.97l17.062-2.479Z" transform="translate(0 -31.587)" fill="#ebebeb"/>
        <path id="Path_202901" data-name="Path 202901" d="M414.393,132.692l3.289,6.664,7.354,1.069-5.321,5.187,1.256,7.325-6.578-3.458-6.578,3.458,1.256-7.325-5.321-5.187,7.354-1.069Z" transform="translate(-74.134 -24.364)" fill="#ebebeb"/>
        <path id="Path_202902" data-name="Path 202902" d="M282.17.436,285.459,7.1l7.354,1.069-5.321,5.187,1.256,7.325-6.578-3.458-6.578,3.458,1.256-7.325-5.321-5.187L278.881,7.1Z" transform="translate(-49.856 -0.08)" fill="#ebebeb"/>
        <path id="Path_202903" data-name="Path 202903" d="M375.172,87.777l2.153,4.362,4.813.7-3.483,3.395.822,4.795-4.306-2.264-4.306,2.264.823-4.795-3.484-3.395,4.813-.7Z" transform="translate(-67.608 -16.117)" fill="#ebebeb"/>
        <path id="Path_202904" data-name="Path 202904" d="M130.388,357.476l4.193,8.5,9.375,1.363-6.784,6.613,1.6,9.338-8.386-4.408L122,383.284l1.6-9.338-6.784-6.613,9.375-1.363Z" transform="translate(-21.45 -65.638)" fill="#ebebeb"/>
        <path id="Path_202905" data-name="Path 202905" d="M145.736,347.132l1.732,3.51,3.874.563-2.8,2.732.662,3.857-3.465-1.821-3.465,1.821.662-3.857-2.8-2.732,3.874-.563Z" transform="translate(-25.73 -63.739)" fill="#ebebeb"/>
        <path id="Path_202906" data-name="Path 202906" d="M333.968,307.288l3.687,7.47,8.243,1.2-5.965,5.814,1.407,8.21-7.373-3.876-7.373,3.876L328,321.77l-5.965-5.814,8.243-1.2Z" transform="translate(-59.131 -56.423)" fill="#4dd0e1"/>
        <path id="Path_202907" data-name="Path 202907" d="M356.929,299.178l1.737,3.519,3.884.565L359.74,306l.664,3.869-3.475-1.827-3.475,1.827.664-3.869-2.811-2.74,3.884-.565Z" transform="translate(-64.505 -54.934)" fill="#4dd0e1"/>
        <path id="Path_202908" data-name="Path 202908" d="M329.944,49.866l2.883-9.028a28.144,28.144,0,1,1,22.667,15.487A26.445,26.445,0,0,1,339.3,49.3Z" transform="translate(-60.572 -0.045)" fill="#fafafa"/>
        <path id="Path_202909" data-name="Path 202909" d="M329.914,49.821s.217-.022.623-.052l1.8-.13,6.929-.474.039,0,.029.027a25.9,25.9,0,0,0,12.21,6.34,28.816,28.816,0,0,0,4.3.613l2.285.087c.775-.006,1.56-.087,2.358-.127a28.027,28.027,0,0,0,18.529-9.451,27.657,27.657,0,0,0,5.776-10.467,28.435,28.435,0,0,0,.695-12.662,24.988,24.988,0,0,0-.746-3.209,12.971,12.971,0,0,0-.536-1.572c-.2-.518-.382-1.046-.6-1.561a28.7,28.7,0,0,0-3.452-5.8,26.071,26.071,0,0,0-2.21-2.569,14.359,14.359,0,0,0-1.222-1.158c-.422-.367-.82-.763-1.26-1.1l-1.342-.99-.669-.492-.712-.425L371.319,3.8c-.477-.271-.986-.478-1.475-.718A27.961,27.961,0,0,0,331.82,18.5l-.4,1.119a7.381,7.381,0,0,0-.345,1.118q-.28,1.127-.551,2.218a38.929,38.929,0,0,0-.5,4.306,27.981,27.981,0,0,0,2.857,13.492l.017.034-.011.035c-.954,2.909-1.689,5.146-2.19,6.672-.249.752-.44,1.327-.574,1.731s-.207.6-.207.6.05-.186.166-.57q.185-.6.527-1.718l2.1-6.769.006.069a27.959,27.959,0,0,1-2.974-13.585,38.949,38.949,0,0,1,.486-4.354q.268-1.1.547-2.245a7.42,7.42,0,0,1,.344-1.132l.4-1.134A28.244,28.244,0,0,1,370.022,2.7c.5.244,1.014.455,1.5.729l1.439.86.722.431.68.5,1.363,1c.447.346.851.748,1.28,1.121a14.529,14.529,0,0,1,1.24,1.175,26.342,26.342,0,0,1,2.243,2.608,29.084,29.084,0,0,1,3.5,5.887c.217.523.4,1.058.6,1.585a13.367,13.367,0,0,1,.544,1.6,25.338,25.338,0,0,1,.755,3.259,28.807,28.807,0,0,1-.718,12.849A28,28,0,0,1,379.3,46.905a28.311,28.311,0,0,1-18.791,9.518c-.807.038-1.6.117-2.385.119l-2.31-.1a29.155,29.155,0,0,1-4.333-.641,25.934,25.934,0,0,1-12.274-6.48l.069.024-7,.366L330.5,49.8c-.4.018-.586.02-.586.02" transform="translate(-60.542 0)" fill="#263238"/>
        <path id="Path_202910" data-name="Path 202910" d="M344.822,30.987l4.631-4.009,7.8,8L374.736,20.42l3.7,4.609-22.4,18.24Z" transform="translate(-63.314 -3.749)" fill="#4dd0e1"/>
        <path id="Path_202911" data-name="Path 202911" d="M222.059,252.454,65.506,287.343A7.049,7.049,0,0,1,57.093,282L6.287,54.022a7.049,7.049,0,0,1,5.347-8.414L168.186,10.719a7.05,7.05,0,0,1,8.414,5.347l50.806,227.975a7.049,7.049,0,0,1-5.347,8.414" transform="translate(-1.123 -1.937)" fill="#e0e0e0"/>
        <path id="Path_202912" data-name="Path 202912" d="M222.023,252.421s.174-.054.519-.153a7.609,7.609,0,0,0,1.467-.639,7.282,7.282,0,0,0,1.979-1.722,7.084,7.084,0,0,0,1.431-3.306,6.724,6.724,0,0,0-.017-2.18c-.128-.759-.337-1.552-.515-2.387q-.561-2.5-1.227-5.471c-.886-3.955-1.909-8.518-3.059-13.654-4.593-20.553-11.238-50.287-19.45-87.028-4.1-18.373-8.592-38.5-13.415-60.1q-3.615-16.2-7.471-33.482l-3.906-17.511q-1-4.434-2-8.928a6.867,6.867,0,0,0-6.644-5.182,9.707,9.707,0,0,0-2.273.327l-2.288.51-4.6,1.025-9.276,2.069L132.41,18.815,93.492,27.492,11.653,45.735a6.88,6.88,0,0,0-5.3,7.881c.739,3.475,1.54,6.955,2.3,10.414q2.313,10.386,4.6,20.629,4.564,20.484,8.986,40.333l16.982,76.246c5.409,24.3,10.549,47.387,15.36,69q.9,4.052,1.788,8.033c.3,1.323.576,2.658.9,3.955a6.848,6.848,0,0,0,2.022,3.323,6.994,6.994,0,0,0,3.464,1.7,7.423,7.423,0,0,0,1.935.06c.635-.084,1.277-.24,1.917-.382l7.6-1.691,28.844-6.417L190.1,259.469l23.669-5.242,6.157-1.355c1.388-.3,2.1-.451,2.1-.451s-.708.17-2.092.484l-6.151,1.388-23.656,5.3L103.1,279.045l-28.839,6.439-7.6,1.7c-.638.141-1.275.3-1.945.387a7.677,7.677,0,0,1-2.01-.06,7.268,7.268,0,0,1-3.6-1.763,7.123,7.123,0,0,1-2.1-3.452c-.327-1.319-.6-2.638-.9-3.965q-.889-3.981-1.793-8.032l-15.39-68.989c-5.418-24.3-11.105-49.8-17-76.242Q17.5,105.233,12.93,84.733L8.332,64.1c-.765-3.466-1.562-6.923-2.307-10.43a7.219,7.219,0,0,1,5.555-8.268L93.421,27.169,132.34,18.5l18.87-4.2,9.276-2.065,4.6-1.024,2.288-.509a10.035,10.035,0,0,1,2.341-.334,7.176,7.176,0,0,1,6.941,5.416l2,8.939q1.976,8.878,3.9,17.511Q186.4,59.5,190.009,75.717c4.808,21.607,9.286,41.735,13.375,60.11l19.345,87.052c1.139,5.139,2.151,9.7,3.029,13.661q.656,2.968,1.212,5.475c.176.838.381,1.625.508,2.393a6.786,6.786,0,0,1,.009,2.2,7.124,7.124,0,0,1-1.458,3.328,7.261,7.261,0,0,1-2,1.72,7.342,7.342,0,0,1-1.479.625c-.348.094-.524.136-.524.136" transform="translate(-1.087 -1.903)" fill="#263238"/>
        <g id="Group_146748" data-name="Group 146748" transform="translate(65.915 201.104)" opacity="0.3">
          <g id="Group_146747" data-name="Group 146747">
            <g id="Group_146746" data-name="Group 146746" clip-path="url(#clip-path-3)">
              <path id="Path_202913" data-name="Path 202913" d="M87.147,322.566l142.64-32.607L225.274,262l-8.085-15.666-136.45,53.6Z" transform="translate(-80.74 -246.335)"/>
            </g>
          </g>
        </g>
        <g id="Group_146751" data-name="Group 146751" transform="translate(131.872 17.142)" opacity="0.3">
          <g id="Group_146750" data-name="Group 146750">
            <g id="Group_146749" data-name="Group 146749" clip-path="url(#clip-path-4)">
              <path id="Path_202914" data-name="Path 202914" d="M161.532,21l5.4,8.91,1.051,4.72-3.662.816Z" transform="translate(-161.532 -20.998)"/>
            </g>
          </g>
        </g>
        <path id="Path_202915" data-name="Path 202915" d="M16.279,57.643,65.766,279.7,220.888,245.13l-8.849-39.707L171.4,23.073Z" transform="translate(-2.989 -4.237)" fill="#fff"/>
        <path id="Path_202916" data-name="Path 202916" d="M16.279,57.606,171.371,22.9l.135-.03.029.135c13.763,61.71,30.936,138.719,49.516,222.032l0,.018.037.167-.167.037L65.8,279.816l-.153.034-.033-.152L16.279,57.606,65.918,279.63l-.185-.118,155.118-34.585-.13.2,0-.018L171.266,23.065l.164.1L16.279,57.606" transform="translate(-2.989 -4.199)" fill="#263238"/>
        <path id="Path_202917" data-name="Path 202917" d="M147.4,36.008,68.912,53.5l-3.95-17.725a5.164,5.164,0,0,1,3.917-6.164l68.406-15.245a5.166,5.166,0,0,1,6.165,3.918Z" transform="translate(-11.905 -2.615)" fill="#263238"/>
        <path id="Path_202918" data-name="Path 202918" d="M117.088,10.518,97.112,14.97l6.151,16.6,15.047-3.354Z" transform="translate(-17.831 -1.931)" fill="#263238"/>
        <path id="Path_202919" data-name="Path 202919" d="M138.192,14.395c.02.091-15.277,3.577-34.163,7.787s-34.22,7.548-34.24,7.458,15.274-3.577,34.167-7.787,34.216-7.547,34.237-7.457" transform="translate(-12.814 -2.643)" fill="#455a64"/>
        <path id="Path_202920" data-name="Path 202920" d="M70.254,54.116c-.091.02-.883-3.183-1.767-7.155s-1.529-7.209-1.438-7.229.882,3.183,1.767,7.156,1.528,7.208,1.438,7.228" transform="translate(-12.31 -7.295)" fill="#455a64"/>
        <path id="Path_202921" data-name="Path 202921" d="M160.731,32.075a66.2,66.2,0,0,1-1.62-6.493,66.484,66.484,0,0,1-1.291-6.566,66.4,66.4,0,0,1,1.62,6.493,66.433,66.433,0,0,1,1.291,6.566" transform="translate(-28.977 -3.492)" fill="#455a64"/>
        <path id="Path_202922" data-name="Path 202922" d="M141.786,39.754c.02.091-15.683,3.668-35.069,7.988S71.59,55.493,71.57,55.4s15.679-3.667,35.073-7.989,35.123-7.75,35.143-7.659" transform="translate(-13.141 -7.299)" fill="#455a64"/>
        <path id="Path_202923" data-name="Path 202923" d="M96.308,118.881c.02.092-10.571,2.531-23.652,5.446s-23.709,5.205-23.729,5.113,10.568-2.53,23.655-5.447,23.706-5.2,23.727-5.112" transform="translate(-8.984 -21.828)" fill="#263238"/>
        <path id="Path_202924" data-name="Path 202924" d="M175.86,107.99c.02.092-27.653,6.338-61.8,13.949s-61.863,13.708-61.884,13.616,27.648-6.336,61.809-13.95S175.84,107.9,175.86,107.99" transform="translate(-9.58 -19.828)" fill="#263238"/>
        <path id="Path_202925" data-name="Path 202925" d="M177.943,117.338c.02.092-27.653,6.338-61.8,13.949S54.277,144.994,54.257,144.9s27.648-6.336,61.809-13.95,61.857-13.707,61.877-13.615" transform="translate(-9.962 -21.545)" fill="#263238"/>
        <path id="Path_202926" data-name="Path 202926" d="M180.026,126.686c.02.092-27.653,6.338-61.8,13.949S56.36,154.342,56.34,154.25s27.648-6.337,61.809-13.95,61.857-13.707,61.877-13.615" transform="translate(-10.345 -23.261)" fill="#263238"/>
        <path id="Path_202927" data-name="Path 202927" d="M182.109,136.033c.02.092-27.653,6.338-61.8,13.949S58.443,163.689,58.423,163.6s27.648-6.336,61.809-13.95,61.857-13.707,61.877-13.615" transform="translate(-10.727 -24.977)" fill="#263238"/>
        <path id="Path_202928" data-name="Path 202928" d="M184.193,145.381c.02.092-27.653,6.338-61.8,13.949s-61.863,13.708-61.884,13.616,27.648-6.337,61.809-13.95,61.857-13.707,61.877-13.615" transform="translate(-11.11 -26.694)" fill="#263238"/>
        <path id="Path_202929" data-name="Path 202929" d="M86.16,208.13a1.854,1.854,0,0,1-.074-.258c-.047-.19-.106-.429-.18-.727-.158-.661-.375-1.578-.648-2.728-.545-2.36-1.31-5.677-2.226-9.645l.176.112L69.823,197.89c-.03.044.244-.385.129-.2v0l0,.007,0,.015.006.029.013.057.025.115.051.229.1.456.2.909q.2.9.4,1.79.393,1.772.767,3.462c.495,2.248.962,4.371,1.391,6.32l-.176-.112,9.678-2.08,2.745-.572.735-.145a1.912,1.912,0,0,1,.265-.042,1.174,1.174,0,0,1-.226.068l-.7.173-2.7.64L72.8,211.258l-.144.033-.033-.145c-.439-1.948-.918-4.067-1.424-6.313q-.378-1.686-.776-3.461-.2-.885-.4-1.79-.1-.453-.2-.908l-.1-.457-.051-.229-.026-.115-.012-.057-.007-.029,0-.015,0-.007v0c-.116.181.157-.251.131-.207l13.394-2.962.145-.032.031.145c.865,4.019,1.586,7.378,2.1,9.77.238,1.144.428,2.055.565,2.713.057.289.1.522.14.707a1.186,1.186,0,0,1,.035.233" transform="translate(-12.778 -35.724)" fill="#263238"/>
        <rect id="Rectangle_44893" data-name="Rectangle 44893" width="95.696" height="7.984" transform="matrix(0.976, -0.218, 0.218, 0.976, 79.501, 160.203)" fill="#e0e0e0"/>
        <path id="Path_202930" data-name="Path 202930" d="M92.5,236.581a1.852,1.852,0,0,1-.074-.258c-.047-.19-.106-.43-.18-.727-.158-.661-.375-1.578-.648-2.728-.545-2.361-1.31-5.677-2.226-9.645l.176.112-13.385,3.007c-.03.044.244-.385.129-.2v0l0,.007,0,.015.006.029.013.057.025.115.051.229.1.456q.1.457.2.909.2.9.4,1.79.393,1.772.767,3.462c.495,2.248.962,4.371,1.391,6.32l-.176-.112,9.678-2.08,2.745-.572.735-.145a1.915,1.915,0,0,1,.265-.042,1.175,1.175,0,0,1-.226.068l-.7.173-2.7.641-9.737,2.247-.144.033-.033-.145-1.424-6.313q-.378-1.686-.776-3.461-.2-.885-.4-1.79c-.067-.3-.135-.6-.2-.909l-.1-.456-.051-.229-.026-.115-.012-.057-.007-.029,0-.015,0-.007v0c-.116.181.157-.251.131-.207l13.394-2.961.145-.033.031.144c.864,4.019,1.586,7.379,2.1,9.77l.565,2.713c.057.289.1.522.14.707a1.184,1.184,0,0,1,.035.233" transform="translate(-13.942 -40.949)" fill="#263238"/>
        <rect id="Rectangle_44894" data-name="Rectangle 44894" width="95.695" height="7.984" transform="translate(84.678 183.431) rotate(-12.564)" fill="#e0e0e0"/>
        <path id="Path_202931" data-name="Path 202931" d="M98.841,265.034a1.857,1.857,0,0,1-.074-.258c-.047-.19-.106-.43-.18-.727-.158-.661-.375-1.578-.648-2.728-.545-2.361-1.31-5.677-2.226-9.645l.176.112L82.5,254.794c-.03.044.244-.385.129-.2v0l0,.007,0,.015.006.029.013.057.025.115.051.229.1.456.2.909.4,1.79q.392,1.772.767,3.462c.495,2.248.962,4.371,1.391,6.32l-.176-.112,9.678-2.08,2.745-.572.735-.146a1.971,1.971,0,0,1,.265-.042,1.173,1.173,0,0,1-.226.068l-.7.173-2.7.64-9.737,2.248-.144.033-.033-.145-1.424-6.313q-.378-1.686-.776-3.461-.2-.885-.4-1.79c-.067-.3-.135-.6-.2-.909l-.1-.456-.051-.229-.026-.115-.012-.057-.007-.029,0-.015,0-.007v0c-.116.181.157-.251.131-.207L95.825,251.5l.145-.032.031.145c.865,4.019,1.586,7.379,2.1,9.77l.565,2.713c.057.289.1.522.14.707a1.184,1.184,0,0,1,.035.233" transform="translate(-15.106 -46.173)" fill="#263238"/>
        <rect id="Rectangle_44895" data-name="Rectangle 44895" width="95.695" height="7.984" transform="translate(89.855 206.659) rotate(-12.564)" fill="#e0e0e0"/>
        <path id="Path_202932" data-name="Path 202932" d="M74.131,203.506l1.4-2.207,4.17,2.318,5.368-8.1,2.078,1.431-6.928,10.2Z" transform="translate(-13.612 -35.9)" fill="#4dd0e1"/>
        <path id="Path_202933" data-name="Path 202933" d="M80.259,231.006l1.4-2.207,4.17,2.318,5.368-8.1,2.078,1.431-6.927,10.2Z" transform="translate(-14.737 -40.95)" fill="#4dd0e1"/>
        <path id="Path_202934" data-name="Path 202934" d="M86.543,259.2l1.4-2.207,4.17,2.318,5.368-8.1,2.078,1.431-6.928,10.2Z" transform="translate(-15.891 -46.127)" fill="#4dd0e1"/>
        <path id="Path_202935" data-name="Path 202935" d="M130.972,296.381c.02.092-7.866,1.928-17.612,4.1s-17.667,3.859-17.688,3.767,7.863-1.927,17.614-4.1,17.666-3.858,17.686-3.766" transform="translate(-17.567 -54.419)" fill="#263238"/>
        <path id="Path_202936" data-name="Path 202936" d="M157.525,291.229a65.283,65.283,0,0,1-6.48,1.619,65.262,65.262,0,0,1-6.554,1.286,65.336,65.336,0,0,1,6.48-1.62,65.337,65.337,0,0,1,6.554-1.285" transform="translate(-26.531 -53.472)" fill="#263238"/>
        <path id="Path_202937" data-name="Path 202937" d="M224.651,268.776c.02.092-7.076,1.752-15.847,3.706s-15.9,3.466-15.923,3.374,7.073-1.752,15.848-3.707,15.9-3.466,15.921-3.373" transform="translate(-35.416 -49.351)" fill="#263238"/>
        <path id="Path_202938" data-name="Path 202938" d="M216.509,291.743c-.02-.007.069-.224.156-.65a4.3,4.3,0,0,0-.1-1.885,17.314,17.314,0,0,0-1.128-2.811,9.428,9.428,0,0,1-1.118-3.893,5.994,5.994,0,0,1,2.07-4.394,5.682,5.682,0,0,1,5.425-1.012,5.525,5.525,0,0,1,2.582,1.7,2.656,2.656,0,0,1,.613,1.527,1.425,1.425,0,0,1-.958,1.38,12.113,12.113,0,0,1-1.607.4l-1.622.334c-1.092.216-2.205.416-3.341.565a24.491,24.491,0,0,1-6.679.038,4.072,4.072,0,0,0-2.932.478A10.236,10.236,0,0,0,206.1,285.9a2.851,2.851,0,0,1-1.138,1.017,2.086,2.086,0,0,1-1.5.062,13.259,13.259,0,0,1-2.382-1.372,2.92,2.92,0,0,0-1.149-.435,1.639,1.639,0,0,0-1.094.277,6.354,6.354,0,0,0-1.383,1.812,4.313,4.313,0,0,1-3.447,1.988,4.063,4.063,0,0,1-2.859-1.012,4.166,4.166,0,0,1-1.13-1.567,2.61,2.61,0,0,1-.185-.648c.018,0,.067.223.248.62a4.289,4.289,0,0,0,1.154,1.492,3.941,3.941,0,0,0,2.762.924,4.12,4.12,0,0,0,3.255-1.93,6.464,6.464,0,0,1,1.435-1.9,1.907,1.907,0,0,1,1.272-.332,3.18,3.18,0,0,1,1.262.462,13.521,13.521,0,0,0,2.33,1.332,1.781,1.781,0,0,0,1.283-.057,2.551,2.551,0,0,0,1.007-.918,10.231,10.231,0,0,1,1.828-2.465,3.062,3.062,0,0,1,1.53-.576,7.667,7.667,0,0,1,1.631.026,24.349,24.349,0,0,0,6.6-.044c1.126-.148,2.232-.345,3.319-.559l1.618-.331a12.254,12.254,0,0,0,1.549-.377,1.084,1.084,0,0,0,.754-1.065,2.348,2.348,0,0,0-.539-1.332,5.232,5.232,0,0,0-2.421-1.6,5.4,5.4,0,0,0-5.146.927,5.76,5.76,0,0,0-2.011,4.182,9.348,9.348,0,0,0,1.05,3.81,16.548,16.548,0,0,1,1.084,2.857,4.185,4.185,0,0,1,.036,1.931,2.949,2.949,0,0,1-.223.636" transform="translate(-34.857 -50.827)" fill="#263238"/>
        <path id="Path_202939" data-name="Path 202939" d="M233.675,282.3a2.194,2.194,0,0,1-.426.127l-1.236.3-4.553,1.056c-3.844.892-9.148,2.15-14.983,3.629s-11.1,2.9-14.9,3.953l-4.506,1.242-1.228.327a2.162,2.162,0,0,1-.435.091,2.142,2.142,0,0,1,.416-.158l1.21-.389c1.053-.332,2.582-.793,4.477-1.347,3.789-1.109,9.046-2.569,14.886-4.052s11.155-2.7,15.015-3.533c1.929-.416,3.493-.74,4.577-.95l1.25-.235a2.136,2.136,0,0,1,.44-.06" transform="translate(-35.145 -51.834)" fill="#263238"/>
        <rect id="Rectangle_44896" data-name="Rectangle 44896" width="64.961" height="12.205" transform="translate(68.169 65.454) rotate(-12.564)" fill="#e0e0e0"/>
        <path id="Path_202940" data-name="Path 202940" d="M234.634,297.217l20.485,108.221,18.72-34.588,35.482,20.825L271.657,286.293Z" transform="translate(-43.082 -52.568)" fill="#4dd0e1"/>
        <g id="Group_146754" data-name="Group 146754" transform="translate(195.911 251.97)" opacity="0.3">
          <g id="Group_146753" data-name="Group 146753">
            <g id="Group_146752" data-name="Group 146752" clip-path="url(#clip-path-5)">
              <path id="Path_202941" data-name="Path 202941" d="M242.5,337.718a12.313,12.313,0,0,0,10.893-3.339c1.866-1.931,3.111-4.554,5.465-5.846,2.113-1.161,4.718-1,7.041-.354s4.511,1.719,6.844,2.323a17.884,17.884,0,0,0,13.649-2.026l-5.909-16.409-27.433-3.426-13.08,15.713Z" transform="translate(-239.974 -308.641)"/>
            </g>
          </g>
        </g>
        <path id="Path_202942" data-name="Path 202942" d="M278.048,373.287c-.113.029-3.164-11.21-6.813-25.1s-6.516-25.182-6.4-25.212,3.164,11.207,6.814,25.1,6.515,25.18,6.4,25.209" transform="translate(-48.627 -59.303)" fill="#263238"/>
        <path id="Path_202943" data-name="Path 202943" d="M221.509,304.113,201.024,412.333,182.3,377.746l-35.482,20.825,37.663-105.382Z" transform="translate(-26.959 -53.834)" fill="#4dd0e1"/>
        <g id="Group_146757" data-name="Group 146757" transform="translate(146.263 253.591)" opacity="0.3">
          <g id="Group_146756" data-name="Group 146756">
            <g id="Group_146755" data-name="Group 146755" clip-path="url(#clip-path-6)">
              <path id="Path_202944" data-name="Path 202944" d="M179.159,327.91s5.826,4.8,12.776,2.586,11.266-2.674,15.026,0S220.9,341.89,220.9,341.89l2.363-12.487-13.671-18.775-14.277,2.882-10.169,1.016-3.78,7.156Z" transform="translate(-179.159 -310.627)"/>
            </g>
          </g>
        </g>
        <path id="Path_202945" data-name="Path 202945" d="M331.037,159.714c0,7.765-9.925,14.453-11.376,21.792-1.5,7.561,5.086,17.529,2.2,24.486-2.935,7.078-14.666,9.459-18.878,15.751-4.245,6.339-1.981,18.084-7.356,23.459s-17.119,3.111-23.459,7.356c-6.291,4.212-8.672,15.943-15.751,18.879-6.956,2.884-16.924-3.7-24.485-2.2-7.338,1.452-14.027,11.376-21.792,11.376s-14.453-9.925-21.792-11.376c-7.561-1.5-17.529,5.086-24.486,2.2-7.078-2.935-9.459-14.666-15.751-18.879-6.34-4.244-18.083-1.981-23.459-7.356s-3.111-17.119-7.356-23.459c-4.212-6.292-15.943-8.672-18.879-15.75-2.884-6.957,3.7-16.924,2.2-24.486-1.452-7.339-11.376-14.027-11.376-21.792s9.925-14.453,11.376-21.792c1.5-7.561-5.086-17.529-2.2-24.486,2.935-7.078,14.666-9.459,18.878-15.751,4.245-6.339,1.981-18.084,7.356-23.459s17.119-3.111,23.459-7.356c6.292-4.212,8.672-15.943,15.751-18.879,6.956-2.884,16.924,3.7,24.485,2.2,7.338-1.452,14.027-11.376,21.792-11.376s14.453,9.925,21.792,11.376c7.561,1.5,17.529-5.086,24.486-2.2,7.078,2.935,9.459,14.666,15.751,18.879,6.34,4.244,18.083,1.981,23.459,7.356s3.111,17.119,7.356,23.459c4.212,6.292,15.943,8.672,18.879,15.75,2.884,6.957-3.7,16.924-2.2,24.486,1.452,7.338,11.376,14.027,11.376,21.792" transform="translate(-16.387 -7.128)" fill="#4dd0e1"/>
        <path id="Path_202946" data-name="Path 202946" d="M199.493,95.722a1.437,1.437,0,0,1-.22-.334l-.556-1c-.478-.867-1.139-2.138-1.927-3.724-1.577-3.17-3.616-7.623-5.582-12.657s-3.478-9.7-4.464-13.1c-.494-1.7-.869-3.083-1.1-4.044l-.265-1.109a1.42,1.42,0,0,1-.064-.394,1.422,1.422,0,0,1,.147.371c.093.3.206.655.341,1.087.311,1.008.727,2.36,1.233,4,1.057,3.373,2.614,8,4.572,13.029s3.952,9.482,5.458,12.681c.74,1.549,1.348,2.826,1.8,3.779l.485,1.031a1.427,1.427,0,0,1,.144.373" transform="translate(-34.025 -10.901)" fill="#263238"/>
        <path id="Path_202947" data-name="Path 202947" d="M214.877,93.549a4.1,4.1,0,0,1-.312-.9c-.176-.586-.407-1.44-.676-2.5-.539-2.119-1.207-5.068-1.811-8.352s-1.026-6.279-1.275-8.452c-.125-1.086-.212-1.967-.256-2.577a4.054,4.054,0,0,1-.029-.952,4.089,4.089,0,0,1,.193.932c.105.693.236,1.548.39,2.558.325,2.159.794,5.138,1.4,8.414s1.222,6.226,1.685,8.36c.215,1,.4,1.844.545,2.529a4.106,4.106,0,0,1,.151.94" transform="translate(-38.651 -12.819)" fill="#263238"/>
        <path id="Path_202948" data-name="Path 202948" d="M238.892,87.375c-.118,0-.42-9.155-.675-20.451s-.367-20.46-.25-20.464.42,9.153.675,20.454.367,20.459.25,20.461" transform="translate(-43.686 -8.531)" fill="#263238"/>
        <path id="Path_202949" data-name="Path 202949" d="M261.088,73.529c.112.035-1.206,4.614-2.943,10.227s-3.238,10.136-3.35,10.1,1.205-4.613,2.943-10.228,3.238-10.135,3.35-10.1" transform="translate(-46.783 -13.501)" fill="#263238"/>
        <path id="Path_202950" data-name="Path 202950" d="M272.054,94.4a1.414,1.414,0,0,1,.1-.386c.1-.293.224-.648.372-1.077.328-.934.836-2.272,1.47-3.924,1.276-3.3,3.111-7.828,5.2-12.8s4.029-9.463,5.46-12.7l1.719-3.82.489-1.029a1.377,1.377,0,0,1,.2-.347,1.43,1.43,0,0,1-.119.381l-.416,1.06-1.594,3.873-5.345,12.743-5.312,12.752c-.654,1.588-1.193,2.9-1.6,3.871l-.447,1.048a1.448,1.448,0,0,1-.183.355" transform="translate(-49.953 -10.707)" fill="#263238"/>
        <path id="Path_202951" data-name="Path 202951" d="M284.555,104.753a4.128,4.128,0,0,1,.465-.831c.322-.521.807-1.261,1.42-2.167,1.226-1.812,2.986-4.27,5.039-6.9s4.012-4.938,5.47-6.569c.729-.816,1.329-1.465,1.755-1.9a4.107,4.107,0,0,1,.693-.654,4.092,4.092,0,0,1-.569.763l-1.652,1.991c-1.4,1.678-3.312,4.008-5.362,6.633s-3.841,5.05-5.128,6.814l-1.529,2.087a4.118,4.118,0,0,1-.6.738" transform="translate(-52.248 -15.741)" fill="#263238"/>
        <path id="Path_202952" data-name="Path 202952" d="M302.736,117.841c-.08-.086,6.379-6.226,14.426-13.711s14.637-13.487,14.717-13.4-6.378,6.224-14.427,13.713-14.635,13.485-14.715,13.4" transform="translate(-55.587 -16.659)" fill="#263238"/>
        <path id="Path_202953" data-name="Path 202953" d="M330.682,127.044a22.591,22.591,0,0,1-2.461,1.341c-1.531.8-3.619,1.954-5.921,3.247s-4.424,2.411-5.995,3.145c-.786.367-1.427.651-1.879.829a2.581,2.581,0,0,1-.717.242,22.705,22.705,0,0,1,2.461-1.34c1.532-.8,3.62-1.954,5.922-3.248s4.423-2.411,5.995-3.145c.785-.367,1.426-.651,1.878-.829a2.59,2.59,0,0,1,.717-.242" transform="translate(-57.602 -23.326)" fill="#263238"/>
        <path id="Path_202954" data-name="Path 202954" d="M356.147,139.241c.038.111-7.65,2.919-17.173,6.271s-17.275,5.981-17.315,5.871,7.649-2.919,17.174-6.271,17.273-5.981,17.313-5.87" transform="translate(-59.062 -25.566)" fill="#263238"/>
        <path id="Path_202955" data-name="Path 202955" d="M364.876,191.907c-.011.117-8.367-.583-18.662-1.563s-18.634-1.869-18.623-1.986,8.365.583,18.663,1.563,18.632,1.87,18.621,1.986" transform="translate(-60.151 -34.583)" fill="#263238"/>
        <path id="Path_202956" data-name="Path 202956" d="M357.927,236.975c-.05.106-7.863-3.479-17.448-8.008s-17.318-8.286-17.267-8.392,7.861,3.479,17.449,8.009,17.316,8.285,17.266,8.392" transform="translate(-59.346 -40.5)" fill="#263238"/>
        <path id="Path_202957" data-name="Path 202957" d="M328.668,279.665c-.09.076-5.725-6.46-12.585-14.6s-12.35-14.8-12.26-14.871,5.724,6.458,12.585,14.6,12.349,14.794,12.26,14.87" transform="translate(-55.786 -45.94)" fill="#263238"/>
        <path id="Path_202958" data-name="Path 202958" d="M304.719,286.671a5.911,5.911,0,0,1-.681-.918c-.416-.606-1-1.493-1.71-2.6-1.42-2.211-3.322-5.3-5.325-8.773s-3.728-6.668-4.931-9c-.6-1.167-1.078-2.118-1.394-2.781a6.017,6.017,0,0,1-.454-1.049,5.8,5.8,0,0,1,.6.972c.4.713.9,1.625,1.512,2.716,1.27,2.3,3.033,5.463,5.034,8.932s3.86,6.578,5.213,8.827l1.594,2.668a5.919,5.919,0,0,1,.541,1.007" transform="translate(-53.289 -48.024)" fill="#263238"/>
        <path id="Path_202959" data-name="Path 202959" d="M288.674,307.087a1.4,1.4,0,0,1-.212-.335l-.534-1c-.46-.869-1.091-2.143-1.843-3.731-1.5-3.175-3.438-7.635-5.276-12.674s-3.224-9.7-4.115-13.1c-.447-1.7-.783-3.081-.99-4.041-.092-.441-.169-.806-.233-1.108a1.437,1.437,0,0,1-.053-.393,1.371,1.371,0,0,1,.136.373c.085.3.187.655.31,1.087l1.119,4c.963,3.372,2.394,8,4.224,13.034s3.719,9.492,5.151,12.694l1.718,3.784.462,1.032a1.427,1.427,0,0,1,.136.373" transform="translate(-50.57 -49.706)" fill="#263238"/>
        <path id="Path_202960" data-name="Path 202960" d="M257.868,294.853a23.693,23.693,0,0,1-.353-2.843c-.189-1.756-.486-4.177-.928-6.833s-.954-5.042-1.347-6.764a23.338,23.338,0,0,1-.591-2.8,2.722,2.722,0,0,1,.285.718c.158.47.364,1.157.6,2.012.469,1.709,1.027,4.1,1.474,6.767s.7,5.108.808,6.876c.057.884.087,1.6.09,2.1a2.7,2.7,0,0,1-.036.772" transform="translate(-46.756 -50.606)" fill="#263238"/>
        <path id="Path_202961" data-name="Path 202961" d="M236.953,318.719a1.552,1.552,0,0,1-.036-.419c0-.323-.011-.719-.019-1.2-.011-1.043,0-2.551.03-4.414.062-3.726.233-8.872.531-14.551s.66-10.816.96-14.531c.152-1.856.287-3.359.394-4.4.053-.478.1-.872.134-1.193a1.591,1.591,0,0,1,.076-.414,1.538,1.538,0,0,1,.009.42c-.015.323-.033.719-.054,1.2-.065,1.1-.153,2.593-.259,4.4-.217,3.777-.511,8.886-.836,14.532-.3,5.675-.517,10.815-.656,14.537-.068,1.813-.124,3.3-.165,4.408-.024.48-.045.876-.061,1.2a1.553,1.553,0,0,1-.05.418" transform="translate(-43.497 -50.972)" fill="#263238"/>
        <path id="Path_202962" data-name="Path 202962" d="M218.65,277.6a9.685,9.685,0,0,1-.245,2.083c-.212,1.276-.556,3.03-1.006,4.953s-.923,3.648-1.3,4.885a9.673,9.673,0,0,1-.706,1.975,10.92,10.92,0,0,1,.416-2.054c.336-1.4.735-3.065,1.176-4.9.422-1.843.8-3.509,1.125-4.915a11.012,11.012,0,0,1,.54-2.025" transform="translate(-39.547 -50.972)" fill="#263238"/>
        <path id="Path_202963" data-name="Path 202963" d="M185.913,262.329a45.158,45.158,0,0,1-3.572,5.062,45.192,45.192,0,0,1-3.911,4.8,90.363,90.363,0,0,1,7.483-9.866" transform="translate(-32.762 -48.167)" fill="#263238"/>
        <path id="Path_202964" data-name="Path 202964" d="M165.759,251.125c.088.078-4.977,6.027-11.314,13.286s-11.548,13.084-11.636,13.007,4.977-6.025,11.315-13.287,11.547-13.083,11.635-13.007" transform="translate(-26.222 -46.11)" fill="#263238"/>
        <path id="Path_202965" data-name="Path 202965" d="M159.683,238.722a81.784,81.784,0,0,1-6.3,5.463,81.412,81.412,0,0,1-6.565,5.135,82,82,0,0,1,6.3-5.463,82.086,82.086,0,0,1,6.565-5.135" transform="translate(-26.959 -43.833)" fill="#263238"/>
        <path id="Path_202966" data-name="Path 202966" d="M145.682,220.008c.051.106-7.005,3.612-15.759,7.83s-15.894,7.554-15.946,7.448,7-3.611,15.761-7.831,15.893-7.553,15.943-7.447" transform="translate(-20.928 -40.396)" fill="#263238"/>
        <path id="Path_202967" data-name="Path 202967" d="M144.567,210.672a2.671,2.671,0,0,1-.733.217c-.477.114-1.172.258-2.034.417-1.724.32-4.12.683-6.783.951s-5.085.384-6.838.412c-.876.015-1.585.012-2.075,0a2.655,2.655,0,0,1-.762-.069,21.831,21.831,0,0,1,2.826-.227c1.745-.105,4.154-.27,6.808-.535s5.045-.582,6.777-.825a21.778,21.778,0,0,1,2.815-.337" transform="translate(-23.015 -38.68)" fill="#263238"/>
        <path id="Path_202968" data-name="Path 202968" d="M137.572,188.918a9.213,9.213,0,0,1-1.428-.031l-3.883-.2c-3.279-.159-7.81-.309-12.816-.284s-9.537.228-12.813.422l-3.88.241a9.106,9.106,0,0,1-1.428.047,9.177,9.177,0,0,1,1.413-.211c.912-.111,2.236-.242,3.874-.376,3.275-.271,7.814-.518,12.832-.546s9.557.173,12.835.409c1.639.117,2.964.233,3.878.334a9.113,9.113,0,0,1,1.416.2" transform="translate(-18.605 -34.515)" fill="#263238"/>
        <path id="Path_202969" data-name="Path 202969" d="M142.4,168.731c-.032.113-5.319-1.263-11.807-3.074s-11.723-3.37-11.692-3.483,5.317,1.263,11.807,3.074,11.723,3.37,11.692,3.483" transform="translate(-21.833 -29.776)" fill="#263238"/>
        <path id="Path_202970" data-name="Path 202970" d="M144.092,150.509a1.39,1.39,0,0,1-.385-.087l-1.08-.327c-.936-.289-2.279-.746-3.925-1.345a129.157,129.157,0,0,1-24.527-12.079c-1.479-.94-2.66-1.725-3.459-2.292l-.918-.656c-.207-.153-.312-.24-.3-.252a1.39,1.39,0,0,1,.351.181l.961.589c.827.523,2.03,1.269,3.526,2.174,2.99,1.812,7.189,4.205,11.975,6.565s9.242,4.223,12.5,5.489c1.629.634,2.954,1.133,3.872,1.469l1.053.4a1.419,1.419,0,0,1,.358.168" transform="translate(-20.105 -24.507)" fill="#263238"/>
        <path id="Path_202971" data-name="Path 202971" d="M157.19,135.507c-.068.1-4.2-2.7-9.23-6.24s-9.053-6.492-8.985-6.588,4.2,2.7,9.23,6.24,9.053,6.491,8.985,6.587" transform="translate(-25.518 -22.525)" fill="#263238"/>
        <path id="Path_202972" data-name="Path 202972" d="M141.391,89.785a1.334,1.334,0,0,1,.309.227l.83.71,3.007,2.665,9.889,8.823,9.93,8.78,3,2.671.8.74c.181.173.271.269.262.28a1.291,1.291,0,0,1-.318-.215l-.856-.681c-.737-.6-1.794-1.474-3.09-2.568-2.593-2.189-6.143-5.251-10.015-8.69s-7.33-6.6-9.809-8.918c-1.24-1.158-2.236-2.1-2.916-2.766l-.776-.769c-.175-.18-.261-.279-.251-.29" transform="translate(-25.961 -16.486)" fill="#263238"/>
        <path id="Path_202973" data-name="Path 202973" d="M172.586,90.694c.023-.018.219.184.554.565s.807.945,1.376,1.654c1.136,1.417,2.648,3.422,4.213,5.71s2.885,4.426,3.793,6c.455.786.81,1.429,1.043,1.882a2.911,2.911,0,0,1,.326.722,22.812,22.812,0,0,1-1.626-2.447c-.971-1.53-2.327-3.633-3.887-5.915s-3.028-4.306-4.1-5.767a22.862,22.862,0,0,1-1.691-2.4" transform="translate(-31.689 -16.653)" fill="#263238"/>
        <g id="Group_146760" data-name="Group 146760" transform="translate(108.268 59.552)" opacity="0.2">
          <g id="Group_146759" data-name="Group 146759">
            <g id="Group_146758" data-name="Group 146758" clip-path="url(#clip-path-7)">
              <path id="Path_202974" data-name="Path 202974" d="M132.619,80.494l35.515,31.1,8.828-7.064-20.61-31.579a19.533,19.533,0,0,1-5.682,2.334c-3.976,1.136-15.681,1.439-18.052,5.213" transform="translate(-132.619 -72.946)"/>
            </g>
          </g>
        </g>
        <g id="Group_146763" data-name="Group 146763" transform="translate(147.802 40.116)" opacity="0.2">
          <g id="Group_146762" data-name="Group 146762">
            <g id="Group_146761" data-name="Group 146761" clip-path="url(#clip-path-8)">
              <path id="Path_202975" data-name="Path 202975" d="M181.044,49.816l17.344,43.409,11.081-3.472L205.776,52.1a19.554,19.554,0,0,1-6.143-.091c-4.1-.521-14.057-4.413-18.589-2.2" transform="translate(-181.044 -49.138)"/>
            </g>
          </g>
        </g>
        <g id="Group_146766" data-name="Group 146766" transform="translate(194.043 31.69)" opacity="0.3">
          <g id="Group_146765" data-name="Group 146765">
            <g id="Group_146764" data-name="Group 146764" clip-path="url(#clip-path-9)">
              <path id="Path_202976" data-name="Path 202976" d="M237.686,38.832l1.163,47.14,10.389.5,10.517-36.18a17.047,17.047,0,0,1-6.116-2.532c-3.6-2.3-10.922-9.3-15.954-8.926" transform="translate(-237.686 -38.817)"/>
            </g>
          </g>
        </g>
        <g id="Group_146769" data-name="Group 146769" transform="translate(222.102 40.609)" opacity="0.2">
          <g id="Group_146768" data-name="Group 146768">
            <g id="Group_146767" data-name="Group 146767" clip-path="url(#clip-path-10)">
              <path id="Path_202977" data-name="Path 202977" d="M289.289,49.743,272.054,93.2l9.384,4.486L305.154,68.41a21.051,21.051,0,0,1-4.5-5.3c-2.26-3.621-6.111-11.92-11.362-13.372" transform="translate(-272.055 -49.743)"/>
            </g>
          </g>
        </g>
        <g id="Group_146772" data-name="Group 146772" transform="translate(247.71 67.728)" opacity="0.2">
          <g id="Group_146771" data-name="Group 146771">
            <g id="Group_146770" data-name="Group 146770" clip-path="url(#clip-path-11)">
              <path id="Path_202978" data-name="Path 202978" d="M335.524,82.961l-32.1,33.453,7.155,9.642,31.365-20.935a18.76,18.76,0,0,1-2.063-6.107c-.755-4.065-.865-11.473-4.355-16.053" transform="translate(-303.423 -82.961)"/>
            </g>
          </g>
        </g>
        <g id="Group_146775" data-name="Group 146775" transform="translate(261.924 105.492)" opacity="0.2">
          <g id="Group_146774" data-name="Group 146774">
            <g id="Group_146773" data-name="Group 146773" clip-path="url(#clip-path-12)">
              <path id="Path_202979" data-name="Path 202979" d="M364.061,129.219,320.833,147.01l3.586,11.044,37.61-4.081a21.984,21.984,0,0,1,.258-5.4c.478-4.106,4.792-13.279,1.773-19.352" transform="translate(-320.834 -129.219)"/>
            </g>
          </g>
        </g>
        <g id="Group_146778" data-name="Group 146778" transform="translate(267.2 152.586)" opacity="0.2">
          <g id="Group_146777" data-name="Group 146777">
            <g id="Group_146776" data-name="Group 146776" clip-path="url(#clip-path-13)">
              <path id="Path_202980" data-name="Path 202980" d="M374.814,186.9l-47.125,1.65-.392,10.393,35.95,10.517a13.986,13.986,0,0,1,1.426-4.291c2.646-5.005,10.141-12.062,10.141-18.269" transform="translate(-327.297 -186.905)"/>
            </g>
          </g>
        </g>
        <g id="Group_146781" data-name="Group 146781" transform="translate(258.258 180.236)" opacity="0.2">
          <g id="Group_146780" data-name="Group 146780">
            <g id="Group_146779" data-name="Group 146779" clip-path="url(#clip-path-14)">
              <path id="Path_202981" data-name="Path 202981" d="M364.122,237.685l-43.391-16.912-4.388,9.429,29.52,23.413a27.773,27.773,0,0,1,5.124-3.89c3.6-2.3,12.136-6.008,13.135-12.04" transform="translate(-316.343 -220.773)"/>
            </g>
          </g>
        </g>
        <g id="Group_146784" data-name="Group 146784" transform="translate(72.859 89.708)" opacity="0.2">
          <g id="Group_146783" data-name="Group 146783">
            <g id="Group_146782" data-name="Group 146782" clip-path="url(#clip-path-15)">
              <path id="Path_202982" data-name="Path 202982" d="M294.277,240.664l-10.74,9.014c.813.851,15.128,25.177,23.947,40.217.121-.089.235-.194.359-.277,5.809-3.889,16.144-2.33,21.97-6.176Z" transform="translate(-124.92 -133.898)"/>
              <path id="Path_202983" data-name="Path 202983" d="M268.911,261.549l-16.035,5.467,7.592,43.532a11.08,11.08,0,0,1,1.509-.418c7.561-1.5,17.529,5.086,24.486,2.2a10.121,10.121,0,0,0,2.628-1.641Z" transform="translate(-119.29 -137.733)"/>
              <path id="Path_202984" data-name="Path 202984" d="M231.789,321.384l2.563-56.87L220.489,261l-10.317,48.965c.127.02.256.038.382.062,7.162,1.417,13.706,10.9,21.235,11.355" transform="translate(-111.449 -137.632)"/>
              <path id="Path_202985" data-name="Path 202985" d="M187.676,253.477s-18.321,24.538-27.9,37.754a11.591,11.591,0,0,1,1.287.74c6.292,4.212,8.671,15.943,15.75,18.879a8.807,8.807,0,0,0,1,.337L203.4,262.744Z" transform="translate(-102.196 -136.251)"/>
              <path id="Path_202986" data-name="Path 202986" d="M162.133,229.276l-39.072,26.855c.149.193.313.38.447.581,4.244,6.339,1.981,18.083,7.356,23.458a9.459,9.459,0,0,0,1.652,1.283c13.806-15.562,38.592-43.495,39.49-44.464Z" transform="translate(-95.454 -131.807)"/>
              <path id="Path_202987" data-name="Path 202987" d="M148.869,205.791l-46.2,7.461c.736,7.41-5.1,16.769-2.356,23.4a9.242,9.242,0,0,0,.6,1.168c16.165-8.049,49.943-24.793,51.348-24.885Z" transform="translate(-91.142 -127.495)"/>
              <path id="Path_202988" data-name="Path 202988" d="M144.449,171.437l-43.669-12.6c-.036.38-.085.756-.158,1.125-1.452,7.338-11.376,14.027-11.376,21.791a9.532,9.532,0,0,0,.131,1.549h53.3Z" transform="translate(-89.245 -118.873)"/>
              <path id="Path_202989" data-name="Path 202989" d="M100.7,126.138c16.318,8.746,48.23,26.436,48.23,26.436l7.854-14.915-36.89-27.775c-.158.288-.311.58-.492.85-4.14,6.185-15.527,8.6-18.7,15.4" transform="translate(-91.349 -109.885)"/>
            </g>
          </g>
        </g>
        <path id="Path_202990" data-name="Path 202990" d="M330.99,159.675s-.02-.174-.051-.517a7.955,7.955,0,0,0-.216-1.518,16.35,16.35,0,0,0-2.447-5.473c-1.4-2.256-3.527-4.773-5.742-7.967a19.172,19.172,0,0,1-2.8-5.6,15.95,15.95,0,0,1-.015-7.108c.451-2.489,1.192-5.053,1.842-7.772.6-2.7,1.247-5.658.643-8.666a9.9,9.9,0,0,0-2.029-4.132,19.011,19.011,0,0,0-3.63-3.222c-2.71-1.923-5.822-3.461-8.806-5.468a20.137,20.137,0,0,1-4.165-3.561,13.449,13.449,0,0,1-2.551-5.05c-1.051-3.711-1.281-7.685-2.079-11.654a18.461,18.461,0,0,0-2.011-5.762,9.8,9.8,0,0,0-4.65-4.023,25.721,25.721,0,0,0-6.243-1.669c-2.166-.357-4.382-.609-6.608-1a20.991,20.991,0,0,1-6.544-2.06,15.457,15.457,0,0,1-5.032-4.874c-1.356-1.948-2.52-4.038-3.761-6.1a32.513,32.513,0,0,0-4.244-5.883,10.033,10.033,0,0,0-6.439-3.158,24.733,24.733,0,0,0-7.465.877c-2.482.6-4.966,1.321-7.54,1.8a15.958,15.958,0,0,1-7.884-.148,27.05,27.05,0,0,1-6.965-4.022c-2.173-1.6-4.3-3.3-6.625-4.717-2.317-1.368-4.96-2.51-7.712-2.2l-.51.04c-.168.029-.334.073-.5.108-.334.079-.672.14-1,.233a15.94,15.94,0,0,0-1.928.755,25.317,25.317,0,0,0-3.619,2.1c-2.325,1.585-4.516,3.406-6.9,5.023A25.655,25.655,0,0,1,191,49.464a12.722,12.722,0,0,1-4.252,1.075,29.826,29.826,0,0,1-8.708-1.241,59.093,59.093,0,0,0-8.656-1.817,13.468,13.468,0,0,0-4.384.295,9.6,9.6,0,0,0-3.839,2.109,29.288,29.288,0,0,0-5.391,7.208,49.522,49.522,0,0,1-5.117,7.686,12.839,12.839,0,0,1-3.673,2.914,20.945,20.945,0,0,1-4.454,1.521c-3.069.674-6.2.963-9.294,1.522-3.055.555-6.234,1.423-8.5,3.618a11.529,11.529,0,0,0-2.413,3.993,25.543,25.543,0,0,0-1.191,4.614c-.572,3.149-.836,6.383-1.6,9.563a16.629,16.629,0,0,1-1.737,4.6,13.22,13.22,0,0,1-3.272,3.7,77.232,77.232,0,0,1-8.317,5.324,37.357,37.357,0,0,0-4.048,2.8,13.212,13.212,0,0,0-3.167,3.693,9.526,9.526,0,0,0-1.136,4.7,24.351,24.351,0,0,0,.572,4.926c.691,3.263,1.727,6.477,2.279,9.833a17.108,17.108,0,0,1,.169,5.109,13.809,13.809,0,0,1-1.706,4.84c-1.7,2.984-3.921,5.6-5.889,8.377a27.727,27.727,0,0,0-2.634,4.356,10.258,10.258,0,0,0-.015,9.733,27.393,27.393,0,0,0,2.629,4.36c1.967,2.781,4.19,5.395,5.893,8.379a13.874,13.874,0,0,1,1.718,4.837,16.958,16.958,0,0,1-.161,5.111c-.549,3.357-1.587,6.573-2.278,9.837a24.554,24.554,0,0,0-.58,4.927,9.563,9.563,0,0,0,1.128,4.709,13.15,13.15,0,0,0,3.16,3.7,37.566,37.566,0,0,0,4.048,2.806,77.861,77.861,0,0,1,8.321,5.324,13.291,13.291,0,0,1,3.277,3.7,16.531,16.531,0,0,1,1.741,4.6c.766,3.181,1.029,6.416,1.6,9.566a25.547,25.547,0,0,0,1.189,4.615,11.494,11.494,0,0,0,2.411,4c2.263,2.2,5.443,3.069,8.5,3.625,3.091.56,6.226.848,9.3,1.522a21,21,0,0,1,4.456,1.52,12.83,12.83,0,0,1,3.675,2.913,49.487,49.487,0,0,1,5.119,7.688,29.245,29.245,0,0,0,5.391,7.209,9.586,9.586,0,0,0,3.84,2.11,13.465,13.465,0,0,0,4.384.295,59.085,59.085,0,0,0,8.657-1.818,29.864,29.864,0,0,1,8.71-1.24,12.724,12.724,0,0,1,4.252,1.076,25.737,25.737,0,0,1,3.757,2.173c2.381,1.618,4.573,3.439,6.9,5.024a25.2,25.2,0,0,0,3.62,2.1,16.116,16.116,0,0,0,1.927.755c.331.092.669.154,1,.233.167.035.333.08.5.108l.51.039c2.751.308,5.395-.836,7.711-2.2,2.329-1.416,4.453-3.119,6.626-4.719a26.97,26.97,0,0,1,6.967-4.021,15.97,15.97,0,0,1,7.885-.144c2.574.483,5.058,1.209,7.54,1.805a24.686,24.686,0,0,0,7.466.874,10.033,10.033,0,0,0,6.436-3.164,32.479,32.479,0,0,0,4.242-5.884c1.241-2.063,2.406-4.152,3.762-6.1a15.439,15.439,0,0,1,5.035-4.871,21,21,0,0,1,6.545-2.057c2.227-.394,4.442-.647,6.609-1a25.671,25.671,0,0,0,6.242-1.672,9.786,9.786,0,0,0,4.646-4.027,18.508,18.508,0,0,0,2.008-5.763c.8-3.968,1.028-7.943,2.08-11.654a13.425,13.425,0,0,1,2.554-5.048,20.183,20.183,0,0,1,4.168-3.559c2.982-2.006,6.1-3.546,8.8-5.468a19.06,19.06,0,0,0,3.63-3.223,9.889,9.889,0,0,0,2.025-4.133,13.856,13.856,0,0,0,.125-4.448,35.892,35.892,0,0,0-.771-4.217c-.65-2.719-1.391-5.282-1.842-7.771a15.956,15.956,0,0,1,.017-7.107,19.173,19.173,0,0,1,2.8-5.594c2.216-3.195,4.34-5.711,5.742-7.966a16.319,16.319,0,0,0,2.446-5.472,7.876,7.876,0,0,0,.216-1.518c.03-.343.051-.517.051-.517s-.007.174-.029.518a7.524,7.524,0,0,1-.194,1.526,16.185,16.185,0,0,1-2.416,5.509c-1.394,2.269-3.511,4.8-5.71,7.991a19.1,19.1,0,0,0-2.768,5.562,15.809,15.809,0,0,0,0,7.04c.455,2.476,1.2,5.035,1.858,7.758a36.049,36.049,0,0,1,.783,4.238,14.045,14.045,0,0,1-.118,4.511,10.087,10.087,0,0,1-2.06,4.226,19.2,19.2,0,0,1-3.666,3.269c-2.724,1.941-5.837,3.487-8.8,5.485a19.959,19.959,0,0,0-4.112,3.519,13.178,13.178,0,0,0-2.5,4.961c-1.037,3.674-1.264,7.641-2.059,11.637a18.756,18.756,0,0,1-2.034,5.85,10.078,10.078,0,0,1-4.769,4.147,25.9,25.9,0,0,1-6.31,1.7c-2.176.361-4.39.616-6.6,1.011a20.723,20.723,0,0,0-6.449,2.03,15.135,15.135,0,0,0-4.926,4.782c-1.341,1.93-2.5,4.015-3.744,6.085a32.813,32.813,0,0,1-4.284,5.948,10.375,10.375,0,0,1-6.641,3.267,25.005,25.005,0,0,1-7.574-.875c-2.492-.6-4.974-1.319-7.524-1.8a15.649,15.649,0,0,0-7.712.138,26.679,26.679,0,0,0-6.865,3.974c-2.166,1.6-4.293,3.306-6.65,4.742-.607.328-1.187.709-1.828.982-.317.145-.626.3-.949.435l-.988.35a10.007,10.007,0,0,1-4.168.492l-.531-.042c-.175-.028-.346-.074-.519-.11-.345-.081-.695-.145-1.036-.241a16.426,16.426,0,0,1-1.978-.771,25.742,25.742,0,0,1-3.675-2.128c-2.344-1.6-4.54-3.418-6.9-5.02a25.393,25.393,0,0,0-3.7-2.139,12.332,12.332,0,0,0-4.121-1.041,29.506,29.506,0,0,0-8.591,1.234,59.364,59.364,0,0,1-8.718,1.832,13.88,13.88,0,0,1-4.52-.3,9.991,9.991,0,0,1-4-2.191,29.592,29.592,0,0,1-5.476-7.305,49.148,49.148,0,0,0-5.075-7.622,12.456,12.456,0,0,0-3.558-2.822,20.664,20.664,0,0,0-4.362-1.484c-3.034-.665-6.164-.953-9.28-1.515a25.687,25.687,0,0,1-4.616-1.213,10.264,10.264,0,0,1-6.606-6.664,25.931,25.931,0,0,1-1.21-4.688c-.576-3.175-.841-6.405-1.6-9.54a16.129,16.129,0,0,0-1.7-4.488,12.863,12.863,0,0,0-3.181-3.585,77.77,77.77,0,0,0-8.276-5.29,38.05,38.05,0,0,1-4.1-2.84,13.57,13.57,0,0,1-3.262-3.823,9.993,9.993,0,0,1-1.179-4.9,24.967,24.967,0,0,1,.588-5.018c.7-3.292,1.733-6.5,2.273-9.816a16.513,16.513,0,0,0,.159-4.985,13.45,13.45,0,0,0-1.669-4.689c-1.672-2.932-3.888-5.541-5.869-8.339a27.763,27.763,0,0,1-2.668-4.427,10.674,10.674,0,0,1,.016-10.091,28.087,28.087,0,0,1,2.671-4.422c1.984-2.8,4.2-5.406,5.866-8.338a13.391,13.391,0,0,0,1.656-4.691,16.7,16.7,0,0,0-.167-4.985c-.545-3.31-1.578-6.521-2.275-9.813a24.769,24.769,0,0,1-.581-5.018,9.954,9.954,0,0,1,1.189-4.9,13.649,13.649,0,0,1,3.268-3.816,37.842,37.842,0,0,1,4.1-2.838,77.243,77.243,0,0,0,8.272-5.29,12.8,12.8,0,0,0,3.176-3.588,16.207,16.207,0,0,0,1.693-4.488c.754-3.135,1.02-6.365,1.6-9.539a25.945,25.945,0,0,1,1.212-4.687,10.254,10.254,0,0,1,6.611-6.656,25.606,25.606,0,0,1,4.615-1.212c3.115-.562,6.245-.85,9.277-1.515a20.578,20.578,0,0,0,4.36-1.486,12.441,12.441,0,0,0,3.557-2.822,49.226,49.226,0,0,0,5.073-7.621,29.6,29.6,0,0,1,5.475-7.3,10,10,0,0,1,4-2.19,13.828,13.828,0,0,1,4.519-.3,59.241,59.241,0,0,1,8.717,1.832,29.531,29.531,0,0,0,8.59,1.234,12.335,12.335,0,0,0,4.121-1.04,25.262,25.262,0,0,0,3.7-2.138c2.361-1.6,4.557-3.422,6.9-5.019a25.688,25.688,0,0,1,3.674-2.128,16.368,16.368,0,0,1,1.977-.772c.34-.1.691-.16,1.035-.242.173-.036.345-.081.519-.111l.531-.041a10,10,0,0,1,4.168.489l.988.35c.322.131.633.291.949.434.641.273,1.221.653,1.828.982,2.358,1.434,4.485,3.145,6.65,4.741a26.767,26.767,0,0,0,6.864,3.976,15.623,15.623,0,0,0,7.71.141c2.55-.476,5.031-1.2,7.524-1.794a25.03,25.03,0,0,1,7.574-.878,10.367,10.367,0,0,1,6.643,3.261,32.7,32.7,0,0,1,4.285,5.947c1.243,2.07,2.4,4.155,3.743,6.085a15.151,15.151,0,0,0,4.924,4.786,20.721,20.721,0,0,0,6.448,2.034c2.213.4,4.427.65,6.6,1.01a26,26,0,0,1,6.311,1.7,10.084,10.084,0,0,1,4.773,4.143,18.729,18.729,0,0,1,2.036,5.849c.8,4,1.023,7.963,2.058,11.638a13.222,13.222,0,0,0,2.5,4.963,19.96,19.96,0,0,0,4.11,3.522c2.961,2,6.075,3.546,8.8,5.485a19.174,19.174,0,0,1,3.666,3.268,10.094,10.094,0,0,1,2.064,4.224,14.051,14.051,0,0,1,.12,4.512,35.874,35.874,0,0,1-.783,4.238c-.657,2.724-1.4,5.283-1.858,7.759a15.818,15.818,0,0,0-.007,7.041,19.1,19.1,0,0,0,2.767,5.563c2.2,3.193,4.317,5.723,5.711,7.992a16.192,16.192,0,0,1,2.417,5.51,7.538,7.538,0,0,1,.194,1.527c.023.344.029.518.029.518" transform="translate(-16.339 -7.089)" fill="#263238"/>
        <path id="Path_202991" data-name="Path 202991" d="M206.436,324.326c.113.029-2.9,12.247-6.73,27.285s-7.028,27.211-7.143,27.182,2.9-12.244,6.731-27.288,7.028-27.209,7.142-27.18" transform="translate(-35.357 -59.551)" fill="#263238"/>
        <path id="Path_202992" data-name="Path 202992" d="M294.772,170.237a74.108,74.108,0,1,1-74.108-74.108,74.108,74.108,0,0,1,74.108,74.108" transform="translate(-26.91 -17.651)" fill="#fff"/>
        <path id="Path_202993" data-name="Path 202993" d="M179.8,149.173c-1.022,1.022-6.642,11.24-7.153,19.67s.7,55.774.7,55.774l.219,3.137c13.341,15.6,61.832,38.818,105.511-.078l2.448-29.12-7.207-61.645-25.034-6.131-5.871-9.515-39.126,9.16-3.489,8.25Z" transform="translate(-31.678 -22.266)" fill="#feca2e"/>
        <path id="Path_202994" data-name="Path 202994" d="M254.826,80.577c1.723-6.4,3.417-12.855,4.013-19.46s.044-13.43-2.583-19.519c-.4-.923-3.706-7.083-4.7-6.934-.711.108,1.429,5.9,1.1,6.542-3.141,6.1-3.711,13.261-2.809,20.059a89.809,89.809,0,0,0,4.978,19.312" transform="translate(-45.805 -6.364)" fill="#263238"/>
        <path id="Path_202995" data-name="Path 202995" d="M242.862,53.261c-.316-16.63-10.257-30.307-26.871-29.53l-1.532.161a29.734,29.734,0,0,0-26.613,30.3c.354,14.412.93,30.331,1.833,37.988,1.869,15.851,18,16.645,18,16.645.036,0,.74,10.424.74,10.424l6.818,7.407,31.6-19.574Z" transform="translate(-34.49 -4.352)" fill="#ffc09d"/>
        <path id="Path_202996" data-name="Path 202996" d="M212.146,126.252a38.554,38.554,0,0,0,20.021-8.288s-3.334,14.377-19.322,14.617Z" transform="translate(-38.953 -21.66)" fill="#ff9b6c"/>
        <path id="Path_202997" data-name="Path 202997" d="M199.03,76.365a2.28,2.28,0,0,0,2.427,2.056,2.179,2.179,0,0,0,2.12-2.29,2.279,2.279,0,0,0-2.424-2.058,2.182,2.182,0,0,0-2.123,2.292" transform="translate(-36.544 -13.6)" fill="#263238"/>
        <path id="Path_202998" data-name="Path 202998" d="M192.843,68.027c.312.266,1.895-1.186,4.335-1.437,2.434-.285,4.356.781,4.589.454.116-.145-.227-.649-1.065-1.135a6.263,6.263,0,0,0-3.713-.729,6.009,6.009,0,0,0-3.411,1.513c-.689.655-.887,1.216-.735,1.334" transform="translate(-35.4 -11.961)" fill="#263238"/>
        <path id="Path_202999" data-name="Path 202999" d="M225.424,74.123a2.28,2.28,0,0,0,2.427,2.056,2.179,2.179,0,0,0,2.12-2.29,2.281,2.281,0,0,0-2.425-2.058,2.182,2.182,0,0,0-2.123,2.292" transform="translate(-41.39 -13.189)" fill="#263238"/>
        <path id="Path_203000" data-name="Path 203000" d="M222.235,66.151c.313.265,1.9-1.186,4.337-1.437,2.433-.285,4.355.781,4.588.454.115-.145-.224-.649-1.066-1.133a6.25,6.25,0,0,0-3.711-.731,6.02,6.02,0,0,0-3.412,1.513c-.687.655-.886,1.216-.735,1.334" transform="translate(-40.797 -11.617)" fill="#263238"/>
        <path id="Path_203001" data-name="Path 203001" d="M212.506,86.289c0-.14-1.547-.242-4.037-.3-.629,0-1.232-.06-1.381-.474a3.187,3.187,0,0,1,.22-1.89q.64-2.354,1.342-4.937c1.846-7.022,3.113-12.769,2.83-12.841s-2.011,5.561-3.857,12.583q-.66,2.595-1.261,4.957a3.626,3.626,0,0,0-.065,2.479,1.573,1.573,0,0,0,1.12.8,4.248,4.248,0,0,0,1.074.036c2.486-.128,4.021-.278,4.016-.418" transform="translate(-37.842 -12.091)" fill="#263238"/>
        <path id="Path_203002" data-name="Path 203002" d="M221.364,92.026c-.4.019-.126,2.667-2.194,4.785s-4.916,2.123-4.9,2.5c-.019.17.682.447,1.878.355a6.637,6.637,0,0,0,4.1-1.935,5.773,5.773,0,0,0,1.669-3.994c-.016-1.118-.38-1.742-.559-1.708" transform="translate(-39.343 -16.897)" fill="#263238"/>
        <path id="Path_203003" data-name="Path 203003" d="M221.128,54.124c.309.638,2.713.067,5.61.11,2.9-.015,5.294.579,5.611-.056.14-.3-.329-.884-1.33-1.427a9.757,9.757,0,0,0-8.549-.042c-1,.534-1.479,1.111-1.342,1.415" transform="translate(-40.598 -9.501)" fill="#263238"/>
        <path id="Path_203004" data-name="Path 203004" d="M193.022,57.937c.487.509,2.107-.243,4.124-.483,2.009-.311,3.771-.021,4.1-.642.143-.3-.185-.825-.987-1.271a6.012,6.012,0,0,0-6.631.907c-.653.644-.828,1.24-.61,1.49" transform="translate(-35.425 -10.086)" fill="#263238"/>
        <path id="Path_203005" data-name="Path 203005" d="M255.168,74.264c.258-.145,10.566-4.375,11.362,6.512s-10.3,9.441-10.34,9.131-1.023-15.644-1.023-15.644" transform="translate(-46.853 -13.466)" fill="#ffc09d"/>
        <path id="Path_203006" data-name="Path 203006" d="M260.123,86.312c.045-.038.2.118.531.242a1.9,1.9,0,0,0,1.42-.074c1.119-.506,1.954-2.4,1.864-4.369a6.3,6.3,0,0,0-.73-2.677,2.2,2.2,0,0,0-1.533-1.351.968.968,0,0,0-1.082.6c-.123.315-.038.528-.095.55-.029.03-.247-.165-.193-.621a1.213,1.213,0,0,1,.379-.714,1.436,1.436,0,0,1,1.029-.353,2.671,2.671,0,0,1,2.1,1.542,6.459,6.459,0,0,1,.88,2.987c.091,2.2-.883,4.334-2.423,4.9a2.035,2.035,0,0,1-1.755-.161c-.357-.245-.432-.484-.4-.506" transform="translate(-47.761 -14.238)" fill="#ff9b6c"/>
        <path id="Path_203007" data-name="Path 203007" d="M194.971,35.221c-1.825-.859,3.1-6.909,7.3-9.154,6.357-3.393,16.239-5.865,22.387-4.542,7.4,1.593,13.674,4.821,17.749,11.2s5.943,14,6.218,21.568a13.045,13.045,0,0,1-1.106,6.755c-1.367,2.506-4.189,4.211-3.847,7.525a4.573,4.573,0,0,1-.918,3.4c-1.856,2.248-4.423.413-5.673-1.512-2.67-4.113-3.264-9.19-3.789-14.065-.373-3.466-.743-7.005.022-10.406.416-1.85,1.162-3.621,1.475-5.491a6.557,6.557,0,0,0-1.123-5.389,6.77,6.77,0,0,0-.942-.838,11.384,11.384,0,0,0-11.41-1.421c-5.995,2.565-16.262,6.481-19.133,4.575-4.128-2.742-5.2-4.634-5.2-4.634Z" transform="translate(-35.728 -3.886)" fill="#263238"/>
        <path id="Path_203008" data-name="Path 203008" d="M176.527,155.45c-.631.873-9.555,3.835-12.94,9.475s-6.734,30.964-6.734,30.964L154.7,212.56c4.245,6.716,9.939,15.606,15.981,21.877Z" transform="translate(-28.405 -28.543)" fill="#feca2e"/>
        <g id="Group_146787" data-name="Group 146787" transform="translate(215.169 151.359)" opacity="0.3">
          <g id="Group_146786" data-name="Group 146786">
            <g id="Group_146785" data-name="Group 146785" clip-path="url(#clip-path-16)">
              <path id="Path_203009" data-name="Path 203009" d="M263.563,185.4a42.988,42.988,0,0,0,1.928,10.046,14.461,14.461,0,0,0,6.209,7.884,17.7,17.7,0,0,1,3.715,2.125c1.127,1.047,1.694,2.568,2.714,3.719a10.682,10.682,0,0,0,4.582,2.683,40.245,40.245,0,0,0,15.2,2.422c.16-1.748.171-8.166.331-9.913Z" transform="translate(-263.563 -185.401)"/>
            </g>
          </g>
        </g>
        <path id="Path_203010" data-name="Path 203010" d="M294.23,140.431s11.251,3.328,14.547,8.121,9.139,23.37,10.336,26.815.149,11.435-2.1,17.178-6.146,10.686-12.886,11.435-17.382-3.146-19.774-5.693-3.4-8.263-3.4-8.263a63.218,63.218,0,0,0,8.832-2.216" transform="translate(-51.588 -25.785)" fill="#feca2e"/>
        <path id="Path_203011" data-name="Path 203011" d="M289.763,187.808a.591.591,0,0,1-.14.061l-.425.153c-.377.129-.94.316-1.682.539a60.251,60.251,0,0,1-6.566,1.572l.091-.129a27.751,27.751,0,0,0,1.149,4.128,16.489,16.489,0,0,0,.974,2.208,7.794,7.794,0,0,0,1.508,2.052,10.891,10.891,0,0,0,2.276,1.5,27.193,27.193,0,0,0,2.648,1.216A41.744,41.744,0,0,0,295.573,203a30.206,30.206,0,0,0,6.714.864c.585.025,1.167-.052,1.758-.082a15.648,15.648,0,0,0,1.754-.314,12.245,12.245,0,0,0,3.381-1.312,15.278,15.278,0,0,0,5.363-5.235,27.737,27.737,0,0,0,3.186-7.236,41.545,41.545,0,0,0,1.3-5.987,28.438,28.438,0,0,0,.293-5.92,10.39,10.39,0,0,0-.585-2.794l-.9-2.716q-.9-2.684-1.754-5.251c-1.158-3.412-2.3-6.64-3.447-9.632a59.583,59.583,0,0,0-3.619-8.112,9.609,9.609,0,0,0-2.541-2.843,21.761,21.761,0,0,0-2.861-1.919,45.084,45.084,0,0,0-4.986-2.411c-1.407-.584-2.519-.99-3.275-1.258l-.861-.3a1.946,1.946,0,0,1-.291-.113,1.482,1.482,0,0,1,.3.071l.876.263c.766.242,1.888.624,3.309,1.185a43.183,43.183,0,0,1,5.042,2.358,21.751,21.751,0,0,1,2.913,1.914,9.868,9.868,0,0,1,2.629,2.9,59.032,59.032,0,0,1,3.691,8.14c1.162,2.993,2.319,6.221,3.488,9.633q.865,2.564,1.769,5.249.449,1.342.906,2.711a10.856,10.856,0,0,1,.611,2.895,28.783,28.783,0,0,1-.29,6.013,41.714,41.714,0,0,1-1.31,6.048,28.061,28.061,0,0,1-3.241,7.343,15.664,15.664,0,0,1-5.516,5.366,12.678,12.678,0,0,1-3.488,1.345,15.873,15.873,0,0,1-1.8.317c-.6.03-1.206.107-1.8.079a30.367,30.367,0,0,1-6.8-.9,41.883,41.883,0,0,1-6.021-1.936,27.429,27.429,0,0,1-2.672-1.246,11.125,11.125,0,0,1-2.332-1.563,8.042,8.042,0,0,1-1.552-2.141,16.733,16.733,0,0,1-.971-2.252,27.448,27.448,0,0,1-1.118-4.181l-.02-.11.111-.02c2.873-.491,5.08-1.057,6.572-1.465l1.7-.484.434-.124a.555.555,0,0,1,.149-.033" transform="translate(-51.559 -25.785)" fill="#263238"/>
        <path id="Path_203012" data-name="Path 203012" d="M313.074,187.732c-.083.02-.339-1.385-1.284-3.457a23.653,23.653,0,0,0-5.076-7.208,16.625,16.625,0,0,0-3.946-2.809l-1-.445a9.383,9.383,0,0,0-.975-.317,9.167,9.167,0,0,0-1.8-.372l-.408-.063-.392,0h-.72a5.219,5.219,0,0,0-1.147.1,4.577,4.577,0,0,1-.992.1A4.479,4.479,0,0,1,296.3,173a4.789,4.789,0,0,1,1.163-.173l.737-.033.4-.016.421.049a8.965,8.965,0,0,1,1.868.331,9.157,9.157,0,0,1,1.013.308l1.033.441a16.26,16.26,0,0,1,4.067,2.853,22.187,22.187,0,0,1,5.06,7.4,12.861,12.861,0,0,1,.536,1.46,9.673,9.673,0,0,1,.313,1.131,4.477,4.477,0,0,1,.158.987" transform="translate(-54.228 -31.724)" fill="#263238"/>
        <path id="Path_203013" data-name="Path 203013" d="M319.669,176.487a20.74,20.74,0,0,0-1.7-3.426,13.4,13.4,0,0,0-7.17-5.427,23.082,23.082,0,0,0-9.148-.5l-2.8.335a4.94,4.94,0,0,1-1.034.085,4.8,4.8,0,0,1,1.007-.248c.655-.13,1.6-.3,2.788-.47a21.806,21.806,0,0,1,9.311.4,12.81,12.81,0,0,1,4.537,2.478,13.4,13.4,0,0,1,2.761,3.194,11.569,11.569,0,0,1,1.2,2.576,3.853,3.853,0,0,1,.243,1.012" transform="translate(-54.685 -30.574)" fill="#263238"/>
        <path id="Path_203014" data-name="Path 203014" d="M311.2,163.694a25.012,25.012,0,0,0-13.305.523,6.632,6.632,0,0,1,1.843-.773,18.568,18.568,0,0,1,9.565-.376,6.63,6.63,0,0,1,1.9.625" transform="translate(-54.698 -29.859)" fill="#263238"/>
        <path id="Path_203015" data-name="Path 203015" d="M291.726,143.871c.067.011-.1,1.148-.227,2.991a45.085,45.085,0,0,0,1.211,14.081l-.295.094c-.334-.943-.6-1.71-.769-2.243a3.329,3.329,0,0,1-.225-.844,3.339,3.339,0,0,1,.386.784c.221.515.528,1.265.9,2.194l-.295.095a37.518,37.518,0,0,1-1.211-14.188c.1-.925.224-1.67.324-2.18a2.985,2.985,0,0,1,.2-.785" transform="translate(-53.43 -26.417)" fill="#263238"/>
        <path id="Path_203016" data-name="Path 203016" d="M269.815,118.214s-5.841,0-6.574,7.018c-.562,5.387,0,10.618,0,12.977s-1.039,10.749-1.039,10.749-3.985,3.535-3.917,7.78c.068,4.267,3.1,5.571,3.1,5.571a7.2,7.2,0,0,0,1.685,7.753s-1.7,3.914-.3,6.549a6.264,6.264,0,0,0,3.5,2.72,3.982,3.982,0,0,0,2.417,5.478,17.377,17.377,0,0,0,6.069.745l4.358-.083,3.841,2.119s6.573-2.865,6.742-6.742l.168-3.876a78.8,78.8,0,0,1-2.022-8.427c-.169-2.022,1.517-6.91.505-9.1s-4.551-3.479-4.213-6.542-.337-4.75-1.854-6.435-8.221-5.057-8.221-5.057a31.655,31.655,0,0,1-1.723-8.259c0-3.37,3.371-13.651-2.528-14.939" transform="translate(-47.425 -21.706)" fill="#ffc09d"/>
        <path id="Path_203017" data-name="Path 203017" d="M274.63,148.193a8.685,8.685,0,0,1-1.616,1.049c-1.026.6-2.458,1.4-4.053,2.271s-3.05,1.629-4.114,2.163a8.693,8.693,0,0,1-1.763.786,8.732,8.732,0,0,1,1.619-1.05c1.025-.6,2.457-1.4,4.051-2.27s3.048-1.628,4.112-2.161a8.775,8.775,0,0,1,1.765-.788" transform="translate(-48.306 -27.209)" fill="#ff9b6c"/>
        <path id="Path_203018" data-name="Path 203018" d="M278.335,164.358c.017.024-.165.185-.509.456s-.861.642-1.52,1.069a30.16,30.16,0,0,1-11.393,4.361c-.776.122-1.407.2-1.845.22a2.115,2.115,0,0,1-.684,0,25.044,25.044,0,0,1,2.474-.516,37.268,37.268,0,0,0,11.291-4.323,24.609,24.609,0,0,1,2.186-1.268" transform="translate(-48.177 -30.178)" fill="#ff9b6c"/>
        <path id="Path_203019" data-name="Path 203019" d="M287.549,159.217c.106.037-.113.786-.8,1.412s-1.454.78-1.481.67.585-.42,1.194-.985.98-1.149,1.092-1.1" transform="translate(-52.378 -29.234)" fill="#ff9b6c"/>
        <path id="Path_203020" data-name="Path 203020" d="M281.2,178.516a12.684,12.684,0,0,1-2.443.894A47.753,47.753,0,0,1,266.38,181.4a12.64,12.64,0,0,1-2.6-.082,20.8,20.8,0,0,1,2.586-.218c1.6-.112,3.795-.322,6.2-.707s4.559-.88,6.109-1.274a20.749,20.749,0,0,1,2.524-.6" transform="translate(-48.434 -32.777)" fill="#ff9b6c"/>
        <path id="Path_203021" data-name="Path 203021" d="M291.426,175.442a11.181,11.181,0,0,1,.448-1.25,7.075,7.075,0,0,0-.72-6.027,11.006,11.006,0,0,1-.73-1.109c.032-.037.468.264.979.94a6.4,6.4,0,0,1,.753,6.3,2.677,2.677,0,0,1-.73,1.145" transform="translate(-53.325 -30.673)" fill="#ff9b6c"/>
        <path id="Path_203022" data-name="Path 203022" d="M282.248,192.98a8.467,8.467,0,0,1-2.075.49,31.918,31.918,0,0,1-10.262-.029,8.537,8.537,0,0,1-2.073-.5,13.862,13.862,0,0,1,2.114.2,45.161,45.161,0,0,0,10.18.029,14.051,14.051,0,0,1,2.115-.192" transform="translate(-49.179 -35.424)" fill="#ff9b6c"/>
        <path id="Path_203023" data-name="Path 203023" d="M271.477,136.474c.024.045-.265.264-.81.46a5.141,5.141,0,0,1-4.359-.518c-.484-.318-.713-.6-.679-.637a7.312,7.312,0,0,0,5.848.7" transform="translate(-48.773 -24.929)" fill="#ff9b6c"/>
        <path id="Path_203024" data-name="Path 203024" d="M292.636,177.934a1.6,1.6,0,0,1,.093.63,7.216,7.216,0,0,1-.2,1.722c-.158.714-.427,1.539-.684,2.45a6.923,6.923,0,0,0-.305,2.973c.14,1.033.914,1.871,1.035,2.92a3.888,3.888,0,0,1-.642,2.526,8.774,8.774,0,0,1-1.054,1.374c-.278.3-.448.445-.469.426-.065-.049.562-.716,1.262-1.95a3.711,3.711,0,0,0,.515-2.32c-.1-.887-.88-1.723-1.066-2.9a6.974,6.974,0,0,1,.348-3.155c.283-.922.578-1.726.769-2.415a15.3,15.3,0,0,0,.4-2.279" transform="translate(-53.322 -32.671)" fill="#ff9b6c"/>
        <path id="Path_203025" data-name="Path 203025" d="M294.194,184.215a2.9,2.9,0,0,1,.273.767c.146.5.342,1.234.527,2.152a19.314,19.314,0,0,1,.389,3.277,8.754,8.754,0,0,1-.738,4,11.446,11.446,0,0,1-2.51,3.2,22.911,22.911,0,0,1-2.593,2.035c-.775.526-1.424.917-1.879,1.172a2.864,2.864,0,0,1-.732.356c-.036-.058.942-.673,2.438-1.773a26.935,26.935,0,0,0,2.5-2.076,11.586,11.586,0,0,0,2.4-3.1,8.672,8.672,0,0,0,.729-3.809,21.981,21.981,0,0,0-.294-3.229c-.3-1.831-.572-2.955-.5-2.972" transform="translate(-52.685 -33.825)" fill="#263238"/>
        <path id="Path_203026" data-name="Path 203026" d="M217.2,149.439a6.311,6.311,0,0,1-.945-.707l-2.474-2.047-1.694-1.429a4.856,4.856,0,0,0-.963-.691,1.2,1.2,0,0,0-1.093-.038c-.7.368-1.175,1.273-1.776,2.023l-1.8,2.424-2.812,3.759-.528.706.168-.864a42.543,42.543,0,0,1,2.031-7.122c.329-.853.619-1.519.829-1.97a3.189,3.189,0,0,1,.362-.678,3.458,3.458,0,0,1-.238.73c-.171.465-.423,1.143-.717,2a50.019,50.019,0,0,0-1.872,7.112l-.36-.158,2.794-3.773,1.806-2.419.864-1.15a3.161,3.161,0,0,1,1.078-.978,1.583,1.583,0,0,1,1.427.057,5.055,5.055,0,0,1,1.028.759l1.661,1.469,2.385,2.15a6.322,6.322,0,0,1,.837.832" transform="translate(-37.296 -26.221)" fill="#263238"/>
        <path id="Path_203027" data-name="Path 203027" d="M255.309,142.474a1.663,1.663,0,0,1-.319.285l-.963.752-3.6,2.706-12.011,8.841-.182.135-.122-.192-.3-.466-6.028-9.516.22.07a44.985,44.985,0,0,0-6.691,3.337c-.772.468-1.367.855-1.773,1.117a3.97,3.97,0,0,1-.636.385,3.564,3.564,0,0,1,.572-.476c.388-.292.966-.709,1.725-1.2a40.3,40.3,0,0,1,6.667-3.494l.139-.057.082.127,6.081,9.482.3.466-.3-.057,12.087-8.738,3.675-2.6,1.01-.688a1.673,1.673,0,0,1,.369-.216" transform="translate(-40.929 -26.16)" fill="#263238"/>
        <path id="Path_203028" data-name="Path 203028" d="M172.827,182.243a2.978,2.978,0,0,1,.045.576c.011.42.026.969.045,1.652.028,1.484.066,3.547.113,6.076.1,5.13.3,12.215.568,20.041s.423,14.92.443,20.055c.009,2.567,0,4.644-.021,6.079-.015.683-.026,1.232-.035,1.652a2.912,2.912,0,0,1-.041.576,2.982,2.982,0,0,1-.045-.576c-.011-.42-.026-.968-.045-1.652-.028-1.484-.066-3.547-.113-6.076-.1-5.13-.3-12.216-.568-20.044s-.423-14.918-.443-20.051c-.009-2.567,0-4.644.021-6.08.015-.683.026-1.232.035-1.652a2.913,2.913,0,0,1,.041-.576" transform="translate(-31.715 -33.463)" fill="#263238"/>
        <path id="Path_203029" data-name="Path 203029" d="M220.283,251.916a1,1,0,0,1-.042-.235c-.02-.18-.046-.408-.078-.693-.063-.641-.15-1.534-.261-2.67-.227-2.319-.488-5.68-.749-9.838s-.484-9.115-.625-14.621c-.119-5.508-.149-11.566-.02-17.921.146-6.358.44-12.41.8-17.908.38-5.5.812-10.439,1.26-14.581s.847-7.49,1.175-9.8c.16-1.13.287-2.018.377-2.656.045-.283.081-.51.109-.689a.991.991,0,0,1,.051-.233.958.958,0,0,1-.008.238c-.017.18-.039.409-.067.695-.072.639-.171,1.532-.3,2.665-.277,2.312-.638,5.662-1.04,9.806s-.81,9.084-1.169,14.577c-.336,5.494-.618,11.54-.764,17.892-.13,6.35-.111,12.4-.014,17.9.12,5.5.306,10.456.535,14.613s.437,7.52.613,9.842c.077,1.138.138,2.034.182,2.676.015.287.027.516.036.7a.967.967,0,0,1,0,.238" transform="translate(-40.106 -29.392)" fill="#263238"/>
        <path id="Path_203030" data-name="Path 203030" d="M182.725,107.4s-.288.2-.862.578l-2.552,1.659c-1.121.73-2.417,1.763-4,2.911-.78.589-1.562,1.3-2.43,2.012q-.647.542-1.334,1.122c-.451.394-.885.834-1.348,1.268a72.988,72.988,0,0,0-11.809,14.175l-1.452,2.336c-.512.78-.909,1.645-1.379,2.484-.445.853-.94,1.7-1.364,2.6l-1.255,2.749c-.207.467-.438.928-.629,1.41s-.37.972-.556,1.463c-.368.984-.763,1.973-1.124,2.99-.6,2.071-1.367,4.157-1.822,6.382a75.092,75.092,0,0,0-1.149,29.449,73.912,73.912,0,0,0,117.854,46.8,77.872,77.872,0,0,0,7.3-6.369l1.656-1.73c.558-.569,1.1-1.153,1.605-1.761l1.554-1.792,1.46-1.854a73.334,73.334,0,0,0,14.36-32.543,74.726,74.726,0,0,0,.969-8.333c.087-1.375.086-2.742.132-4.1-.025-1.354-.1-2.7-.146-4.03q-.039-1-.078-1.99c-.039-.66-.147-1.31-.217-1.962q-.236-1.951-.467-3.866c-.2-1.269-.5-2.512-.735-3.751a33.991,33.991,0,0,0-.851-3.649q-.514-1.784-1.016-3.533a14.869,14.869,0,0,0-.576-1.714q-.316-.842-.629-1.675c-.435-1.1-.79-2.227-1.277-3.281s-.978-2.091-1.459-3.118a73.371,73.371,0,0,0-14.085-19.9,76.717,76.717,0,0,0-14.554-11.341l-3.116-1.79a14.333,14.333,0,0,0-1.451-.748l-1.375-.654-2.443-1.164c-.736-.374-1.459-.586-2.075-.844l-2.838-1.1c-.638-.251-.963-.389-.963-.389s.333.11.977.347l2.855,1.061c.62.252,1.345.458,2.086.826l2.455,1.148,1.381.647a14.5,14.5,0,0,1,1.458.74l3.132,1.777a76.319,76.319,0,0,1,14.637,11.316,73.4,73.4,0,0,1,14.187,19.932l1.471,3.128c.491,1.057.851,2.184,1.289,3.292l.635,1.682a14.793,14.793,0,0,1,.582,1.72l1.027,3.546a34.082,34.082,0,0,1,.861,3.664c.243,1.244.539,2.492.745,3.768q.235,1.924.475,3.884c.071.654.18,1.308.221,1.97s.055,1.33.082,2c.048,1.338.124,2.688.152,4.048-.045,1.362-.042,2.737-.127,4.118a75.077,75.077,0,0,1-.964,8.374,73.663,73.663,0,0,1-14.407,32.729l-1.467,1.865-1.561,1.8c-.512.611-1.052,1.2-1.613,1.772l-1.665,1.74a78.285,78.285,0,0,1-7.339,6.408,74.289,74.289,0,0,1-118.456-47.08,75.262,75.262,0,0,1,1.2-29.575c.463-2.233,1.233-4.325,1.844-6.4.364-1.02.763-2.012,1.135-3q.284-.738.563-1.467c.192-.483.426-.945.634-1.413l1.266-2.756c.428-.9.927-1.745,1.376-2.6.474-.84.875-1.706,1.391-2.488L158.19,131a72.6,72.6,0,0,1,11.9-14.167c.466-.433.9-.872,1.357-1.264l1.343-1.117c.874-.712,1.663-1.416,2.448-2,1.594-1.139,2.9-2.163,4.03-2.882l2.577-1.625c.581-.364.885-.541.885-.541" transform="translate(-26.874 -18.512)" fill="#263238"/>
      </g>
    </g>
  </g>
</svg>
