<svg xmlns="http://www.w3.org/2000/svg" xmlns:xlink="http://www.w3.org/1999/xlink" width="150" height="150" viewBox="0 0 150 150">
  <defs>
    <clipPath id="clip-path">
      <rect id="Rectangle_44966" data-name="Rectangle 44966" width="70" height="54.882" fill="#fff"/>
    </clipPath>
  </defs>
  <g id="_28" data-name="28" transform="translate(-751 -6303)" opacity="0.9">
    <g id="_28-2" data-name="28" transform="translate(-5390.5 16689.014)">
      <circle id="Ellipse_4809" data-name="Ellipse 4809" cx="75" cy="75" r="75" transform="translate(6141.5 -10386.014)" fill="#0f2771"/>
    </g>
    <g id="Group_146899" data-name="Group 146899" transform="translate(0 463)">
      <rect id="Rectangle_44967" data-name="Rectangle 44967" width="80" height="80" transform="translate(786 5875)" fill="none"/>
      <g id="Group_146894" data-name="Group 146894" transform="translate(-116 -132)">
        <g id="Group_146895" data-name="Group 146895" transform="translate(907 6020)">
          <g id="Group_146894-2" data-name="Group 146894" clip-path="url(#clip-path)">
            <path id="Path_203673" data-name="Path 203673" d="M70,43.61,55.91,32.337v6.8H45.833A22.274,22.274,0,0,0,49.7,30.968l3.978-1.029V21.493L49.7,20.488a22.14,22.14,0,0,0-2.678-6.439l2.1-3.53L43.152,4.545l-3.53,2.1A22.156,22.156,0,0,0,33.184,3.97L32.179,0h-8.45L22.724,3.972A22.137,22.137,0,0,0,16.286,6.65l-3.53-2.1L6.781,10.522l2.1,3.53A22.152,22.152,0,0,0,6.207,20.49l-3.971,1v8.448l3.974,1.014a22.141,22.141,0,0,0,3.879,8.181H0v8.946H55.91v6.8ZM2.236,45.846V41.374h9.8a22.6,22.6,0,0,0,6.245,4.473Zm25.718,0A20.193,20.193,0,0,1,8.247,29.817L8.1,29.133,4.473,28.2v-4.97l3.63-.918.142-.687a19.94,19.94,0,0,1,2.888-6.947l.385-.584L9.594,10.871l3.513-3.513,3.227,1.924.585-.385A19.949,19.949,0,0,1,23.865,6.01l.687-.142.918-3.631h4.968l.918,3.63.687.142A19.944,19.944,0,0,1,38.989,8.9l.585.385L42.8,7.357l3.513,3.513L44.391,14.1l.384.585a19.951,19.951,0,0,1,2.889,6.946l.142.687,3.63.919v4.972l-3.635.941-.141.681a20.062,20.062,0,0,1-4.719,9.307H35.978a15.621,15.621,0,1,0-8.023,2.238H58.146V36.991L66.42,43.61l-8.273,6.619V45.846Zm0-6.709A13.418,13.418,0,1,1,41.374,25.718,13.434,13.434,0,0,1,27.955,39.137" fill="#fff"/>
            <path id="Path_203674" data-name="Path 203674" d="M27.388,32.257l-2.077-.829a11.255,11.255,0,0,0-.66,2.389l2.21.351a8.887,8.887,0,0,1,.527-1.911" transform="translate(-7.74 -9.868)" fill="#fff"/>
            <path id="Path_203675" data-name="Path 203675" d="M26.714,38.315l-2.232.137A11.1,11.1,0,0,0,24.91,40.9l2.146-.628a8.93,8.93,0,0,1-.342-1.954" transform="translate(-7.687 -12.03)" fill="#fff"/>
            <path id="Path_203676" data-name="Path 203676" d="M26.5,44.915a11.216,11.216,0,0,0,1.439,2.018l1.666-1.491a8.934,8.934,0,0,1-1.151-1.616Z" transform="translate(-8.321 -13.76)" fill="#fff"/>
            <path id="Path_203677" data-name="Path 203677" d="M42.568,32.371a3.351,3.351,0,0,0-2.236-3.149V21.189H38.1v8.033a3.346,3.346,0,0,0,1.118,6.5,3.292,3.292,0,0,0,1.437-.337l3.364,3.364L45.6,37.171l-3.364-3.363a3.3,3.3,0,0,0,.337-1.437m-3.355,1.118a1.118,1.118,0,1,1,1.118-1.118,1.12,1.12,0,0,1-1.118,1.118" transform="translate(-11.259 -6.653)" fill="#fff"/>
          </g>
        </g>
      </g>
    </g>
  </g>
</svg>
