<svg xmlns="http://www.w3.org/2000/svg" xmlns:xlink="http://www.w3.org/1999/xlink" width="150" height="150" viewBox="0 0 150 150">
  <defs>
    <clipPath id="clip-path">
      <rect id="Rectangle_44972" data-name="Rectangle 44972" width="70" height="70" fill="#fff"/>
    </clipPath>
  </defs>
  <g id="_31" data-name="31" transform="translate(5354.076 5404)">
    <g id="Group_146890" data-name="Group 146890" transform="translate(-11495.576 4982.014)">
      <circle id="Ellipse_4809" data-name="Ellipse 4809" cx="75" cy="75" r="75" transform="translate(6141.5 -10386.014)" fill="#0f2771"/>
    </g>
    <g id="Group_146907" data-name="Group 146907" transform="translate(44 456)">
      <rect id="Rectangle_44971" data-name="Rectangle 44971" width="80" height="80" transform="translate(-5363 -5825)" fill="none"/>
      <g id="Group_146905" data-name="Group 146905" transform="translate(-5358 -5820)">
        <g id="Group_146905-2" data-name="Group 146905" clip-path="url(#clip-path)">
          <path id="Path_203691" data-name="Path 203691" d="M64.555,4.34a1.105,1.105,0,1,1-1.1,1.105,1.105,1.105,0,0,1,1.1-1.105" fill="#fff"/>
          <path id="Path_203692" data-name="Path 203692" d="M60.136,4.34a1.105,1.105,0,1,1-1.105,1.105A1.105,1.105,0,0,1,60.136,4.34" fill="#fff"/>
          <path id="Path_203693" data-name="Path 203693" d="M55.716,4.34a1.105,1.105,0,1,1-1.1,1.105,1.105,1.105,0,0,1,1.1-1.105" fill="#fff"/>
          <path id="Path_203694" data-name="Path 203694" d="M67.041,0H2.958A2.962,2.962,0,0,0,0,2.959V52.813a1.026,1.026,0,1,0,2.051,0V10.89h65.9v2.957a1.026,1.026,0,0,0,2.051,0V2.959A2.962,2.962,0,0,0,67.041,0Zm.908,8.839H2.051V2.959a.908.908,0,0,1,.907-.908H67.041a.909.909,0,0,1,.908.908Z" fill="#fff"/>
          <path id="Path_203695" data-name="Path 203695" d="M68.975,17.607a1.025,1.025,0,0,0-1.025,1.025v48.41a.91.91,0,0,1-.908.908H2.959a.909.909,0,0,1-.908-.908V57.6A1.026,1.026,0,1,0,0,57.6v9.443A2.962,2.962,0,0,0,2.959,70H67.042A2.961,2.961,0,0,0,70,67.042V18.632a1.025,1.025,0,0,0-1.025-1.025" fill="#fff"/>
          <path id="Path_203696" data-name="Path 203696" d="M6.55,43.76h14.4a1.025,1.025,0,1,0,0-2.051H6.55a2.132,2.132,0,0,0-2.13,2.13v2.21a2.132,2.132,0,0,0,2.13,2.13H55.426v.794a1.852,1.852,0,0,0,2.836,1.572l6.448-4.029a1.855,1.855,0,0,0,0-3.144l-6.447-4.029a1.853,1.853,0,0,0-2.836,1.572v.794h-6.8A17.614,17.614,0,0,0,35.152,12.983,17.463,17.463,0,0,0,23.3,17.432l-.581-.581a1.855,1.855,0,0,0-3.119.893l-1.709,7.407a1.854,1.854,0,0,0,2.224,2.224l7.407-1.709a1.853,1.853,0,0,0,.894-3.117l-.525-.525a11.045,11.045,0,0,1,7.039-2.571H35A11.16,11.16,0,0,1,46.126,30.416,11.14,11.14,0,0,1,35,41.709H25.731a1.025,1.025,0,0,0,0,2.051H35A13.192,13.192,0,0,0,48.177,30.386,13.217,13.217,0,0,0,35,17.4h-.079a13.1,13.1,0,0,0-9.233,3.864,1.025,1.025,0,0,0,0,1.451l1.031,1.031-6.755,1.558,1.559-6.754,1.035,1.035a1.026,1.026,0,0,0,1.45,0,15.547,15.547,0,1,1,21.563,22.4,1.025,1.025,0,0,0,.7,1.777H56.451a1.025,1.025,0,0,0,1.025-1.026V41.27l5.88,3.674-5.88,3.674V47.153a1.025,1.025,0,0,0-1.025-1.025H6.55a.079.079,0,0,1-.079-.079v-2.21A.079.079,0,0,1,6.55,43.76Z" fill="#fff"/>
          <path id="Path_203697" data-name="Path 203697" d="M4.419,55.854A1.026,1.026,0,0,0,5.445,56.88H9.864a1.026,1.026,0,0,0,1.026-1.026V51.435A1.025,1.025,0,0,0,9.864,50.41H5.445a1.026,1.026,0,0,0-1.026,1.025ZM6.47,52.46H8.839v2.369H6.47Z" fill="#fff"/>
          <path id="Path_203698" data-name="Path 203698" d="M14.284,56.88h5.8a1.026,1.026,0,0,0,0-2.051h-5.8a1.026,1.026,0,0,0,0,2.051" fill="#fff"/>
          <path id="Path_203699" data-name="Path 203699" d="M25.609,50.409H20.085a1.025,1.025,0,1,0,0,2.051h5.524a1.025,1.025,0,0,0,0-2.051" fill="#fff"/>
          <path id="Path_203700" data-name="Path 203700" d="M14.284,52.46h1.381a1.025,1.025,0,1,0,0-2.051H14.284a1.025,1.025,0,0,0,0,2.051" fill="#fff"/>
          <path id="Path_203701" data-name="Path 203701" d="M4.419,64.693a1.026,1.026,0,0,0,1.026,1.026H9.864a1.026,1.026,0,0,0,1.026-1.026V60.274a1.026,1.026,0,0,0-1.026-1.026H5.445a1.027,1.027,0,0,0-1.026,1.026ZM6.47,61.3H8.839v2.369H6.47Z" fill="#fff"/>
          <path id="Path_203702" data-name="Path 203702" d="M14.284,65.719h5.8a1.026,1.026,0,0,0,0-2.051h-5.8a1.026,1.026,0,0,0,0,2.051" fill="#fff"/>
          <path id="Path_203703" data-name="Path 203703" d="M26.634,60.274a1.025,1.025,0,0,0-1.025-1.025H20.084a1.025,1.025,0,1,0,0,2.05h5.525a1.025,1.025,0,0,0,1.025-1.025" fill="#fff"/>
          <path id="Path_203704" data-name="Path 203704" d="M14.284,61.3h1.381a1.025,1.025,0,1,0,0-2.051H14.284a1.025,1.025,0,0,0,0,2.051" fill="#fff"/>
          <path id="Path_203705" data-name="Path 203705" d="M36.854,51.435a1.026,1.026,0,0,0-1.025-1.026h-4.42a1.026,1.026,0,0,0-1.025,1.026v4.419a1.025,1.025,0,0,0,1.025,1.026h4.42a1.025,1.025,0,0,0,1.025-1.026ZM34.8,54.829H32.434V52.46H34.8Z" fill="#fff"/>
          <path id="Path_203706" data-name="Path 203706" d="M40.248,56.88h5.8a1.026,1.026,0,0,0,0-2.051h-5.8a1.026,1.026,0,0,0,0,2.051" fill="#fff"/>
          <path id="Path_203707" data-name="Path 203707" d="M51.573,50.409H46.049a1.025,1.025,0,1,0,0,2.051h5.524a1.025,1.025,0,0,0,0-2.051" fill="#fff"/>
          <path id="Path_203708" data-name="Path 203708" d="M40.248,52.46h1.381a1.025,1.025,0,1,0,0-2.051H40.248a1.025,1.025,0,0,0,0,2.051" fill="#fff"/>
          <path id="Path_203709" data-name="Path 203709" d="M35.829,59.248h-4.42a1.026,1.026,0,0,0-1.025,1.026v4.419a1.025,1.025,0,0,0,1.025,1.026h4.42a1.025,1.025,0,0,0,1.025-1.026V60.274a1.026,1.026,0,0,0-1.025-1.026M34.8,63.668H32.434V61.3H34.8Z" fill="#fff"/>
          <path id="Path_203710" data-name="Path 203710" d="M40.248,65.719h5.8a1.026,1.026,0,0,0,0-2.051h-5.8a1.026,1.026,0,0,0,0,2.051" fill="#fff"/>
          <path id="Path_203711" data-name="Path 203711" d="M52.6,60.274a1.025,1.025,0,0,0-1.025-1.025H46.048a1.025,1.025,0,1,0,0,2.05h5.525A1.025,1.025,0,0,0,52.6,60.274" fill="#fff"/>
          <path id="Path_203712" data-name="Path 203712" d="M40.248,61.3h1.381a1.025,1.025,0,1,0,0-2.051H40.248a1.025,1.025,0,0,0,0,2.051" fill="#fff"/>
        </g>
      </g>
    </g>
  </g>
</svg>
