<svg xmlns="http://www.w3.org/2000/svg" xmlns:xlink="http://www.w3.org/1999/xlink" width="150" height="150" viewBox="0 0 150 150">
  <defs>
    <clipPath id="clip-path">
      <rect id="Rectangle_45012" data-name="Rectangle 45012" width="60" height="60" fill="#fff"/>
    </clipPath>
  </defs>
  <g id="_38" data-name="38" transform="translate(-340 -9066)">
    <g id="Group_148531" data-name="Group 148531" transform="translate(340 9066)">
      <circle id="Ellipse_4809" data-name="Ellipse 4809" cx="75" cy="75" r="75" fill="#0f2771"/>
    </g>
    <g id="Group_148532" data-name="Group 148532" transform="translate(1 658)">
      <rect id="Rectangle_40379" data-name="Rectangle 40379" width="86" height="86" transform="translate(371 8440)" fill="none"/>
      <g id="Group_146977" data-name="Group 146977" transform="translate(384 8453)">
        <g id="Group_146977-2" data-name="Group 146977" clip-path="url(#clip-path)">
          <path id="Path_203832" data-name="Path 203832" d="M7.321,43.571H9.464V35H7.321A1.072,1.072,0,0,0,6.25,36.071V42.5a1.072,1.072,0,0,0,1.071,1.071" transform="translate(-0.893 -5)" fill="#fff"/>
          <path id="Path_203833" data-name="Path 203833" d="M7.321,62.321H9.464V53.75H7.321A1.072,1.072,0,0,0,6.25,54.821V61.25a1.072,1.072,0,0,0,1.071,1.071" transform="translate(-0.893 -7.679)" fill="#fff"/>
          <path id="Path_203834" data-name="Path 203834" d="M22.143,61.25V54.821a1.072,1.072,0,0,0-1.071-1.071H12.5v8.571h8.571a1.072,1.072,0,0,0,1.071-1.071m-3.214-2.143H15.714a1.071,1.071,0,0,1,0-2.143h3.214a1.071,1.071,0,1,1,0,2.143" transform="translate(-1.786 -7.679)" fill="#fff"/>
          <path id="Path_203835" data-name="Path 203835" d="M7.321,24.821H9.464V16.25H7.321A1.072,1.072,0,0,0,6.25,17.321V23.75a1.072,1.072,0,0,0,1.071,1.071" transform="translate(-0.893 -2.321)" fill="#fff"/>
          <path id="Path_203836" data-name="Path 203836" d="M22.143,23.75V17.321a1.072,1.072,0,0,0-1.071-1.071H12.5v8.571h8.571a1.072,1.072,0,0,0,1.071-1.071m-3.214-2.143H15.714a1.071,1.071,0,0,1,0-2.143h3.214a1.071,1.071,0,1,1,0,2.143" transform="translate(-1.786 -2.321)" fill="#fff"/>
          <path id="Path_203837" data-name="Path 203837" d="M22.143,42.5V36.071A1.072,1.072,0,0,0,21.071,35H12.5v8.571h8.571A1.072,1.072,0,0,0,22.143,42.5m-3.214-2.143H15.714a1.071,1.071,0,1,1,0-2.143h3.214a1.071,1.071,0,1,1,0,2.143" transform="translate(-1.786 -5)" fill="#fff"/>
          <path id="Path_203838" data-name="Path 203838" d="M58.929,0H1.071A1.072,1.072,0,0,0,0,1.071V6.429H60V1.071A1.072,1.072,0,0,0,58.929,0M5.357,4.286H4.286a1.071,1.071,0,0,1,0-2.143H5.357a1.071,1.071,0,1,1,0,2.143m5.357,0H9.643a1.071,1.071,0,1,1,0-2.143h1.071a1.071,1.071,0,0,1,0,2.143m5.357,0H15a1.071,1.071,0,0,1,0-2.143h1.071a1.071,1.071,0,0,1,0,2.143m39.643,0H54.643a1.071,1.071,0,0,1,0-2.143h1.071a1.071,1.071,0,0,1,0,2.143" fill="#fff"/>
          <path id="Path_203839" data-name="Path 203839" d="M0,60.357a1.072,1.072,0,0,0,1.071,1.071H58.929A1.072,1.072,0,0,0,60,60.357V10H0ZM45.314,18.885a1.072,1.072,0,0,1,1.515,0l1.385,1.386,4.6-4.6a1.072,1.072,0,0,1,1.515,1.515l-5.357,5.357a1.072,1.072,0,0,1-1.515,0L45.314,20.4a1.072,1.072,0,0,1,0-1.515m0,16.071a1.072,1.072,0,0,1,1.515,0l1.385,1.385,4.6-4.6a1.072,1.072,0,0,1,1.515,1.515l-5.357,5.357a1.072,1.072,0,0,1-1.515,0l-2.143-2.143a1.072,1.072,0,0,1,0-1.515m0,16.071a1.072,1.072,0,0,1,1.515,0l1.385,1.385,4.6-4.6a1.072,1.072,0,0,1,1.515,1.515l-5.357,5.357a1.072,1.072,0,0,1-1.515,0l-2.143-2.143a1.072,1.072,0,0,1,0-1.515M26.786,18.571H40.714a1.071,1.071,0,0,1,0,2.143H26.786a1.071,1.071,0,0,1,0-2.143m0,16.071H40.714a1.071,1.071,0,0,1,0,2.143H26.786a1.071,1.071,0,1,1,0-2.143m0,16.071H40.714a1.071,1.071,0,0,1,0,2.143H26.786a1.071,1.071,0,0,1,0-2.143M3.214,16.429a3.214,3.214,0,0,1,3.214-3.214H19.286A3.214,3.214,0,0,1,22.5,16.429v6.429a3.214,3.214,0,0,1-3.214,3.214H6.429a3.214,3.214,0,0,1-3.214-3.214Zm0,16.071a3.214,3.214,0,0,1,3.214-3.214H19.286A3.214,3.214,0,0,1,22.5,32.5v6.429a3.214,3.214,0,0,1-3.214,3.214H6.429a3.214,3.214,0,0,1-3.214-3.214Zm0,16.071a3.214,3.214,0,0,1,3.214-3.214H19.286A3.214,3.214,0,0,1,22.5,48.571V55a3.214,3.214,0,0,1-3.214,3.214H6.429A3.214,3.214,0,0,1,3.214,55Z" transform="translate(0 -1.429)" fill="#fff"/>
        </g>
      </g>
    </g>
  </g>
</svg>
