<svg xmlns="http://www.w3.org/2000/svg" xmlns:xlink="http://www.w3.org/1999/xlink" width="150" height="150" viewBox="0 0 150 150">
  <defs>
    <clipPath id="clip-path">
      <rect id="Rectangle_45014" data-name="Rectangle 45014" width="59.036" height="60" fill="#fff"/>
    </clipPath>
  </defs>
  <g id="_40" data-name="40" transform="translate(-1111 -9066)">
    <g id="Group_148537" data-name="Group 148537" transform="translate(1111 9066)">
      <circle id="Ellipse_4809" data-name="Ellipse 4809" cx="75" cy="75" r="75" fill="#0f2771"/>
    </g>
    <g id="Group_148539" data-name="Group 148539" transform="translate(0 659)">
      <rect id="Rectangle_40379" data-name="Rectangle 40379" width="86" height="86" transform="translate(1143 8439)" fill="none"/>
      <g id="Group_146982" data-name="Group 146982" transform="translate(1156 8452)">
        <g id="Group_146981" data-name="Group 146981" clip-path="url(#clip-path)">
          <path id="Path_203844" data-name="Path 203844" d="M8.758,36.464V23.614h2.169v12.85a7.483,7.483,0,0,0-2.169,0m29.056,19.7H21.222a11.907,11.907,0,0,0-.986-2.169H38.8a11.844,11.844,0,0,0-.987,2.169M9.843,38.554a5.319,5.319,0,1,1-5.32,5.32,5.319,5.319,0,0,1,5.32-5.32M59.036,60a9.842,9.842,0,1,0-19.685,0ZM49.194,38.554a5.319,5.319,0,1,1-5.32,5.32,5.32,5.32,0,0,1,5.32-5.32M19.685,60A9.842,9.842,0,1,0,0,60ZM59.036,21.445a9.842,9.842,0,0,0-19.685,0ZM49.194,0a5.319,5.319,0,1,1-5.32,5.319A5.319,5.319,0,0,1,49.194,0M19.685,21.445A9.842,9.842,0,0,0,0,21.445ZM9.843,0a5.319,5.319,0,1,1-5.32,5.319A5.318,5.318,0,0,1,9.843,0M27.58,23.562h3.876v2.68a9.09,9.09,0,0,1,3.009,1.246l1.9-1.9L39.1,28.334l-1.9,1.9a9.092,9.092,0,0,1,1.247,3.009h2.679v3.876H38.452a9.1,9.1,0,0,1-1.247,3.008L39.1,42.017l-2.741,2.741-1.9-1.9a9.085,9.085,0,0,1-3.008,1.246v2.68H27.58v-2.68a9.069,9.069,0,0,1-3.009-1.246l-1.895,1.9-2.74-2.741,1.895-1.895a9.1,9.1,0,0,1-1.247-3.008H17.905V33.238h2.679a9.092,9.092,0,0,1,1.247-3.009l-1.895-1.9,2.741-2.741,1.894,1.9a9.09,9.09,0,0,1,3.009-1.246Zm1.938,16.861a5.248,5.248,0,1,0-5.247-5.248,5.247,5.247,0,0,0,5.247,5.248M20.236,15.44H38.8a11.865,11.865,0,0,0-.987,2.168H21.223a12,12,0,0,0-.987-2.168m30.042,8.174v12.85a7.483,7.483,0,0,0-2.169,0V23.614Z" fill="#fff" fill-rule="evenodd"/>
        </g>
      </g>
    </g>
  </g>
</svg>
