<svg xmlns="http://www.w3.org/2000/svg" xmlns:xlink="http://www.w3.org/1999/xlink" width="150" height="150" viewBox="0 0 150 150">
  <defs>
    <clipPath id="clip-path">
      <rect id="Rectangle_45017" data-name="Rectangle 45017" width="59.99" height="60" fill="#fff"/>
    </clipPath>
  </defs>
  <g id="_41" data-name="41" transform="translate(5699 2638.683)">
    <g id="Group_148546" data-name="Group 148546" transform="translate(-5699 -2638.683)">
      <circle id="Ellipse_4809" data-name="Ellipse 4809" cx="75" cy="75" r="75" fill="#0f2771"/>
    </g>
    <g id="Group_148547" data-name="Group 148547" transform="translate(56.389 654.317)">
      <rect id="Rectangle_45015" data-name="Rectangle 45015" width="86" height="86" transform="translate(-5723 -3261)" fill="none"/>
      <rect id="Rectangle_40379" data-name="Rectangle 40379" width="86" height="86" transform="translate(-5723 -3261)" fill="none"/>
      <g id="Group_146987" data-name="Group 146987" transform="translate(-5710 -3248)">
        <g id="Group_146987-2" data-name="Group 146987" clip-path="url(#clip-path)">
          <path id="Path_203848" data-name="Path 203848" d="M44.956,53.74A28.055,28.055,0,0,1,7.942,12.655L9.189,13.9a.964.964,0,0,0,.684.284.939.939,0,0,0,.258-.035.969.969,0,0,0,.678-.7l1.373-5.474A.967.967,0,0,0,11.007,6.8L5.532,8.172a.968.968,0,0,0-.7,1.174.979.979,0,0,0,.254.449L6.569,11.28a29.991,29.991,0,0,0,39.423,44.1Z" fill="#fff"/>
          <path id="Path_203849" data-name="Path 203849" d="M54.894,50.208l-1.485-1.485a29.99,29.99,0,0,0-39.422-44.1l1.035,1.637A28.055,28.055,0,0,1,52.036,47.348L50.79,46.1a.967.967,0,0,0-1.369,0,.956.956,0,0,0-.255.451L47.8,52.026A.967.967,0,0,0,48.97,53.2l5.475-1.368a.968.968,0,0,0,.449-1.623" fill="#fff"/>
          <path id="Path_203850" data-name="Path 203850" d="M47.016,32.07h0l-1.058-.337a15.91,15.91,0,0,0,0-3.463l1.077-.345a1.566,1.566,0,0,0,.981-1.951l-1.078-3.3A1.547,1.547,0,0,0,45,21.666l-.007,0-1.065.345c-.232-.406-.491-.8-.764-1.187L45.28,18a.968.968,0,0,0-.774-1.549H37.285L40.551,9.1a.968.968,0,0,0-.884-1.361H32.893a.966.966,0,0,0-.925.683l-.981,3.188H28.248A1.549,1.549,0,0,0,26.7,13.162v1.113a16.121,16.121,0,0,0-3.29,1.071l-.656-.893a1.533,1.533,0,0,0-2.136-.372l-.027.02-2.829,2.054a1.547,1.547,0,0,0-.337,2.152l.657.907a15.87,15.87,0,0,0-2.032,2.8l-1.06-.346a1.548,1.548,0,0,0-1.941,1l-1.086,3.315a1.572,1.572,0,0,0,1,1.953l1.057.338a15.91,15.91,0,0,0,0,3.463l-1.078.344a1.567,1.567,0,0,0-.981,1.951l1.079,3.3a1.548,1.548,0,0,0,1.942,1.012h0l1.065-.346a15.783,15.783,0,0,0,2.032,2.8l-.655.9a1.549,1.549,0,0,0,.338,2.158l2.807,2.032a1.533,1.533,0,0,0,2.149-.286l.026-.035.665-.908a16.215,16.215,0,0,0,3.291,1.072v1.116a1.548,1.548,0,0,0,1.541,1.548h3.484a1.548,1.548,0,0,0,1.547-1.548V45.728a16.215,16.215,0,0,0,3.291-1.072l.657.894a1.545,1.545,0,0,0,1.024.633,1.525,1.525,0,0,0,1.138-.281l2.83-2.055a1.548,1.548,0,0,0,.336-2.152l-.658-.907a15.931,15.931,0,0,0,2.034-2.8L45,38.336a1.549,1.549,0,0,0,1.942-1l1.086-3.315a1.573,1.573,0,0,0-1.012-1.953M32.585,33.823a.969.969,0,0,0,1.082-.338l5.3-7.065a9.68,9.68,0,1,1-10.713-5.926l-.159.517a.972.972,0,0,0,.925,1.248h6.4L31.975,32.6a.966.966,0,0,0,.61,1.224M32.893,8.71h6.774L35.8,17.42h8.71l-2.527,3.373-.019.024-2.815,3.745L32.893,32.9l3.745-11.227.126-.387H29.022l.59-1.926L31.7,12.581Z" fill="#fff"/>
        </g>
      </g>
    </g>
  </g>
</svg>
