<svg xmlns="http://www.w3.org/2000/svg" xmlns:xlink="http://www.w3.org/1999/xlink" width="150" height="150" viewBox="0 0 150 150">
  <defs>
    <clipPath id="clip-path">
      <rect id="Rectangle_45018" data-name="Rectangle 45018" width="60" height="60" fill="#fff"/>
    </clipPath>
  </defs>
  <g id="_42" data-name="42" transform="translate(5313 2638.683)">
    <g id="Group_148541" data-name="Group 148541" transform="translate(-5313 -2638.683)">
      <circle id="Ellipse_4809" data-name="Ellipse 4809" cx="75" cy="75" r="75" fill="#0f2771"/>
    </g>
    <g id="Group_148548" data-name="Group 148548" transform="translate(55.389 654.317)">
      <rect id="Rectangle_40379" data-name="Rectangle 40379" width="86" height="86" transform="translate(-5336 -3261)" fill="none"/>
      <rect id="Rectangle_40379-2" data-name="Rectangle 40379" width="86" height="86" transform="translate(-5336 -3261)" fill="none"/>
      <g id="Group_146989" data-name="Group 146989" transform="translate(-5323 -3248)">
        <g id="Group_146989-2" data-name="Group 146989" clip-path="url(#clip-path)">
          <path id="Path_203851" data-name="Path 203851" d="M5.357,4.287A1.071,1.071,0,1,1,4.286,5.358,1.071,1.071,0,0,1,5.357,4.287" fill="#fff" fill-rule="evenodd"/>
          <path id="Path_203852" data-name="Path 203852" d="M54.643,4.286H43.929a1.072,1.072,0,1,0,0,2.143H54.643a1.072,1.072,0,0,0,0-2.143" fill="#fff" fill-rule="evenodd"/>
          <path id="Path_203853" data-name="Path 203853" d="M13.929,4.287a1.071,1.071,0,1,1-1.071,1.071,1.071,1.071,0,0,1,1.071-1.071" fill="#fff" fill-rule="evenodd"/>
          <path id="Path_203854" data-name="Path 203854" d="M0,55.714A4.286,4.286,0,0,0,4.286,60H55.715A4.285,4.285,0,0,0,60,55.714V12.857H0Zm27.857,0h-7.5a1.072,1.072,0,0,1,0-2.143h7.5a1.072,1.072,0,1,1,0,2.143M23.572,39.643a3.215,3.215,0,1,1,0-6.429h2.143a1.071,1.071,0,0,1,0,2.143H23.572a1.072,1.072,0,1,0,0,2.143,3.215,3.215,0,0,1,0,6.429H21.429a1.072,1.072,0,1,1,0-2.143h2.143a1.071,1.071,0,0,0,0-2.143Zm17.143-5.357H38.572a1.071,1.071,0,1,1,0-2.143h2.143a1.071,1.071,0,0,1,0,2.143m1.071,4.285a1.072,1.072,0,0,1-1.071,1.072H38.572a1.072,1.072,0,1,1,0-2.143h2.143a1.072,1.072,0,0,1,1.071,1.071m-1.071-9.642H26.786a1.072,1.072,0,0,1,0-2.143H40.715a1.072,1.072,0,0,1,0,2.143M32.143,37.5a3.215,3.215,0,1,1,0,6.429H30a1.072,1.072,0,0,1,0-2.143h2.143a1.071,1.071,0,1,0,0-2.143,3.215,3.215,0,0,1,0-6.429h2.143a1.071,1.071,0,1,1,0,2.143H32.143a1.072,1.072,0,0,0,0,2.143Zm8.572,10.714a1.071,1.071,0,0,1,0,2.143H24.643a1.071,1.071,0,0,1,0-2.143Zm5.357,7.5H32.143a1.072,1.072,0,0,1,0-2.143H46.072a1.072,1.072,0,0,1,0,2.143m2.143-5.357H45a1.071,1.071,0,0,1,0-2.143h3.215a1.071,1.071,0,0,1,0,2.143m0-5.357H38.572a1.072,1.072,0,1,1,0-2.143h9.643a1.072,1.072,0,0,1,0,2.143m0-5.357H45A1.072,1.072,0,0,1,45,37.5h3.215a1.072,1.072,0,0,1,0,2.143m8.571,8.571a1.072,1.072,0,0,1-1.071,1.072,1.071,1.071,0,0,0-1.072,1.071V52.5a3.214,3.214,0,0,1-3.214,3.214,1.072,1.072,0,1,1,0-2.143A1.071,1.071,0,0,0,52.5,52.5V50.357a3.206,3.206,0,0,1,.821-2.143,3.2,3.2,0,0,1-.821-2.143V43.928a1.071,1.071,0,0,0-1.071-1.071,1.071,1.071,0,1,1,0-2.143,3.214,3.214,0,0,1,3.214,3.214v2.143a1.072,1.072,0,0,0,1.072,1.072,1.072,1.072,0,0,1,1.071,1.071Zm-1.071-15a1.072,1.072,0,0,1-1.072,1.072H45a1.071,1.071,0,0,1,0-2.143h9.643a1.072,1.072,0,0,1,1.072,1.071M43.929,27.857A1.071,1.071,0,0,1,45,26.786h1.072a1.072,1.072,0,0,1,0,2.143H45a1.072,1.072,0,0,1-1.071-1.072M52.5,21.429h1.072a1.071,1.071,0,1,1,0,2.142H52.5a1.071,1.071,0,0,1,0-2.142m-12.857,0h8.572a1.071,1.071,0,1,1,0,2.142H39.643a1.071,1.071,0,1,1,0-2.142m-7.5,0h3.215a1.071,1.071,0,0,1,0,2.142H32.143a1.071,1.071,0,1,1,0-2.142ZM12.857,16.071H22.5a1.072,1.072,0,1,1,0,2.143H12.857a1.072,1.072,0,0,1,0-2.143m0,5.358h15a1.071,1.071,0,1,1,0,2.142h-15a1.071,1.071,0,1,1,0-2.142m0,5.357H22.5a1.072,1.072,0,1,1,0,2.143H12.857a1.072,1.072,0,0,1,0-2.143m-1.071,9.643a3.214,3.214,0,1,1,6.429,0,1.071,1.071,0,0,1-2.143,0,1.072,1.072,0,1,0-2.143,0v4.285a1.072,1.072,0,1,0,2.143,0,1.071,1.071,0,0,1,2.143,0,3.214,3.214,0,1,1-6.429,0Zm1.071,11.785h7.5a1.071,1.071,0,1,1,0,2.143h-7.5a1.071,1.071,0,0,1,0-2.143m0,5.357h3.215a1.072,1.072,0,0,1,0,2.143H12.857a1.072,1.072,0,0,1,0-2.143M4.286,22.5a1.071,1.071,0,0,0,1.071-1.071V19.286a3.214,3.214,0,0,1,3.215-3.215,1.072,1.072,0,0,1,0,2.143A1.072,1.072,0,0,0,7.5,19.286v2.143a3.2,3.2,0,0,1-.82,2.142,3.205,3.205,0,0,1,.82,2.143v2.143a1.072,1.072,0,0,0,1.072,1.072,1.071,1.071,0,0,1,0,2.143,3.216,3.216,0,0,1-3.215-3.215V25.714a1.071,1.071,0,0,0-1.071-1.071,1.071,1.071,0,0,1,0-2.143" fill="#fff"/>
          <path id="Path_203855" data-name="Path 203855" d="M55.714,0H4.286A4.285,4.285,0,0,0,0,4.285v6.429H60V4.285A4.285,4.285,0,0,0,55.714,0ZM5.357,8.571A3.214,3.214,0,1,1,7.63,7.63a3.214,3.214,0,0,1-2.273.941m8.572,0A3.213,3.213,0,1,1,16.2,7.63a3.214,3.214,0,0,1-2.273.941m8.571,0a3.213,3.213,0,1,1,2.273-.941,3.214,3.214,0,0,1-2.273.941m32.143,0H43.929a3.215,3.215,0,1,1,0-6.429H54.643a3.215,3.215,0,0,1,0,6.429" fill="#fff"/>
          <path id="Path_203856" data-name="Path 203856" d="M22.5,4.287a1.071,1.071,0,1,1-1.071,1.071A1.071,1.071,0,0,1,22.5,4.287" fill="#fff" fill-rule="evenodd"/>
        </g>
      </g>
    </g>
  </g>
</svg>
