<svg xmlns="http://www.w3.org/2000/svg" xmlns:xlink="http://www.w3.org/1999/xlink" width="150" height="150" viewBox="0 0 150 150">
  <defs>
    <clipPath id="clip-path">
      <rect id="Rectangle_45021" data-name="Rectangle 45021" width="49.172" height="60" fill="#fff"/>
    </clipPath>
  </defs>
  <g id="_43" data-name="43" transform="translate(4928 2638.683)">
    <g id="Group_148541" data-name="Group 148541" transform="translate(-4928 -2638.683)">
      <circle id="Ellipse_4809" data-name="Ellipse 4809" cx="75" cy="75" r="75" fill="#0f2771"/>
    </g>
    <g id="Group_148552" data-name="Group 148552" transform="translate(55.389 654.317)">
      <rect id="Rectangle_40379" data-name="Rectangle 40379" width="86" height="86" transform="translate(-4951 -3261)" fill="none"/>
      <g id="Group_146991" data-name="Group 146991" transform="translate(-4933 -3248)">
        <g id="Group_146991-2" data-name="Group 146991" clip-path="url(#clip-path)">
          <path id="Path_203857" data-name="Path 203857" d="M43.59,37.3a12.364,12.364,0,1,0,5.583,10.326A12.328,12.328,0,0,0,43.59,37.3m2.164,12.419H44.54a7.89,7.89,0,0,1-.8,1.912l.852.851a.724.724,0,0,1,0,1.018l-1.941,1.94a.709.709,0,0,1-.5.209.662.662,0,0,1-.5-.209l-.852-.851a7.88,7.88,0,0,1-1.911.8V56.6a.715.715,0,0,1-.713.712H35.428a.716.716,0,0,1-.712-.712V55.381a7.88,7.88,0,0,1-1.911-.8l-.851.851a.708.708,0,0,1-1.005,0L29.01,53.5a.706.706,0,0,1-.21-.5.683.683,0,0,1,.21-.5l.851-.851a7.887,7.887,0,0,1-.8-1.912H27.852a.715.715,0,0,1-.712-.712V46.269a.715.715,0,0,1,.712-.711h1.214a7.887,7.887,0,0,1,.8-1.912l-.851-.851a.708.708,0,0,1,0-1l1.939-1.939a.708.708,0,0,1,1.005,0l.851.851a7.88,7.88,0,0,1,1.911-.795V38.693a.716.716,0,0,1,.712-.712h2.748a.715.715,0,0,1,.713.712v1.214A7.88,7.88,0,0,1,40.8,40.7l.852-.851a.7.7,0,0,1,.5-.209.66.66,0,0,1,.5.209L44.6,41.79a.708.708,0,0,1,0,1l-.852.851a7.89,7.89,0,0,1,.8,1.912h1.214a.714.714,0,0,1,.711.711v2.749A.711.711,0,0,1,45.754,49.716Z" fill="#fff"/>
          <path id="Path_203858" data-name="Path 203858" d="M43.967,46.968a.706.706,0,0,1-.7-.586,6.557,6.557,0,0,0-1.018-2.456.716.716,0,0,1,.084-.907l.753-.754-.935-.934-.753.753a.719.719,0,0,1-.907.084,6.663,6.663,0,0,0-2.456-1.019.728.728,0,0,1-.586-.7v-1.06H36.139v1.06a.693.693,0,0,1-.586.7A6.566,6.566,0,0,0,33.1,42.168a.719.719,0,0,1-.907-.084l-.753-.753-.935.934.753.754a.716.716,0,0,1,.084.907,6.654,6.654,0,0,0-1.018,2.456.728.728,0,0,1-.7.586H28.562v1.311h1.061a.707.707,0,0,1,.7.586,6.33,6.33,0,0,0,1.018,2.456.716.716,0,0,1-.084.907l-.753.754.935.935.753-.754a.719.719,0,0,1,.907-.084A6.646,6.646,0,0,0,35.553,54.1a.728.728,0,0,1,.586.7v1.06h1.312V54.782a.693.693,0,0,1,.586-.7,6.55,6.55,0,0,0,2.456-1.019.719.719,0,0,1,.907.084l.753.754.935-.935-.753-.754a.716.716,0,0,1-.084-.907,6.647,6.647,0,0,0,1.018-2.456.729.729,0,0,1,.7-.586h1.061V46.954ZM36.795,52.3a4.674,4.674,0,1,1,4.674-4.674A4.674,4.674,0,0,1,36.795,52.3" fill="#fff"/>
          <path id="Path_203859" data-name="Path 203859" d="M40.047,47.623a3.238,3.238,0,1,1-3.238-3.237,3.239,3.239,0,0,1,3.238,3.237" fill="#fff"/>
          <path id="Path_203860" data-name="Path 203860" d="M36.5,10.2A3.4,3.4,0,0,1,33.1,6.8V0H4.758A4.763,4.763,0,0,0,0,4.758V51.39a4.763,4.763,0,0,0,4.758,4.758H25.953A13.669,13.669,0,0,1,23,47.623,13.8,13.8,0,0,1,43.284,35.441V10.187H36.5ZM4.521,4.953a.714.714,0,0,1,.711-.711H28.1a.715.715,0,0,1,.712.711V9.488a.715.715,0,0,1-.712.713H5.246a.715.715,0,0,1-.711-.713V4.953ZM19.953,51.6a.715.715,0,0,1-.711.712h-14a.715.715,0,0,1-.711-.712V35.8a.714.714,0,0,1,.711-.711h14a.714.714,0,0,1,.711.711ZM38.037,31.255H5.246a.711.711,0,0,1,0-1.423h32.8a.712.712,0,1,1-.014,1.423m0-5.26H5.246a.711.711,0,0,1,0-1.422h32.8A.711.711,0,1,1,38.037,26m0-5.274H5.246a.712.712,0,0,1,0-1.423h32.8a.714.714,0,0,1,.712.711.726.726,0,0,1-.726.712m0-5.261H5.246a.711.711,0,1,1,0-1.422h32.8a.715.715,0,0,1,.712.711.727.727,0,0,1-.726.711" fill="#fff"/>
          <path id="Path_203861" data-name="Path 203861" d="M42.279,8.763H36.5a1.989,1.989,0,0,1-1.981-1.981V1Z" fill="#fff"/>
          <rect id="Rectangle_45019" data-name="Rectangle 45019" width="21.447" height="3.098" transform="translate(5.958 5.665)" fill="#fff"/>
          <rect id="Rectangle_45020" data-name="Rectangle 45020" width="12.558" height="14.372" transform="translate(5.958 36.516)" fill="#fff"/>
        </g>
      </g>
    </g>
  </g>
</svg>
