<svg xmlns="http://www.w3.org/2000/svg" xmlns:xlink="http://www.w3.org/1999/xlink" width="150" height="150" viewBox="0 0 150 150">
  <defs>
    <clipPath id="clip-path">
      <rect id="Rectangle_45023" data-name="Rectangle 45023" width="60" height="60" fill="#fff"/>
    </clipPath>
  </defs>
  <g id="_44" data-name="44" transform="translate(4533.389 2638.683)">
    <g id="Group_148553" data-name="Group 148553" transform="translate(-4533.389 -2638.683)">
      <circle id="Ellipse_4809" data-name="Ellipse 4809" cx="75" cy="75" r="75" fill="#0f2771"/>
    </g>
    <g id="Group_148556" data-name="Group 148556" transform="translate(64 654.317)">
      <rect id="Rectangle_45022" data-name="Rectangle 45022" width="86" height="86" transform="translate(-4566 -3261)" fill="none"/>
      <rect id="Rectangle_40379" data-name="Rectangle 40379" width="86" height="86" transform="translate(-4566 -3261)" fill="none"/>
      <g id="Group_146993" data-name="Group 146993" transform="translate(50 -196)">
        <g id="Group_146995" data-name="Group 146995" transform="translate(-4603 -3052)">
          <g id="Group_146994" data-name="Group 146994" clip-path="url(#clip-path)">
            <path id="Path_203863" data-name="Path 203863" d="M0,55.909A4.1,4.1,0,0,0,4.091,60H55.909A4.1,4.1,0,0,0,60,55.909V11.4H0ZM8.937,33.936a2.9,2.9,0,0,1,2.472-2.884l2.837-.439a16.4,16.4,0,0,1,1.019-2.46L13.571,25.84a2.9,2.9,0,0,1,.288-3.784l2.49-2.5a2.9,2.9,0,0,1,3.8-.29l2.3,1.694a15.908,15.908,0,0,1,2.464-1.028l.438-2.823a2.9,2.9,0,0,1,2.883-2.471h3.533A2.9,2.9,0,0,1,34.65,17.11l.437,2.823a15.838,15.838,0,0,1,2.465,1.028l2.3-1.694a2.9,2.9,0,0,1,3.8.29l2.49,2.5a2.9,2.9,0,0,1,.289,3.784l-1.695,2.314a16.443,16.443,0,0,1,1.018,2.46l2.836.439a2.9,2.9,0,0,1,2.474,2.884v3.53a2.9,2.9,0,0,1-2.473,2.885l-2.844.438a15.27,15.27,0,0,1-1.02,2.465l1.695,2.3a2.9,2.9,0,0,1-.288,3.793l-2.485,2.485a2.9,2.9,0,0,1-3.791.289l-2.294-1.687a16.31,16.31,0,0,1-2.476,1.032l-.437,2.823a2.9,2.9,0,0,1-2.884,2.471H28.233a2.9,2.9,0,0,1-2.883-2.471l-.438-2.823a16.31,16.31,0,0,1-2.476-1.032l-2.294,1.686a2.9,2.9,0,0,1-3.792-.288l-2.484-2.485a2.9,2.9,0,0,1-.288-3.793l1.7-2.3a15.174,15.174,0,0,1-1.021-2.466l-2.842-.437a2.9,2.9,0,0,1-2.474-2.885Z" fill="#fff"/>
            <path id="Path_203864" data-name="Path 203864" d="M11.827,37.656l3.708.571a1.363,1.363,0,0,1,1.116,1.02,12.493,12.493,0,0,0,1.412,3.41,1.364,1.364,0,0,1-.072,1.508l-2.216,3.009a.192.192,0,0,0,.019.249l2.485,2.485a.2.2,0,0,0,.247.02l3-2.2a1.361,1.361,0,0,1,1.495-.079,13.574,13.574,0,0,0,3.449,1.436,1.368,1.368,0,0,1,1.007,1.112l.571,3.68a.192.192,0,0,0,.188.162h3.533a.193.193,0,0,0,.189-.161l.57-3.681a1.366,1.366,0,0,1,1.007-1.112,13.574,13.574,0,0,0,3.449-1.436,1.363,1.363,0,0,1,1.5.079l2.995,2.2a.192.192,0,0,0,.249-.019l2.485-2.485a.192.192,0,0,0,.019-.249l-2.215-3.009a1.364,1.364,0,0,1-.072-1.507,12.563,12.563,0,0,0,1.41-3.411,1.365,1.365,0,0,1,1.116-1.02l3.71-.571a.2.2,0,0,0,.163-.19v-3.53a.19.19,0,0,0-.163-.189l-3.694-.571a1.367,1.367,0,0,1-1.112-1,13.675,13.675,0,0,0-1.422-3.439,1.364,1.364,0,0,1,.077-1.494l2.207-3.012a.193.193,0,0,0-.019-.248l-2.49-2.5a.192.192,0,0,0-.249-.019l-3.008,2.214a1.364,1.364,0,0,1-1.508.073,13.114,13.114,0,0,0-3.427-1.431,1.366,1.366,0,0,1-1-1.111l-.57-3.681a.191.191,0,0,0-.189-.161H28.233a.192.192,0,0,0-.188.161l-.571,3.682a1.367,1.367,0,0,1-1,1.11,13.122,13.122,0,0,0-3.426,1.431,1.368,1.368,0,0,1-1.508-.073l-3.008-2.214a.194.194,0,0,0-.249.019l-2.49,2.5a.189.189,0,0,0-.019.247l2.207,3.013a1.365,1.365,0,0,1,.077,1.5,13.537,13.537,0,0,0-1.422,3.437,1.363,1.363,0,0,1-1.112,1l-3.7.571a.19.19,0,0,0-.161.189v3.53a.191.191,0,0,0,.163.19m22.039-5.195a1.364,1.364,0,1,1,1.67-2.156l4.879,3.78a2.044,2.044,0,0,1,0,3.234L35.536,41.1a1.364,1.364,0,1,1-1.67-2.156L38.049,35.7Zm-5.6,1.877h3.459a1.363,1.363,0,0,1,0,2.727H28.27a1.363,1.363,0,0,1,0-2.727m-8.685-.254,4.879-3.779a1.364,1.364,0,1,1,1.67,2.156L21.951,35.7l4.183,3.241a1.364,1.364,0,1,1-1.67,2.156l-4.879-3.779a2.045,2.045,0,0,1,0-3.235" fill="#fff"/>
            <path id="Path_203865" data-name="Path 203865" d="M55.91,0H4.09A4.1,4.1,0,0,0,0,4.091V8.675H60V4.091A4.1,4.1,0,0,0,55.91,0M32.279,5.7H7.121a1.364,1.364,0,1,1,0-2.727H32.279a1.364,1.364,0,1,1,0,2.727m9.934,0h-.539a1.364,1.364,0,1,1,0-2.727h.539a1.364,1.364,0,0,1,0,2.727m5.334,0h-.54a1.364,1.364,0,0,1,0-2.727h.54a1.364,1.364,0,0,1,0,2.727m5.333,0h-.541a1.364,1.364,0,1,1,0-2.727h.541a1.364,1.364,0,0,1,0,2.727" fill="#fff"/>
          </g>
        </g>
      </g>
    </g>
  </g>
</svg>
