<svg xmlns="http://www.w3.org/2000/svg" xmlns:xlink="http://www.w3.org/1999/xlink" width="116.599" height="116.6" viewBox="0 0 116.599 116.6">
  <defs>
    <clipPath id="clip-path">
      <rect id="Rectangle_45037" data-name="Rectangle 45037" width="53.224" height="53.225" fill="none"/>
    </clipPath>
  </defs>
  <g id="_45" data-name="45" transform="translate(-424.573 -8842)">
    <g id="Group_146997" data-name="Group 146997" transform="translate(424.573 8842)">
      <g id="Group_86258" data-name="Group 86258" transform="translate(0 0)">
        <path id="Path_116050" data-name="Path 116050" d="M58.3,0A58.3,58.3,0,1,1,0,58.3,58.3,58.3,0,0,1,58.3,0Z" transform="translate(0)" fill="#bddcf6"/>
        <circle id="_40" data-name="40" cx="49.73" cy="49.73" r="49.73" transform="translate(8.429 8.71)" fill="#fff"/>
      </g>
    </g>
    <g id="Group_146998" data-name="Group 146998" transform="translate(456.486 8878)">
      <g id="Group_147000" data-name="Group 147000" clip-path="url(#clip-path)">
        <path id="Path_203866" data-name="Path 203866" d="M219.092,321.592v3.429h-7.449a11.119,11.119,0,0,0-.7-1.56l1.311-1.68-.189-.189Z" transform="translate(-189.012 -288.162)" fill="#aab2bd"/>
        <path id="Path_203867" data-name="Path 203867" d="M86.554,9.1V39.962a.86.86,0,0,1-.857.857H83.125V11.675H45.409v26.89l-1.526-1.192-1.9,1.9V9.1a.86.86,0,0,1,.857-.857H85.7A.86.86,0,0,1,86.554,9.1Z" transform="translate(-37.616 -7.389)" fill="#f6f6f6"/>
        <path id="Path_203868" data-name="Path 203868" d="M209.5,288.608v.146a4.322,4.322,0,0,1-1.5,3.283H192.187l-3.429-3.429Z" transform="translate(-169.136 -258.606)" fill="#ccd1d9"/>
        <path id="Path_203869" data-name="Path 203869" d="M112.68,41.23V66.946a3.428,3.428,0,0,0-3.429-3.429,1.727,1.727,0,0,0-1.714,1.714v1.714H86.793l-.017-.017L85.1,68.24a10.541,10.541,0,0,0-2.151-.891l-.266-2.117H77.536l-.266,2.117a10.541,10.541,0,0,0-2.152.891l-.154-.12V41.23Z" transform="translate(-67.171 -36.944)" fill="#69d6f4"/>
        <rect id="Rectangle_45027" data-name="Rectangle 45027" width="17.144" height="3.429" transform="translate(24.937 19.715)" fill="#feedb6"/>
        <rect id="Rectangle_45028" data-name="Rectangle 45028" width="10.286" height="8.572" transform="translate(11.221 7.715)" fill="#3da6b4"/>
        <path id="Path_203870" data-name="Path 203870" d="M192.506,354.576h10.878v13.715H189.669l-.086-.086,3.532-3.532-1.312-1.68a10.534,10.534,0,0,0,.892-2.152l2.117-.266v-5.143l-2.117-.266C192.635,354.97,192.575,354.773,192.506,354.576Z" transform="translate(-169.875 -317.717)" fill="#bddcf6"/>
        <path id="Path_203871" data-name="Path 203871" d="M339.487,269.34a1.727,1.727,0,0,1,1.714,1.714,1.719,1.719,0,0,1-1.714,1.714,1.719,1.719,0,0,1,1.714,1.714,1.727,1.727,0,0,1-1.714,1.714h-1.714a1.727,1.727,0,0,1,1.714,1.714,1.719,1.719,0,0,1-1.714,1.714H322.343V265.911a4.366,4.366,0,0,1,2.7-2.237l.994-.291A4.355,4.355,0,0,0,329.2,259.2v-1.86a1.727,1.727,0,0,1,1.714-1.714,3.428,3.428,0,0,1,3.429,3.429v6.858h5.143a1.714,1.714,0,0,1,1.714,1.714,1.727,1.727,0,0,1-1.714,1.714" transform="translate(-288.835 -229.052)" fill="#f0d0b4"/>
        <path id="Path_203872" data-name="Path 203872" d="M15.855,275.006l.154.12a10.541,10.541,0,0,1,2.152-.892l.266-2.117h5.143l.266,2.117a10.542,10.542,0,0,1,2.152.892l1.68-1.311.017.017,3.429,3.429.189.189-1.312,1.68a11.1,11.1,0,0,1,.7,1.56c.069.2.129.394.189.591l2.117.266v5.143l-2.117.266a10.531,10.531,0,0,1-.892,2.151l1.312,1.68-3.532,3.532-.1.1-1.68-1.311a10.542,10.542,0,0,1-2.152.892l-.266,2.117H18.426L18.16,294a10.541,10.541,0,0,1-2.152-.892l-1.68,1.311-3.634-3.634,1.311-1.68a10.549,10.549,0,0,1-.891-2.151L9,286.689v-5.143l2.117-.266a10.55,10.55,0,0,1,.891-2.152l-1.311-1.68,1.731-1.731,1.9-1.9Zm12,9.112A6.858,6.858,0,1,0,21,290.975a6.856,6.856,0,0,0,6.858-6.858" transform="translate(-8.062 -243.83)" fill="#feca2e"/>
        <path id="Path_203873" data-name="Path 203873" d="M98.314,357.148v1.714a.86.86,0,0,1-.857.857H96.6v.857a.86.86,0,0,1-.857.857H94.028a.86.86,0,0,1-.857-.857v-.857h-.857a.86.86,0,0,1-.857-.857v-1.714a.86.86,0,0,1,.857-.857h.857v-.857a.86.86,0,0,1,.857-.857h1.714a.86.86,0,0,1,.857.857v.857h.857a.86.86,0,0,1,.857.857" transform="translate(-81.949 -317.717)" fill="#4dd0e1"/>
        <path id="Path_203874" data-name="Path 203874" d="M90.068,348.044a1.716,1.716,0,0,0-1.714-1.714H86.639a1.716,1.716,0,0,0-1.714,1.714,1.716,1.716,0,0,0-1.714,1.714v1.714a1.716,1.716,0,0,0,1.714,1.714,1.716,1.716,0,0,0,1.714,1.714h1.714a1.716,1.716,0,0,0,1.714-1.714,1.716,1.716,0,0,0,1.714-1.714v-1.714a1.717,1.717,0,0,0-1.714-1.714m0,3.429H88.353v1.714H86.639v-1.714H84.924v-1.714h1.714v-1.714h1.714v1.714l1.714,0Z" transform="translate(-74.56 -310.328)"/>
        <path id="Path_203875" data-name="Path 203875" d="M57.941,313.347a7.715,7.715,0,1,0,7.715,7.715,7.723,7.723,0,0,0-7.715-7.715m0,13.715a6,6,0,1,1,6-6,6.008,6.008,0,0,1-6,6" transform="translate(-45.005 -280.774)"/>
        <path id="Path_203876" data-name="Path 203876" d="M52.554,40.288A2.559,2.559,0,0,0,50.653,36l-4.287,0V34.288h1.714A1.716,1.716,0,0,0,49.8,32.573V1.714A1.716,1.716,0,0,0,48.081,0H5.221A1.716,1.716,0,0,0,3.507,1.714V27.43H5.221V1.714h42.86V32.573H46.366V3.429H6.936V25.716H8.65V5.143h36V26.594a4.236,4.236,0,0,0-2.57-.878h0a2.575,2.575,0,0,0-2.571,2.572v.856H23.222v1.714h16.2a3.512,3.512,0,0,1-.912,1.714h-15l-3.834-3.834-1.863,1.448a11.169,11.169,0,0,0-1.193-.491l-.293-2.344H9.538L9.245,29.7a11.249,11.249,0,0,0-1.193.491L6.189,28.739l-4.8,4.8,1.448,1.863A11.169,11.169,0,0,0,2.342,36.6L0,36.891v6.794l2.344.293a11.239,11.239,0,0,0,.491,1.193L1.387,47.034l4.8,4.8L8.053,50.39a11.17,11.17,0,0,0,1.193.491l.293,2.344h6.794l.293-2.344a11.241,11.241,0,0,0,1.193-.491l1.863,1.448,4.8-4.8-1.448-1.863a11.167,11.167,0,0,0,.491-1.193l2.344-.293V36.891L23.53,36.6a11.248,11.248,0,0,0-.491-1.193l.867-1.117h5.317V36H27.508v1.714h5.143v12H24.079v1.714H48.938A2.563,2.563,0,0,0,51.321,47.9a2.548,2.548,0,0,0,1.234-4.186,2.53,2.53,0,0,0,0-3.429M24,38.542v3.492l-1.912.238-.171.593a9.31,9.31,0,0,1-.8,1.953l-.3.54L22,46.876l-2.47,2.47-1.518-1.181-.54.3a9.289,9.289,0,0,1-1.953.8l-.593.171-.238,1.912H11.191l-.238-1.912-.593-.171a9.316,9.316,0,0,1-1.953-.8l-.54-.3L6.349,49.346l-2.47-2.47,1.178-1.517-.3-.54a9.289,9.289,0,0,1-.8-1.953l-.171-.593L1.87,42.035V38.543L3.783,38.3l.171-.593a9.313,9.313,0,0,1,.8-1.953l.3-.54L3.876,33.7l2.47-2.47,1.518,1.181.54-.3a9.284,9.284,0,0,1,1.953-.8l.593-.171.238-1.912H14.68l.238,1.912.593.171a9.309,9.309,0,0,1,1.953.8l.54.3,1.518-1.181,2.47,2.47-1.181,1.518.3.54a9.284,9.284,0,0,1,.8,1.953l.171.593ZM30.937,36V34.288H34.82A5.223,5.223,0,0,0,33.011,36ZM50.652,46.288H46.366V48h2.572a.857.857,0,1,1,0,1.714H34.366V37.1a3.5,3.5,0,0,1,2.079-1.658l1-.285a5.238,5.238,0,0,0,3.781-5.014V28.288a.858.858,0,0,1,.857-.857h0A2.571,2.571,0,0,1,44.652,30v7.714l6,0a.857.857,0,1,1,0,1.713H46.366v1.714h4.286a.857.857,0,1,1,0,1.714H46.366v1.714h4.286a.857.857,0,1,1,0,1.714Z"/>
        <path id="Path_203877" data-name="Path 203877" d="M111.7,65.967h-12V76.253h12Zm-1.714,8.572h-8.572V67.681h8.572Z" transform="translate(-89.338 -59.11)"/>
        <rect id="Rectangle_45029" data-name="Rectangle 45029" width="1.714" height="1.714" transform="translate(12.079 20.573)"/>
        <rect id="Rectangle_45030" data-name="Rectangle 45030" width="1.714" height="1.714" transform="translate(15.507 20.573)"/>
        <rect id="Rectangle_45031" data-name="Rectangle 45031" width="1.714" height="1.714" transform="translate(18.936 20.573)"/>
        <rect id="Rectangle_45032" data-name="Rectangle 45032" width="5.143" height="1.714" transform="translate(24.079 6.857)"/>
        <rect id="Rectangle_45033" data-name="Rectangle 45033" width="12.001" height="1.714" transform="translate(30.937 6.857)"/>
        <rect id="Rectangle_45034" data-name="Rectangle 45034" width="5.143" height="1.714" transform="translate(37.794 10.286)"/>
        <rect id="Rectangle_45035" data-name="Rectangle 45035" width="12.001" height="1.714" transform="translate(24.079 10.286)"/>
        <rect id="Rectangle_45036" data-name="Rectangle 45036" width="12.001" height="1.714" transform="translate(24.079 13.715)"/>
        <path id="Path_203878" data-name="Path 203878" d="M231.637,186.554H250.5v-5.143H231.637Zm6.858-3.429h3.429v1.714h-3.429Zm10.286,1.714h-5.143v-1.714h5.143Zm-15.43-1.714h3.429v1.714h-3.429Z" transform="translate(-207.558 -162.553)"/>
      </g>
    </g>
  </g>
</svg>
