<svg id="_8" data-name="8" xmlns="http://www.w3.org/2000/svg" xmlns:xlink="http://www.w3.org/1999/xlink" width="50" height="50" viewBox="0 0 50 50">
  <defs>
    <clipPath id="clip-path">
      <rect id="Rectangle_45284" data-name="Rectangle 45284" width="50" height="50" fill="#4dd0e1" stroke="#4dd0e1" stroke-width="0.5"/>
    </clipPath>
  </defs>
  <g id="Group_147205" data-name="Group 147205" clip-path="url(#clip-path)">
    <path id="Path_206204" data-name="Path 206204" d="M43.164,41.52V20a1.548,1.548,0,0,0-1.546-1.547H8.383A1.549,1.549,0,0,0,6.836,20V41.52a1.549,1.549,0,0,0,1.547,1.547H41.618a1.548,1.548,0,0,0,1.546-1.547M8.3,41.52V20a.082.082,0,0,1,.082-.082H41.618A.082.082,0,0,1,41.7,20V41.52a.083.083,0,0,1-.081.082H8.383A.083.083,0,0,1,8.3,41.52" fill="#4dd0e1" stroke="#4dd0e1" stroke-width="0.5"/>
    <path id="Path_206205" data-name="Path 206205" d="M41.617,0H8.383A8.392,8.392,0,0,0,0,8.383V41.617A8.392,8.392,0,0,0,8.383,50H15.4a.733.733,0,0,0,0-1.465H8.383a6.925,6.925,0,0,1-6.918-6.918V13.482H35.418a.732.732,0,1,0,0-1.464H1.465V8.383A6.925,6.925,0,0,1,8.383,1.465H41.617a6.925,6.925,0,0,1,6.918,6.918v3.635H38.348a.732.732,0,0,0,0,1.464H48.535V41.617a6.925,6.925,0,0,1-6.918,6.918H18.326a.733.733,0,1,0,0,1.465H41.617A8.393,8.393,0,0,0,50,41.617V8.383A8.393,8.393,0,0,0,41.617,0" fill="#4dd0e1" stroke="#4dd0e1" stroke-width="0.5"/>
    <path id="Path_206206" data-name="Path 206206" d="M6.836,6.741A2.838,2.838,0,1,0,9.675,3.9,2.842,2.842,0,0,0,6.836,6.741m4.212,0A1.374,1.374,0,1,1,9.675,5.368a1.375,1.375,0,0,1,1.373,1.373" fill="#4dd0e1" stroke="#4dd0e1" stroke-width="0.5"/>
    <path id="Path_206207" data-name="Path 206207" d="M14.524,6.741A2.839,2.839,0,1,0,17.363,3.9a2.842,2.842,0,0,0-2.839,2.838m4.212,0a1.373,1.373,0,1,1-1.373-1.373,1.375,1.375,0,0,1,1.373,1.373" fill="#4dd0e1" stroke="#4dd0e1" stroke-width="0.5"/>
    <path id="Path_206208" data-name="Path 206208" d="M22.214,6.741A2.838,2.838,0,1,0,25.052,3.9a2.841,2.841,0,0,0-2.838,2.838m4.212,0a1.374,1.374,0,1,1-1.374-1.373,1.376,1.376,0,0,1,1.374,1.373" fill="#4dd0e1" stroke="#4dd0e1" stroke-width="0.5"/>
    <path id="Path_206209" data-name="Path 206209" d="M16.6,26.437l.644-.644.643.644A.733.733,0,0,0,18.919,25.4l-.644-.643.644-.644a.733.733,0,0,0-1.036-1.036l-.643.644-.644-.644a.733.733,0,0,0-1.036,1.036l.644.644-.644.643A.733.733,0,0,0,16.6,26.437" fill="#4dd0e1" stroke="#4dd0e1" stroke-width="0.5"/>
    <path id="Path_206210" data-name="Path 206210" d="M34.439,25.4l-.644-.644.644-.643A.733.733,0,0,0,33.4,23.079l-.643.644-.644-.644a.733.733,0,0,0-1.036,1.036l.644.643-.644.644a.733.733,0,0,0,1.036,1.036l.644-.644.643.644A.733.733,0,1,0,34.439,25.4" fill="#4dd0e1" stroke="#4dd0e1" stroke-width="0.5"/>
    <path id="Path_206211" data-name="Path 206211" d="M28.685,27.885a.733.733,0,0,0,.715-1.279,2.4,2.4,0,0,0-2.332,0,.928.928,0,0,1-.9,0,2.4,2.4,0,0,0-2.332,0,.928.928,0,0,1-.9,0,2.4,2.4,0,0,0-2.331,0,.733.733,0,1,0,.715,1.279.93.93,0,0,1,.9,0,2.4,2.4,0,0,0,2.331,0,.93.93,0,0,1,.9,0,2.4,2.4,0,0,0,2.332,0,.928.928,0,0,1,.9,0" fill="#4dd0e1" stroke="#4dd0e1" stroke-width="0.5"/>
    <path id="Path_206212" data-name="Path 206212" d="M14.292,32.853a.733.733,0,0,0,0-1.465H12.049a.733.733,0,0,0-.732.733v5.322a.733.733,0,0,0,.732.733h2.243a.733.733,0,0,0,0-1.465h-1.51v-1.2h1.345a.733.733,0,0,0,0-1.465H12.782v-1.2Z" fill="#4dd0e1" stroke="#4dd0e1" stroke-width="0.5"/>
    <path id="Path_206213" data-name="Path 206213" d="M20.361,33.468a2.171,2.171,0,0,0-2.207-2.128H16.725a.733.733,0,0,0-.733.732v5.372a.733.733,0,0,0,1.465,0V36.085l1.622,1.843a.733.733,0,0,0,1.1-.968l-1.3-1.481A2.139,2.139,0,0,0,20.361,33.468Zm-2.207.664-.689,0c0-.663,0-.5,0-1.329h.693a.668.668,0,1,1,0,1.327Z" fill="#4dd0e1" stroke="#4dd0e1" stroke-width="0.5"/>
    <path id="Path_206214" data-name="Path 206214" d="M25.822,33.468a2.171,2.171,0,0,0-2.207-2.128H22.186a.733.733,0,0,0-.733.732v5.372a.733.733,0,0,0,1.465,0V36.085l1.622,1.843a.733.733,0,0,0,1.1-.968l-1.3-1.481A2.139,2.139,0,0,0,25.822,33.468Zm-2.207.664-.689,0c0-.663,0-.5,0-1.329h.693a.668.668,0,1,1,0,1.327Z" fill="#4dd0e1" stroke="#4dd0e1" stroke-width="0.5"/>
    <path id="Path_206215" data-name="Path 206215" d="M38.683,33.468a2.171,2.171,0,0,0-2.207-2.128H35.047a.733.733,0,0,0-.733.732v5.372a.733.733,0,0,0,1.465,0V36.085L37.4,37.928a.733.733,0,0,0,1.1-.968l-1.3-1.481A2.139,2.139,0,0,0,38.683,33.468Zm-2.207.664-.689,0c0-.663,0-.5,0-1.329h.693a.668.668,0,1,1,0,1.327Z" fill="#4dd0e1" stroke="#4dd0e1" stroke-width="0.5"/>
    <path id="Path_206216" data-name="Path 206216" d="M30.063,31.339a3.418,3.418,0,1,0,3.418,3.419A3.422,3.422,0,0,0,30.063,31.339Zm0,5.372a1.953,1.953,0,1,1,1.953-1.953,1.955,1.955,0,0,1-1.953,1.953" fill="#4dd0e1" stroke="#4dd0e1" stroke-width="0.5"/>
  </g>
</svg>
