<svg id="_8" data-name="8" xmlns="http://www.w3.org/2000/svg" xmlns:xlink="http://www.w3.org/1999/xlink" width="50.054" height="50" viewBox="0 0 50.054 50">
  <defs>
    <clipPath id="clip-path">
      <rect id="Rectangle_45078" data-name="Rectangle 45078" width="50.054" height="50" fill="#4dd0e1"/>
    </clipPath>
  </defs>
  <g id="Group_147038" data-name="Group 147038" clip-path="url(#clip-path)">
    <path id="Path_204101" data-name="Path 204101" d="M5.764,18.237A.733.733,0,0,0,6.8,17.2L5.021,15.422,6.8,13.644a.733.733,0,0,0-1.036-1.036l-2.3,2.3a.734.734,0,0,0,0,1.036Z" fill="#4dd0e1"/>
    <path id="Path_204102" data-name="Path 204102" d="M13.034,15.422,11.255,17.2a.733.733,0,0,0,1.036,1.036l2.3-2.3a.733.733,0,0,0,0-1.036l-2.3-2.3a.732.732,0,0,0-1.035,1.036Z" fill="#4dd0e1"/>
    <path id="Path_204103" data-name="Path 204103" d="M7.936,18.4a.731.731,0,0,0,.949-.414l1.8-4.594a.732.732,0,0,0-1.363-.535l-1.8,4.593a.731.731,0,0,0,.414.95" fill="#4dd0e1"/>
    <path id="Path_204104" data-name="Path 204104" d="M4.4,22.75H9.335a.733.733,0,1,0,0-1.465H4.4a.733.733,0,0,0,0,1.465" fill="#4dd0e1"/>
    <path id="Path_204105" data-name="Path 204105" d="M20.7,21.284H12.026a.733.733,0,1,0,0,1.465H20.7a.733.733,0,1,0,0-1.465" fill="#4dd0e1"/>
    <path id="Path_204106" data-name="Path 204106" d="M4.4,25.839H6.5a.733.733,0,1,0,0-1.465H4.4a.733.733,0,0,0,0,1.465" fill="#4dd0e1"/>
    <path id="Path_204107" data-name="Path 204107" d="M18.021,24.374a.733.733,0,0,0,0,1.465H19.3a.733.733,0,1,0,0-1.465Z" fill="#4dd0e1"/>
    <path id="Path_204108" data-name="Path 204108" d="M16.093,25.107a.732.732,0,0,0-.732-.732H9.072a.733.733,0,0,0,0,1.465h6.289a.733.733,0,0,0,.732-.733" fill="#4dd0e1"/>
    <path id="Path_204109" data-name="Path 204109" d="M20.892,25.107a.733.733,0,0,0,.732.733h2.4a.733.733,0,1,0,0-1.465h-2.4a.732.732,0,0,0-.732.732" fill="#4dd0e1"/>
    <path id="Path_204110" data-name="Path 204110" d="M16.9,16.01h2.528a.733.733,0,1,0,0-1.465H16.9a.733.733,0,1,0,0,1.465" fill="#4dd0e1"/>
    <path id="Path_204111" data-name="Path 204111" d="M22.265,16.01H37.7a.733.733,0,1,0,0-1.465H22.265a.733.733,0,1,0,0,1.465" fill="#4dd0e1"/>
    <path id="Path_204112" data-name="Path 204112" d="M35.353,17.768H29.1a.733.733,0,1,0,0,1.465h6.251a.733.733,0,0,0,0-1.465" fill="#4dd0e1"/>
    <path id="Path_204113" data-name="Path 204113" d="M26.757,17.768H24.608a.733.733,0,0,0,0,1.465h2.149a.733.733,0,0,0,0-1.465" fill="#4dd0e1"/>
    <path id="Path_204114" data-name="Path 204114" d="M16.9,19.233h5.264a.733.733,0,0,0,0-1.465H16.9a.733.733,0,1,0,0,1.465" fill="#4dd0e1"/>
    <path id="Path_204115" data-name="Path 204115" d="M15.37,27.438H10.435a.733.733,0,1,0,0,1.465H15.37a.733.733,0,0,0,0-1.465" fill="#4dd0e1"/>
    <path id="Path_204116" data-name="Path 204116" d="M8.191,27.438H4.4a.733.733,0,1,0,0,1.465H8.191a.733.733,0,0,0,0-1.465" fill="#4dd0e1"/>
    <path id="Path_204117" data-name="Path 204117" d="M24.316,27.438H17.869a.733.733,0,0,0,0,1.465h6.447a.733.733,0,0,0,0-1.465" fill="#4dd0e1"/>
    <path id="Path_204118" data-name="Path 204118" d="M33.034,23.675H29.509a.733.733,0,1,0,0,1.465h3.525a.733.733,0,0,0,0-1.465" fill="#4dd0e1"/>
    <path id="Path_204119" data-name="Path 204119" d="M39.151,25.14h4.976a.733.733,0,1,0,0-1.465H39.151a.733.733,0,0,0,0,1.465" fill="#4dd0e1"/>
    <path id="Path_204120" data-name="Path 204120" d="M36.662,23.675h-1.14a.733.733,0,1,0,0,1.465h1.14a.733.733,0,0,0,0-1.465" fill="#4dd0e1"/>
    <path id="Path_204121" data-name="Path 204121" d="M29.508,33.123h3.525a.733.733,0,1,0,0-1.465H29.508a.733.733,0,0,0,0,1.465" fill="#4dd0e1"/>
    <path id="Path_204122" data-name="Path 204122" d="M39.151,33.123h4.976a.733.733,0,1,0,0-1.465H39.151a.733.733,0,0,0,0,1.465" fill="#4dd0e1"/>
    <path id="Path_204123" data-name="Path 204123" d="M35.522,33.123h1.14a.733.733,0,1,0,0-1.465h-1.14a.733.733,0,0,0,0,1.465" fill="#4dd0e1"/>
    <path id="Path_204124" data-name="Path 204124" d="M33.034,39.641H29.509a.733.733,0,1,0,0,1.465h3.525a.733.733,0,0,0,0-1.465" fill="#4dd0e1"/>
    <path id="Path_204125" data-name="Path 204125" d="M44.127,39.641H39.151a.733.733,0,1,0,0,1.465h4.976a.733.733,0,1,0,0-1.465" fill="#4dd0e1"/>
    <path id="Path_204126" data-name="Path 204126" d="M36.662,39.641h-1.14a.733.733,0,1,0,0,1.465h1.14a.733.733,0,0,0,0-1.465" fill="#4dd0e1"/>
    <path id="Path_204127" data-name="Path 204127" d="M46.831,0H3.225A3.229,3.229,0,0,0,0,3.225V38.67a3.228,3.228,0,0,0,3.225,3.224H5.981a.733.733,0,1,0,0-1.465H3.225A1.761,1.761,0,0,1,1.466,38.67V35.891H28.154v1.262h-.58a1.443,1.443,0,0,0-1.441,1.441v1.835h-15.7a.733.733,0,0,0,0,1.465h7.044v2.627H15.267A2.679,2.679,0,0,0,12.591,47.2V48.78A1.222,1.222,0,0,0,13.812,50H36.187a1.221,1.221,0,0,0,1.221-1.22V47.2a2.679,2.679,0,0,0-2.676-2.676H32.52V43.6H46.063A1.442,1.442,0,0,0,47.5,42.154v-.345A3.227,3.227,0,0,0,50,38.67l.055-35.446A3.227,3.227,0,0,0,46.831,0M27.6,30.635H46.039v3.511H27.6Zm2.021-3.006h14.4V29.17h-14.4Zm14.4,9.524h-14.4V35.611h14.4ZM18.944,41.894h7.189v.261a1.442,1.442,0,0,0,1.441,1.44h3.482v.926H18.944Zm15.789,4.092a1.212,1.212,0,0,1,1.21,1.211v1.339H14.056V47.2a1.212,1.212,0,0,1,1.211-1.211ZM46.039,42.13H27.6V38.619H46.039Zm2.495-3.46a1.761,1.761,0,0,1-1.03,1.6V38.594a1.443,1.443,0,0,0-1.441-1.441h-.581V35.891h3.052Zm0-4.244H47.48c.015-.083.024-3.815.024-3.815a1.442,1.442,0,0,0-1.441-1.441h-.581V27.629h.581A1.443,1.443,0,0,0,47.5,26.188v-3.56a1.442,1.442,0,0,0-1.441-1.441H41.926a.733.733,0,1,0,0,1.465h4.113v3.512H27.6V22.652h9.769a.733.733,0,1,0,0-1.465H27.574a1.442,1.442,0,0,0-1.441,1.441v3.56a1.443,1.443,0,0,0,1.441,1.441h.58V29.17h-.58a1.443,1.443,0,0,0-1.441,1.441s.009,3.732.024,3.815H1.466V9.965H48.534Zm0-25.926H1.52V3.224A1.761,1.761,0,0,1,3.279,1.466h43.5a1.761,1.761,0,0,1,1.759,1.759Z" fill="#4dd0e1"/>
    <path id="Path_204128" data-name="Path 204128" d="M5.4,2.812a2.15,2.15,0,1,0,2.15,2.149A2.152,2.152,0,0,0,5.4,2.812m0,2.834a.685.685,0,1,1,.685-.685.686.686,0,0,1-.685.685" fill="#4dd0e1"/>
    <path id="Path_204129" data-name="Path 204129" d="M10.876,2.812a2.15,2.15,0,1,0,2.15,2.149,2.152,2.152,0,0,0-2.15-2.149m0,2.834a.685.685,0,1,1,.685-.685.685.685,0,0,1-.685.685" fill="#4dd0e1"/>
    <path id="Path_204130" data-name="Path 204130" d="M16.349,2.812A2.15,2.15,0,1,0,18.5,4.961a2.152,2.152,0,0,0-2.15-2.149m0,2.834a.685.685,0,1,1,.685-.685.686.686,0,0,1-.685.685" fill="#4dd0e1"/>
  </g>
</svg>
