<svg id="_9" data-name="9" xmlns="http://www.w3.org/2000/svg" xmlns:xlink="http://www.w3.org/1999/xlink" width="50" height="50" viewBox="0 0 50 50">
  <defs>
    <clipPath id="clip-path">
      <rect id="Rectangle_45291" data-name="Rectangle 45291" width="50" height="50" fill="#4dd0e1"/>
    </clipPath>
  </defs>
  <g id="Group_147206" data-name="Group 147206" clip-path="url(#clip-path)">
    <path id="Path_206217" data-name="Path 206217" d="M47.5,0H2.5A2.5,2.5,0,0,0,0,2.5V44.167a2.5,2.5,0,0,0,2.5,2.5h20V47.5a2.5,2.5,0,0,0,5,0v-.833h20a2.5,2.5,0,0,0,2.5-2.5V2.5A2.5,2.5,0,0,0,47.5,0M25.833,47.5a.834.834,0,0,1-1.667,0V41.667h1.667Zm-11.667-25v3.458a11.555,11.555,0,0,1-.833-4.291,10.969,10.969,0,0,1,.092-1.392A2.5,2.5,0,0,0,17.5,18.333V16.667a2.509,2.509,0,0,0-1.559-2.317,11.667,11.667,0,0,1,18.167,0A2.5,2.5,0,0,0,32.5,16.667v1.666a2.5,2.5,0,0,0,4.075,1.925,10.882,10.882,0,0,1,.091,1.409,11.563,11.563,0,0,1-.833,4.308V22.5H34.166v6.342a11.669,11.669,0,0,1-18.333,0V22.5Zm0-4.167v-.975a11.553,11.553,0,0,1,.734-1.525.847.847,0,0,1,.933.834v1.666a.834.834,0,1,1-1.667,0m20,0V16.667a.834.834,0,0,1,.827-.841.888.888,0,0,1,.115.007,12.549,12.549,0,0,1,.725,1.5v1a.834.834,0,1,1-1.667,0M48.333,44.167A.833.833,0,0,1,47.5,45h-20V40.833A.833.833,0,0,0,26.666,40h-.833V35a13.208,13.208,0,0,0,6.892-2.5H46.666V30.833H34.641A12.851,12.851,0,0,0,36,29.167H46.666V27.5h-9.7a14.548,14.548,0,0,0,.684-1.667h9.016V24.167H38.091a13.579,13.579,0,0,0,.242-1.667h8.333V20.833H38.333a13.524,13.524,0,0,0-.2-1.666h8.533V17.5h-9a12.891,12.891,0,0,0-.691-1.667h9.691V14.167H36.025a13.03,13.03,0,0,0-1.35-1.667H46.666V10.833h-13.9a13.241,13.241,0,0,0-15.533,0H3.333V12.5H15.325a12.86,12.86,0,0,0-1.35,1.667H3.333v1.666h9.692a12.757,12.757,0,0,0-.692,1.667h-9v1.667h8.575a13.524,13.524,0,0,0-.2,1.666H3.333V22.5h8.375a13.54,13.54,0,0,0,.2,1.667H3.333v1.666H12.35a14.542,14.542,0,0,0,.683,1.667h-9.7v1.667H14a12.844,12.844,0,0,0,1.358,1.666H3.333V32.5H17.275A13.2,13.2,0,0,0,24.166,35v5h-.833a.833.833,0,0,0-.833.833V45H2.5a.833.833,0,0,1-.834-.833V6.667H48.333ZM48.333,5H1.666V2.5A.833.833,0,0,1,2.5,1.667h45a.833.833,0,0,1,.833.833Z" fill="#4dd0e1"/>
    <rect id="Rectangle_45285" data-name="Rectangle 45285" width="1.667" height="1.667" transform="translate(3.333 2.5)" fill="#4dd0e1"/>
    <rect id="Rectangle_45286" data-name="Rectangle 45286" width="1.667" height="1.667" transform="translate(6.667 2.5)" fill="#4dd0e1"/>
    <rect id="Rectangle_45287" data-name="Rectangle 45287" width="1.667" height="1.667" transform="translate(10 2.5)" fill="#4dd0e1"/>
    <rect id="Rectangle_45288" data-name="Rectangle 45288" width="1.667" height="6.667" transform="translate(19.167 14.183)" fill="#4dd0e1"/>
    <rect id="Rectangle_45289" data-name="Rectangle 45289" width="1.667" height="6.667" transform="translate(29.167 14.183)" fill="#4dd0e1"/>
    <path id="Path_206218" data-name="Path 206218" d="M25,20.834a2.5,2.5,0,0,0,2.5-2.5V16.667a2.5,2.5,0,1,0-5,0v1.667a2.5,2.5,0,0,0,2.5,2.5m-.833-4.167a.834.834,0,0,1,1.667,0v1.667a.834.834,0,0,1-1.667,0Z" fill="#4dd0e1"/>
    <rect id="Rectangle_45290" data-name="Rectangle 45290" width="1.667" height="6.667" transform="translate(24.167 22.517)" fill="#4dd0e1"/>
    <path id="Path_206219" data-name="Path 206219" d="M20,29.167a2.5,2.5,0,0,0,2.5-2.5V25a2.5,2.5,0,0,0-5,0v1.667a2.5,2.5,0,0,0,2.5,2.5M19.167,25a.834.834,0,0,1,1.667,0v1.667a.834.834,0,0,1-1.667,0Z" fill="#4dd0e1"/>
    <path id="Path_206220" data-name="Path 206220" d="M27.5,26.667a2.5,2.5,0,0,0,5,0V25a2.5,2.5,0,0,0-5,0ZM29.167,25a.834.834,0,0,1,1.667,0v1.667a.834.834,0,0,1-1.667,0Z" fill="#4dd0e1"/>
    <path id="Path_206221" data-name="Path 206221" d="M15.242,43.092l1.183-1.183-2.75-2.742,2.75-2.742-1.183-1.183-3.333,3.333a.834.834,0,0,0-.005,1.179l.005,0Z" fill="#4dd0e1"/>
    <path id="Path_206222" data-name="Path 206222" d="M34.758,35.242l-1.183,1.183,2.75,2.742-2.75,2.742,1.183,1.183,3.333-3.333A.834.834,0,0,0,38.1,38.58l-.005-.005Z" fill="#4dd0e1"/>
  </g>
</svg>
